<svg xmlns="http://www.w3.org/2000/svg" xmlns:xlink="http://www.w3.org/1999/xlink" width="174.14" height="156.38" viewBox="0 0 174.14 156.38">
  <defs>
    <linearGradient id="linear-gradient" y1="0.5" x2="1" y2="0.5" gradientUnits="objectBoundingBox">
      <stop offset="0" stop-color="#f9edbc"/>
      <stop offset="0.458" stop-color="#bf8d34"/>
      <stop offset="1" stop-color="#e0b14e"/>
    </linearGradient>
    <linearGradient id="linear-gradient-2" x1="0" y1="0.5" x2="1" y2="0.5" xlink:href="#linear-gradient"/>
    <linearGradient id="linear-gradient-4" x1="0.502" y1="0" x2="0.502" y2="1.001" xlink:href="#linear-gradient"/>
    <linearGradient id="linear-gradient-5" x1="0.499" y1="0" x2="0.499" y2="1" xlink:href="#linear-gradient"/>
    <linearGradient id="linear-gradient-6" x1="0.5" y1="-0.001" x2="0.5" y2="0.999" xlink:href="#linear-gradient"/>
    <linearGradient id="linear-gradient-7" x1="0.5" y1="0" x2="0.5" y2="1" xlink:href="#linear-gradient"/>
    <linearGradient id="linear-gradient-8" x1="0.5" y1="0" x2="0.5" y2="1.001" xlink:href="#linear-gradient"/>
    <linearGradient id="linear-gradient-9" x1="0.499" y1="0" x2="0.499" y2="1" xlink:href="#linear-gradient"/>
    <linearGradient id="linear-gradient-10" x1="0.5" y1="0" x2="0.5" y2="1" xlink:href="#linear-gradient"/>
    <linearGradient id="linear-gradient-11" x1="0.5" y1="0" x2="0.5" y2="1" xlink:href="#linear-gradient"/>
    <linearGradient id="linear-gradient-12" x1="0.501" y1="0" x2="0.501" y2="1.002" xlink:href="#linear-gradient"/>
    <linearGradient id="linear-gradient-13" x1="0.499" y1="0" x2="0.499" y2="1" xlink:href="#linear-gradient"/>
    <linearGradient id="linear-gradient-14" x1="0.5" y1="0" x2="0.5" y2="1.001" xlink:href="#linear-gradient"/>
    <linearGradient id="linear-gradient-15" x1="0.5" y1="0" x2="0.5" y2="1.001" xlink:href="#linear-gradient"/>
    <linearGradient id="linear-gradient-16" x1="0.499" y1="0.001" x2="0.499" y2="1.001" xlink:href="#linear-gradient"/>
    <linearGradient id="linear-gradient-17" x1="0.5" y1="0" x2="0.5" y2="0.999" xlink:href="#linear-gradient"/>
    <linearGradient id="linear-gradient-18" x1="0.5" y1="0" x2="0.5" y2="1.002" xlink:href="#linear-gradient"/>
    <linearGradient id="linear-gradient-19" x1="0.5" y1="0" x2="0.5" y2="1" xlink:href="#linear-gradient"/>
    <linearGradient id="linear-gradient-20" x1="0.5" y1="0" x2="0.5" y2="1.001" xlink:href="#linear-gradient"/>
    <linearGradient id="linear-gradient-21" x1="0.5" y1="0" x2="0.5" y2="1" xlink:href="#linear-gradient"/>
    <linearGradient id="linear-gradient-22" x1="0.5" y1="0" x2="0.5" y2="1" xlink:href="#linear-gradient"/>
    <linearGradient id="linear-gradient-23" x1="0.5" y1="0" x2="0.5" y2="0.999" xlink:href="#linear-gradient"/>
    <linearGradient id="linear-gradient-24" x1="0.5" y1="0" x2="0.5" y2="1" xlink:href="#linear-gradient"/>
    <linearGradient id="linear-gradient-25" x1="0.5" y1="0.001" x2="0.5" y2="1.002" xlink:href="#linear-gradient"/>
    <linearGradient id="linear-gradient-26" x1="0.5" y1="0" x2="0.5" y2="0.999" xlink:href="#linear-gradient"/>
    <linearGradient id="linear-gradient-27" x1="0.5" y1="0.001" x2="0.5" y2="1.002" xlink:href="#linear-gradient"/>
    <linearGradient id="linear-gradient-28" x1="0.501" y1="0" x2="0.501" y2="1" xlink:href="#linear-gradient"/>
    <linearGradient id="linear-gradient-29" x1="0.5" y1="0" x2="0.5" y2="0.999" xlink:href="#linear-gradient"/>
    <linearGradient id="linear-gradient-30" x1="0.5" y1="0" x2="0.5" y2="0.999" xlink:href="#linear-gradient"/>
    <linearGradient id="linear-gradient-31" x1="0.5" y1="-0.001" x2="0.5" y2="0.999" xlink:href="#linear-gradient"/>
    <linearGradient id="linear-gradient-32" x1="0.499" y1="0" x2="0.499" y2="1" xlink:href="#linear-gradient"/>
    <linearGradient id="linear-gradient-33" x1="0.5" y1="-0.001" x2="0.5" y2="0.998" xlink:href="#linear-gradient"/>
    <linearGradient id="linear-gradient-34" x1="0.499" y1="0" x2="0.499" y2="1" xlink:href="#linear-gradient"/>
    <linearGradient id="linear-gradient-35" x1="0.5" y1="-0.001" x2="0.5" y2="1" xlink:href="#linear-gradient"/>
    <linearGradient id="linear-gradient-36" x1="0.499" y1="0" x2="0.499" y2="1.001" xlink:href="#linear-gradient"/>
    <linearGradient id="linear-gradient-37" x1="0.5" y1="-0.001" x2="0.5" y2="0.999" xlink:href="#linear-gradient"/>
    <linearGradient id="linear-gradient-38" x1="0.499" y1="0" x2="0.499" y2="1" xlink:href="#linear-gradient"/>
    <linearGradient id="linear-gradient-39" x1="0.5" y1="0" x2="0.5" y2="0.999" xlink:href="#linear-gradient"/>
    <linearGradient id="linear-gradient-40" x1="0.501" y1="0.001" x2="0.501" y2="1" xlink:href="#linear-gradient"/>
    <linearGradient id="linear-gradient-41" x1="0.498" y1="0" x2="0.498" y2="1.001" xlink:href="#linear-gradient"/>
    <linearGradient id="linear-gradient-42" x1="0.501" y1="0" x2="0.501" y2="1" xlink:href="#linear-gradient"/>
    <linearGradient id="linear-gradient-43" x1="0.5" y1="-0.001" x2="0.5" y2="0.999" xlink:href="#linear-gradient"/>
    <linearGradient id="linear-gradient-44" x1="0.5" y1="0" x2="0.5" y2="1" xlink:href="#linear-gradient"/>
    <linearGradient id="linear-gradient-45" x1="0.5" y1="0" x2="0.5" y2="1.001" xlink:href="#linear-gradient"/>
    <linearGradient id="linear-gradient-46" x1="0.501" y1="0" x2="0.501" y2="1" xlink:href="#linear-gradient"/>
    <linearGradient id="linear-gradient-47" x1="0.5" y1="0" x2="0.5" y2="1" xlink:href="#linear-gradient"/>
    <linearGradient id="linear-gradient-48" x1="0.5" y1="0" x2="0.5" y2="1" xlink:href="#linear-gradient"/>
    <linearGradient id="linear-gradient-49" x1="0.499" y1="0" x2="0.499" y2="1.002" xlink:href="#linear-gradient"/>
    <linearGradient id="linear-gradient-50" x1="0.501" y1="0" x2="0.501" y2="1" xlink:href="#linear-gradient"/>
    <linearGradient id="linear-gradient-51" x1="0.5" y1="0" x2="0.5" y2="1.001" xlink:href="#linear-gradient"/>
    <linearGradient id="linear-gradient-52" x1="0.5" y1="0" x2="0.5" y2="1.001" xlink:href="#linear-gradient"/>
    <linearGradient id="linear-gradient-53" x1="0.501" y1="0.001" x2="0.501" y2="1.001" xlink:href="#linear-gradient"/>
    <linearGradient id="linear-gradient-54" x1="0.5" y1="0" x2="0.5" y2="0.999" xlink:href="#linear-gradient"/>
    <linearGradient id="linear-gradient-55" x1="0.5" y1="0" x2="0.5" y2="1.002" xlink:href="#linear-gradient"/>
    <linearGradient id="linear-gradient-56" x1="0.5" y1="0" x2="0.5" y2="1" xlink:href="#linear-gradient"/>
    <linearGradient id="linear-gradient-57" x1="0.5" y1="0" x2="0.5" y2="1.001" xlink:href="#linear-gradient"/>
    <linearGradient id="linear-gradient-58" x1="0.5" y1="0" x2="0.5" y2="1" xlink:href="#linear-gradient"/>
    <linearGradient id="linear-gradient-59" x1="0.5" y1="0" x2="0.5" y2="1" xlink:href="#linear-gradient"/>
    <linearGradient id="linear-gradient-60" x1="0.5" y1="0" x2="0.5" y2="0.999" xlink:href="#linear-gradient"/>
    <linearGradient id="linear-gradient-61" x1="0.5" y1="0" x2="0.5" y2="1" xlink:href="#linear-gradient"/>
    <linearGradient id="linear-gradient-62" x1="0.5" y1="0.001" x2="0.5" y2="1.002" xlink:href="#linear-gradient"/>
    <linearGradient id="linear-gradient-63" x1="0.5" y1="0" x2="0.5" y2="0.999" xlink:href="#linear-gradient"/>
    <linearGradient id="linear-gradient-64" x1="0.5" y1="0.001" x2="0.5" y2="1.002" xlink:href="#linear-gradient"/>
    <linearGradient id="linear-gradient-65" x1="0.499" y1="0" x2="0.499" y2="1" xlink:href="#linear-gradient"/>
    <linearGradient id="linear-gradient-66" x1="0.5" y1="0" x2="0.5" y2="0.999" xlink:href="#linear-gradient"/>
    <linearGradient id="linear-gradient-67" x1="0.5" y1="0" x2="0.5" y2="0.999" xlink:href="#linear-gradient"/>
    <linearGradient id="linear-gradient-68" x1="0.5" y1="-0.001" x2="0.5" y2="0.999" xlink:href="#linear-gradient"/>
    <linearGradient id="linear-gradient-69" x1="0.501" y1="0" x2="0.501" y2="1" xlink:href="#linear-gradient"/>
    <linearGradient id="linear-gradient-70" x1="0.5" y1="-0.001" x2="0.5" y2="0.998" xlink:href="#linear-gradient"/>
    <linearGradient id="linear-gradient-71" x1="0.501" y1="0" x2="0.501" y2="1" xlink:href="#linear-gradient"/>
    <linearGradient id="linear-gradient-72" x1="0.5" y1="-0.001" x2="0.5" y2="1" xlink:href="#linear-gradient"/>
    <linearGradient id="linear-gradient-73" x1="0.501" y1="0" x2="0.501" y2="1.001" xlink:href="#linear-gradient"/>
    <linearGradient id="linear-gradient-75" x1="0.501" y1="0" x2="0.501" y2="1" xlink:href="#linear-gradient"/>
    <linearGradient id="linear-gradient-76" x1="0.5" y1="0" x2="0.5" y2="0.999" xlink:href="#linear-gradient"/>
    <linearGradient id="linear-gradient-77" x1="0.499" y1="0.001" x2="0.499" y2="1" xlink:href="#linear-gradient"/>
    <linearGradient id="linear-gradient-78" x1="0.5" y1="0" x2="0.5" y2="1" xlink:href="#linear-gradient"/>
    <linearGradient id="linear-gradient-79" x1="0" y1="0.5" x2="1" y2="0.5" xlink:href="#linear-gradient"/>
    <linearGradient id="linear-gradient-80" x1="0" y1="0.5" x2="1.001" y2="0.5" xlink:href="#linear-gradient"/>
    <linearGradient id="linear-gradient-81" x1="0.001" y1="0.5" x2="0.999" y2="0.5" xlink:href="#linear-gradient"/>
    <linearGradient id="linear-gradient-82" x1="0" y1="0.5" x2="1" y2="0.5" xlink:href="#linear-gradient"/>
    <linearGradient id="linear-gradient-83" x1="0.001" y1="0.5" x2="1" y2="0.5" xlink:href="#linear-gradient"/>
    <linearGradient id="linear-gradient-84" x1="0" y1="0.5" x2="1" y2="0.5" xlink:href="#linear-gradient"/>
    <linearGradient id="linear-gradient-85" x1="0.003" y1="0.5" x2="0.998" y2="0.5" xlink:href="#linear-gradient"/>
    <linearGradient id="linear-gradient-86" x1="0" y1="0.501" x2="1" y2="0.501" xlink:href="#linear-gradient"/>
    <linearGradient id="linear-gradient-87" x1="0" y1="0.499" x2="1" y2="0.499" xlink:href="#linear-gradient"/>
    <linearGradient id="linear-gradient-88" x1="0" y1="0.5" x2="1" y2="0.5" xlink:href="#linear-gradient"/>
    <linearGradient id="linear-gradient-89" x1="-0.001" y1="0.5" x2="1" y2="0.5" xlink:href="#linear-gradient"/>
  </defs>
  <g id="product-category-2017" transform="translate(516 -408)">
    <path id="Path_699" data-name="Path 699" d="M126.52,164.24a69.56,69.56,0,1,1,69.56-69.56A69.639,69.639,0,0,1,126.52,164.24Zm0-138.26a68.7,68.7,0,1,0,68.7,68.7A68.779,68.779,0,0,0,126.52,25.98Z" transform="translate(-553.93 392.46)" fill="url(#linear-gradient)"/>
    <path id="Path_700" data-name="Path 700" d="M126.52,151c-.26,0-.52,0-.78-.01l.01-.81c.54.01,1.07.01,1.61,0l.01.81C127.09,150.99,126.8,151,126.52,151Zm-2.41-.05c-.54-.02-1.09-.05-1.63-.09l.06-.81c.53.04,1.07.07,1.6.09Zm4.88-.01-.03-.81c.54-.02,1.07-.05,1.6-.09l.06.81C130.08,150.89,129.54,150.92,128.99,150.94Zm-8.13-.22q-.81-.075-1.62-.18l.1-.8c.53.07,1.06.13,1.6.18Zm11.38-.01-.08-.8c.53-.05,1.07-.11,1.6-.18l.1.8Q133.05,150.635,132.24,150.71Zm-14.61-.4c-.54-.08-1.07-.18-1.61-.27l.15-.79c.53.1,1.05.19,1.58.27Zm17.84-.01-.13-.8c.53-.08,1.06-.17,1.58-.27l.15.79C136.55,150.12,136.01,150.22,135.47,150.3Zm-21.04-.58c-.53-.11-1.06-.24-1.59-.37l.19-.78c.52.13,1.04.25,1.57.36Zm24.25-.02-.17-.79q.78-.165,1.56-.36l.19.78C139.74,149.46,139.21,149.59,138.68,149.7Zm-27.42-.76c-.52-.15-1.05-.3-1.56-.46l.24-.77c.51.16,1.03.31,1.54.45Zm30.58-.02-.22-.78c.52-.14,1.03-.29,1.54-.45l.24.77C142.88,148.62,142.36,148.78,141.84,148.92Zm-33.69-.94c-.52-.18-1.03-.36-1.54-.55l.28-.76c.5.19,1.01.37,1.52.54Zm36.8-.02-.26-.76c.51-.17,1.01-.35,1.51-.54l.28.76C145.98,147.6,145.47,147.79,144.95,147.96Zm-39.87-1.12c-.51-.21-1.01-.42-1.51-.63l.32-.74c.49.22.99.42,1.48.63Zm42.92-.02-.3-.75c.5-.2.99-.41,1.47-.62l.32.74C149,146.41,148.51,146.62,148,146.82Zm-45.91-1.29q-.735-.345-1.47-.72l.37-.72c.48.24.96.48,1.44.71Zm48.89-.02-.35-.73c.48-.23.96-.47,1.44-.71l.37.72C151.95,145.04,151.47,145.28,150.98,145.51Zm-51.8-1.46c-.48-.26-.95-.53-1.42-.8l.41-.7c.46.27.93.53,1.4.79Zm54.69-.01-.39-.71c.47-.26.93-.52,1.39-.79l.41.7C154.82,143.51,154.35,143.78,153.87,144.04ZM96.36,142.4c-.46-.29-.92-.58-1.37-.88l.45-.67q.675.45,1.35.87Zm60.32,0-.43-.69q.675-.42,1.35-.87l.45.67C157.59,141.82,157.14,142.11,156.68,142.4Zm2.71-1.8-.47-.66c.44-.31.87-.62,1.3-.94l.48.65C160.27,139.97,159.83,140.29,159.39,140.6Zm-65.74,0q-.66-.465-1.32-.96l.48-.65c.43.32.86.64,1.3.95Zm68.34-1.95-.5-.63c.42-.33.83-.67,1.24-1.02l.52.62C162.84,137.96,162.42,138.31,161.99,138.65Zm-70.95-.01c-.43-.34-.85-.68-1.26-1.03l.52-.62c.41.35.82.68,1.24,1.02Zm73.44-2.09-.54-.6c.4-.36.79-.72,1.18-1.09l.56.59C165.28,135.82,164.88,136.19,164.48,136.55Zm-75.93-.01c-.41-.36-.8-.73-1.2-1.1l.56-.59c.39.37.78.73,1.18,1.09Zm78.29-2.23-.57-.57c.38-.38.75-.76,1.12-1.15l.59.55Q167.425,133.74,166.84,134.31Zm-80.66-.01c-.38-.38-.76-.77-1.13-1.17l.59-.55c.37.39.74.77,1.12,1.15Zm82.9-2.36-.6-.54c.36-.4.71-.8,1.05-1.21l.62.52C169.8,131.12,169.44,131.54,169.08,131.94Zm-85.13-.02c-.36-.41-.72-.82-1.06-1.23l.62-.52c.34.41.69.81,1.05,1.22Zm87.22-2.48-.63-.5c.33-.42.66-.84.98-1.27l.65.48C171.84,128.59,171.51,129.02,171.17,129.44Zm-89.32-.01q-.51-.645-.99-1.29l.65-.48c.32.43.65.85.98,1.27Zm91.27-2.6-.66-.46c.31-.44.61-.88.9-1.33l.67.44C173.74,125.94,173.44,126.39,173.12,126.83Zm-93.21-.01c-.31-.44-.62-.89-.91-1.35l.67-.44c.29.45.59.89.9,1.33Zm95.01-2.71-.69-.42c.28-.46.56-.92.83-1.38l.7.4C175.49,123.18,175.21,123.65,174.92,124.11Zm-96.8-.01c-.29-.46-.56-.93-.84-1.4l.7-.4c.27.46.54.92.82,1.38Zm-1.63-2.81q-.39-.72-.75-1.44l.72-.36c.24.48.49.95.74,1.42Zm100.06,0-.71-.38c.25-.47.5-.95.75-1.43l.72.36C177.07,120.33,176.81,120.81,176.55,121.29Zm-101.53-2.9c-.23-.49-.45-.98-.67-1.48l.74-.32c.21.49.43.98.66,1.46Zm103-.02-.73-.34c.23-.49.45-.97.66-1.47l.74.32C178.48,117.38,178.26,117.88,178.02,118.37ZM73.73,115.41c-.2-.5-.39-1.01-.58-1.52l.76-.28q.27.75.57,1.5Zm105.59-.04-.75-.3q.3-.75.57-1.5l.76.28C179.72,114.36,179.52,114.87,179.32,115.37ZM72.61,112.35c-.17-.51-.34-1.03-.49-1.55l.77-.23c.15.51.32,1.02.48,1.53Zm107.83-.05-.77-.25c.17-.51.33-1.02.48-1.54l.77.23C180.78,111.27,180.61,111.79,180.44,112.3ZM71.67,109.23c-.14-.52-.27-1.05-.4-1.58l.79-.19c.12.52.26,1.04.39,1.56Zm109.71-.05-.78-.21q.21-.78.39-1.56l.79.19C181.65,108.13,181.52,108.65,181.38,109.18ZM70.92,106.06c-.11-.53-.21-1.06-.31-1.6l.79-.14c.09.53.19,1.05.3,1.58Zm111.21-.05-.79-.16c.11-.52.21-1.05.3-1.58l.79.14C182.34,104.94,182.24,105.48,182.13,106.01ZM70.36,102.85c-.08-.54-.15-1.07-.21-1.61l.8-.09q.09.795.21,1.59Zm112.33-.05-.8-.12q.12-.795.21-1.59l.8.09Q182.81,101.99,182.69,102.8ZM69.98,99.61q-.075-.81-.12-1.62l.81-.05c.03.54.07,1.07.12,1.6Zm113.09-.05-.8-.07c.05-.53.08-1.07.12-1.6l.81.05C183.15,98.48,183.11,99.02,183.07,99.56ZM69.79,96.36c-.02-.54-.02-1.08-.02-1.63h.81c0,.54.01,1.07.02,1.61Zm113.46-.05-.81-.02c.02-.53.02-1.07.02-1.61v-.1h.81v.1C183.28,95.22,183.27,95.77,183.25,96.31ZM70.59,93.12l-.81-.02c.02-.54.04-1.09.07-1.63l.81.04C70.63,92.05,70.61,92.59,70.59,93.12Zm111.85-.14c-.02-.54-.04-1.07-.07-1.6l.81-.05c.03.54.06,1.08.07,1.63ZM70.77,89.92l-.8-.07c.05-.54.1-1.08.16-1.62l.8.09C70.87,88.85,70.82,89.38,70.77,89.92Zm111.48-.15c-.05-.54-.1-1.07-.16-1.6l.8-.09c.06.54.12,1.08.17,1.62ZM71.14,86.73l-.8-.12c.08-.54.16-1.08.26-1.61l.79.14C71.3,85.67,71.22,86.2,71.14,86.73Zm110.74-.15c-.08-.53-.16-1.06-.26-1.58l.79-.14c.09.53.18,1.07.26,1.61ZM71.69,83.56l-.79-.16c.11-.53.23-1.06.35-1.59l.79.19C71.92,82.52,71.8,83.04,71.69,83.56Zm109.63-.14c-.11-.52-.23-1.05-.35-1.57l.79-.19c.13.53.24,1.06.35,1.59ZM72.43,80.44l-.78-.21c.14-.53.29-1.05.44-1.57l.77.23C72.71,79.4,72.57,79.92,72.43,80.44Zm108.14-.14c-.14-.52-.29-1.03-.44-1.54l.77-.23c.16.52.31,1.04.45,1.57ZM73.35,77.36l-.77-.25c.17-.52.35-1.03.54-1.54l.76.28C73.69,76.34,73.52,76.85,73.35,77.36Zm106.3-.14c-.17-.51-.35-1.01-.53-1.52l.76-.28c.19.51.37,1.02.54,1.54ZM74.45,74.33l-.75-.3c.2-.51.41-1.01.63-1.51l.74.32C74.85,73.33,74.65,73.83,74.45,74.33Zm104.09-.12c-.2-.5-.4-.99-.62-1.48l.74-.32c.22.5.42,1,.62,1.5ZM75.73,71.37,75,71.03c.23-.49.47-.98.71-1.47l.72.36C76.19,70.41,75.95,70.89,75.73,71.37Zm101.53-.1c-.23-.48-.46-.96-.7-1.44l.72-.36c.24.48.48.97.71,1.46ZM77.17,68.5l-.71-.38c.26-.48.52-.95.8-1.42l.7.4C77.69,67.56,77.43,68.03,77.17,68.5Zm98.65-.09c-.26-.47-.52-.94-.78-1.4l.7-.41c.27.47.54.94.8,1.42ZM78.78,65.72l-.69-.42c.29-.46.58-.92.88-1.37l.68.44Q79.2,65.03,78.78,65.72Zm95.43-.08c-.28-.45-.57-.9-.86-1.35l.67-.44c.3.45.59.91.88,1.37ZM80.55,63.03l-.66-.46c.31-.45.63-.89.95-1.32l.65.48C81.17,62.16,80.86,62.59,80.55,63.03Zm91.89-.07c-.31-.44-.62-.87-.94-1.3l.65-.48q.48.645.96,1.32ZM82.47,60.45l-.63-.5c.34-.43.68-.85,1.03-1.26l.62.52C83.14,59.62,82.8,60.03,82.47,60.45Zm88.05-.06c-.33-.42-.67-.83-1.02-1.24l.62-.52c.35.42.69.84,1.03,1.26Zm-85.99-2.4-.6-.54c.36-.41.73-.81,1.1-1.2l.59.55C85.25,57.2,84.89,57.59,84.53,57.99Zm83.93-.05c-.36-.4-.72-.79-1.09-1.18l.59-.55c.37.4.74.8,1.1,1.2ZM86.73,55.65l-.57-.57q.57-.57,1.17-1.14l.56.59C87.49,54.9,87.11,55.27,86.73,55.65Zm79.52-.05c-.38-.38-.76-.75-1.15-1.12l.56-.59q.585.555,1.17,1.14ZM89.06,53.45l-.54-.6c.4-.36.81-.72,1.23-1.07l.52.62C89.86,52.74,89.46,53.09,89.06,53.45Zm74.86-.06c-.4-.36-.8-.71-1.21-1.05l.52-.62c.42.35.83.71,1.23,1.07ZM91.51,51.38l-.5-.63c.42-.34.85-.67,1.29-1l.48.65C92.35,50.71,91.93,51.04,91.51,51.38Zm69.95-.06c-.42-.33-.84-.66-1.27-.98l.48-.65c.44.33.87.66,1.29,1ZM94.08,49.45l-.47-.66c.44-.31.89-.62,1.34-.92l.45.67C94.95,48.84,94.51,49.14,94.08,49.45Zm64.81-.05c-.44-.31-.88-.61-1.33-.91l.45-.67c.45.3.9.61,1.35.92ZM96.75,47.67l-.43-.68c.46-.29.92-.57,1.39-.84l.41.7C97.66,47.11,97.2,47.39,96.75,47.67Zm59.46-.05c-.45-.28-.91-.56-1.38-.83l.41-.7c.47.27.94.55,1.4.84Zm-56.7-1.57-.39-.71c.47-.26.95-.51,1.44-.76l.37.72C100.45,45.55,99.98,45.8,99.51,46.05ZM153.43,46c-.47-.26-.95-.51-1.42-.75l.37-.72c.48.25.97.5,1.44.76Zm-51.07-1.4-.35-.73c.49-.23.98-.46,1.48-.68l.33.74C103.33,44.14,102.85,44.37,102.36,44.6Zm48.2-.06c-.48-.23-.97-.45-1.47-.67l.32-.74c.5.22,1,.44,1.49.68ZM105.29,43.3l-.3-.75c.5-.2,1.01-.4,1.52-.59l.28.76C106.29,42.91,105.79,43.1,105.29,43.3Zm42.32-.05c-.5-.2-1-.39-1.5-.58l.28-.76c.51.19,1.02.39,1.52.59ZM108.3,42.18l-.26-.76c.51-.18,1.03-.34,1.55-.5l.24.77C109.32,41.84,108.81,42.01,108.3,42.18Zm36.29-.05c-.51-.17-1.02-.34-1.53-.49l.24-.77c.52.16,1.04.33,1.55.5Zm-33.22-.9-.22-.78c.52-.15,1.05-.28,1.58-.41l.19.78C112.4,40.95,111.88,41.09,111.37,41.23Zm30.15-.04c-.51-.14-1.03-.28-1.55-.4l.19-.78c.53.13,1.05.27,1.58.41Zm-27.03-.73-.17-.79c.53-.12,1.06-.22,1.6-.32l.15.79C115.53,40.24,115.01,40.34,114.49,40.46Zm23.91-.04c-.52-.11-1.05-.22-1.58-.31l.15-.79c.54.1,1.07.21,1.6.32Zm-20.76-.56-.13-.8c.54-.08,1.07-.16,1.61-.23l.1.8C118.7,39.71,118.17,39.78,117.64,39.86Zm17.6-.02c-.53-.08-1.06-.16-1.59-.22l.1-.8c.54.07,1.08.14,1.61.23Zm-14.41-.39-.08-.8c.54-.05,1.08-.1,1.62-.14l.06.81C121.89,39.35,121.36,39.4,120.83,39.45Zm11.22-.01c-.53-.05-1.06-.1-1.6-.13l.06-.81c.54.04,1.08.08,1.62.14Zm-8.02-.22-.03-.8c.54-.02,1.08-.04,1.63-.05l.01.81C125.1,39.19,124.56,39.2,124.03,39.22Zm4.82,0c-.53-.02-1.07-.04-1.6-.04l.01-.81c.54.01,1.09.02,1.63.04Z" transform="translate(-553.77 392.63)" fill="url(#linear-gradient-2)"/>
    <path id="Path_701" data-name="Path 701" d="M126.52,156.61a61.93,61.93,0,1,1,61.93-61.93A62,62,0,0,1,126.52,156.61Zm0-120.63a58.7,58.7,0,1,0,58.7,58.7A58.769,58.769,0,0,0,126.52,35.98Z" transform="translate(-553.59 392.25)" fill="url(#linear-gradient)"/>
    <g id="Group_352" data-name="Group 352">
      <path id="Path_624" data-name="Path 624" d="M95.61,157.79a9.325,9.325,0,0,0,.08,5.27c.88,2.15,2.11,3.69,2.95,3.62a35.118,35.118,0,0,1-2.3-6.57,55.226,55.226,0,0,1,2.77,6.38c.65-.54.45-2.49-.43-4.65A18.068,18.068,0,0,0,95.61,157.79Z" transform="translate(-553.93 392.46)" fill="url(#linear-gradient-4)"/>
      <path id="Path_625" data-name="Path 625" d="M86.76,146.99s-1.87,4.83-.63,8.86c1.16,3.74,2.99,6.5,4.42,6.51-1.27-2.57-3.05-11.32-2.89-11.37a96.13,96.13,0,0,1,3.72,11.1c1.17-.81,1.12-4.11-.04-7.85C90.48,151.47,86.76,146.99,86.76,146.99Z" transform="translate(-553.93 392.46)" fill="url(#linear-gradient-5)"/>
      <path id="Path_626" data-name="Path 626" d="M74.25,166.31s3.78-3.55,7.98-3.9c3.9-.33,7.15.34,7.69,1.66-2.85-.22-11.64,1.4-11.62,1.57a93.859,93.859,0,0,0,11.69-.71c-.31,1.39-3.39,2.58-7.3,2.91C79.79,168.08,74.25,166.31,74.25,166.31Z" transform="translate(-553.93 392.46)" fill="url(#linear-gradient-6)"/>
      <path id="Path_627" data-name="Path 627" d="M80.38,148.06a9.338,9.338,0,0,0-1.28,5.12c.29,2.31,1.08,4.11,1.91,4.26a34.31,34.31,0,0,1-.52-6.95,56.006,56.006,0,0,1,1.03,6.88c.77-.35,1.08-2.29.79-4.6A18.341,18.341,0,0,0,80.38,148.06Z" transform="translate(-553.93 392.46)" fill="url(#linear-gradient-7)"/>
      <path id="Path_628" data-name="Path 628" d="M71.76,158.08a9.382,9.382,0,0,1,5.07-1.46c2.32.21,4.15.94,4.33,1.76a34.6,34.6,0,0,0-6.96-.28,54.79,54.79,0,0,0,6.91.79c-.33.78-2.25,1.16-4.57.95A18.017,18.017,0,0,1,71.76,158.08Z" transform="translate(-553.93 392.46)" fill="url(#linear-gradient-8)"/>
      <path id="Path_629" data-name="Path 629" d="M74.63,135.33s-3.06,4.19-2.9,8.39c.15,3.91,1.21,7.06,2.58,7.43-.56-2.81-.02-11.72.15-11.73a94.74,94.74,0,0,1,.72,11.69c1.34-.48,2.15-3.68,2-7.6C77.06,140.62,74.63,135.33,74.63,135.33Z" transform="translate(-553.93 392.46)" fill="url(#linear-gradient-9)"/>
      <path id="Path_630" data-name="Path 630" d="M57.54,150.75s4.57-2.45,8.71-1.7c3.86.69,6.82,2.18,7,3.59-2.7-.95-11.6-1.66-11.63-1.49a93.693,93.693,0,0,0,11.47,2.34c-.66,1.26-3.95,1.61-7.8.92C62.44,153.9,57.54,150.75,57.54,150.75Z" transform="translate(-553.93 392.46)" fill="url(#linear-gradient-10)"/>
      <path id="Path_631" data-name="Path 631" d="M68.19,134.71a9.307,9.307,0,0,0-2.56,4.61c-.32,2.3-.02,4.25.74,4.61a34.187,34.187,0,0,1,1.3-6.84,54.556,54.556,0,0,1-.79,6.91c.83-.14,1.63-1.93,1.95-4.24A18.073,18.073,0,0,0,68.19,134.71Z" transform="translate(-553.93 392.46)" fill="url(#linear-gradient-11)"/>
      <path id="Path_632" data-name="Path 632" d="M57.27,142.16a9.333,9.333,0,0,1,5.27-.1c2.18.8,3.76,1.98,3.72,2.82a34.34,34.34,0,0,0-6.65-2.07,56.43,56.43,0,0,0,6.47,2.55c-.52.67-2.47.54-4.66-.27A17.89,17.89,0,0,1,57.27,142.16Z" transform="translate(-553.93 392.46)" fill="url(#linear-gradient-12)"/>
      <path id="Path_633" data-name="Path 633" d="M65.93,120.93s-4.04,3.25-4.97,7.35c-.87,3.82-.66,7.13.57,7.85.18-2.86,3.01-11.33,3.18-11.29a95.243,95.243,0,0,1-2.33,11.47c1.42-.12,3.03-3,3.9-6.82C66.91,126.66,65.93,120.93,65.93,120.93Z" transform="translate(-553.93 392.46)" fill="url(#linear-gradient-13)"/>
      <path id="Path_634" data-name="Path 634" d="M45.43,131.4s5.05-1.18,8.86.61c3.55,1.67,6.02,3.87,5.83,5.28-2.36-1.62-10.78-4.6-10.85-4.45a94.882,94.882,0,0,0,10.47,5.23c-.97,1.05-4.23.53-7.77-1.13C49.35,135.71,45.43,131.4,45.43,131.4Z" transform="translate(-553.93 392.46)" fill="url(#linear-gradient-14)"/>
      <path id="Path_635" data-name="Path 635" d="M59.87,118.66a9.284,9.284,0,0,0-3.67,3.79c-.9,2.14-1.12,4.1-.48,4.65a35.027,35.027,0,0,1,3.02-6.28,56.292,56.292,0,0,1-2.55,6.47c.84.08,2.08-1.44,2.98-3.59A17.885,17.885,0,0,0,59.87,118.66Z" transform="translate(-553.93 392.46)" fill="url(#linear-gradient-15)"/>
      <path id="Path_636" data-name="Path 636" d="M47.4,123.03a9.338,9.338,0,0,1,5.12,1.27c1.9,1.34,3.12,2.89,2.87,3.69a34.56,34.56,0,0,0-5.89-3.72,56.335,56.335,0,0,0,5.59,4.14c-.67.51-2.53-.12-4.43-1.46A17.845,17.845,0,0,1,47.4,123.03Z" transform="translate(-553.93 392.46)" fill="url(#linear-gradient-16)"/>
      <path id="Path_637" data-name="Path 637" d="M61.25,104.76s-4.74,2.09-6.71,5.82c-1.83,3.46-2.48,6.71-1.48,7.73.92-2.71,5.84-10.16,5.99-10.08a94.849,94.849,0,0,1-5.22,10.48c1.4.26,3.7-2.12,5.53-5.58C60.72,110.56,61.25,104.76,61.25,104.76Z" transform="translate(-553.93 392.46)" fill="url(#linear-gradient-17)"/>
      <path id="Path_638" data-name="Path 638" d="M38.74,109.57s5.18.17,8.4,2.88c2.99,2.53,4.81,5.3,4.26,6.61-1.86-2.17-9.22-7.24-9.33-7.11a93.633,93.633,0,0,0,8.76,7.76c-1.2.76-4.22-.58-7.21-3.11C41.41,114.75,38.74,109.57,38.74,109.57Z" transform="translate(-553.93 392.46)" fill="url(#linear-gradient-18)"/>
      <path id="Path_639" data-name="Path 639" d="M55.98,101.01a9.342,9.342,0,0,0-4.52,2.71c-1.43,1.84-2.14,3.67-1.66,4.37a34.9,34.9,0,0,1,4.54-5.28,57.416,57.416,0,0,1-4.13,5.59c.79.29,2.38-.86,3.81-2.69A18.477,18.477,0,0,0,55.98,101.01Z" transform="translate(-553.93 392.46)" fill="url(#linear-gradient-19)"/>
      <path id="Path_640" data-name="Path 640" d="M42.81,102a9.3,9.3,0,0,1,4.61,2.55c1.49,1.79,2.27,3.6,1.81,4.31a35.485,35.485,0,0,0-4.72-5.12,55.563,55.563,0,0,0,4.32,5.44c-.78.32-2.41-.77-3.9-2.56A18.119,18.119,0,0,1,42.81,102Z" transform="translate(-553.93 392.46)" fill="url(#linear-gradient-20)"/>
      <path id="Path_641" data-name="Path 641" d="M60.92,87.94s-5.12.8-7.99,3.88c-2.66,2.87-4.14,5.84-3.43,7.08,1.59-2.38,8.27-8.3,8.4-8.19a94.848,94.848,0,0,1-7.76,8.77c1.29.61,4.12-1.09,6.78-3.96C58.9,93.4,60.92,87.94,60.92,87.94Z" transform="translate(-553.93 392.46)" fill="url(#linear-gradient-21)"/>
      <path id="Path_642" data-name="Path 642" d="M37.93,86.76s4.96,1.5,7.37,4.96c2.24,3.22,3.28,6.36,2.41,7.49-1.24-2.58-7.03-9.38-7.17-9.28A93.593,93.593,0,0,0,47,99.7c-1.36.42-3.93-1.65-6.17-4.87C39.17,92.45,37.93,86.76,37.93,86.76Z" transform="translate(-553.93 392.46)" fill="url(#linear-gradient-22)"/>
      <path id="Path_643" data-name="Path 643" d="M56.8,82.95a9.333,9.333,0,0,0-5.07,1.45c-1.85,1.4-3.02,2.99-2.74,3.79a34.265,34.265,0,0,1,5.76-3.92,55.644,55.644,0,0,1-5.44,4.33c.69.49,2.52-.21,4.38-1.62A18.173,18.173,0,0,0,56.8,82.95Z" transform="translate(-553.93 392.46)" fill="url(#linear-gradient-23)"/>
      <path id="Path_644" data-name="Path 644" d="M43.81,80.5a9.322,9.322,0,0,1,3.8,3.66c.98,2.11,1.26,4.06.64,4.63a34.651,34.651,0,0,0-3.24-6.17A56,56,0,0,0,47.78,89c-.84.11-2.13-1.37-3.1-3.48A18.111,18.111,0,0,1,43.81,80.5Z" transform="translate(-553.93 392.46)" fill="url(#linear-gradient-24)"/>
      <path id="Path_645" data-name="Path 645" d="M64.95,71.6s-5.15-.56-8.72,1.68c-3.32,2.08-5.51,4.57-5.15,5.95,2.15-1.89,10.14-5.88,10.23-5.74a94.343,94.343,0,0,1-9.76,6.46c1.09.92,4.26.02,7.58-2.07C61.59,76.36,64.95,71.6,64.95,71.6Z" transform="translate(-553.93 392.46)" fill="url(#linear-gradient-25)"/>
      <path id="Path_646" data-name="Path 646" d="M43.05,64.52s4.4,2.74,5.83,6.7c1.33,3.69,1.52,6.99.39,7.86-.53-2.81-4.37-10.88-4.52-10.82a93.519,93.519,0,0,0,3.71,11.11c-1.42.06-3.37-2.61-4.7-6.3C42.77,70.33,43.05,64.52,43.05,64.52Z" transform="translate(-553.93 392.46)" fill="url(#linear-gradient-26)"/>
      <path id="Path_647" data-name="Path 647" d="M62.26,65.72a9.325,9.325,0,0,0-5.27.08c-2.15.88-3.69,2.11-3.62,2.95a35.119,35.119,0,0,1,6.57-2.3,55.226,55.226,0,0,1-6.38,2.77c.54.65,2.49.45,4.65-.43A17.821,17.821,0,0,0,62.26,65.72Z" transform="translate(-553.93 392.46)" fill="url(#linear-gradient-27)"/>
      <path id="Path_648" data-name="Path 648" d="M50.35,59.99a9.327,9.327,0,0,1,2.72,4.52c.4,2.29.17,4.25-.58,4.64a34.679,34.679,0,0,0-1.53-6.8,56.28,56.28,0,0,0,1.02,6.88c-.84-.11-1.7-1.87-2.1-4.17A18.317,18.317,0,0,1,50.35,59.99Z" transform="translate(-553.93 392.46)" fill="url(#linear-gradient-28)"/>
      <path id="Path_649" data-name="Path 649" d="M73.07,56.87s-4.83-1.87-8.86-.63c-3.74,1.16-6.5,2.99-6.51,4.42,2.57-1.27,11.32-3.05,11.37-2.89a96.131,96.131,0,0,1-11.1,3.72c.81,1.17,4.11,1.12,7.85-.04C68.59,60.59,73.07,56.87,73.07,56.87Z" transform="translate(-553.93 392.46)" fill="url(#linear-gradient-29)"/>
      <path id="Path_650" data-name="Path 650" d="M53.75,44.36s3.55,3.78,3.9,7.98c.33,3.9-.34,7.15-1.66,7.69.22-2.85-1.4-11.64-1.57-11.62a93.861,93.861,0,0,0,.71,11.69c-1.39-.31-2.58-3.39-2.91-7.3C51.98,49.9,53.75,44.36,53.75,44.36Z" transform="translate(-553.93 392.46)" fill="url(#linear-gradient-30)"/>
      <path id="Path_651" data-name="Path 651" d="M72,50.49a9.338,9.338,0,0,0-5.12-1.28c-2.31.29-4.11,1.08-4.26,1.91a34.311,34.311,0,0,1,6.95-.52,56.006,56.006,0,0,1-6.88,1.03c.35.77,2.29,1.08,4.6.79A18.34,18.34,0,0,0,72,50.49Z" transform="translate(-553.93 392.46)" fill="url(#linear-gradient-31)"/>
      <path id="Path_652" data-name="Path 652" d="M61.98,41.87a9.382,9.382,0,0,1,1.46,5.07c-.21,2.32-.94,4.15-1.76,4.33a34.6,34.6,0,0,0,.28-6.96,54.793,54.793,0,0,0-.79,6.91c-.78-.33-1.16-2.25-.95-4.57A18.018,18.018,0,0,1,61.98,41.87Z" transform="translate(-553.93 392.46)" fill="url(#linear-gradient-32)"/>
      <path id="Path_653" data-name="Path 653" d="M84.73,44.74s-4.19-3.06-8.39-2.9c-3.91.15-7.06,1.21-7.43,2.58,2.81-.56,11.72-.02,11.73.15a94.74,94.74,0,0,1-11.69.72c.48,1.34,3.68,2.15,7.6,2C79.44,47.17,84.73,44.74,84.73,44.74Z" transform="translate(-553.93 392.46)" fill="url(#linear-gradient-33)"/>
      <path id="Path_654" data-name="Path 654" d="M69.31,27.65s2.45,4.57,1.7,8.71c-.69,3.86-2.18,6.82-3.59,7,.95-2.7,1.66-11.6,1.49-11.63A93.691,93.691,0,0,0,66.57,43.2c-1.26-.66-1.61-3.95-.92-7.8C66.16,32.55,69.31,27.65,69.31,27.65Z" transform="translate(-553.93 392.46)" fill="url(#linear-gradient-34)"/>
      <path id="Path_655" data-name="Path 655" d="M85.35,38.3a9.307,9.307,0,0,0-4.61-2.56c-2.3-.32-4.25-.02-4.61.74a34.188,34.188,0,0,1,6.84,1.3,54.556,54.556,0,0,1-6.91-.79c.14.83,1.93,1.63,4.24,1.95A18.073,18.073,0,0,0,85.35,38.3Z" transform="translate(-553.93 392.46)" fill="url(#linear-gradient-35)"/>
      <path id="Path_656" data-name="Path 656" d="M77.9,27.38a9.333,9.333,0,0,1,.1,5.27c-.8,2.18-1.98,3.76-2.82,3.72a34.339,34.339,0,0,0,2.07-6.65,56.429,56.429,0,0,0-2.55,6.47c-.67-.52-.54-2.47.27-4.66A17.89,17.89,0,0,1,77.9,27.38Z" transform="translate(-553.93 392.46)" fill="url(#linear-gradient-36)"/>
      <path id="Path_657" data-name="Path 657" d="M99.13,36.04S95.88,32,91.78,31.07c-3.82-.87-7.13-.66-7.85.57,2.86.18,11.33,3.01,11.29,3.18a95.244,95.244,0,0,1-11.47-2.33c.12,1.42,3,3.03,6.82,3.9C93.39,37.02,99.13,36.04,99.13,36.04Z" transform="translate(-553.93 392.46)" fill="url(#linear-gradient-37)"/>
      <path id="Path_658" data-name="Path 658" d="M88.66,15.54s1.18,5.05-.61,8.86c-1.67,3.55-3.87,6.02-5.28,5.83,1.62-2.36,4.6-10.78,4.45-10.85a94.884,94.884,0,0,0-5.23,10.47c-1.05-.97-.53-4.23,1.13-7.77C84.35,19.46,88.66,15.54,88.66,15.54Z" transform="translate(-553.93 392.46)" fill="url(#linear-gradient-38)"/>
      <path id="Path_659" data-name="Path 659" d="M101.39,29.98a9.284,9.284,0,0,0-3.79-3.67c-2.14-.9-4.1-1.12-4.65-.48a35.027,35.027,0,0,1,6.28,3.02,56.292,56.292,0,0,1-6.47-2.55c-.08.84,1.44,2.08,3.59,2.98A17.925,17.925,0,0,0,101.39,29.98Z" transform="translate(-553.93 392.46)" fill="url(#linear-gradient-39)"/>
      <path id="Path_660" data-name="Path 660" d="M97.02,17.5a9.338,9.338,0,0,1-1.27,5.12c-1.34,1.9-2.89,3.12-3.69,2.87a34.56,34.56,0,0,0,3.72-5.89,56.334,56.334,0,0,0-4.14,5.59c-.51-.67.12-2.53,1.46-4.43A18.4,18.4,0,0,1,97.02,17.5Z" transform="translate(-553.93 392.46)" fill="url(#linear-gradient-40)"/>
      <path id="Path_661" data-name="Path 661" d="M154.39,157.79a9.325,9.325,0,0,1-.08,5.27c-.88,2.15-2.11,3.69-2.95,3.62a35.118,35.118,0,0,0,2.3-6.57,55.227,55.227,0,0,0-2.77,6.38c-.65-.54-.45-2.49.43-4.65A18.069,18.069,0,0,1,154.39,157.79Z" transform="translate(-553.93 392.46)" fill="url(#linear-gradient-41)"/>
      <path id="Path_662" data-name="Path 662" d="M163.24,146.99s1.87,4.83.63,8.86c-1.16,3.74-2.99,6.5-4.42,6.51,1.27-2.57,3.05-11.32,2.89-11.37a96.131,96.131,0,0,0-3.72,11.1c-1.17-.81-1.12-4.11.04-7.85C159.52,151.47,163.24,146.99,163.24,146.99Z" transform="translate(-553.93 392.46)" fill="url(#linear-gradient-42)"/>
      <path id="Path_663" data-name="Path 663" d="M175.75,166.31s-3.78-3.55-7.98-3.9c-3.9-.33-7.15.34-7.69,1.66,2.85-.22,11.64,1.4,11.62,1.57a93.859,93.859,0,0,1-11.69-.71c.31,1.39,3.39,2.58,7.3,2.91C170.21,168.08,175.75,166.31,175.75,166.31Z" transform="translate(-553.93 392.46)" fill="url(#linear-gradient-43)"/>
      <path id="Path_664" data-name="Path 664" d="M169.62,148.06a9.338,9.338,0,0,1,1.28,5.12c-.29,2.31-1.08,4.11-1.91,4.26a34.312,34.312,0,0,0,.52-6.95,56.006,56.006,0,0,0-1.03,6.88c-.77-.35-1.08-2.29-.79-4.6A18.341,18.341,0,0,1,169.62,148.06Z" transform="translate(-553.93 392.46)" fill="url(#linear-gradient-44)"/>
      <path id="Path_665" data-name="Path 665" d="M178.24,158.08a9.382,9.382,0,0,0-5.07-1.46c-2.32.21-4.15.94-4.33,1.76a34.6,34.6,0,0,1,6.96-.28,54.789,54.789,0,0,1-6.91.79c.33.78,2.25,1.16,4.57.95A18.017,18.017,0,0,0,178.24,158.08Z" transform="translate(-553.93 392.46)" fill="url(#linear-gradient-45)"/>
      <path id="Path_666" data-name="Path 666" d="M175.37,135.33s3.06,4.19,2.9,8.39c-.15,3.91-1.21,7.06-2.58,7.43.56-2.81.02-11.72-.15-11.73a94.74,94.74,0,0,0-.72,11.69c-1.34-.48-2.15-3.68-2-7.6C172.94,140.62,175.37,135.33,175.37,135.33Z" transform="translate(-553.93 392.46)" fill="url(#linear-gradient-46)"/>
      <path id="Path_667" data-name="Path 667" d="M192.46,150.75s-4.57-2.45-8.71-1.7c-3.86.69-6.82,2.18-7,3.59,2.7-.95,11.6-1.66,11.63-1.49a93.693,93.693,0,0,1-11.47,2.34c.66,1.26,3.95,1.61,7.8.92C187.56,153.9,192.46,150.75,192.46,150.75Z" transform="translate(-553.93 392.46)" fill="url(#linear-gradient-47)"/>
      <path id="Path_668" data-name="Path 668" d="M181.81,134.71a9.307,9.307,0,0,1,2.56,4.61c.32,2.3.02,4.25-.74,4.61a34.188,34.188,0,0,0-1.3-6.84,54.555,54.555,0,0,0,.79,6.91c-.83-.14-1.63-1.93-1.95-4.24A18.073,18.073,0,0,1,181.81,134.71Z" transform="translate(-553.93 392.46)" fill="url(#linear-gradient-48)"/>
      <path id="Path_669" data-name="Path 669" d="M192.73,142.16a9.333,9.333,0,0,0-5.27-.1c-2.18.8-3.76,1.98-3.72,2.82a34.34,34.34,0,0,1,6.65-2.07,56.429,56.429,0,0,1-6.47,2.55c.52.67,2.47.54,4.66-.27A17.89,17.89,0,0,0,192.73,142.16Z" transform="translate(-553.93 392.46)" fill="url(#linear-gradient-49)"/>
      <path id="Path_670" data-name="Path 670" d="M184.07,120.93s4.04,3.25,4.97,7.35c.87,3.82.66,7.13-.57,7.85-.18-2.86-3.01-11.33-3.18-11.29a95.244,95.244,0,0,0,2.33,11.47c-1.42-.12-3.03-3-3.9-6.82C183.09,126.66,184.07,120.93,184.07,120.93Z" transform="translate(-553.93 392.46)" fill="url(#linear-gradient-50)"/>
      <path id="Path_671" data-name="Path 671" d="M204.57,131.4s-5.05-1.18-8.86.61c-3.54,1.67-6.02,3.87-5.83,5.28,2.36-1.62,10.78-4.6,10.85-4.45a94.882,94.882,0,0,1-10.47,5.23c.97,1.05,4.23.53,7.77-1.13C200.65,135.71,204.57,131.4,204.57,131.4Z" transform="translate(-553.93 392.46)" fill="url(#linear-gradient-51)"/>
      <path id="Path_672" data-name="Path 672" d="M190.13,118.66a9.284,9.284,0,0,1,3.67,3.79c.9,2.14,1.12,4.1.48,4.65a35.026,35.026,0,0,0-3.02-6.28,56.293,56.293,0,0,0,2.55,6.47c-.84.08-2.08-1.44-2.98-3.59A17.885,17.885,0,0,1,190.13,118.66Z" transform="translate(-553.93 392.46)" fill="url(#linear-gradient-52)"/>
      <path id="Path_673" data-name="Path 673" d="M202.6,123.03a9.338,9.338,0,0,0-5.12,1.27c-1.9,1.34-3.12,2.89-2.87,3.69a34.56,34.56,0,0,1,5.89-3.72,56.336,56.336,0,0,1-5.59,4.14c.67.51,2.53-.12,4.43-1.46A17.846,17.846,0,0,0,202.6,123.03Z" transform="translate(-553.93 392.46)" fill="url(#linear-gradient-53)"/>
      <path id="Path_674" data-name="Path 674" d="M188.75,104.76s4.74,2.09,6.71,5.82c1.83,3.46,2.48,6.71,1.48,7.73-.92-2.71-5.84-10.16-5.99-10.08a94.851,94.851,0,0,0,5.22,10.48c-1.4.26-3.7-2.12-5.53-5.58C189.28,110.56,188.75,104.76,188.75,104.76Z" transform="translate(-553.93 392.46)" fill="url(#linear-gradient-54)"/>
      <path id="Path_675" data-name="Path 675" d="M211.26,109.57s-5.18.17-8.4,2.88c-2.99,2.53-4.81,5.3-4.26,6.61,1.86-2.17,9.22-7.24,9.33-7.11a93.635,93.635,0,0,1-8.76,7.76c1.2.76,4.22-.58,7.21-3.11C208.59,114.75,211.26,109.57,211.26,109.57Z" transform="translate(-553.93 392.46)" fill="url(#linear-gradient-55)"/>
      <path id="Path_676" data-name="Path 676" d="M194.02,101.01a9.342,9.342,0,0,1,4.52,2.71c1.43,1.84,2.14,3.67,1.66,4.37a34.906,34.906,0,0,0-4.54-5.28,57.417,57.417,0,0,0,4.13,5.59c-.79.29-2.38-.86-3.81-2.69A18.476,18.476,0,0,1,194.02,101.01Z" transform="translate(-553.93 392.46)" fill="url(#linear-gradient-56)"/>
      <path id="Path_677" data-name="Path 677" d="M207.19,102a9.3,9.3,0,0,0-4.61,2.55c-1.49,1.79-2.27,3.6-1.81,4.31a35.485,35.485,0,0,1,4.72-5.12,55.561,55.561,0,0,1-4.32,5.44c.78.32,2.41-.77,3.9-2.56A18.119,18.119,0,0,0,207.19,102Z" transform="translate(-553.93 392.46)" fill="url(#linear-gradient-57)"/>
      <path id="Path_678" data-name="Path 678" d="M189.08,87.94s5.12.8,7.99,3.88c2.66,2.87,4.14,5.84,3.43,7.08-1.59-2.38-8.27-8.3-8.4-8.19a94.85,94.85,0,0,0,7.76,8.77c-1.29.61-4.12-1.09-6.78-3.96C191.1,93.4,189.08,87.94,189.08,87.94Z" transform="translate(-553.93 392.46)" fill="url(#linear-gradient-58)"/>
      <path id="Path_679" data-name="Path 679" d="M212.07,86.76s-4.96,1.5-7.37,4.96c-2.24,3.22-3.28,6.36-2.41,7.49,1.24-2.58,7.03-9.38,7.17-9.28A93.592,93.592,0,0,1,203,99.7c1.36.42,3.93-1.65,6.17-4.87C210.83,92.45,212.07,86.76,212.07,86.76Z" transform="translate(-553.93 392.46)" fill="url(#linear-gradient-59)"/>
      <path id="Path_680" data-name="Path 680" d="M193.2,82.95a9.333,9.333,0,0,1,5.07,1.45c1.85,1.4,3.02,2.99,2.74,3.79a34.265,34.265,0,0,0-5.76-3.92,55.645,55.645,0,0,0,5.44,4.33c-.69.49-2.52-.21-4.38-1.62A18.173,18.173,0,0,1,193.2,82.95Z" transform="translate(-553.93 392.46)" fill="url(#linear-gradient-60)"/>
      <path id="Path_681" data-name="Path 681" d="M206.19,80.5a9.322,9.322,0,0,0-3.8,3.66c-.98,2.11-1.26,4.06-.64,4.63a34.651,34.651,0,0,1,3.24-6.17A56,56,0,0,1,202.22,89c.84.11,2.13-1.37,3.1-3.48A18.112,18.112,0,0,0,206.19,80.5Z" transform="translate(-553.93 392.46)" fill="url(#linear-gradient-61)"/>
      <path id="Path_682" data-name="Path 682" d="M185.05,71.6s5.15-.56,8.72,1.68c3.32,2.08,5.51,4.57,5.15,5.95-2.15-1.89-10.14-5.88-10.23-5.74a94.344,94.344,0,0,0,9.76,6.46c-1.09.92-4.26.02-7.58-2.07C188.41,76.36,185.05,71.6,185.05,71.6Z" transform="translate(-553.93 392.46)" fill="url(#linear-gradient-62)"/>
      <path id="Path_683" data-name="Path 683" d="M206.95,64.52s-4.4,2.74-5.83,6.7c-1.33,3.69-1.52,6.99-.39,7.86.53-2.81,4.37-10.88,4.52-10.82a95.421,95.421,0,0,1-3.71,11.11c1.42.06,3.37-2.61,4.7-6.3C207.23,70.33,206.95,64.52,206.95,64.52Z" transform="translate(-553.93 392.46)" fill="url(#linear-gradient-63)"/>
      <path id="Path_684" data-name="Path 684" d="M187.74,65.72a9.325,9.325,0,0,1,5.27.08c2.15.88,3.69,2.11,3.62,2.95a35.118,35.118,0,0,0-6.57-2.3,55.226,55.226,0,0,0,6.38,2.77c-.54.65-2.49.45-4.65-.43A17.821,17.821,0,0,1,187.74,65.72Z" transform="translate(-553.93 392.46)" fill="url(#linear-gradient-64)"/>
      <path id="Path_685" data-name="Path 685" d="M199.65,59.99a9.327,9.327,0,0,0-2.72,4.52c-.4,2.29-.17,4.25.58,4.64a34.678,34.678,0,0,1,1.53-6.8,56.277,56.277,0,0,1-1.02,6.88c.84-.11,1.7-1.87,2.1-4.17A18.317,18.317,0,0,0,199.65,59.99Z" transform="translate(-553.93 392.46)" fill="url(#linear-gradient-65)"/>
      <path id="Path_686" data-name="Path 686" d="M176.93,56.87s4.83-1.87,8.86-.63c3.74,1.16,6.5,2.99,6.51,4.42-2.57-1.27-11.32-3.05-11.37-2.89a96.131,96.131,0,0,0,11.1,3.72c-.81,1.17-4.11,1.12-7.85-.04C181.41,60.59,176.93,56.87,176.93,56.87Z" transform="translate(-553.93 392.46)" fill="url(#linear-gradient-66)"/>
      <path id="Path_687" data-name="Path 687" d="M196.25,44.36s-3.55,3.78-3.9,7.98c-.33,3.9.34,7.15,1.66,7.69-.22-2.85,1.4-11.64,1.57-11.62a93.859,93.859,0,0,1-.71,11.69c1.39-.31,2.58-3.39,2.91-7.3C198.02,49.9,196.25,44.36,196.25,44.36Z" transform="translate(-553.93 392.46)" fill="url(#linear-gradient-67)"/>
      <path id="Path_688" data-name="Path 688" d="M178,50.49a9.338,9.338,0,0,1,5.12-1.28c2.31.29,4.11,1.08,4.26,1.91a34.311,34.311,0,0,0-6.95-.52,56.007,56.007,0,0,0,6.88,1.03c-.35.77-2.29,1.08-4.6.79A18.34,18.34,0,0,1,178,50.49Z" transform="translate(-553.93 392.46)" fill="url(#linear-gradient-68)"/>
      <path id="Path_689" data-name="Path 689" d="M188.02,41.87a9.382,9.382,0,0,0-1.46,5.07c.21,2.32.94,4.15,1.76,4.33a34.6,34.6,0,0,1-.28-6.96,54.79,54.79,0,0,1,.79,6.91c.78-.33,1.16-2.25.95-4.57A18.017,18.017,0,0,0,188.02,41.87Z" transform="translate(-553.93 392.46)" fill="url(#linear-gradient-69)"/>
      <path id="Path_690" data-name="Path 690" d="M165.27,44.74s4.19-3.06,8.39-2.9c3.91.15,7.06,1.21,7.43,2.58-2.81-.56-11.72-.02-11.73.15a94.74,94.74,0,0,0,11.69.72c-.48,1.34-3.68,2.15-7.6,2C170.56,47.17,165.27,44.74,165.27,44.74Z" transform="translate(-553.93 392.46)" fill="url(#linear-gradient-70)"/>
      <path id="Path_691" data-name="Path 691" d="M180.69,27.65s-2.45,4.57-1.7,8.71c.69,3.86,2.18,6.82,3.59,7-.95-2.7-1.66-11.6-1.49-11.63a93.692,93.692,0,0,1,2.34,11.47c1.26-.66,1.61-3.95.92-7.8C183.84,32.55,180.69,27.65,180.69,27.65Z" transform="translate(-553.93 392.46)" fill="url(#linear-gradient-71)"/>
      <path id="Path_692" data-name="Path 692" d="M164.65,38.3a9.307,9.307,0,0,1,4.61-2.56c2.3-.32,4.25-.02,4.61.74a34.188,34.188,0,0,0-6.84,1.3,54.556,54.556,0,0,0,6.91-.79c-.14.83-1.93,1.63-4.24,1.95A18.073,18.073,0,0,1,164.65,38.3Z" transform="translate(-553.93 392.46)" fill="url(#linear-gradient-72)"/>
      <path id="Path_693" data-name="Path 693" d="M172.1,27.38a9.333,9.333,0,0,0-.1,5.27c.8,2.18,1.98,3.76,2.82,3.72a34.34,34.34,0,0,1-2.07-6.65,56.429,56.429,0,0,1,2.55,6.47c.67-.52.54-2.47-.27-4.66A17.89,17.89,0,0,0,172.1,27.38Z" transform="translate(-553.93 392.46)" fill="url(#linear-gradient-73)"/>
      <path id="Path_694" data-name="Path 694" d="M150.87,36.04s3.25-4.04,7.35-4.97c3.82-.87,7.13-.66,7.85.57-2.86.18-11.33,3.01-11.29,3.18a95.244,95.244,0,0,0,11.47-2.33c-.12,1.42-3,3.03-6.82,3.9C156.61,37.02,150.87,36.04,150.87,36.04Z" transform="translate(-553.93 392.46)" fill="url(#linear-gradient-37)"/>
      <path id="Path_695" data-name="Path 695" d="M161.34,15.54s-1.18,5.05.61,8.86c1.67,3.55,3.87,6.02,5.28,5.83-1.62-2.36-4.6-10.78-4.45-10.85a94.883,94.883,0,0,1,5.23,10.47c1.05-.97.53-4.23-1.13-7.77C165.65,19.46,161.34,15.54,161.34,15.54Z" transform="translate(-553.93 392.46)" fill="url(#linear-gradient-75)"/>
      <path id="Path_696" data-name="Path 696" d="M149.47,29.98a9.284,9.284,0,0,1,3.79-3.67c2.14-.9,4.1-1.12,4.65-.48a35.027,35.027,0,0,0-6.28,3.02,56.292,56.292,0,0,0,6.47-2.55c.08.84-1.44,2.08-3.59,2.98A17.885,17.885,0,0,1,149.47,29.98Z" transform="translate(-553.93 392.46)" fill="url(#linear-gradient-76)"/>
      <path id="Path_697" data-name="Path 697" d="M152.98,17.5a9.338,9.338,0,0,0,1.27,5.12c1.34,1.9,2.89,3.12,3.69,2.87a34.56,34.56,0,0,1-3.72-5.89,56.336,56.336,0,0,1,4.14,5.59c.51-.67-.12-2.53-1.46-4.43A18.4,18.4,0,0,0,152.98,17.5Z" transform="translate(-553.93 392.46)" fill="url(#linear-gradient-77)"/>
      <path id="Path_698" data-name="Path 698" d="M186.12,48.38a73.965,73.965,0,0,0-28.58-23.04v.96a79.73,79.73,0,0,1,27.89,22.61A76.03,76.03,0,0,1,125.1,171.05a78.026,78.026,0,0,1-10.11-.67A75.9,75.9,0,0,1,93.82,25.99v-.95a76.749,76.749,0,0,0,21.08,146.2,76.765,76.765,0,0,0,86.3-66.04A76.269,76.269,0,0,0,186.12,48.38Z" transform="translate(-553.93 392.46)" fill="url(#linear-gradient-78)"/>
    </g>
    <g id="Group_345" data-name="Group 345" transform="translate(-0.92)">
      <path id="Path_702" data-name="Path 702" d="M127.28,114.65l.88,2.23,2.38.16-1.84,1.53.6,2.33-2.02-1.28-2.01,1.28.59-2.33-1.84-1.53,2.38-.16Z" transform="translate(-553.93 392.46)" fill-rule="evenodd" fill="url(#linear-gradient-79)"/>
      <path id="Path_703" data-name="Path 703" d="M134.6,115.3l.69,1.77,1.88.12-1.45,1.22.47,1.84-1.59-1.02-1.6,1.02.47-1.84-1.45-1.22,1.88-.12Z" transform="translate(-553.93 392.46)" fill-rule="evenodd" fill="url(#linear-gradient-80)"/>
      <path id="Path_704" data-name="Path 704" d="M140.68,115.83l.55,1.39,1.48.1-1.14.95.36,1.45-1.25-.8-1.25.8.36-1.45-1.14-.95,1.48-.1Z" transform="translate(-553.93 392.46)" fill-rule="evenodd" fill="url(#linear-gradient-81)"/>
      <path id="Path_705" data-name="Path 705" d="M119.96,115.3l-.69,1.77-1.88.12,1.45,1.22-.47,1.84,1.59-1.02,1.6,1.02-.47-1.84,1.45-1.22-1.88-.12Z" transform="translate(-553.93 392.46)" fill-rule="evenodd" fill="url(#linear-gradient-82)"/>
      <path id="Path_706" data-name="Path 706" d="M113.88,115.83l-.55,1.39-1.48.1,1.15.95-.37,1.45,1.25-.8,1.25.8-.36-1.45,1.14-.95-1.48-.1Z" transform="translate(-553.93 392.46)" fill-rule="evenodd" fill="url(#linear-gradient-83)"/>
    </g>
    <g id="Group_159" data-name="Group 159" transform="translate(-554.64 392.46)">
      <rect id="Rectangle_29" data-name="Rectangle 29" width="14.52" height="0.83" transform="translate(145.71 131.32)" fill="#d4b066"/>
    </g>
    <g id="Group_160" data-name="Group 160" transform="translate(-554.64 392.46)">
      <rect id="Rectangle_30" data-name="Rectangle 30" width="8.43" height="0.83" transform="translate(145.71 135.21)" fill="#d4b066"/>
    </g>
    <g id="Group_162" data-name="Group 162" transform="translate(-554.64 392.46)">
      <rect id="Rectangle_31" data-name="Rectangle 31" width="14.52" height="0.83" transform="translate(94.64 131.32)" fill="#d4b066"/>
    </g>
    <g id="Group_347" data-name="Group 347" transform="translate(1.47)">
      <path id="Path_707" data-name="Path 707" d="M125.86,64.36a.555.555,0,0,1-.55-.55l-.01-3.4a.567.567,0,0,1,.31-.5c2.27-1.1,5.53-5.84,5.73-11.7H118.1c.19,5.89,3.38,10.54,5.7,11.69a.546.546,0,1,1-.48.98c-2.65-1.31-6.32-6.63-6.32-13.22a.555.555,0,0,1,.55-.55H131.9a.555.555,0,0,1,.55.55c0,6.38-3.41,11.54-6.05,13.07V63.8a.549.549,0,0,1-.54.56Z" transform="translate(-553.93 392.46)" fill="url(#linear-gradient-84)"/>
      <path id="Path_708" data-name="Path 708" d="M123.58,64.36h0a.555.555,0,0,1-.55-.55l.01-3.4a.555.555,0,0,1,.55-.55h0a.555.555,0,0,1,.55.55l-.01,3.4A.548.548,0,0,1,123.58,64.36Z" transform="translate(-553.93 392.46)" fill="url(#linear-gradient-85)"/>
      <path id="Path_709" data-name="Path 709" d="M129.8,56.55a.532.532,0,0,1-.46-.26.549.549,0,0,1,.17-.76c2.53-1.6,4.11-3.76,4.35-5.89h-1.94a.55.55,0,1,1,0-1.1h2.52a.555.555,0,0,1,.55.55c0,2.68-1.83,5.43-4.89,7.37A.579.579,0,0,1,129.8,56.55Zm-10.18-.01a.521.521,0,0,1-.29-.09c-3.05-1.94-4.87-4.69-4.87-7.35a.555.555,0,0,1,.55-.55h2.43a.55.55,0,1,1,0,1.1h-1.85c.24,2.12,1.82,4.28,4.33,5.88a.549.549,0,0,1,.17.76A.589.589,0,0,1,119.62,56.54Z" transform="translate(-553.93 392.46)" fill="url(#linear-gradient-86)"/>
      <path id="Path_710" data-name="Path 710" d="M131.99,71.54H117.46a.555.555,0,0,1-.55-.55V68.12a.555.555,0,0,1,.55-.55h14.53a.555.555,0,0,1,.55.55v2.87A.562.562,0,0,1,131.99,71.54ZM118,70.44h13.43V68.67H118Z" transform="translate(-553.93 392.46)" fill="url(#linear-gradient-87)"/>
      <path id="Path_711" data-name="Path 711" d="M130.34,68.67H119.1a.555.555,0,0,1-.55-.55V66.68a.555.555,0,0,1,.55-.55h11.24a.555.555,0,0,1,.55.55v1.44A.555.555,0,0,1,130.34,68.67Zm-10.69-1.1h10.14v-.34H119.65v.34Z" transform="translate(-553.93 392.46)" fill="url(#linear-gradient-88)"/>
      <path id="Path_712" data-name="Path 712" d="M128.85,67.23H120.6a.555.555,0,0,1-.55-.55V65.24a1.985,1.985,0,0,1,1.98-1.98h5.38a1.985,1.985,0,0,1,1.98,1.98v1.44A.546.546,0,0,1,128.85,67.23Zm-7.71-1.1h7.16v-.89a.892.892,0,0,0-.89-.89h-5.38a.892.892,0,0,0-.89.89v.89Z" transform="translate(-553.93 392.46)" fill="url(#linear-gradient-89)"/>
    </g>
    <g id="Group_163" data-name="Group 163" transform="translate(-554.64 392.46)">
      <rect id="Rectangle_32" data-name="Rectangle 32" width="8.43" height="0.83" transform="translate(100.73 135.21)" fill="#d4b066"/>
    </g>
    <g id="Group_346" data-name="Group 346" transform="translate(-0.71)">
      <text id="_2017" data-name="2017" transform="translate(-441.485 530.513)" font-size="12" font-family="Rubik-Bold, Rubik" font-weight="700"><tspan x="0" y="0">2017</tspan></text>
    </g>
    <g id="Group_350" data-name="Group 350" transform="translate(0 -2)">
      <g id="Group_344" data-name="Group 344" transform="translate(-564.93 388.46)">
        <text id="Fleet_Safety_Product" data-name="Fleet Safety
Product" transform="translate(137.93 97.54)" font-size="12.339" font-family="Rubik-Bold, Rubik" font-weight="700"><tspan x="-44.721" y="0">FLEET SAFETY</tspan><tspan x="-29.915" y="15">PRODUCT</tspan></text>
      </g>
    </g>
  </g>
</svg>
