<svg xmlns="http://www.w3.org/2000/svg" width="70.499" height="70.499" viewBox="0 0 70.499 70.499">
  <g id="Contact_Us_Icon" data-name="Contact Us Icon" transform="translate(-4.174 -4.327)">
    <path id="Path_1" data-name="Path 1" d="M26.826,52.174C43.976,69.324,60.357,72.952,66.4,73.282A44.253,44.253,0,0,0,73,58.77,54.906,54.906,0,0,0,57.169,48.216l-6.6,6.6c-2.254-.6-8.438-3.161-15.832-10.554S24.792,30.681,24.188,28.427l6.6-6.6A54.906,54.906,0,0,0,20.23,6,44.251,44.251,0,0,0,5.718,12.6C6.048,18.643,9.675,35.023,26.826,52.174Z" fill="none" stroke="#fff" stroke-miterlimit="10" stroke-width="3"/>
    <path id="Path_2" data-name="Path 2" d="M42.373,28.524a8.2,8.2,0,0,1,8.2,8.2" fill="none" stroke="#fff" stroke-miterlimit="10" stroke-width="3"/>
    <path id="Path_3" data-name="Path 3" d="M42.373,20.32A16.408,16.408,0,0,1,58.78,36.728" fill="none" stroke="#fff" stroke-miterlimit="10" stroke-width="3"/>
    <path id="Path_4" data-name="Path 4" d="M42.373,12.116A24.612,24.612,0,0,1,66.984,36.729" fill="none" stroke="#fff" stroke-miterlimit="10" stroke-width="3"/>
  </g>
</svg>
