<svg xmlns="http://www.w3.org/2000/svg" width="74.152" height="74.152" viewBox="0 0 74.152 74.152">
  <g id="FAQ-Icon" transform="translate(-2.848 -3)">
    <path id="Path_1" data-name="Path 1" d="M51.616,34.248a7.715,7.715,0,0,1,3.757-6.827,7.8,7.8,0,1,0-11.552-6.832" fill="none" stroke="#fff" stroke-linecap="round" stroke-linejoin="round" stroke-width="4"/>
    <circle id="Ellipse_1" data-name="Ellipse 1" cx="1.299" cy="1.299" r="1.299" transform="translate(50.317 37.478)" fill="#fff"/>
    <path id="Path_2" data-name="Path 2" d="M51.616,46.572,64.607,56.965V43.072C70.873,39.343,75,32.993,75,25.786,75,14.306,64.531,5,51.616,5S28.232,14.306,28.232,25.786,38.7,46.572,51.616,46.572Z" fill="none" stroke="#fff" stroke-linecap="round" stroke-linejoin="round" stroke-width="4"/>
    <path id="Path_3" data-name="Path 3" d="M28.232,25.786H10.044a5.2,5.2,0,0,0-5.2,5.2V59.563a5.2,5.2,0,0,0,5.2,5.2h5.2V75.152L28.232,64.759H51.616a5.2,5.2,0,0,0,5.2-5.2V50.729" fill="none" stroke="#fff" stroke-linecap="round" stroke-linejoin="round" stroke-width="4"/>
    <line id="Line_1" data-name="Line 1" x2="15.589" transform="translate(12.642 38.777)" fill="none" stroke="#fff" stroke-linecap="round" stroke-linejoin="round" stroke-width="4"/>
    <line id="Line_2" data-name="Line 2" x2="25.982" transform="translate(12.642 46.572)" fill="none" stroke="#fff" stroke-linecap="round" stroke-linejoin="round" stroke-width="4"/>
    <line id="Line_3" data-name="Line 3" x2="38.974" transform="translate(12.642 54.366)" fill="none" stroke="#fff" stroke-linecap="round" stroke-linejoin="round" stroke-width="4"/>
  </g>
</svg>
