<svg xmlns="http://www.w3.org/2000/svg" width="34.088" height="38.89" viewBox="0 0 34.088 38.89">
  <g id="Protect" transform="translate(-23.267 -20.5)">
    <g id="Group_8" data-name="Group 8">
      <path id="Path_20" data-name="Path 20" d="M40.308,58.89a1.939,1.939,0,0,1-.543-.079C23.592,53.92,23.5,33.587,23.862,27.472a1.942,1.942,0,0,1,1.927-1.838l.108,0c.348.019.71.03,1.067.029a19.84,19.84,0,0,0,12.167-4.254,1.9,1.9,0,0,1,2.356,0,20.208,20.208,0,0,0,12.219,4.253c.34,0,.686-.01,1.026-.028h.01a1.99,1.99,0,0,1,2.017,1.836c.359,6.115.274,26.447-15.9,31.338A1.946,1.946,0,0,1,40.308,58.89Z" fill="none" stroke="#fff" stroke-linecap="round" stroke-linejoin="round" stroke-width="1"/>
      <g id="Group_7" data-name="Group 7">
        <g id="Group_6" data-name="Group 6">
          <g id="Group_5" data-name="Group 5">
            <path id="Path_21" data-name="Path 21" d="M40.31,46.8a.813.813,0,0,1-.812-.812v-1.42a.4.4,0,0,0-.264-.374,3.23,3.23,0,1,1,2.152,0,.4.4,0,0,0-.264.374v1.42A.813.813,0,0,1,40.31,46.8Zm0-7.253a1.605,1.605,0,1,0,1.606,1.606A1.607,1.607,0,0,0,40.31,39.548Z" fill="none" stroke="#fff" stroke-linecap="round" stroke-linejoin="round" stroke-width="1"/>
          </g>
        </g>
      </g>
      <path id="Path_22" data-name="Path 22" d="M40.31,51.636a9.285,9.285,0,0,1-9.274-9.274V35.109a.814.814,0,0,1,.812-.812h2.418a.4.4,0,0,0,.4-.4,5.648,5.648,0,1,1,11.3,0,.4.4,0,0,0,.4.4h2.417a.813.813,0,0,1,.812.812v7.253A9.284,9.284,0,0,1,40.31,51.636Z" fill="none" stroke="#fff" stroke-linecap="round" stroke-linejoin="round" stroke-width="1"/>
      <path id="Path_23" data-name="Path 23" d="M40.31,29.877A4.028,4.028,0,0,0,36.287,33.9a.4.4,0,0,0,.4.4h7.253a.4.4,0,0,0,.4-.4A4.028,4.028,0,0,0,40.31,29.877Z" fill="none" stroke="#fff" stroke-linecap="round" stroke-linejoin="round" stroke-width="1"/>
    </g>
  </g>
</svg>
