<svg xmlns="http://www.w3.org/2000/svg" width="33.278" height="36.295" viewBox="0 0 33.278 36.295">
  <g id="Reward" transform="translate(-23.634 -22.278)">
    <g id="Group_3" data-name="Group 3">
      <path id="Path_14" data-name="Path 14" d="M46.249,53.044a.992.992,0,0,0,.223-1.67l-3.156-2.6a1.044,1.044,0,0,1-.381-.806V41.591a1.006,1.006,0,0,1,.609-.924c6.531-2.8,7.6-8.316,7.676-16.75a1.129,1.129,0,0,0-1.126-1.139H30.453a1.129,1.129,0,0,0-1.126,1.139c.078,8.434,1.144,13.953,7.675,16.75a1.006,1.006,0,0,1,.609.924V47.97a1.043,1.043,0,0,1-.38.806l-3.157,2.6a.992.992,0,0,0,.192,1.655" fill="none" stroke="#fff" stroke-linecap="round" stroke-linejoin="round" stroke-width="1"/>
      <path id="Path_15" data-name="Path 15" d="M29.358,25.578H25.379A1.248,1.248,0,0,0,24.137,26.9c.376,6.435,3.55,9.829,8.823,11.049" fill="none" stroke="#fff" stroke-linecap="round" stroke-linejoin="round" stroke-width="1"/>
      <path id="Path_16" data-name="Path 16" d="M51.189,25.578h3.978A1.249,1.249,0,0,1,56.41,26.9c-.376,6.435-3.551,9.829-8.823,11.049" fill="none" stroke="#fff" stroke-linecap="round" stroke-linejoin="round" stroke-width="1"/>
      <rect id="Rectangle_1" data-name="Rectangle 1" width="18.455" height="5.029" rx="2.217" transform="translate(31.045 53.044)" fill="none" stroke="#fff" stroke-linecap="round" stroke-linejoin="round" stroke-width="1"/>
      <path id="Path_17" data-name="Path 17" d="M47.908,25.7c-.176,5.186-.932,8.21-2.729,10.167" fill="none" stroke="#fff" stroke-linecap="round" stroke-linejoin="round" stroke-width="1"/>
    </g>
  </g>
</svg>
