<svg xmlns="http://www.w3.org/2000/svg" width="39.7" height="35.439" viewBox="0 0 39.7 35.439">
  <g id="Risk" transform="translate(-20.8 -22.701)">
    <g id="Group_2" data-name="Group 2">
      <path id="Path_3" data-name="Path 3" d="M36.491,48.385a4.062,4.062,0,0,0,2.476.842h2.524" fill="none" stroke="#fff" stroke-linecap="round" stroke-linejoin="round" stroke-width="1"/>
      <path id="Path_4" data-name="Path 4" d="M54.9,48.385a4.063,4.063,0,0,1-2.477.842H49.9" fill="none" stroke="#fff" stroke-linecap="round" stroke-linejoin="round" stroke-width="1"/>
      <path id="Path_5" data-name="Path 5" d="M33.92,53.434V56.8a.842.842,0,0,0,.841.843h5.048a.843.843,0,0,0,.841-.843V54.275" fill="none" stroke="#fff" stroke-linecap="round" stroke-linejoin="round" stroke-width="1"/>
      <path id="Path_6" data-name="Path 6" d="M59.159,42.5H55.793l-1.682,2.524H37.285L35.6,42.5H32.237a.839.839,0,0,0-.841.839v1.683a.841.841,0,0,0,.841.841l2.524.841-1.3,1.953a2.269,2.269,0,0,0-.381,1.258V52.59a1.685,1.685,0,0,0,1.683,1.685H56.635a1.684,1.684,0,0,0,1.682-1.685V49.912a2.261,2.261,0,0,0-.381-1.258l-1.3-1.953,2.524-.841A.842.842,0,0,0,60,45.019V43.336A.839.839,0,0,0,59.159,42.5Z" fill="none" stroke="#fff" stroke-linecap="round" stroke-linejoin="round" stroke-width="1"/>
      <path id="Path_7" data-name="Path 7" d="M54.952,44.177s-1.41-2.83-1.682-3.364a2.964,2.964,0,0,0-2.524-1.682H40.65a2.963,2.963,0,0,0-2.524,1.682c-.272.534-1.682,3.365-1.682,3.365" fill="none" stroke="#fff" stroke-linecap="round" stroke-linejoin="round" stroke-width="1"/>
      <path id="Path_8" data-name="Path 8" d="M57.476,53.434V56.8a.843.843,0,0,1-.841.843H51.587a.842.842,0,0,1-.841-.843V54.275" fill="none" stroke="#fff" stroke-linecap="round" stroke-linejoin="round" stroke-width="1"/>
      <path id="Path_9" data-name="Path 9" d="M26,42.988s.258.242.4.349a4.061,4.061,0,0,0,2.474.84h0" fill="none" stroke="#fff" stroke-linecap="round" stroke-linejoin="round" stroke-width="1"/>
      <path id="Path_10" data-name="Path 10" d="M23.824,48.386v2.522a.843.843,0,0,0,.841.843h3.366a.843.843,0,0,0,.841-.843V48.386" fill="none" stroke="#fff" stroke-linecap="round" stroke-linejoin="round" stroke-width="1"/>
      <path id="Path_11" data-name="Path 11" d="M35.6,39.131H27.189l-1.682-2.523H22.141a.839.839,0,0,0-.841.839V39.13a.842.842,0,0,0,.841.841l2.524.841-.834,1.252a5.05,5.05,0,0,0-.848,2.8V46.7a1.684,1.684,0,0,0,1.682,1.685H31.4" fill="none" stroke="#fff" stroke-linecap="round" stroke-linejoin="round" stroke-width="1"/>
      <path id="Path_12" data-name="Path 12" d="M45.709,36.606c-.356-.716-.72-1.441-.852-1.682a3.777,3.777,0,0,0-3.366-1.682H31.4a3.775,3.775,0,0,0-3.365,1.682c-.29.525-1.683,3.365-1.683,3.365" fill="none" stroke="#fff" stroke-linecap="round" stroke-linejoin="round" stroke-width="1"/>
      <line id="Line_11" data-name="Line 11" x2="8.413" transform="translate(41.491 51.751)" fill="none" stroke="#fff" stroke-linecap="round" stroke-linejoin="round" stroke-width="1"/>
      <path id="Path_13" data-name="Path 13" d="M44.994,30.594l.739-5.915,2.957,3.7L53.127,23.2l-.739,6.654L58.3,28.376l-3.7,4.436,3.6,2.171-5.08.786" fill="none" stroke="#fff" stroke-linecap="round" stroke-linejoin="round" stroke-width="1"/>
    </g>
  </g>
</svg>
