<svg xmlns="http://www.w3.org/2000/svg" width="104.476" height="51.916" viewBox="0 0 104.476 51.916">
  <g id="Van" transform="translate(-22.99 -14.084)">
    <path id="Path_1" data-name="Path 1" d="M108.123,66a8.265,8.265,0,1,0-8.266-8.265A8.276,8.276,0,0,0,108.123,66Zm0-15.287a7.021,7.021,0,1,1-7.021,7.022A7.031,7.031,0,0,1,108.123,50.713Z" fill="#fff"/>
    <path id="Path_2" data-name="Path 2" d="M34.068,57.735a8.265,8.265,0,1,0,8.264-8.266A8.275,8.275,0,0,0,34.068,57.735Zm15.286,0a7.021,7.021,0,1,1-7.022-7.022A7.028,7.028,0,0,1,49.354,57.735Z" fill="#fff"/>
    <path id="Path_3" data-name="Path 3" d="M31.309,56.741a.621.621,0,0,0-.622-.621H26.094a2.056,2.056,0,0,1-1.86-2.2V51.451h6.257a.622.622,0,0,0,0-1.243H24.234V46.92H26.46a1.214,1.214,0,0,0,1.213-1.213V38.993a1.216,1.216,0,0,0-.707-1.1l-2.732-1.252V17.529a2.054,2.054,0,0,1,1.86-2.2h76.995a4.9,4.9,0,0,1,4.091,2.395l10.377,17.848a1.217,1.217,0,0,0,.442.442l6.624,3.826a2.905,2.905,0,0,1,1.564,2.276h-1.915a1.491,1.491,0,0,0-1.489,1.488v3.452a1.491,1.491,0,0,0,1.489,1.488h1.95v1.665h-6.256a.622.622,0,1,0,0,1.243h6.256v1.7a2.781,2.781,0,0,1-2.533,2.97h-3.741a.622.622,0,1,0,0,1.243h3.741a4.017,4.017,0,0,0,3.777-4.213V42.6a4.214,4.214,0,0,0-2.268-3.862l-6.565-3.791-10.39-17.868a6.14,6.14,0,0,0-5.154-2.994H26.094a3.292,3.292,0,0,0-3.1,3.445V53.916a3.293,3.293,0,0,0,3.1,3.447h4.593A.622.622,0,0,0,31.309,56.741ZM124.272,47.3a.244.244,0,0,1-.245-.243V43.6a.244.244,0,0,1,.245-.243h1.95V47.3ZM26.429,38.993l.031,6.682H24.234V38Z" fill="#fff"/>
    <path id="Path_4" data-name="Path 4" d="M98.709,41.963a.622.622,0,0,0-.622-.622H93.938a.622.622,0,1,0,0,1.244h4.149A.621.621,0,0,0,98.709,41.963Z" fill="#fff"/>
    <path id="Path_5" data-name="Path 5" d="M87.533,45.675a.622.622,0,0,0-.621.623V56.12H54.734a.622.622,0,0,0,0,1.243H95.721a.622.622,0,1,0,0-1.243H88.156V46.3A.623.623,0,0,0,87.533,45.675Z" fill="#fff"/>
    <path id="Path_6" data-name="Path 6" d="M113.122,35.054a.975.975,0,0,0,.011-.964l-7.558-13.532a1.731,1.731,0,0,0-1.51-.885H92.725A1.73,1.73,0,0,0,91,21.4V33.8a1.73,1.73,0,0,0,1.729,1.729h19.561A.974.974,0,0,0,113.122,35.054Zm-20.4-.765a.485.485,0,0,1-.485-.485V21.4a.485.485,0,0,1,.485-.485h11.34a.487.487,0,0,1,.424.248l7.329,13.124Z" fill="#fff"/>
  </g>
</svg>
