<svg id="Comply-Icon" xmlns="http://www.w3.org/2000/svg" xmlns:xlink="http://www.w3.org/1999/xlink" width="94.6" height="95.987" viewBox="0 0 94.6 95.987">
  <defs>
    <clipPath id="clip-path">
      <rect id="Rectangle_2438" data-name="Rectangle 2438" width="94.6" height="95.987" fill="none" stroke="#0a9c82" stroke-width="4"/>
    </clipPath>
  </defs>
  <g id="Group_6906" data-name="Group 6906">
    <g id="Group_6905" data-name="Group 6905" clip-path="url(#clip-path)">
      <path id="Path_29347" data-name="Path 29347" d="M50.867,3a2,2,0,0,1,1.068.309L97.8,32.277a2,2,0,0,1-1.068,3.691H5a2,2,0,0,1-1.068-3.691L49.8,3.309A2,2,0,0,1,50.867,3ZM89.821,31.968,50.867,7.365l-38.954,24.6Z" transform="translate(-3.567 -3.546)" fill="#0a9c82"/>
    </g>
  </g>
  <path id="Path_29348" data-name="Path 29348" d="M44.419,174.894a2,2,0,0,1-1.568-3.239l3.558-4.508V136.2l-3.558-4.508a2,2,0,1,1,3.14-2.478l3.989,5.053a2,2,0,0,1,.43,1.239v32.336a2,2,0,0,1-.43,1.239l-3.989,5.053A2,2,0,0,1,44.419,174.894Z" transform="translate(-31.686 -92.508)" fill="#0a9c82"/>
  <path id="Path_29349" data-name="Path 29349" d="M91.308,174.894a2,2,0,0,1-1.571-.761l-3.989-5.053a2,2,0,0,1-.43-1.239V135.505a2,2,0,0,1,.43-1.239l3.989-5.053a2,2,0,1,1,3.14,2.478L89.318,136.2v30.947l3.559,4.508a2,2,0,0,1-1.568,3.239Z" transform="translate(-62.287 -92.508)" fill="#0a9c82"/>
  <path id="Path_29350" data-name="Path 29350" d="M136.592,174.894a2,2,0,0,1-1.568-3.239l3.558-4.508V136.2l-3.558-4.508a2,2,0,1,1,3.14-2.478l3.989,5.053a2,2,0,0,1,.43,1.239v32.336a2,2,0,0,1-.43,1.239l-3.989,5.053A2,2,0,0,1,136.592,174.894Z" transform="translate(-97.437 -92.508)" fill="#0a9c82"/>
  <path id="Path_29351" data-name="Path 29351" d="M183.482,174.894a2,2,0,0,1-1.571-.761l-3.989-5.053a2,2,0,0,1-.43-1.239V135.505a2,2,0,0,1,.43-1.239l3.989-5.053a2,2,0,1,1,3.14,2.478l-3.558,4.508v30.947l3.558,4.508a2,2,0,0,1-1.568,3.239Z" transform="translate(-128.038 -92.508)" fill="#0a9c82"/>
  <path id="Path_29352" data-name="Path 29352" d="M228.766,174.894a2,2,0,0,1-1.568-3.239l3.559-4.508V136.2l-3.559-4.508a2,2,0,1,1,3.14-2.478l3.989,5.053a2,2,0,0,1,.43,1.239v32.336a2,2,0,0,1-.43,1.239l-3.989,5.053A2,2,0,0,1,228.766,174.894Z" transform="translate(-163.188 -92.508)" fill="#0a9c82"/>
  <path id="Path_29353" data-name="Path 29353" d="M275.656,174.894a2,2,0,0,1-1.571-.761L270.1,169.08a2,2,0,0,1-.43-1.239V135.505a2,2,0,0,1,.43-1.239l3.989-5.053a2,2,0,1,1,3.14,2.478l-3.558,4.508v30.947l3.558,4.508a2,2,0,0,1-1.568,3.239Z" transform="translate(-193.788 -92.508)" fill="#0a9c82"/>
  <path id="Path_29354" data-name="Path 29354" d="M104.649,285.437a2,2,0,0,1-2-2v-5.073h-77.1v5.073a2,2,0,0,1-4,0v-7.073a2,2,0,0,1,2-2h81.1a2,2,0,0,1,2,2v7.073A2,2,0,0,1,104.649,285.437Z" transform="translate(-16.8 -195.978)" fill="#0a9c82"/>
  <g id="Group_6908" data-name="Group 6908">
    <g id="Group_6907" data-name="Group 6907" clip-path="url(#clip-path)">
      <path id="Path_29355" data-name="Path 29355" d="M96.733,113.663H5a2,2,0,0,1-2-2V104.59a2,2,0,1,1,4,0v5.073H94.733V104.59a2,2,0,0,1,4,0v7.073A2,2,0,0,1,96.733,113.663Z" transform="translate(-3.567 -74.168)" fill="#0a9c82"/>
      <path id="Rectangle_2439" data-name="Rectangle 2439" d="M0-2H91.733a2,2,0,0,1,2,2V7.073a2,2,0,0,1-2,2H0a2,2,0,0,1-2-2V0A2,2,0,0,1,0-2ZM89.733,2H2V5.073H89.733Z" transform="translate(1.433 87.459)" fill="#0a9c82"/>
    </g>
  </g>
  <path id="Line_2769" data-name="Line 2769" d="M39.042,2H0A2,2,0,0,1-2,0,2,2,0,0,1,0-2H39.042a2,2,0,0,1,2,2A2,2,0,0,1,39.042,2Z" transform="translate(27.779 22.787)" fill="#0a9c82"/>
</svg>
