<svg id="Crash-Icon" xmlns="http://www.w3.org/2000/svg" xmlns:xlink="http://www.w3.org/1999/xlink" width="97.009" height="75.23" viewBox="0 0 97.009 75.23">
  <defs>
    <clipPath id="clip-path">
      <rect id="Rectangle_2436" data-name="Rectangle 2436" width="97.009" height="75.23" fill="none" stroke="#0a9c82" stroke-width="4"/>
    </clipPath>
  </defs>
  <g id="Group_6901" data-name="Group 6901" transform="translate(0)" clip-path="url(#clip-path)">
    <path id="Path_29327" data-name="Path 29327" d="M33.831,26.045l-3.662-1.61,2.62-5.957A8.052,8.052,0,0,1,40.4,13H64.293v4H40.4a4.062,4.062,0,0,0-3.844,2.825l-.03.092Z" transform="translate(32.587 15.447)" fill="#0a9c82"/>
    <path id="Line_2765" data-name="Line 2765" d="M18.016,2H0V-2H18.016Z" transform="translate(78.993 56.95)" fill="#0a9c82"/>
    <path id="Path_29328" data-name="Path 29328" d="M42.147,55.815H34.073a4.038,4.038,0,0,1-4.018-4.048V43.031c-2.018-1.67-2.018-3.908-2.018-5.6V34.183c0-1.671,0-3.86,1.73-5.645l-2.126-.708A4.042,4.042,0,0,1,24,23.8V21.048A4.038,4.038,0,0,1,28.018,17h6.055c.943,0,1.535.513,2.963,1.753,1.642,1.425,5.06,4.391,7.128,4.391H70.4v4H44.165a10.429,10.429,0,0,1-5.6-2.1,41.361,41.361,0,0,1-4.145-3.27c-.3-.263-.655-.569-.906-.774H28.02a.055.055,0,0,0-.02.048V23.8a.055.055,0,0,0,.02.048h.321l.309.1,5.405,1.8v4.576l-.911.591c-1.022.663-1.108,1.341-1.108,3.266v3.248c0,1.88.079,2.293.992,2.8l1.027.572V51.767a.055.055,0,0,0,.02.048h8.07a.055.055,0,0,0,.02-.048V43.623H70.4v4H46.165v4.144A4.038,4.038,0,0,1,42.147,55.815Z" transform="translate(26.477 19.639)" fill="#0a9c82"/>
    <path id="Path_29329" data-name="Path 29329" d="M39.363,29.048c-3.108,0-5.822-.084-8.667-2.532L33.3,23.484c1.824,1.569,3.449,1.567,6.4,1.564h2.387v4H39.363Z" transform="translate(32.587 25.926)" fill="#0a9c82"/>
    <path id="Line_2766" data-name="Line 2766" d="M11.78,2H0V-2H11.78Z" transform="translate(58.206 65.387)" fill="#0a9c82"/>
    <path id="Path_29330" data-name="Path 29330" d="M32.481,26.045l-2.695-6.128-.03-.092A4.062,4.062,0,0,0,25.911,17H0V13H25.911a8.052,8.052,0,0,1,7.611,5.477l2.62,5.957Z" transform="translate(0 15.447)" fill="#0a9c82"/>
    <path id="Line_2767" data-name="Line 2767" d="M20.095,2H0V-2H20.095Z" transform="translate(0 56.95)" fill="#0a9c82"/>
    <path id="Path_29331" data-name="Path 29331" d="M38.348,55.815H30.275a4.038,4.038,0,0,1-4.018-4.048V47.623H0v-4H30.257v8.144a.055.055,0,0,0,.02.048h8.07a.055.055,0,0,0,.02-.048V40.8l1.027-.572c.912-.508.992-.921.992-2.8V34.183c0-1.925-.086-2.6-1.108-3.266l-.911-.591V25.749l5.713-1.9H44.4a.055.055,0,0,0,.02-.048V21.048A.055.055,0,0,0,44.4,21H38.912c-.251.205-.6.511-.906.774a41.36,41.36,0,0,1-4.145,3.27,10.429,10.429,0,0,1-5.6,2.1H0v-4H28.257c2.068,0,5.486-2.966,7.128-4.391C36.814,17.513,37.4,17,38.348,17H44.4a4.038,4.038,0,0,1,4.018,4.048V23.8a4.042,4.042,0,0,1-3.641,4.03l-2.126.708c1.731,1.785,1.73,3.974,1.73,5.645v3.248c0,1.692,0,3.93-2.018,5.6v8.736A4.038,4.038,0,0,1,38.348,55.815Z" transform="translate(0 19.639)" fill="#0a9c82"/>
    <path id="Path_29332" data-name="Path 29332" d="M14.729,29.048H12v-4h2.387c2.951,0,4.577,0,6.4-1.564L23.4,26.516C20.551,28.964,17.836,29.048,14.729,29.048Z" transform="translate(12.22 25.926)" fill="#0a9c82"/>
    <path id="Line_2768" data-name="Line 2768" d="M11.78,2H0V-2H11.78Z" transform="translate(28.41 65.387)" fill="#0a9c82"/>
    <path id="Path_29333" data-name="Path 29333" d="M22.676,29.089,11.639,18.85a2,2,0,0,1,1.05-3.442L23.8,13.665,22.056,1.279A2,2,0,0,1,25.488-.375L35.674,10.379,45.859-.375A2,2,0,0,1,49.311,1V12.911l8.183-1.586a2,2,0,0,1,1.984,3.159L51.642,24.995,48.435,22.6l4.749-6.37L47.692,17.3a2,2,0,0,1-2.381-1.963V6.02l-8.186,8.643a2,2,0,0,1-2.9,0L26.889,6.921l1.145,8.135a2,2,0,0,1-1.671,2.255L17.381,18.72,25.4,26.157Z" transform="translate(13.238 0.776)" fill="#0a9c82"/>
  </g>
</svg>
