<svg id="Define-Date" xmlns="http://www.w3.org/2000/svg" xmlns:xlink="http://www.w3.org/1999/xlink" width="124.839" height="100.595" viewBox="0 0 124.839 100.595">
  <defs>
    <clipPath id="clip-path">
      <rect id="Rectangle_2722" data-name="Rectangle 2722" width="124.839" height="100.595" fill="#0a9c82"/>
    </clipPath>
  </defs>
  <g id="Group_7252" data-name="Group 7252" clip-path="url(#clip-path)">
    <path id="Path_29552" data-name="Path 29552" d="M165.882,144.9H76.874a5.674,5.674,0,0,1-5.623-4.785L59.17,65.593a8.278,8.278,0,0,1,8.172-9.6h83.776a8.246,8.246,0,0,1,8.171,6.953L171.5,138.3a5.7,5.7,0,0,1-5.623,6.607M67.342,61.35a2.918,2.918,0,0,0-2.881,3.386h0L76.542,139.26a.336.336,0,0,0,.333.283h89.007a.336.336,0,0,0,.333-.391L154,63.8a2.908,2.908,0,0,0-2.881-2.451Z" transform="translate(-46.74 -44.308)" fill="#0a9c82"/>
    <path id="Path_29553" data-name="Path 29553" d="M18.814,141.859H5.7a5.7,5.7,0,0,1-5.623-6.608L12.125,63.959a9.466,9.466,0,0,1,9.383-7.969,2.68,2.68,0,1,1,0,5.36,4.133,4.133,0,0,0-4.1,3.485L5.362,136.127a.315.315,0,0,0,.079.254.323.323,0,0,0,.256.119H18.814a2.68,2.68,0,0,1,0,5.36" transform="translate(0 -44.308)" fill="#0a9c82"/>
    <path id="Path_29554" data-name="Path 29554" d="M109.607,25.8a2.68,2.68,0,0,1-.4-5.329c.574-.283,1.87-3.162,1.142-7.906-.712-4.637-2.735-6.994-3.456-7.187a4.179,4.179,0,0,0-1.065,2.309A2.68,2.68,0,1,1,100.6,6.5c.831-3.684,2.827-6.031,5.475-6.438,4.4-.673,8.428,4.238,9.571,11.683a19.845,19.845,0,0,1-.431,8.633c-1.293,4.189-3.81,5.171-5.2,5.384a2.707,2.707,0,0,1-.41.032" transform="translate(-79.555 -0.003)" fill="#0a9c82"/>
    <path id="Path_29555" data-name="Path 29555" d="M216.437,25.793a2.68,2.68,0,0,1-.4-5.329c.574-.283,1.869-3.162,1.141-7.906-.712-4.637-2.735-6.994-3.455-7.187a4.176,4.176,0,0,0-1.065,2.308A2.68,2.68,0,1,1,207.427,6.5c.831-3.685,2.826-6.031,5.475-6.438,4.4-.678,8.428,4.238,9.571,11.684a19.842,19.842,0,0,1-.431,8.633c-1.293,4.189-3.81,5.171-5.2,5.384a2.708,2.708,0,0,1-.41.032" transform="translate(-164.095 0.001)" fill="#0a9c82"/>
    <path id="Path_29556" data-name="Path 29556" d="M321.731,25.8a2.68,2.68,0,0,1-.4-5.329c.574-.283,1.87-3.162,1.142-7.906-.712-4.637-2.735-6.994-3.456-7.187a4.179,4.179,0,0,0-1.065,2.309,2.68,2.68,0,1,1-5.228-1.18c.831-3.684,2.827-6.031,5.475-6.438,4.406-.673,8.428,4.238,9.571,11.683a19.849,19.849,0,0,1-.431,8.633c-1.293,4.189-3.81,5.171-5.2,5.384a2.705,2.705,0,0,1-.41.032" transform="translate(-247.42 -0.003)" fill="#0a9c82"/>
    <path id="Path_29557" data-name="Path 29557" d="M422.867,25.8a2.68,2.68,0,0,1-.4-5.329c.574-.283,1.869-3.162,1.141-7.906-.712-4.637-2.734-6.994-3.456-7.187a4.179,4.179,0,0,0-1.065,2.309,2.68,2.68,0,1,1-5.228-1.18c.831-3.684,2.827-6.031,5.475-6.438,4.407-.673,8.429,4.239,9.571,11.684a19.847,19.847,0,0,1-.431,8.633c-1.293,4.189-3.81,5.171-5.2,5.384a2.708,2.708,0,0,1-.41.032" transform="translate(-327.454 -0.003)" fill="#0a9c82"/>
    <path id="Path_29558" data-name="Path 29558" d="M240.432,228.7a2.812,2.812,0,0,1-1.731-.606L219.22,212.162a2.68,2.68,0,0,1-.424-3.712l5.294-6.853a2.679,2.679,0,0,1,3.819-.435l8.97,7.346,13.806-18a2.679,2.679,0,0,1,3.822-.445l8.391,6.853a2.679,2.679,0,0,1,.43,3.708l-20.771,27.037a2.68,2.68,0,0,1-1.813,1.029,2.613,2.613,0,0,1-.312.018m-15.8-19.039,15.346,12.553,17.516-22.8-4.236-3.46-13.808,18.009a2.68,2.68,0,0,1-3.825.443l-8.978-7.354Z" transform="translate(-172.702 -149.925)" fill="#0a9c82"/>
  </g>
</svg>
