<svg id="Driver-Icon" xmlns="http://www.w3.org/2000/svg" xmlns:xlink="http://www.w3.org/1999/xlink" width="92.043" height="93.387" viewBox="0 0 92.043 93.387">
  <defs>
    <clipPath id="clip-path">
      <rect id="Rectangle_2432" data-name="Rectangle 2432" width="92.043" height="93.387" fill="none" stroke="#0a9c82" stroke-width="4"/>
    </clipPath>
  </defs>
  <g id="Group_6897" data-name="Group 6897" transform="translate(0 0)" clip-path="url(#clip-path)">
    <path id="Path_29316" data-name="Path 29316" d="M61.045,14.5h0a46.082,46.082,0,0,1,32.9,13.808,45.594,45.594,0,0,1,10.232,15.273,46.12,46.12,0,0,1,3.416,18.13,47.541,47.541,0,0,1-3.535,18.029A47.016,47.016,0,0,1,93.983,95.051a46.089,46.089,0,0,1-65.846.03A46.96,46.96,0,0,1,17.912,79.471a47.976,47.976,0,0,1-.015-35.5A46.961,46.961,0,0,1,28.108,28.351,46.079,46.079,0,0,1,61.045,14.5Zm0,90.4A41.946,41.946,0,0,0,91.133,92.244,43.252,43.252,0,0,0,103.591,61.7q0-.015,0-.031A42.046,42.046,0,0,0,91.129,31.153l-.022-.022a42.092,42.092,0,0,0-60.149.027,43.713,43.713,0,0,0,.027,61.113A41.949,41.949,0,0,0,61.045,104.9Zm-.064-83.36A39.226,39.226,0,0,1,88.994,33.3l.021.022a40.425,40.425,0,0,1,7.729,10.8l.007.014a37.53,37.53,0,0,1,1.541,3.688,4.229,4.229,0,0,1-.078,3.152,4.336,4.336,0,0,1-5.246,2.5l-.009,0A90.741,90.741,0,0,0,74.43,49.9l-.021,0c-4.195-.407-8.711-.615-13.423-.619h-.118c-4.665,0-9.148.208-13.325.619l-.017,0c-1.885.169-3.743.383-5.521.637a83.546,83.546,0,0,0-12.959,2.924,4.275,4.275,0,0,1-3.187-.252l-.007,0a4.376,4.376,0,0,1-2.086-2.26,4.424,4.424,0,0,1-.1-3.069l.01-.029a36.608,36.608,0,0,1,4.364-8.6,42.456,42.456,0,0,1,4.906-5.918A39.23,39.23,0,0,1,60.981,21.54Zm32.17,24.339a36.434,36.434,0,0,0-6.968-9.73l-.011-.011-.028-.029a35.237,35.237,0,0,0-50.352.027l-.008.008a38.447,38.447,0,0,0-4.446,5.363,32.61,32.61,0,0,0-3.88,7.641.407.407,0,0,0,.186.479.276.276,0,0,0,.2.015l.006,0a87.557,87.557,0,0,1,13.585-3.066c1.845-.263,3.77-.485,5.721-.66,4.3-.423,8.916-.637,13.707-.637h.121c4.835,0,9.476.218,13.794.637a94.752,94.752,0,0,1,19.33,3.726.319.319,0,0,0,.09.013.355.355,0,0,0,.322-.228l.011-.026a.252.252,0,0,0,0-.187l-.012-.034A33.515,33.515,0,0,0,93.152,45.879ZM61.081,52.171a9.331,9.331,0,0,1,6.664,2.784,9.632,9.632,0,0,1,.05,13.491,9.369,9.369,0,0,1-13.377.05,9.611,9.611,0,0,1-2.781-6.753,9.5,9.5,0,0,1,9.445-9.572Zm0,15.108a5.356,5.356,0,0,0,3.854-1.631,5.633,5.633,0,0,0-.029-7.875,5.369,5.369,0,0,0-7.68.029l-.024.024a5.331,5.331,0,0,0-1.567,3.866q0,.017,0,.033a5.647,5.647,0,0,0,1.62,3.952A5.358,5.358,0,0,0,61.08,67.279Zm35.135-6.862c.119,0,.24.005.359.015a4.357,4.357,0,0,1,3.956,4.688,38.481,38.481,0,0,1-6.173,18.439l-.014.022a4.459,4.459,0,0,1-1.847,1.568,4.211,4.211,0,0,1-4.589-.678,21.844,21.844,0,0,1-4.626-5.423,12.2,12.2,0,0,1-1.717-5.928q0-.014,0-.028V72.9q0-.009,0-.017a9.683,9.683,0,0,1,1.8-5.617,14.012,14.012,0,0,1,4.9-4.11l.012-.006a28.957,28.957,0,0,1,5.758-2.3c.352-.1.711-.2,1.068-.294A4.294,4.294,0,0,1,96.215,60.417Zm-5.2,20.936a34.474,34.474,0,0,0,5.52-16.514l0-.028a.352.352,0,0,0-.3-.393.292.292,0,0,0-.1.009c-.339.09-.679.184-1.012.278l-.009,0a24.948,24.948,0,0,0-4.959,1.977c-3.067,1.651-4.57,3.688-4.595,6.228v.163c.044,2.711,1.721,5.534,4.985,8.391l.018.016a.237.237,0,0,0,.122.059l.03,0a.186.186,0,0,0,.08-.018l.033-.015A.461.461,0,0,0,91.02,81.353ZM25.771,60.422a4.207,4.207,0,0,1,1.034.129l.033.008c.376.093.756.192,1.127.3a28.841,28.841,0,0,1,5.751,2.3l.009,0a14.038,14.038,0,0,1,4.91,4.109,9.689,9.689,0,0,1,1.81,5.617q0,.01,0,.02v.187q0,.017,0,.033a12.224,12.224,0,0,1-1.731,5.926,21.928,21.928,0,0,1-4.646,5.428,4.316,4.316,0,0,1-2.2,1.019,4.221,4.221,0,0,1-2.415-.354,4.339,4.339,0,0,1-1.818-1.595,38.476,38.476,0,0,1-6.155-18.433,4.361,4.361,0,0,1,2.679-4.37A4.186,4.186,0,0,1,25.771,60.422Zm.164,4.034q-.055-.012-.109-.027a.206.206,0,0,0-.135.009l-.007,0a.376.376,0,0,0-.218.378v.02a34.468,34.468,0,0,0,5.519,16.529L31,81.39a.346.346,0,0,0,.145.129l.014.007a.181.181,0,0,0,.106.016h.01a.322.322,0,0,0,.164-.077c3.27-2.856,4.955-5.68,5.006-8.391v-.159c-.029-2.54-1.536-4.578-4.608-6.229a24.833,24.833,0,0,0-4.947-1.977C26.575,64.62,26.254,64.536,25.935,64.457ZM60.978,85.6A73.187,73.187,0,0,1,80.5,88.254l.044.013A4.288,4.288,0,0,1,83,90.21q.026.04.05.082a4.311,4.311,0,0,1,.433,3.218,4.268,4.268,0,0,1-1.866,2.636l-.046.029a39.868,39.868,0,0,1-41.138,0l-.021-.013a4.38,4.38,0,0,1,1-7.9l.043-.012A73.187,73.187,0,0,1,60.978,85.6ZM79.4,92.1a69.143,69.143,0,0,0-36.846,0,.265.265,0,0,0-.143.127l-.034.061a.291.291,0,0,0-.028.219l.01.037a.353.353,0,0,0,.146.211,35.868,35.868,0,0,0,36.967.011.3.3,0,0,0,.115-.178q.01-.042.021-.085a.286.286,0,0,0-.009-.177q-.03-.049-.057-.1A.265.265,0,0,0,79.4,92.1Z" transform="translate(-15.027 -15.008)" fill="#0a9c82"/>
  </g>
</svg>
