<svg xmlns="http://www.w3.org/2000/svg" xmlns:xlink="http://www.w3.org/1999/xlink" width="90.628" height="93.906" viewBox="0 0 90.628 93.906">
  <defs>
    <clipPath id="clip-path">
      <rect id="Rectangle_2435" data-name="Rectangle 2435" width="90.628" height="93.906" fill="none" stroke="#0a9c82" stroke-width="4"/>
    </clipPath>
  </defs>
  <g id="Fuel-Icon" transform="translate(0)">
    <g id="Group_6899" data-name="Group 6899" transform="translate(0)" clip-path="url(#clip-path)">
      <path id="Path_29317" data-name="Path 29317" d="M84.669,149.362a2,2,0,0,1-2-2v-.66a35.284,35.284,0,0,0-8.424-22.948,54.185,54.185,0,0,1-9.2-15.211,48.245,48.245,0,0,1-3.255-13.51c-6.239,5.285-9.583,10.451-9.583,19.3a2,2,0,0,1-3.617,1.177,10.6,10.6,0,0,0-6.508-4.6,52.906,52.906,0,0,1-3.179,9.02,35.619,35.619,0,0,1-6.852,9.919,23.494,23.494,0,0,0-6.12,11.458,2,2,0,1,1-3.911-.841,27.493,27.493,0,0,1,7.165-13.408c5.363-5.494,7.678-11.582,9.506-19.035a2,2,0,0,1,2.373-1.477,20.562,20.562,0,0,1,5.808,1.986,12.924,12.924,0,0,1,1.661,1.108,24.854,24.854,0,0,1,3.833-10.253c2.688-4.09,6.411-7.205,10.033-9.963a2,2,0,0,1,3.211,1.591c0,10.606,4.148,21.31,11.68,30.138A39.284,39.284,0,0,1,86.669,146.7v.659A2,2,0,0,1,84.669,149.362Z" transform="translate(-22.122 -83.896)" fill="#0a9c82"/>
      <path id="Path_29477" data-name="Path 29477" d="M29.119-2A38.782,38.782,0,0,1,42.9.442a29.68,29.68,0,0,1,10.537,6.64,21.094,21.094,0,0,1,4.351,6.245,17.6,17.6,0,0,1,1.556,7.343A18.151,18.151,0,0,1,56.761,29.8a24.319,24.319,0,0,1-6.738,7.28,33.371,33.371,0,0,1-9.727,4.831,40.146,40.146,0,0,1-11.758,1.813,38.842,38.842,0,0,1-14.093-2.441,29.68,29.68,0,0,1-10.537-6.64A21.094,21.094,0,0,1-.444,28.4,17.6,17.6,0,0,1-2,21.059,18.151,18.151,0,0,1,.587,11.924a24.319,24.319,0,0,1,6.738-7.28A33.371,33.371,0,0,1,17.053-.186,40.146,40.146,0,0,1,28.811-2Zm-.889,41.729h.278a33.009,33.009,0,0,0,19.154-5.873c4.921-3.6,7.65-8.29,7.686-13.214A15.027,15.027,0,0,0,50.6,9.9C45.691,4.953,37.66,2,29.119,2H28.84A33.009,33.009,0,0,0,9.686,7.874c-4.921,3.6-7.65,8.29-7.686,13.214A15.027,15.027,0,0,0,6.746,31.829C11.657,36.776,19.688,39.729,28.229,39.729Z" transform="translate(-8.863 72.87) rotate(-45)" fill="#0a9c82"/>
      <path id="Path_29318" data-name="Path 29318" d="M239.982,909.064a2,2,0,0,1,0-4c2.818,0,6.415-1.493,10.127-4.205a39.334,39.334,0,0,0,9.43-9.922,2,2,0,0,1,3.354,2.179,42.872,42.872,0,0,1-10.425,10.973,30.578,30.578,0,0,1-6.2,3.57A16.5,16.5,0,0,1,239.982,909.064Z" transform="translate(-221.475 -822.226)" fill="#0a9c82"/>
      <path id="Path_29319" data-name="Path 29319" d="M539.665,770.216a2,2,0,0,1-1.779-2.911,14.474,14.474,0,0,0,1.563-6,2,2,0,1,1,4,.15,18.5,18.5,0,0,1-2,7.674A2,2,0,0,1,539.665,770.216Z" transform="translate(-498.049 -701.8)" fill="#0a9c82"/>
      <path id="Path_29320" data-name="Path 29320" d="M146.048,645.062a4.929,4.929,0,0,1,1.764.325,5.051,5.051,0,0,1,2.908,6.456,35.655,35.655,0,0,1-8.2,12.287,35.114,35.114,0,0,1-12.122,8.327,4.946,4.946,0,0,1-3.52,0A5.052,5.052,0,0,1,123.971,666a35.656,35.656,0,0,1,8.2-12.287,35.113,35.113,0,0,1,12.123-8.327A4.929,4.929,0,0,1,146.048,645.062Zm-17.405,23.718a.945.945,0,0,0,.338-.062l.016-.006c7.124-2.65,15.351-11,17.965-18.234l.006-.015a1.039,1.039,0,0,0-.581-1.337.948.948,0,0,0-.675,0l-.016.006c-7.124,2.65-15.351,11-17.965,18.234l-.006.016a1.039,1.039,0,0,0,.581,1.337A.944.944,0,0,0,128.642,668.779Z" transform="translate(-115.967 -596.43)" fill="#0a9c82"/>
      <path id="Line_2756" data-name="Line 2756" d="M0,11.714a2,2,0,0,1-2-2V0A2,2,0,0,1,0-2,2,2,0,0,1,2,0V9.714A2,2,0,0,1,0,11.714Z" transform="translate(79.78 69.291)" fill="#0a9c82"/>
      <path id="Line_2757" data-name="Line 2757" d="M0,11.714a2,2,0,0,1-2-2V0A2,2,0,0,1,0-2,2,2,0,0,1,2,0V9.714A2,2,0,0,1,0,11.714Z" transform="translate(79.78 82.891)" fill="#0a9c82"/>
      <path id="Line_2758" data-name="Line 2758" d="M0,11.714a2,2,0,0,1-2-2V0A2,2,0,0,1,0-2,2,2,0,0,1,2,0V9.714A2,2,0,0,1,0,11.714Z" transform="translate(72.12 69.291)" fill="#0a9c82"/>
      <path id="Line_2759" data-name="Line 2759" d="M0,11.714a2,2,0,0,1-2-2V0A2,2,0,0,1,0-2,2,2,0,0,1,2,0V9.714A2,2,0,0,1,0,11.714Z" transform="translate(72.12 82.891)" fill="#0a9c82"/>
      <path id="Line_2760" data-name="Line 2760" d="M0,11.714a2,2,0,0,1-2-2V0A2,2,0,0,1,0-2,2,2,0,0,1,2,0V9.714A2,2,0,0,1,0,11.714Z" transform="translate(64.462 69.291)" fill="#0a9c82"/>
      <path id="Line_2761" data-name="Line 2761" d="M0,11.714a2,2,0,0,1-2-2V0A2,2,0,0,1,0-2,2,2,0,0,1,2,0V9.714A2,2,0,0,1,0,11.714Z" transform="translate(64.462 82.891)" fill="#0a9c82"/>
      <path id="Path_29321" data-name="Path 29321" d="M525.015,910.842a7.719,7.719,0,0,1-7.037-4.609,2,2,0,0,1,3.656-1.622,3.72,3.72,0,0,0,3.385,2.231h38.33a3.783,3.783,0,0,0,3.726-3.827V891.327a3.834,3.834,0,0,0-1.109-2.706,3.672,3.672,0,0,0-2.627-1.1H538.522v7.714a2,2,0,0,1-4,0v-9.714a2,2,0,0,1,2-2h26.821a7.64,7.64,0,0,1,5.467,2.291,7.813,7.813,0,0,1,2.266,5.515v11.687a7.787,7.787,0,0,1-7.722,7.831H525.015Z" transform="translate(-479.72 -816.227)" fill="#0a9c82"/>
      <path id="Line_2762" data-name="Line 2762" d="M0,11.714a2,2,0,0,1-2-2V0A2,2,0,0,1,0-2,2,2,0,0,1,2,0V9.714A2,2,0,0,1,0,11.714Z" transform="translate(56.802 82.891)" fill="#0a9c82"/>
      <path id="Line_2763" data-name="Line 2763" d="M0,11.714a2,2,0,0,1-2-2V0A2,2,0,0,1,0-2,2,2,0,0,1,2,0V9.714A2,2,0,0,1,0,11.714Z" transform="translate(49.143 69.291)" fill="#0a9c82"/>
      <path id="Line_2764" data-name="Line 2764" d="M0,11.714a2,2,0,0,1-2-2V0A2,2,0,0,1,0-2,2,2,0,0,1,2,0V9.714A2,2,0,0,1,0,11.714Z" transform="translate(49.143 82.891)" fill="#0a9c82"/>
      <path id="Path_29322" data-name="Path 29322" d="M785.228,576.912a2,2,0,0,1-.761-3.85,13.42,13.42,0,0,0,6.353-5.417,2,2,0,0,1,2.76-.649,20.588,20.588,0,0,0,10.873,3.117h.022a20.668,20.668,0,0,0,8.713-1.914,2,2,0,1,1,1.675,3.633,24.64,24.64,0,0,1-10.387,2.282h-.026a24.562,24.562,0,0,1-11.329-2.778,17.482,17.482,0,0,1-7.132,5.426A1.994,1.994,0,0,1,785.228,576.912Z" transform="translate(-724.672 -524.194)" fill="#0a9c82"/>
      <path id="Path_29323" data-name="Path 29323" d="M343.368,59.712a2,2,0,0,1-1.476-.65,17.558,17.558,0,0,1-4.6-11.9,17.851,17.851,0,0,1,1.25-6.564,2,2,0,1,1,3.721,1.468,13.866,13.866,0,0,0-.971,5.1,13.567,13.567,0,0,0,3.554,9.195,2,2,0,0,1-1.475,3.35Z" transform="translate(-313.124 -38.1)" fill="#0a9c82"/>
      <path id="Path_29324" data-name="Path 29324" d="M833.391,477.7a2,2,0,0,1-1.234-3.575,13.634,13.634,0,0,0,5.168-10.7,2,2,0,0,1,2-2h0a2,2,0,0,1,2,2,17.754,17.754,0,0,1-1.757,7.715,17.52,17.52,0,0,1-4.946,6.142A1.992,1.992,0,0,1,833.391,477.7Z" transform="translate(-769.12 -427.163)" fill="#0a9c82"/>
      <path id="Path_29325" data-name="Path 29325" d="M685.161,254.507a2,2,0,0,1-.745-3.857,13.392,13.392,0,0,0,7.367-7.244,2,2,0,1,1,3.679,1.569,17.521,17.521,0,0,1-3.853,5.655,17.268,17.268,0,0,1-5.705,3.733A2,2,0,0,1,685.161,254.507Z" transform="translate(-632.322 -225.083)" fill="#0a9c82"/>
      <path id="Path_29326" data-name="Path 29326" d="M984.859,32.1a2,2,0,1,1,0-4,11.516,11.516,0,0,0,11.4-11.6,2,2,0,0,1,4,0,15.6,15.6,0,0,1-4.5,11.021,15.341,15.341,0,0,1-4.9,3.349A15.143,15.143,0,0,1,984.859,32.1Z" transform="translate(-908.908 -15.209)" fill="#0a9c82"/>
    </g>
  </g>
</svg>
