<svg id="Group_2" data-name="Group 2" xmlns="http://www.w3.org/2000/svg" xmlns:xlink="http://www.w3.org/1999/xlink" width="912.611" height="820.243" viewBox="0 0 912.611 820.243">
  <defs>
    <clipPath id="clip-path">
      <rect id="Rectangle_1" data-name="Rectangle 1" width="912.611" height="820.243" fill="none" stroke="#0a9c82" stroke-width="5"/>
    </clipPath>
  </defs>
  <g id="Group_1" data-name="Group 1" clip-path="url(#clip-path)">
    <path id="Path_1" data-name="Path 1" d="M500.681,760.556c50.293,10.4-142.344,10.467-142.344,10.467L2.5,777.979s454.023,15.144,495.771,20.331,361.617,20.761,361.617,20.761l-659.456-.047,358.9-10.033,5.2-323.877s12.487-2.1,10.749-12.225c-1.746-10.138-10.476-8.646-14.279.487s13.642,13.128,22.2,19.6,71.2,54.832,71.2,54.832l2.54-9.8-57.877-63.966-24.423-5.81,10.287-18.139,37.007-78.639-14.055,2.6L563.407,443l1.778,16.027s.36,12.489-12.631,14.347-96.062,22.74-96.062,22.74l6.4,8.939,88.419-12.478s22.419-11.367,20.283-18.641-9.611.558-1.958,11.372,4.977,11.548,5.336,28.882,5.668,262.14,5.668,262.14-5.3-10.968,5.25-11.414,13.939-1.322,13.939-1.322V791.24l9.386-542.932s21.336-2.61,20.181-21.073-26.349-13.973-26.023-.681,6.265,13.973,6.265,13.973-6.426-11.738-1.152-16.736-.493-8.415-.493-8.415l-178.642,97,11.692,10.32,148.188-49.019,24.834-36.335s-5.95-53.1-11.292-67.714S654.426,11.768,654.426,11.768l20.7-9.268L630.46,217.764l-5.085,4.816s1.734-7.03,32.061-7.715,24.69-.676,24.69-.676l126.929,88.036,3.244,19.74L633.82,236.425s-2.5-18.206-13.907-12.691-10.088,9.645-3.218,11.94,4.973,6.584,5.27,23.583S632.619,792.5,632.619,792.5s-9.961-29.258,18.3-28.919,116.843-2.347,116.843-2.347,6.444-.037,4.677,10.6-3.9,13.526-3.9,13.526L774.2,437.91s19.015-.638,14.819-17.463-19.17-1.544-18.678,3.022,5.843,12.982-.843,22.307-9.283,11.869-9.283,11.869l-88.806,27.925-13.337-7.293L763.512,425.75s26.623-2.6,21.284-20.589S760.689,307.6,760.689,307.6l-11.04-6.106,8.284,97.329,9.195,9.644S788.2,427.1,786.59,434.541c-1.612,7.458,112.694,56.905,112.694,56.905l-.479-9.47-76.318-59.112-29.431-1.188s.774,11.963-4.753,11.484-3.431,4.074-3.431,4.074l6.67,348.093s-8.011-22.1,4.808-22.531c15.682-.526,116.873-3.435,116.873-3.435" transform="translate(-0.664 -0.664)" fill="none" stroke="#0a9c82" stroke-linejoin="round" stroke-width="5"/>
  </g>
</svg>
