<svg xmlns="http://www.w3.org/2000/svg" width="46.703" height="46.703" viewBox="0 0 46.703 46.703">
  <g id="Icon_ionic-ios-arrow-dropleft" data-name="Icon ionic-ios-arrow-dropleft" transform="translate(46.704 46.703) rotate(180)">
    <path id="Path_29543" data-name="Path 29543" d="M26.569,10.614a2.175,2.175,0,0,0-3.065,0L12.794,21.358a2.164,2.164,0,0,0-.067,2.986L23.28,34.931a2.163,2.163,0,1,0,3.065-3.054l-8.959-9.094,9.195-9.1A2.165,2.165,0,0,0,26.569,10.614Z" transform="translate(1.868 0.568)" fill="#fff"/>
    <path id="Path_29544" data-name="Path 29544" d="M26.727,3.375A23.352,23.352,0,1,0,50.078,26.727,23.348,23.348,0,0,0,26.727,3.375ZM40.693,40.693A19.751,19.751,0,1,1,12.761,12.761,19.751,19.751,0,1,1,40.693,40.693Z" transform="translate(-3.375 -3.375)" fill="#fff"/>
  </g>
</svg>
