<svg xmlns="http://www.w3.org/2000/svg" xmlns:xlink="http://www.w3.org/1999/xlink" width="79.429" height="96.863" viewBox="0 0 79.429 96.863">
  <defs>
    <clipPath id="clip-path">
      <rect id="Rectangle_2437" data-name="Rectangle 2437" width="79.429" height="96.863" fill="#0a9c82" stroke="#0a9c82" stroke-width="2"/>
    </clipPath>
  </defs>
  <g id="Insights-Icon" transform="translate(0)">
    <g id="Group_6903" data-name="Group 6903" transform="translate(0)" clip-path="url(#clip-path)">
      <path id="Path_29334" data-name="Path 29334" d="M159.917,130.715c1.875,2.276,3.645,4.427,3.818,8.6a1.5,1.5,0,0,0,1.487,1.454h14.921a1.5,1.5,0,0,0,1.486-1.449c.185-4.136,1.933-6.291,3.784-8.573,2.189-2.7,4.452-5.487,4.452-11.457a17.493,17.493,0,0,0-17.073-17.633h-.2a17.48,17.48,0,0,0-17.166,17.634c0,5.973,2.284,8.747,4.493,11.429m12.729-27.532h.036a15.966,15.966,0,0,1,15.675,16.1c0,5.421-2,7.88-4.108,10.484-1.925,2.372-3.915,4.826-4.126,9.464h-6.745V124.6l3.593-4.221a.773.773,0,0,0-.078-1.08.747.747,0,0,0-1.064.079l-3.286,3.86-3.286-3.86a.747.747,0,0,0-1.064-.079.774.774,0,0,0-.078,1.08l3.754,4.41v14.446h-6.626c-.2-4.68-2.216-7.13-4.168-9.5-2.13-2.587-4.142-5.03-4.142-10.447a15.955,15.955,0,0,1,15.713-16.1" transform="translate(-131.964 -86.084)" fill="#0a9c82"/>
      <path id="Path_29334_-_Outline" data-name="Path 29334 - Outline" d="M180.144,141.765H165.223a2.5,2.5,0,0,1-2.486-2.412c-.159-3.834-1.75-5.765-3.591-8a22.423,22.423,0,0,1-3.206-4.686,16.8,16.8,0,0,1-1.516-7.379,18.773,18.773,0,0,1,5.315-13.126,18.236,18.236,0,0,1,5.772-4.008,17.774,17.774,0,0,1,7.061-1.5h.248a17.771,17.771,0,0,1,7.022,1.53,18.261,18.261,0,0,1,5.74,4.015,18.772,18.772,0,0,1,5.284,13.088,16.981,16.981,0,0,1-1.5,7.382,22.648,22.648,0,0,1-3.175,4.705c-1.82,2.244-3.391,4.181-3.562,7.987A2.5,2.5,0,0,1,180.144,141.765Zm-5.766-3.532h4.816c.444-4.368,2.474-6.869,4.279-9.094,2.084-2.569,3.884-4.788,3.884-9.854a14.964,14.964,0,0,0-14.68-15.1h-.031a14.953,14.953,0,0,0-14.713,15.1c0,5.058,1.814,7.261,3.914,9.811,1.833,2.225,3.893,4.727,4.329,9.137h4.693V125.155l-3.516-4.13a1.778,1.778,0,0,1,.18-2.48,1.747,1.747,0,0,1,2.485.183l2.525,2.966,2.525-2.966a1.747,1.747,0,0,1,2.485-.183,1.778,1.778,0,0,1,.18,2.481l-3.354,3.941Z" transform="translate(-131.964 -86.084)" fill="#0a9c82"/>
      <path id="Path_29335" data-name="Path 29335" d="M225.873,372.329a.76.76,0,0,0-.755-.766H208.891a.766.766,0,0,0,0,1.532h16.228a.76.76,0,0,0,.755-.766" transform="translate(-176.72 -314.657)" fill="#0a9c82"/>
      <path id="Path_29335_-_Outline" data-name="Path 29335 - Outline" d="M225.119,374.094H208.891a1.766,1.766,0,0,1,0-3.532h16.228a1.766,1.766,0,0,1,0,3.532Z" transform="translate(-176.72 -314.657)" fill="#0a9c82"/>
      <path id="Path_29336" data-name="Path 29336" d="M224.2,399.614a.766.766,0,0,0,0,1.532h12.171a.766.766,0,0,0,0-1.532Z" transform="translate(-189.72 -338.412)" fill="#0a9c82"/>
      <path id="Path_29336_-_Outline" data-name="Path 29336 - Outline" d="M224.2,398.614h12.171a1.766,1.766,0,0,1,0,3.532H224.2a1.766,1.766,0,0,1,0-3.532Z" transform="translate(-189.72 -338.412)" fill="#0a9c82"/>
      <path id="Path_29337" data-name="Path 29337" d="M245.582,424.333a.772.772,0,0,0-.223-.543.744.744,0,0,0-.537-.223l-9.158.061a.76.76,0,0,0-.75.766,4.116,4.116,0,0,0,4.052,4.169h2.564a4.2,4.2,0,0,0,4.052-4.229m-4.052,2.7h-2.564a2.6,2.6,0,0,1-2.43-1.877l7.426-.049a2.61,2.61,0,0,1-2.432,1.926" transform="translate(-199.456 -358.697)" fill="#0a9c82"/>
      <path id="Path_29337_-_Outline" data-name="Path 29337 - Outline" d="M241.53,429.562h-2.564a5.117,5.117,0,0,1-5.052-5.169,1.765,1.765,0,0,1,1.743-1.766l9.158-.061h.018a1.76,1.76,0,0,1,1.748,1.766A5.279,5.279,0,0,1,245.1,428,4.925,4.925,0,0,1,241.53,429.562Z" transform="translate(-199.456 -358.697)" fill="#0a9c82"/>
      <path id="Path_29338" data-name="Path 29338" d="M266.716,6.163a.76.76,0,0,0,.755-.766V.766a.755.755,0,1,0-1.509,0V5.4a.76.76,0,0,0,.755.766" transform="translate(-225.817 0)" fill="#0a9c82"/>
      <path id="Path_29338_-_Outline" data-name="Path 29338 - Outline" d="M266.716,7.163A1.762,1.762,0,0,1,264.961,5.4V.766a1.755,1.755,0,1,1,3.509,0V5.4A1.762,1.762,0,0,1,266.716,7.163Z" transform="translate(-225.817 0)" fill="#0a9c82"/>
      <path id="Path_29339" data-name="Path 29339" d="M422.413,191.735h4.669a.766.766,0,0,0,0-1.532h-4.669a.766.766,0,0,0,0,1.532" transform="translate(-358.013 -161.073)" fill="#0a9c82"/>
      <path id="Path_29339_-_Outline" data-name="Path 29339 - Outline" d="M427.082,192.735h-4.669a1.766,1.766,0,0,1,0-3.532h4.669a1.766,1.766,0,0,1,0,3.532Z" transform="translate(-358.013 -161.073)" fill="#0a9c82"/>
      <path id="Path_29340" data-name="Path 29340" d="M78.668,191.735h4.669a.766.766,0,0,0,0-1.532H78.668a.766.766,0,0,0,0,1.532" transform="translate(-66.153 -161.073)" fill="#0a9c82"/>
      <path id="Path_29340_-_Outline" data-name="Path 29340 - Outline" d="M83.337,192.735H78.668a1.766,1.766,0,0,1,0-3.532h4.669a1.766,1.766,0,0,1,0,3.532Z" transform="translate(-66.153 -161.073)" fill="#0a9c82"/>
      <path id="Path_29341" data-name="Path 29341" d="M136.288,59.156a.747.747,0,0,0,1.067,0,.774.774,0,0,0,0-1.083l-3.118-3.164a.747.747,0,0,0-1.067,0,.774.774,0,0,0,0,1.083Z" transform="translate(-112.882 -46.31)" fill="#0a9c82"/>
      <path id="Path_29341_-_Outline" data-name="Path 29341 - Outline" d="M136.822,60.38a1.737,1.737,0,0,1-1.246-.522l-3.118-3.164a1.779,1.779,0,0,1,0-2.487,1.747,1.747,0,0,1,2.492,0l3.118,3.164a1.779,1.779,0,0,1,0,2.487A1.737,1.737,0,0,1,136.822,60.38Z" transform="translate(-112.882 -46.31)" fill="#0a9c82"/>
      <path id="Path_29342" data-name="Path 29342" d="M377.814,298.486a.747.747,0,0,0-1.067,0,.773.773,0,0,0,0,1.083l3.23,3.277a.747.747,0,0,0,1.067,0,.774.774,0,0,0,0-1.083Z" transform="translate(-319.693 -252.582)" fill="#0a9c82"/>
      <path id="Path_29342_-_Outline" data-name="Path 29342 - Outline" d="M377.28,297.262a1.737,1.737,0,0,1,1.246.522l3.23,3.277a1.778,1.778,0,0,1,0,2.487,1.747,1.747,0,0,1-2.492,0l-3.23-3.277a1.778,1.778,0,0,1,0-2.487A1.737,1.737,0,0,1,377.28,297.262Z" transform="translate(-319.693 -252.582)" fill="#0a9c82"/>
      <path id="Path_29343" data-name="Path 29343" d="M137.028,300.141l-3.142,3.188a.774.774,0,0,0,0,1.083.747.747,0,0,0,1.067,0l3.142-3.188a.774.774,0,0,0,0-1.083.747.747,0,0,0-1.067,0" transform="translate(-113.49 -253.984)" fill="#0a9c82"/>
      <path id="Path_29343_-_Outline" data-name="Path 29343 - Outline" d="M134.42,305.637a1.737,1.737,0,0,1-1.246-.522,1.779,1.779,0,0,1,0-2.487l3.142-3.188a1.747,1.747,0,0,1,2.492,0,1.779,1.779,0,0,1,0,2.487l-3.142,3.188A1.737,1.737,0,0,1,134.42,305.637Z" transform="translate(-113.49 -253.984)" fill="#0a9c82"/>
      <path id="Path_29344" data-name="Path 29344" d="M378.163,60.557a.747.747,0,0,0,.534-.224l3.2-3.25a.774.774,0,0,0,0-1.083.747.747,0,0,0-1.067,0l-3.2,3.25a.774.774,0,0,0,0,1.083.748.748,0,0,0,.534.224" transform="translate(-320.443 -47.233)" fill="#0a9c82"/>
      <path id="Path_29344_-_Outline" data-name="Path 29344 - Outline" d="M378.163,61.557a1.739,1.739,0,0,1-1.245-.521,1.78,1.78,0,0,1,0-2.487l3.2-3.251a1.747,1.747,0,0,1,2.492,0,1.779,1.779,0,0,1,0,2.487l-3.2,3.25A1.739,1.739,0,0,1,378.163,61.557Z" transform="translate(-320.443 -47.233)" fill="#0a9c82"/>
      <path id="Path_29345" data-name="Path 29345" d="M316.624,286.4c-.336-4.9-1.175-11.207-2.523-14.241l-.009-.019a3.966,3.966,0,0,0-3.685-2.231c-1.236.047-3.549.744-5.156,4.875a8.637,8.637,0,0,0,.547,7.344,5.845,5.845,0,0,1,.349.841.778.778,0,0,0-.016.2,4.422,4.422,0,0,1-.281,1.313,9.986,9.986,0,0,0-.552,3.429,3.569,3.569,0,0,0-2.367,1.2l-6.051,6.139a55.5,55.5,0,0,0-6.489,2.121c-1.048.548-6.241,5.792-7.087,9.186a28.785,28.785,0,0,0-.477,7.486l-1.2-.008a1.96,1.96,0,0,0-1.393.575,1.994,1.994,0,0,0-.584,1.405l-.046,7.265a2,2,0,0,0,.566,1.413,1.938,1.938,0,0,0,1.385.593l21.735.142h.013a1.937,1.937,0,0,0,1.379-.575,2,2,0,0,0,.584-1.405l.046-7.265a1.981,1.981,0,0,0-1.951-2.006l-.4,0c4.878-5.306,11.974-13.116,12.955-14.7a.793.793,0,0,0,.04-.073c1.006-2.105,1-8.1.668-13M303.8,316.178l-.046,7.265a.463.463,0,0,1-.135.325.436.436,0,0,1-.322.133l-11.557-.076-10.178-.067a.448.448,0,0,1-.321-.137.462.462,0,0,1-.131-.327l.046-7.265a.462.462,0,0,1,.135-.325.448.448,0,0,1,.319-.133h0l21.735.142a.459.459,0,0,1,.452.464M314.615,298.7c-.789,1.226-5.892,6.985-13.707,15.466l-16.57-.109a26.308,26.308,0,0,1,.429-7.119c.7-2.821,5.462-7.755,6.317-8.2a58.179,58.179,0,0,1,6.385-2.057.752.752,0,0,0,.336-.2L304,290.2a1.8,1.8,0,0,1,1.953-.684,3.67,3.67,0,0,1,1.894,2,1.986,1.986,0,0,1-.741,1.83l-9.082,9.215a.774.774,0,0,0,0,1.083.747.747,0,0,0,1.067,0l9.082-9.215a3.4,3.4,0,0,0,1.119-3.363,4.987,4.987,0,0,0-2.462-2.823,8.1,8.1,0,0,1,.463-3.3,5.877,5.877,0,0,0,.35-1.726,3.081,3.081,0,0,0-.478-1.739,7.178,7.178,0,0,1-.508-6.128c.944-2.426,2.332-3.85,3.809-3.906a2.445,2.445,0,0,1,2.265,1.36c2.423,5.471,3.355,22.672,1.886,25.9" transform="translate(-237.397 -228.57)" fill="#0a9c82"/>
      <path id="Path_29345_-_Outline" data-name="Path 29345 - Outline" d="M303.3,326.433h-.02l-21.735-.142a2.931,2.931,0,0,1-2.1-.9,2.989,2.989,0,0,1-.849-2.117l.046-7.265a2.988,2.988,0,0,1,.876-2.105,2.958,2.958,0,0,1,2.1-.868h.171a27.214,27.214,0,0,1,.544-6.723c.508-2.039,2.279-4.424,3.676-6.065a20.4,20.4,0,0,1,3.918-3.764,50.206,50.206,0,0,1,6.427-2.127l5.864-5.949a5,5,0,0,1,2.091-1.332,11.707,11.707,0,0,1,.583-2.887,4.778,4.778,0,0,0,.239-.969q0-.071,0-.142c-.064-.155-.175-.394-.236-.525l0-.006a9.644,9.644,0,0,1-.572-8.128c1.814-4.663,4.569-5.455,6.049-5.511.06,0,.122,0,.184,0a4.948,4.948,0,0,1,4.442,2.8l0,.007.017.038c1.4,3.153,2.265,9.6,2.607,14.579.167,2.442.607,10.635-.763,13.5a1.8,1.8,0,0,1-.091.166c-.76,1.229-4.766,5.8-11.915,13.6a3,3,0,0,1,1.457,2.6l-.046,7.265a2.989,2.989,0,0,1-.876,2.105A2.931,2.931,0,0,1,303.3,326.433Zm-21.187-3.67,20.645.135.039-6.188-20.645-.135Zm3.186-9.7,15.174.1c8.732-9.483,12.559-13.915,13.26-14.942.486-1.189.813-5.263.4-11.564-.388-5.931-1.273-11.075-2.311-13.435a1.445,1.445,0,0,0-1.322-.782c-1.042.04-2.132,1.262-2.913,3.27a6.23,6.23,0,0,0,.482,5.343,4.044,4.044,0,0,1,.571,2.241,6.966,6.966,0,0,1-.394,1.938,7.708,7.708,0,0,0-.445,2.431,5.708,5.708,0,0,1,2.455,3.149,4.392,4.392,0,0,1-1.374,4.32l-9.082,9.215a1.747,1.747,0,0,1-2.492,0,1.779,1.779,0,0,1,0-2.487l9.082-9.215c.369-.374.53-.68.478-.908-.115-.51-.932-1.12-1.246-1.277a.814.814,0,0,0-.182-.025c-.068,0-.276,0-.731.462l-6.193,6.283a1.754,1.754,0,0,1-.784.46,57.09,57.09,0,0,0-6.18,1.976,21.162,21.162,0,0,0-2.974,3.036,14.019,14.019,0,0,0-2.842,4.524A23.681,23.681,0,0,0,285.3,313.064Z" transform="translate(-237.397 -228.57)" fill="#0a9c82"/>
      <path id="Path_29346" data-name="Path 29346" d="M36.6,314.615a1.936,1.936,0,0,0-1.379-.575H35.2l-1.2.008a28.778,28.778,0,0,0-.476-7.485c-.846-3.4-6.04-8.64-7.085-9.186a55.482,55.482,0,0,0-6.491-2.123L13.9,289.116a3.571,3.571,0,0,0-2.367-1.2,9.988,9.988,0,0,0-.552-3.428,4.414,4.414,0,0,1-.281-1.313.776.776,0,0,0-.016-.2,5.81,5.81,0,0,1,.349-.841,8.638,8.638,0,0,0,.547-7.344c-1.607-4.131-3.92-4.827-5.156-4.875a3.968,3.968,0,0,0-3.685,2.231l-.009.019C1.377,275.2.538,281.508.2,286.4s-.338,10.9.668,13a.769.769,0,0,0,.04.073c.98,1.585,8.076,9.4,12.955,14.7l-.4,0a1.981,1.981,0,0,0-1.951,2.006l.046,7.265a2,2,0,0,0,.584,1.406,1.937,1.937,0,0,0,1.379.574h.013l11.557-.076,10.178-.067a1.937,1.937,0,0,0,1.385-.593,1.994,1.994,0,0,0,.566-1.413l-.046-7.265a1.994,1.994,0,0,0-.584-1.405M2.211,298.7c-1.469-3.227-.537-20.428,1.886-25.9a2.442,2.442,0,0,1,2.265-1.36c1.477.056,2.865,1.481,3.809,3.906a7.178,7.178,0,0,1-.508,6.128,3.083,3.083,0,0,0-.478,1.739,5.873,5.873,0,0,0,.351,1.726A8.1,8.1,0,0,1,10,288.247a4.986,4.986,0,0,0-2.462,2.823,3.4,3.4,0,0,0,1.119,3.363l9.082,9.215a.747.747,0,0,0,1.067,0,.774.774,0,0,0,0-1.083L9.723,293.35a1.986,1.986,0,0,1-.741-1.83,3.67,3.67,0,0,1,1.894-2,1.794,1.794,0,0,1,1.953.684l6.192,6.283a.752.752,0,0,0,.336.2,58.1,58.1,0,0,1,6.387,2.059c.853.446,5.612,5.38,6.315,8.2a26.3,26.3,0,0,1,.428,7.118l-16.57.109C8.1,305.686,3,299.928,2.211,298.7m33.375,24.922a.448.448,0,0,1-.321.137l-10.178.067L13.53,323.9a.455.455,0,0,1-.322-.133.461.461,0,0,1-.135-.325l-.046-7.265a.459.459,0,0,1,.452-.464l21.735-.142h0a.448.448,0,0,1,.319.133.462.462,0,0,1,.135.325l.046,7.265a.462.462,0,0,1-.131.327" transform="translate(0 -228.571)" fill="#0a9c82"/>
      <path id="Path_29346_-_Outline" data-name="Path 29346 - Outline" d="M13.543,326.434h-.016a2.931,2.931,0,0,1-2.087-.868,2.989,2.989,0,0,1-.877-2.106l-.046-7.265a3,3,0,0,1,1.457-2.6C4.832,305.812.827,301.243.062,300.01h0a1.78,1.78,0,0,1-.092-.168C-1.4,296.968-.963,288.777-.8,286.334c.342-4.981,1.206-11.426,2.607-14.579l.015-.032.006-.013a4.95,4.95,0,0,1,4.443-2.8c.061,0,.122,0,.183,0,1.48.057,4.235.848,6.049,5.511a9.646,9.646,0,0,1-.572,8.129c-.062.133-.174.374-.238.53q0,.071,0,.143a4.761,4.761,0,0,0,.239.969,11.878,11.878,0,0,1,.582,2.886,5,5,0,0,1,2.093,1.333l5.863,5.949a50.214,50.214,0,0,1,6.432,2.13,20.41,20.41,0,0,1,3.913,3.761c1.4,1.641,3.168,4.026,3.676,6.068a27.2,27.2,0,0,1,.543,6.72h.18a2.931,2.931,0,0,1,2.087.868,2.988,2.988,0,0,1,.876,2.106l.046,7.265a2.988,2.988,0,0,1-.85,2.117,2.93,2.93,0,0,1-2.1.9Zm.486-9.723.04,6.188,20.645-.135-.039-6.188ZM3.093,298.222c.7,1.027,4.528,5.459,13.26,14.942l15.174-.1a23.669,23.669,0,0,0-.438-5.88,14.017,14.017,0,0,0-2.842-4.527,21.177,21.177,0,0,0-2.973-3.036,57.144,57.144,0,0,0-6.183-1.977,1.755,1.755,0,0,1-.784-.46L12.116,290.9c-.456-.463-.663-.463-.731-.463a.8.8,0,0,0-.181.025c-.313.156-1.131.766-1.247,1.277-.051.228.109.534.478.908l9.082,9.215a1.779,1.779,0,0,1,0,2.487,1.747,1.747,0,0,1-2.492,0l-9.082-9.215a4.392,4.392,0,0,1-1.373-4.32,5.708,5.708,0,0,1,2.455-3.149,7.706,7.706,0,0,0-.445-2.432,6.96,6.96,0,0,1-.394-1.939,4.045,4.045,0,0,1,.571-2.241,6.231,6.231,0,0,0,.482-5.344c-.781-2.007-1.871-3.23-2.915-3.27H6.272A1.442,1.442,0,0,0,5,273.224c-1.038,2.36-1.924,7.5-2.311,13.435C2.28,292.959,2.607,297.033,3.093,298.222Z" transform="translate(0 -228.571)" fill="#0a9c82"/>
    </g>
  </g>
</svg>
