<svg xmlns="http://www.w3.org/2000/svg" width="123.122" height="120.265" viewBox="0 0 123.122 120.265">
  <g id="Manage-Problems" transform="translate(3 3)">
    <g id="Group_7262" data-name="Group 7262" transform="translate(-350.622 -2.622)">
      <path id="Path_29573" data-name="Path 29573" d="M54.387,79.7c0,6.769,4.681,11.484,10.457,11.484S75.3,86.471,75.3,79.7C75.3,66.486,54.387,66.889,54.387,79.7Zm-11.04,42.063H86.342V108.819A10.617,10.617,0,0,0,75.769,98.246H53.92a10.6,10.6,0,0,0-10.573,10.573Zm10.666-.52V109.121m21.665,0v12.123m-10.833-66.9V9.348M52.8,19.548,64.845,7.5,76.892,19.548M93.5,80.564h29.995M112.574,68.516l12.048,12.048L112.574,92.611M46.3,62.022,25.36,41.079m-3.976,13.2V37.242H38.422m.2,43.322H8.629M19.547,68.516,7.5,80.564,19.547,92.611M83.385,62.022l20.944-20.943m3.976,13.2V37.242H91.267" transform="translate(343.122 -4.878)" fill="none" stroke="#0a9c82" stroke-linecap="round" stroke-linejoin="round" stroke-width="6"/>
    </g>
  </g>
</svg>
