<svg id="need4" xmlns="http://www.w3.org/2000/svg" xmlns:xlink="http://www.w3.org/1999/xlink" width="94" height="94" viewBox="0 0 94 94">
  <defs>
    <clipPath id="clip-path">
      <rect id="Rectangle_490" data-name="Rectangle 490" width="94" height="94" fill="#6d58b1"/>
    </clipPath>
  </defs>
  <g id="Group_689" data-name="Group 689" clip-path="url(#clip-path)">
    <path id="Path_1811" data-name="Path 1811" d="M94.87,55.348a1.571,1.571,0,0,1,0-.265c-1.706-9.9-6.261-15.8-12.19-15.8l-1.3,0c-5.353,0-9.582-.009-13.861-6.129a2.04,2.04,0,0,0-1.676-.867,2.029,2.029,0,0,0-1.663,3.194c5.075,7.268,10.779,7.874,16.186,7.874.412,0,.817,0,1.223-.006l1.091,0c3.022,0,5.7,3.229,7.339,8.858a.993.993,0,0,1-.953,1.272H5.83a1,1,0,0,1-.955-1.272c1.65-5.629,4.324-8.858,7.344-8.858l1.1,0c.393,0,.8.006,1.2.006,5.642,0,11.577-.608,16.654-7.874a2.035,2.035,0,0,0-3.339-2.327c-3.968,5.679-8.275,6.129-13.49,6.129l-2.127,0c-5.929,0-10.482,5.9-12.19,15.8a1.5,1.5,0,0,1,0,.261A1.286,1.286,0,0,1,0,55.52a1.583,1.583,0,0,1,.043.224,2.065,2.065,0,0,0,.075.388,2.116,2.116,0,0,0,.16.354,2.16,2.16,0,0,0,.209.313,1.92,1.92,0,0,0,.283.265,1.889,1.889,0,0,0,.308.211,2.056,2.056,0,0,0,.388.145,1.983,1.983,0,0,1,.274.108,1.919,1.919,0,0,0,.272.019h90.87a2,2,0,0,0,.28-.019,2.073,2.073,0,0,1,.278-.11,1.9,1.9,0,0,0,.373-.138,1.993,1.993,0,0,0,.315-.218,1.861,1.861,0,0,0,.278-.261,1.985,1.985,0,0,0,.214-.319,1.878,1.878,0,0,0,.157-.345,1.948,1.948,0,0,0,.078-.395,1.4,1.4,0,0,1,.041-.22,1.252,1.252,0,0,1-.026-.175" transform="translate(-0.183 36.635)" fill="#6d58b1"/>
    <path id="Path_1812" data-name="Path 1812" d="M70.821,30.746a1,1,0,0,1-.565-.5v-.964c0-9.585-2.5-16.939-7.423-21.863S50.55,0,40.961,0,24.014,2.5,19.09,7.419,11.666,19.7,11.664,29.254v1a.979.979,0,0,1-.563.5,8.081,8.081,0,0,0-5.493,7.618V44.42A8.1,8.1,0,0,0,13.7,52.51h8.159a.981.981,0,0,1,.177.287c4.009,10.527,11.793,17.877,18.923,17.877a12.067,12.067,0,0,0,3.69-.6A2.034,2.034,0,0,0,43.4,66.2a8.04,8.04,0,0,1-2.439.4C33.935,66.606,23.308,55,23.308,37.5c0-17.625,9.6-21.324,17.653-21.324,6,0,10.557,1.971,13.534,5.86a2.034,2.034,0,1,0,3.229-2.474C53.994,14.687,48.2,12.11,40.961,12.11c-11.245,0-18.69,6.168-20.961,17.37a.992.992,0,0,1-.975.8H16.73a.993.993,0,0,1-.994-.994c0-8.616,2.029-14.834,6.207-19.009s10.4-6.2,19.018-6.2S55.8,6.1,59.979,10.273s6.207,10.393,6.207,19.009a.993.993,0,0,1-.994.994h-1.26l-3.578-.022H60.3a1.614,1.614,0,0,0-.2.019,2.036,2.036,0,0,0-1.771,2.267,41.081,41.081,0,0,1,.285,4.96A39.266,39.266,0,0,1,56.645,49.84a2.039,2.039,0,0,0,1.812,2.666v0h.05l.026,0,.011,0h6.649a.993.993,0,0,1,.994.992,4.026,4.026,0,0,1-4.022,4.022H50.048a1,1,0,0,1-.994-.994V53.5a2.035,2.035,0,0,0-4.07,0v6.056a2.038,2.038,0,0,0,2.036,2.034H62.164a8.1,8.1,0,0,0,8.092-8.09v-.556a.994.994,0,0,1,.66-.936,8.1,8.1,0,0,0,5.4-7.59V38.364a8.081,8.081,0,0,0-5.493-7.618m-52.508,3.6a.992.992,0,0,1,.992,1.037l-.011.25c-.028.636-.056,1.238-.056,1.87a43.722,43.722,0,0,0,1.1,9.725,1,1,0,0,1-.968,1.216H13.7A4.028,4.028,0,0,1,9.678,44.42V38.364a4.026,4.026,0,0,1,4.024-4.02ZM72.245,44.42a4.028,4.028,0,0,1-4.022,4.022H62.542a1,1,0,0,1-.971-1.216A43.532,43.532,0,0,0,62.684,37.5c0-.716-.03-1.43-.06-2.12a.992.992,0,0,1,.992-1.037h4.607a4.026,4.026,0,0,1,4.022,4.02Z" transform="translate(6.304 -0.714)" fill="#6d58b1"/>
  </g>
</svg>
