<svg id="need5" xmlns="http://www.w3.org/2000/svg" xmlns:xlink="http://www.w3.org/1999/xlink" width="71.977" height="94" viewBox="0 0 71.977 94">
  <defs>
    <clipPath id="clip-path">
      <rect id="Rectangle_491" data-name="Rectangle 491" width="71.977" height="94" fill="#6d58b1" stroke="#6551a7" stroke-width="1"/>
    </clipPath>
  </defs>
  <g id="Group_691" data-name="Group 691" clip-path="url(#clip-path)">
    <path id="Path_1813" data-name="Path 1813" d="M150.061,150.415l-9.276,9.275-3.942-3.942a1.967,1.967,0,0,0-2.782,2.782l5.333,5.334a1.966,1.966,0,0,0,2.782,0L152.844,153.2a1.967,1.967,0,0,0-2.782-2.782" transform="translate(-107.464 -120.63)" fill="#6d58b1" stroke="#6551a7" stroke-width="1"/>
    <path id="Path_1814" data-name="Path 1814" d="M99.068,78.351a20.715,20.715,0,1,0,20.715,20.715A20.738,20.738,0,0,0,99.068,78.351m0,37.495a16.78,16.78,0,1,1,16.78-16.78,16.8,16.8,0,0,1-16.78,16.78" transform="translate(-63.079 -63.078)" fill="#6d58b1" stroke="#6551a7" stroke-width="1"/>
    <path id="Path_1815" data-name="Path 1815" d="M71.489,34.69l-4.308-4.908L69.29,23.6a1.968,1.968,0,0,0-1-2.4l-5.863-2.877L62.01,11.8a1.969,1.969,0,0,0-1.836-1.836l-6.518-.422L50.78,3.683a1.97,1.97,0,0,0-2.4-1L42.2,4.8,37.287.488a1.968,1.968,0,0,0-2.6,0L29.784,4.8,23.6,2.687a1.969,1.969,0,0,0-2.4,1L18.323,9.546l-6.517.422A1.968,1.968,0,0,0,9.97,11.8l-.422,6.517L3.684,21.2a1.968,1.968,0,0,0-1,2.4L4.8,29.782.49,34.69a1.967,1.967,0,0,0,0,2.6L4.8,42.194,2.689,48.376a1.968,1.968,0,0,0,1,2.4l5.863,2.876.422,6.517a1.96,1.96,0,0,0,.547,1.234L1.078,82.817a1.968,1.968,0,0,0,2.3,2.7l11.384-2.978,5.478,10.412A1.968,1.968,0,0,0,21.98,94h.069a1.968,1.968,0,0,0,1.733-1.173L33.6,70.532l1.089.956a1.968,1.968,0,0,0,2.6,0l1.089-.956L48.2,92.826A1.968,1.968,0,0,0,49.93,94H50a1.968,1.968,0,0,0,1.741-1.051l5.478-10.412L68.6,85.514a1.968,1.968,0,0,0,2.3-2.7L61.463,61.406a1.962,1.962,0,0,0,.546-1.233l.422-6.517,5.864-2.876a1.968,1.968,0,0,0,1-2.4l-2.109-6.183,4.308-4.908a1.967,1.967,0,0,0,0-2.6M21.824,87.509l-4.308-8.187a1.968,1.968,0,0,0-2.239-.987L6.322,80.677l8.153-18.5,3.847.249L21.2,68.294a1.969,1.969,0,0,0,2.4,1l6.182-2.109.718.63Zm43.833-6.832L56.7,78.335a1.967,1.967,0,0,0-2.239.987l-4.308,8.187-8.678-19.7.719-.63,6.182,2.109a1.97,1.97,0,0,0,2.4-1l2.876-5.863,3.849-.249ZM63.473,40.454a1.968,1.968,0,0,0-.383,1.933l1.918,5.621-5.333,2.616a1.969,1.969,0,0,0-1.1,1.639l-.384,5.93-5.93.384a1.969,1.969,0,0,0-1.639,1.1l-2.615,5.331-5.621-1.918a1.967,1.967,0,0,0-1.933.383l-4.466,3.92-4.466-3.92a1.967,1.967,0,0,0-1.933-.383l-5.621,1.918-2.616-5.332a1.969,1.969,0,0,0-1.639-1.1l-5.93-.384-.384-5.93a1.969,1.969,0,0,0-1.1-1.639L6.972,48.008l1.918-5.621a1.968,1.968,0,0,0-.383-1.933l-3.92-4.466,3.92-4.466a1.968,1.968,0,0,0,.383-1.933L6.972,23.968,12.3,21.352a1.969,1.969,0,0,0,1.1-1.639l.384-5.93,5.93-.384a1.969,1.969,0,0,0,1.639-1.1L23.97,6.971l5.621,1.918A1.966,1.966,0,0,0,31.523,8.5l4.466-3.92L40.456,8.5a1.966,1.966,0,0,0,1.933.383L48.01,6.971,50.626,12.3a1.969,1.969,0,0,0,1.639,1.1l5.93.385.384,5.929a1.966,1.966,0,0,0,1.1,1.639l5.332,2.616-1.918,5.62a1.968,1.968,0,0,0,.383,1.933l3.92,4.466Z" transform="translate(-0.001)" fill="#6d58b1" stroke="#6551a7" stroke-width="1"/>
  </g>
</svg>
