<svg id="need1" xmlns="http://www.w3.org/2000/svg" xmlns:xlink="http://www.w3.org/1999/xlink" width="92.15" height="61.971" viewBox="0 0 92.15 61.971">
  <defs>
    <clipPath id="clip-path">
      <rect id="Rectangle_486" data-name="Rectangle 486" width="92.15" height="61.971" fill="#6d58b1" stroke="#6d58b1" stroke-width="1"/>
    </clipPath>
  </defs>
  <g id="Group_681" data-name="Group 681" clip-path="url(#clip-path)">
    <path id="Path_1781" data-name="Path 1781" d="M95.655,491.534a.977.977,0,0,0-1.954,0,.761.761,0,0,1-1.522,0,.977.977,0,0,0-1.954,0,2.716,2.716,0,0,0,5.431,0" transform="translate(-83.926 -456.601)" fill="#6d58b1" stroke="#6d58b1" stroke-width="1"/>
    <path id="Path_1782" data-name="Path 1782" d="M548.468,181.479l-1.109-2.672a.98.98,0,0,0-1.276-.527.967.967,0,0,0-.532,1.265l1.109,2.671a.906.906,0,0,1,0,.7.917.917,0,0,1-.5.5l-8.372,3.4a.927.927,0,0,1-.714,0,.916.916,0,0,1-.5-.506L536.046,185v0l-9.287-23.185a.906.906,0,0,1,.012-.706.916.916,0,0,1,.514-.489l8.133-3.131a.934.934,0,0,1,1.192.507L543.42,174.4a.98.98,0,0,0,1.275.527.966.966,0,0,0,.532-1.265l-6.812-16.415a2.9,2.9,0,0,0-3.706-1.576l-8.133,3.131a2.851,2.851,0,0,0-1.6,1.522,2.816,2.816,0,0,0-.037,2.2l.11.274-6.294,1.786-12.091-2.851a8.181,8.181,0,0,0-7.813,2.338l-7.278,7.728a2.853,2.853,0,0,0,.2,4.106,8.056,8.056,0,0,0,10.133.375l5.847-4.413a.964.964,0,0,0,.186-1.358.983.983,0,0,0-1.369-.184l-5.847,4.413a6.085,6.085,0,0,1-7.653-.284.926.926,0,0,1-.063-1.332l7.278-7.728a6.212,6.212,0,0,1,5.933-1.775l12.339,2.91a.985.985,0,0,0,.495-.011l6.728-1.909,8.05,20.1-2.1.582a.969.969,0,0,0,.262,1.9.982.982,0,0,0,.263-.036l2.3-.637.2.507a2.848,2.848,0,0,0,1.551,1.575,2.882,2.882,0,0,0,2.219.014l8.372-3.4a2.851,2.851,0,0,0,1.566-1.543,2.817,2.817,0,0,0,.006-2.189" transform="translate(-456.537 -144.719)" fill="#6d58b1" stroke="#6d58b1" stroke-width="1"/>
    <path id="Path_1783" data-name="Path 1783" d="M1155.951,492.559a.975.975,0,0,0-1.052.889,2.7,2.7,0,0,0,2.49,2.9q.111.009.221.009a2.709,2.709,0,0,0,1.756-.643,2.669,2.669,0,0,0,.946-1.836.977.977,0,0,0-1.948-.155.748.748,0,0,1-.265.515.762.762,0,0,1-1.252-.635.972.972,0,0,0-.9-1.044" transform="translate(-1074.277 -458.454)" fill="#6d58b1" stroke="#6d58b1" stroke-width="1"/>
    <path id="Path_1784" data-name="Path 1784" d="M646.756,390.979l-16.945-14.4a.983.983,0,0,0-1.378.105.964.964,0,0,0,.106,1.367l16.946,14.4a3.484,3.484,0,0,1-1.808,6.106,3.5,3.5,0,0,1-2.693-.744l-.78-.626h0l-4.965-3.987h0l-1.64-1.317a.983.983,0,0,0-1.374.143.964.964,0,0,0,.145,1.363l1.64,1.317h0l2.953,2.371,2.012,1.616a2.581,2.581,0,0,1,.34,3.706,2.645,2.645,0,0,1-3.527.41l-8.426-6.084a.983.983,0,0,0-1.365.213.964.964,0,0,0,.215,1.354l1.343.97h0l2.287,1.651,2.051,1.481a2.451,2.451,0,0,1,.512,3.487,2.5,2.5,0,0,1-3.538.418l-2.708-2.178h0l-2.082-1.675-2.041-1.642a.983.983,0,0,0-1.375.142.964.964,0,0,0,.143,1.363l1.569,1.262.472.38,2.082,1.675a2.584,2.584,0,0,1,.361,3.683,2.621,2.621,0,0,1-3.361.562l-2.387-1.424a.982.982,0,0,0-1.341.331.965.965,0,0,0,.334,1.33l2.387,1.424a4.6,4.6,0,0,0,5.869-.982,4.48,4.48,0,0,0,1.051-2.592,4.413,4.413,0,0,0,2.58.829,4.562,4.562,0,0,0,.536-.032,4.411,4.411,0,0,0,3-1.7,4.341,4.341,0,0,0,.909-2.528,4.581,4.581,0,0,0,2.457.714,4.646,4.646,0,0,0,.536-.031,4.571,4.571,0,0,0,2.94-1.553,4.473,4.473,0,0,0,1.086-3.293,5.487,5.487,0,0,0,5.778-2.129,5.4,5.4,0,0,0-.905-7.259" transform="translate(-574.916 -350.29)" fill="#6d58b1" stroke="#6d58b1" stroke-width="1"/>
    <path id="Path_1785" data-name="Path 1785" d="M18.378,189.974a.965.965,0,0,0-.334-1.33L14.608,186.6l9.428-18.964,4.163,2.018a.984.984,0,0,0,.935-.042l6.349-3.813a6.189,6.189,0,0,1,4.5-.746.97.97,0,1,0,.413-1.895,8.148,8.148,0,0,0-5.925.982l-5.893,3.539L24.9,165.892l.392-.789a2.817,2.817,0,0,0,.14-2.193,2.845,2.845,0,0,0-1.471-1.643L16.107,157.5a2.907,2.907,0,0,0-3.821,1.278L4.175,174.6a.966.966,0,0,0,.428,1.3.981.981,0,0,0,1.314-.425l8.111-15.824a.935.935,0,0,1,1.229-.411l7.855,3.765a.915.915,0,0,1,.473.528.906.906,0,0,1-.045.705L11.785,187.891a.93.93,0,0,1-1.249.413l-8.072-4.056a.915.915,0,0,1-.407-1.236l1.32-2.575a.966.966,0,0,0-.428-1.3.981.981,0,0,0-1.314.425l-1.32,2.575a2.818,2.818,0,0,0-.17,2.182,2.845,2.845,0,0,0,1.436,1.662l8.072,4.056a2.882,2.882,0,0,0,2.213.162,2.853,2.853,0,0,0,1.672-1.447l.2-.408,3.3,1.966a.982.982,0,0,0,1.341-.331" transform="translate(0 -146.336)" fill="#6d58b1" stroke="#6d58b1" stroke-width="1"/>
    <path id="Path_1786" data-name="Path 1786" d="M280.452,618.708h0l-.019-.015a4.048,4.048,0,0,0-3.06-.861q-.106.014-.21.033a4.071,4.071,0,0,0-1.635-3.258,4.122,4.122,0,0,0-3.09-.79,4.171,4.171,0,0,0-1.066.3,4,4,0,0,0-1.74-2.417l-.039-.024a4.046,4.046,0,0,0-3.536-.383,3.8,3.8,0,0,0-6.745-1.471l-1.152,1.52a3.746,3.746,0,0,0,.844,5.337h0l.02.014a3.788,3.788,0,0,0,2.18.684,3.905,3.905,0,0,0,.543-.04,4.013,4.013,0,0,0,.049.572,3.954,3.954,0,0,0,1.61,2.607l.574-.784-.574.784a4.014,4.014,0,0,0,2.352.76,4.1,4.1,0,0,0,.532-.036,4.13,4.13,0,0,0,1.54,3.406,4.2,4.2,0,0,0,4.43.531,3.936,3.936,0,0,0,1.725,2.365,4.037,4.037,0,0,0,5.393-1l1.774-2.4a3.953,3.953,0,0,0-.7-5.429m-20.3-3.6-.019-.014a1.817,1.817,0,0,1-.41-2.589l1.152-1.52a1.842,1.842,0,0,1,2.442-.456,1.818,1.818,0,0,1,.517,2.631L262.7,614.7a1.86,1.86,0,0,1-2.549.412m4.4,3.838a2.035,2.035,0,0,1-.453-2.865l.178-.241.128-.174,1.359-1.841a2.078,2.078,0,0,1,2.775-.516l.039.025a2.037,2.037,0,0,1,.737,2.635l-1.378,1.863-.529.693a2.085,2.085,0,0,1-2.856.421m6.23,4.67a2.216,2.216,0,0,1-2.111-3.5l.834-1.128,1.166-1.528a3.945,3.945,0,0,0,.295-.448l.313-.423a2.161,2.161,0,0,1,1.44-.859,2.223,2.223,0,0,1,.318-.023,2.166,2.166,0,0,1,1.308.439,2.139,2.139,0,0,1,.472,2.946L272.3,622.69a2.21,2.21,0,0,1-1.52.929m8.792-.627-1.774,2.4a2.069,2.069,0,0,1-2.764.514,2.028,2.028,0,0,1-.562-2.907l1.755-2.42a2.038,2.038,0,0,1,1.4-.83,2.1,2.1,0,0,1,.276-.018,2.042,2.042,0,0,1,1.292.459l.019.015a2.026,2.026,0,0,1,.359,2.782" transform="translate(-239.432 -566.197)" fill="#6d58b1" stroke="#6d58b1" stroke-width="1"/>
    <path id="Path_1787" data-name="Path 1787" d="M647.056,10.287a.973.973,0,0,0,.977-.969V.969a.977.977,0,0,0-1.955,0V9.318a.973.973,0,0,0,.977.969" transform="translate(-600.981)" fill="#6d58b1" stroke="#6d58b1" stroke-width="1"/>
    <path id="Path_1788" data-name="Path 1788" d="M464.632,42.875a.983.983,0,0,0,1.382,0,.964.964,0,0,0,0-1.371l-5.952-5.9a.983.983,0,0,0-1.382,0,.964.964,0,0,0,0,1.371Z" transform="translate(-426.397 -32.872)" fill="#6d58b1" stroke="#6d58b1" stroke-width="1"/>
    <path id="Path_1789" data-name="Path 1789" d="M749.475,43.16a.978.978,0,0,0,.691-.284l5.952-5.9a.964.964,0,0,0,0-1.371.983.983,0,0,0-1.382,0l-5.952,5.9a.964.964,0,0,0,0,1.371.978.978,0,0,0,.691.284" transform="translate(-696.251 -32.873)" fill="#6d58b1" stroke="#6d58b1" stroke-width="1"/>
  </g>
</svg>
