<svg id="Reach-Goals" xmlns="http://www.w3.org/2000/svg" xmlns:xlink="http://www.w3.org/1999/xlink" width="106.906" height="133.596" viewBox="0 0 106.906 133.596">
  <defs>
    <clipPath id="clip-path">
      <rect id="Rectangle_2721" data-name="Rectangle 2721" width="106.906" height="133.596" fill="#fff"/>
    </clipPath>
  </defs>
  <g id="Group_7250" data-name="Group 7250" clip-path="url(#clip-path)">
    <path id="Path_29546" data-name="Path 29546" d="M116.105,106.755a2.578,2.578,0,0,1-2.578-2.578V83.4a2.576,2.576,0,0,1,1.1-2.113,57.936,57.936,0,0,0,24.676-47.474V5.156H75.164V33.816A58.159,58.159,0,0,0,99.7,81.3a2.576,2.576,0,0,1,1.092,2.105v20.774a2.578,2.578,0,1,1-5.156,0V84.722A63.334,63.334,0,0,1,70.008,33.816V2.578A2.578,2.578,0,0,1,72.586,0h69.3a2.578,2.578,0,0,1,2.578,2.578V33.816a63.1,63.1,0,0,1-25.778,50.912v19.449a2.578,2.578,0,0,1-2.578,2.578" transform="translate(-53.782)" fill="#fff"/>
    <path id="Path_29547" data-name="Path 29547" d="M27.145,101.707H25.627A25.655,25.655,0,0,1,0,76.081V47.724a2.579,2.579,0,0,1,2.578-2.578H18.8a2.578,2.578,0,0,1,0,5.156H5.156V76.081A20.5,20.5,0,0,0,25.627,96.551h1.518a2.578,2.578,0,0,1,0,5.156" transform="translate(0 -34.682)" fill="#fff"/>
    <path id="Path_29548" data-name="Path 29548" d="M336.955,101.707h-1.366a2.578,2.578,0,0,1,0-5.156h1.366a20.571,20.571,0,0,0,20.622-20.471V50.3H343.929a2.578,2.578,0,0,1,0-5.156h16.226a2.579,2.579,0,0,1,2.578,2.578V76.081a25.731,25.731,0,0,1-25.778,25.627" transform="translate(-255.827 -34.682)" fill="#fff"/>
    <path id="Path_29549" data-name="Path 29549" d="M166.8,456.85a2.578,2.578,0,0,1-2.578-2.578V447.6a4.176,4.176,0,0,0-4.245-4.1h-34.27a4.15,4.15,0,0,0-4.093,4.1v6.671a2.578,2.578,0,0,1-5.156,0V447.6a9.262,9.262,0,0,1,9.249-9.252h34.27a9.339,9.339,0,0,1,9.4,9.252v6.671a2.578,2.578,0,0,1-2.578,2.578" transform="translate(-89.469 -336.751)" fill="#fff"/>
    <path id="Path_29550" data-name="Path 29550" d="M145.741,514.579H79.776A2.579,2.579,0,0,1,77.2,512v-6.825a9.262,9.262,0,0,1,9.252-9.249h52.617a9.262,9.262,0,0,1,9.252,9.249V512a2.579,2.579,0,0,1-2.578,2.578m-63.387-5.156h60.809v-4.247a4.15,4.15,0,0,0-4.1-4.093H86.45a4.15,4.15,0,0,0-4.1,4.093Z" transform="translate(-59.305 -380.983)" fill="#fff"/>
    <path id="Path_29551" data-name="Path 29551" d="M152.537,99.514a2.576,2.576,0,0,1-2.578-2.646l.28-10.623-6.431-8.531a2.578,2.578,0,0,1,1.314-4.02l10.208-3.077,6.008-8.662a2.576,2.576,0,0,1,2.105-1.11h.013a2.577,2.577,0,0,1,2.1,1.087l6.159,8.682,10.224,3.08a2.578,2.578,0,0,1,1.314,4.02l-6.444,8.547.141,10.641a2.579,2.579,0,0,1-3.424,2.468l-10.072-3.495L153.383,99.37a2.554,2.554,0,0,1-.846.144m10.918-8.946a2.549,2.549,0,0,1,.846.144l7.447,2.583-.1-7.849a2.57,2.57,0,0,1,.52-1.585l4.749-6.3-7.53-2.267a2.575,2.575,0,0,1-1.358-.977l-4.545-6.4-4.425,6.381a2.57,2.57,0,0,1-1.374,1l-7.531,2.267,4.749,6.3a2.6,2.6,0,0,1,.52,1.619l-.206,7.8,7.4-2.568a2.549,2.549,0,0,1,.846-.144m-6.52-17.741h0Z" transform="translate(-110.078 -46.743)" fill="#fff"/>
  </g>
</svg>
