<svg xmlns="http://www.w3.org/2000/svg" width="130.046" height="130.047" viewBox="0 0 130.046 130.047">
  <g id="Set-Goal" transform="translate(3 3)">
    <g id="Group_7256" data-name="Group 7256" transform="translate(-1.745 -1.745)">
      <path id="Path_29559" data-name="Path 29559" d="M291.1,281.228a11.24,11.24,0,1,1-11.24-11.24A11.24,11.24,0,0,1,291.1,281.228Z" transform="translate(-216.537 -217.638)" fill="none" stroke="#0a9c82" stroke-linecap="round" stroke-linejoin="round" stroke-width="6"/>
      <line id="Line_2777" data-name="Line 2777" y1="41.364" transform="translate(63.741 84.427)" fill="none" stroke="#0a9c82" stroke-linecap="round" stroke-linejoin="round" stroke-width="6"/>
      <path id="Path_29560" data-name="Path 29560" d="M312.033,430.435l-5.335-3.673-5.335,3.673" transform="translate(-242.93 -344.014)" fill="none" stroke="#0a9c82" stroke-linecap="round" stroke-linejoin="round" stroke-width="6"/>
      <line id="Line_2778" data-name="Line 2778" x1="41.364" transform="translate(84.428 63.741)" fill="none" stroke="#0a9c82" stroke-linecap="round" stroke-linejoin="round" stroke-width="6"/>
      <path id="Path_29561" data-name="Path 29561" d="M430.435,312.033l-3.673-5.335,3.673-5.335" transform="translate(-344.014 -242.93)" fill="none" stroke="#0a9c82" stroke-linecap="round" stroke-linejoin="round" stroke-width="6"/>
      <line id="Line_2779" data-name="Line 2779" x2="41.364" transform="translate(1.745 63.741)" fill="none" stroke="#0a9c82" stroke-linecap="round" stroke-linejoin="round" stroke-width="6"/>
      <path id="Path_29562" data-name="Path 29562" d="M212.045,312.033l3.673-5.335-3.673-5.335" transform="translate(-170.93 -242.93)" fill="none" stroke="#0a9c82" stroke-linecap="round" stroke-linejoin="round" stroke-width="6"/>
      <line id="Line_2780" data-name="Line 2780" y2="41.364" transform="translate(63.741 1.745)" fill="none" stroke="#0a9c82" stroke-linecap="round" stroke-linejoin="round" stroke-width="6"/>
      <path id="Path_29563" data-name="Path 29563" d="M312.033,212.045l-5.335,3.673-5.335-3.673" transform="translate(-242.93 -170.93)" fill="none" stroke="#0a9c82" stroke-linecap="round" stroke-linejoin="round" stroke-width="6"/>
      <path id="Path_29564" data-name="Path 29564" d="M173.244,146a36.039,36.039,0,0,0-28,27.558" transform="translate(-117.082 -117.691)" fill="none" stroke="#0a9c82" stroke-linecap="round" stroke-linejoin="round" stroke-width="6"/>
      <path id="Path_29565" data-name="Path 29565" d="M396.53,174.661a36.046,36.046,0,0,0-26.8-27.292" transform="translate(-298.041 -118.795)" fill="none" stroke="#0a9c82" stroke-linecap="round" stroke-linejoin="round" stroke-width="6"/>
      <path id="Path_29566" data-name="Path 29566" d="M369.731,395.421a36.045,36.045,0,0,0,26.78-27.21" transform="translate(-298.041 -296.816)" fill="none" stroke="#0a9c82" stroke-linecap="round" stroke-linejoin="round" stroke-width="6"/>
      <path id="Path_29567" data-name="Path 29567" d="M145.335,368.21a36.039,36.039,0,0,0,27.981,27.475" transform="translate(-117.155 -296.815)" fill="none" stroke="#0a9c82" stroke-linecap="round" stroke-linejoin="round" stroke-width="6"/>
      <path id="Path_29568" data-name="Path 29568" d="M80.11,30.692a58.105,58.105,0,0,0-50.4,49.915" transform="translate(-23.948 -24.741)" fill="none" stroke="#0a9c82" stroke-linecap="round" stroke-linejoin="round" stroke-width="6"/>
      <path id="Path_29569" data-name="Path 29569" d="M418.931,81.275a58.11,58.11,0,0,0-49.2-49.755" transform="translate(-298.041 -25.408)" fill="none" stroke="#0a9c82" stroke-linecap="round" stroke-linejoin="round" stroke-width="6"/>
      <path id="Path_29570" data-name="Path 29570" d="M369.731,417.883a58.111,58.111,0,0,0,49.19-49.673" transform="translate(-298.041 -296.815)" fill="none" stroke="#0a9c82" stroke-linecap="round" stroke-linejoin="round" stroke-width="6"/>
      <path id="Path_29571" data-name="Path 29571" d="M29.764,368.21a58.105,58.105,0,0,0,50.39,49.833" transform="translate(-23.993 -296.815)" fill="none" stroke="#0a9c82" stroke-linecap="round" stroke-linejoin="round" stroke-width="6"/>
    </g>
  </g>
</svg>
