<svg id="Sign-On-Icon" xmlns="http://www.w3.org/2000/svg" xmlns:xlink="http://www.w3.org/1999/xlink" width="92.38" height="95.987" viewBox="0 0 92.38 95.987">
  <defs>
    <clipPath id="clip-path">
      <rect id="Rectangle_2441" data-name="Rectangle 2441" width="92.38" height="95.987" fill="#0a9c82" stroke="#0a9c82" stroke-width="2"/>
    </clipPath>
  </defs>
  <g id="Group_6910" data-name="Group 6910" clip-path="url(#clip-path)">
    <path id="Path_29356" data-name="Path 29356" d="M156.005,129.107h0l-5.024,4.838-3.243-3.47,5.024-4.836a1.142,1.142,0,0,1,1.635.045l1.652,1.764a1.188,1.188,0,0,1-.044,1.659M124.25,159.676l-3.244-3.469,25.283-24.339,3.243,3.47Zm-8.911,5.344,4.421-7.2,2.848,3.046Zm40.507-40.731a3.119,3.119,0,0,0-4.457-.121l-32.47,31.257-.019.02-.028.031c-.016.017-.031.034-.046.052l-.021.028c-.017.023-.031.043-.044.064l-.018.027-5.023,8.182a1.029,1.029,0,0,0-.08.161,2.273,2.273,0,0,0-.1.311,2.134,2.134,0,0,0,.518,1.95,2.085,2.085,0,0,0,1.514.663,2.053,2.053,0,0,0,.734-.136.95.95,0,0,0,.139-.066L124.689,162l.026-.017c.023-.014.043-.027.063-.041l.03-.021c.02-.015.038-.031.056-.047l.021-.017.024-.022,26.722-25.722,5.748-5.535a3.236,3.236,0,0,0,.118-4.522Z" transform="translate(-65.981 -70.926)" fill="#0a9c82"/>
    <path id="Path_29356_-_Outline" data-name="Path 29356 - Outline" d="M153.562,122.291h.1a4.1,4.1,0,0,1,2.91,1.315l1.65,1.763a4.24,4.24,0,0,1-.154,5.926l-5.748,5.535-26.808,25.8c-.025.021-.057.049-.095.078l-.068.049c-.038.027-.074.05-.11.072l-.024.017-8.275,4.732a1.953,1.953,0,0,1-.284.135,3.047,3.047,0,0,1-1.089.2,3.09,3.09,0,0,1-2.244-.979,3.131,3.131,0,0,1-.762-2.861,3.27,3.27,0,0,1,.141-.449,2.029,2.029,0,0,1,.157-.317l5.06-8.239c.025-.038.05-.074.078-.112l.049-.064c.034-.041.065-.075.089-.1l.084-.088,32.47-31.257A4.115,4.115,0,0,1,153.562,122.291Zm3.721,5.372a2.2,2.2,0,0,0-.517-.926l-1.651-1.764a2.117,2.117,0,0,0-1.5-.681h-.053a2.124,2.124,0,0,0-1.48.6l-32.455,31.242,0,0-.022.024h0l-.018.026-5.012,8.165-.009.023,5.033-8.2L124.2,161.1l-8.339,4.77q.044-.013.087-.029l8.255-4.722,0,0,.017-.015.01-.009,32.453-31.24a2.2,2.2,0,0,0,.611-1.061,2.163,2.163,0,0,1-.6,1.033l-.291.28-5.465,5.262-4.609-4.932,5.734-5.519a2.156,2.156,0,0,1,1.563-.6,2.132,2.132,0,0,1,1.5.685l1.65,1.763A2.159,2.159,0,0,1,157.283,127.663Zm-1.965.717a.188.188,0,0,0,0-.249l-1.651-1.764a.143.143,0,0,0-.1-.051h-.011a.148.148,0,0,0-.1.043l-4.315,4.153,1.877,2.009Zm-34.3,32.242-1.088-1.164-1.689,2.752Zm-5.185,5.26-1.314-1.356v0a1.135,1.135,0,0,0,.274,1.036,1.083,1.083,0,0,0,.785.347A1.048,1.048,0,0,0,115.829,165.882Zm30.5-35.438,4.609,4.932L124.212,161.1l-4.61-4.93Zm1.8,4.858-1.877-2.009L122.41,156.244l1.877,2.008Z" transform="translate(-65.981 -70.926)" fill="#0a9c82"/>
    <path id="Path_29357" data-name="Path 29357" d="M47,149.882h0c-1.456-.283-2.478,1.683-2.969,2.628-.7,1.347-1.409,3.055-2.093,4.708l-.022.053a36.325,36.325,0,0,1-1.714,3.8,1.365,1.365,0,0,1-1.193.809h-.042c-1.332,0-3.836-1.717-6.481-5.584a3.761,3.761,0,0,0-3.106-1.789c-1.739-.031-3.774,1.078-6.066,3.3a29.312,29.312,0,0,0-2.824,3.181,1.095,1.095,0,0,0,.208,1.52,1.06,1.06,0,0,0,1.5-.212c1.617-2.172,4.974-5.618,7.1-5.618h.031a1.679,1.679,0,0,1,1.4.857c1.34,1.959,4.825,6.517,8.236,6.517h.114a3.477,3.477,0,0,0,2.943-1.837,36.247,36.247,0,0,0,1.888-4.149c.455-1.1,1.215-2.938,1.882-4.285l.769-1.553.173,1.729c.078.785.13,1.755.154,2.885a1.082,1.082,0,0,0,1.068,1.063h.033a1.045,1.045,0,0,0,.738-.333,1.086,1.086,0,0,0,.3-.773c-.1-4.831-.626-6.639-2.026-6.91" transform="translate(-11.787 -86.208)" fill="#0a9c82"/>
    <path id="Path_29357_-_Outline" data-name="Path 29357 - Outline" d="M38.972,165.045h-.006c-1.739,0-3.617-.941-5.581-2.8a26.277,26.277,0,0,1-3.48-4.155c-.277-.4-.463-.419-.588-.422H29.3c-.321,0-1.264.171-3.087,1.75A23.16,23.16,0,0,0,23,162.886a2.076,2.076,0,0,1-1.657.833,2.041,2.041,0,0,1-1.251-.424,2.095,2.095,0,0,1-.4-2.912,30.248,30.248,0,0,1,2.93-3.3c2.49-2.41,4.773-3.615,6.779-3.578a4.806,4.806,0,0,1,3.913,2.224c2.565,3.751,4.831,5.149,5.656,5.149h.023c.071,0,.169-.019.356-.328a37.028,37.028,0,0,0,1.645-3.66l.021-.052c.692-1.672,1.408-3.4,2.13-4.788.54-1.038,1.662-3.194,3.573-3.194a2.476,2.476,0,0,1,.367.028H47.1l.111-.224.025.251a3.155,3.155,0,0,1,2.225,2.436,22.069,22.069,0,0,1,.564,5.426,2.079,2.079,0,0,1-.572,1.481,2.031,2.031,0,0,1-1.444.645h-.053a2.087,2.087,0,0,1-2.068-2.044q-.009-.442-.024-.85c-.39.89-.757,1.778-1.021,2.414l-.009.023a36.547,36.547,0,0,1-1.957,4.286,4.48,4.48,0,0,1-3.769,2.317ZM29.3,155.671h.051a2.671,2.671,0,0,1,2.208,1.292c.975,1.426,4.39,6.076,7.406,6.081h.1a2.508,2.508,0,0,0,2.11-1.357,36.033,36.033,0,0,0,1.818-4.011l.009-.023c.458-1.105,1.223-2.956,1.9-4.323l.882-1.781a9.365,9.365,0,0,0-.861,1.421c-.683,1.312-1.381,3-2.057,4.631l-.021.052a36.331,36.331,0,0,1-1.785,3.936,2.382,2.382,0,0,1-2.018,1.287h-.07c-1.967,0-4.767-2.306-7.307-6.019a2.787,2.787,0,0,0-2.3-1.354H29.31c-1.428,0-3.261,1.043-5.3,3.016a28.572,28.572,0,0,0-2.718,3.062.085.085,0,0,0-.017.068.082.082,0,0,0,.032.06.054.054,0,0,0,.034.012.063.063,0,0,0,.053-.028A25.283,25.283,0,0,1,24.9,157.91C26.614,156.424,28.094,155.671,29.3,155.671Zm18.237-3.8.2,1.974c.081.814.134,1.811.158,2.964a.086.086,0,0,0,.068.084h.015a.06.06,0,0,0,.029-.019.088.088,0,0,0,.026-.067,20.794,20.794,0,0,0-.484-4.9Z" transform="translate(-11.787 -86.208)" fill="#0a9c82"/>
    <path id="Path_29358" data-name="Path 29358" d="M68.964,21.665l-.007.041a1.048,1.048,0,0,0-.013.166V58.931H55.338c-.111,0-.223,0-.333.006l-.095,0c-.085,0-.168,0-.248.009l-.068,0c-.07,0-.139.009-.209.017l-.185.016c-.206.019-.425.047-.668.086-.178.028-.413.068-.65.121-.1.022-.2.044-.3.068l-.049.011c-.334.081-.664.178-1.008.3l-.2.07-.038.014-.087.034-.156.061c-.1.039-.194.077-.289.118l-.013.006-.112.049-.105.045q-.033.013-.064.028l-.083.04-.134.063c-.028.012-.049.022-.068.033l-.024.012-.214.107-.1.052c-.059.031-.116.062-.173.1a11.39,11.39,0,0,0-1.436.935c-.124.093-.252.2-.407.325l-.138.117c-.057.049-.123.1-.193.167l-.081.073c-.056.051-.109.1-.16.149-.074.069-.144.138-.216.212l-.252.259q-.134.14-.268.291c-.072.081-.144.164-.214.249q-.281.333-.529.68l-.064.092c-.058.081-.115.161-.167.241-.131.193-.227.343-.314.493l-.012.02c-.013.023-.024.042-.037.063s-.039.067-.059.1L45.1,64.9c-.054.09-.1.175-.146.259l-.01.018c-.012.021-.029.05-.046.085l-.092.174c-.008.016-.016.03-.023.045l-.039.08c-.021.042-.041.084-.06.126l-.024.048c-.046.1-.091.193-.132.285-.092.2-.172.4-.237.57-.006.015-.012.031-.017.046-.011.034-.023.068-.036.1l-.016.044c-.009.025-.016.045-.025.069l-.005.014c-.059.164-.109.315-.162.482-.012.036-.02.062-.027.088-.022.074-.039.135-.056.2l-.025.089c-.025.091-.049.183-.073.277-.01.037-.023.085-.036.147l0,.022c-.021.089-.042.178-.06.268l0,.019c-.008.033-.015.065-.021.1l-.019.1c-.018.09-.035.178-.05.271-.018.11-.034.223-.051.334l-.01.071c-.012.089-.022.176-.032.264l-.014.121a12.108,12.108,0,0,0-.063,1.249v13.1H6.26A4.3,4.3,0,0,1,2,79.729V6.493A4.44,4.44,0,0,1,6.4,2.025H64.561a4.44,4.44,0,0,1,4.4,4.467ZM45.481,82.671V70.957a10.053,10.053,0,0,1,.05-1.026l.013-.107c.009-.074.017-.147.027-.221l.01-.066c.015-.1.029-.2.044-.293.01-.059.021-.116.032-.173l.029-.148c.005-.02.01-.039.013-.059.018-.088.036-.166.055-.247l.02-.087c.024-.095.047-.181.071-.268l.026-.091c.016-.057.032-.114.049-.17l.009-.03c.044-.134.086-.265.133-.394l.023-.066.022-.059.044-.125.007-.02c.052-.132.114-.287.185-.443.026-.057.051-.115.079-.173l.01-.02-.887-.551.517-.866.85.516.028-.049.007-.012c.062-.107.136-.222.239-.373l.013-.02c.034-.053.071-.1.108-.155l.1-.135c.137-.191.272-.363.417-.535l.01-.012c.055-.067.112-.132.167-.194.074-.083.148-.163.213-.232l.234-.24.37.341-.357-.353c.048-.05.1-.1.145-.143l.018-.017c.034-.034.069-.065.106-.1l.08-.072c.064-.056.117-.1.163-.14l.123-.1c.136-.113.236-.194.336-.269a9.455,9.455,0,0,1,1.2-.78l.037-.021c.028-.017.058-.033.088-.049l.275-.141c.02-.009.039-.018.058-.028l.02-.01.148-.071.041-.019.116-.051.134-.058c.076-.033.143-.061.211-.086l.026-.01.1-.041.291-.106c.265-.091.518-.166.776-.23l.02,0,.037-.008c.093-.023.183-.045.276-.064l.016,0c.19-.043.38-.075.54-.1.2-.032.379-.055.543-.07l.187-.016c.054-.006.1-.008.138-.011l.075-.006.158-.006.106,0c.1,0,.2-.005.29-.005H67.485ZM64.561,0H6.4A6.454,6.454,0,0,0,0,6.493V79.729a6.314,6.314,0,0,0,6.26,6.352H44.483a.953.953,0,0,0,.1-.005l.055-.008.04-.006.062-.016.032-.008.028-.009.017-.006.048-.017.041-.019c.023-.011.035-.016.047-.023l.051-.03.033-.02.054-.039.023-.018.027-.025.04-.036L70.64,60.667c.013-.013.023-.025.034-.037l.093-.117.017-.028a1,1,0,0,0,.074-.139c0-.01.007-.02.01-.028a1.032,1.032,0,0,0,.041-.133l.02-.1c0-.011,0-.021,0-.031l0-.039c0-.027,0-.044,0-.062V22.08l.007-.041a1,1,0,0,0,.013-.166V6.493A6.454,6.454,0,0,0,64.561,0" fill="#0a9c82"/>
    <path id="Path_29358_-_Outline" data-name="Path 29358 - Outline" d="M44.483,87.081H6.26A7.315,7.315,0,0,1-1,79.729V6.493A7.455,7.455,0,0,1,6.4-1H64.561a7.455,7.455,0,0,1,7.4,7.493v15.38a2.019,2.019,0,0,1-.02.286v37.8c0,.041,0,.075,0,.109l0,.062,0,.04q0,.021-.006.041l0,.02-.036.182a2.046,2.046,0,0,1-.081.26l-.023.058a1.986,1.986,0,0,1-.149.282l-.034.059-.184.228c-.023.025-.045.05-.072.076L45.81,86.571c-.023.021-.044.04-.064.056l-.05.039-.109.079-.054.034-.079.047c-.052.03-.091.048-.117.06l-.077.036c-.043.018-.078.031-.1.038l-.029.01c-.017.006-.041.015-.072.024s-.066.018-.085.023l-.1.025-.045.007-.057.008-.091.013A1.957,1.957,0,0,1,44.483,87.081ZM1.353,81.656A5.273,5.273,0,0,0,6.26,85.081H44.477l.018-.016,25.423-25.09.019-.024,0-.019h-14.6c-.1,0-.207,0-.306.005l-.095,0c-.072,0-.145,0-.212.008l-.062,0c-.061,0-.121.008-.175.014l-.016,0-.183.016c-.186.017-.382.043-.6.077-.176.028-.385.063-.589.109l-.015,0c-.094.02-.182.041-.265.061l-.056.013c-.3.072-.6.16-.91.268l-.2.072-.093.036-.135.052-.016.006c-.084.032-.163.064-.246.1l-.008,0-.125.055-.131.056-.113.055-.123.058-.067.032-.192.1-.092.049c-.056.03-.1.052-.133.074l-.027.015a10.432,10.432,0,0,0-1.31.853l-.006,0c-.109.082-.224.174-.364.291l-.028.024.01.009c.147-.123.258-.212.371-.3a10.444,10.444,0,0,1,1.324-.861l.006,0c.046-.028.089-.051.12-.067l.023-.012.39-.2.109-.052.089-.042.1-.044.037-.016.111-.048.014-.006c.1-.043.174-.073.248-.1l.013-.005.115-.045.02-.007.307-.111c.293-.1.575-.185.861-.256l.068-.015c.1-.024.2-.048.305-.07h.005c.214-.048.42-.083.595-.11.225-.036.424-.061.609-.078l.184-.016c.067-.007.12-.01.165-.013l.088-.006c.064,0,.126-.006.188-.007l.136,0c.1,0,.189,0,.285,0H69.922L44.481,85.063v-.007H6.26A5.275,5.275,0,0,1,1.353,81.656ZM6.4,3.026A3.439,3.439,0,0,0,3,6.493V79.729A3.3,3.3,0,0,0,6.26,83.056H42.485v-12.1a13.108,13.108,0,0,1,.068-1.353l.021-.18c.009-.077.018-.154.029-.231l.011-.08c.018-.12.035-.237.053-.352s.038-.216.056-.306l.019-.095c.008-.045.018-.091.031-.142v0c.016-.08.035-.164.06-.269v0c.018-.091.037-.162.049-.206.025-.095.049-.188.074-.28l.028-.1c.017-.061.035-.123.056-.2.011-.041.024-.082.04-.129.05-.156.1-.323.17-.5l0-.008c.01-.029.019-.055.03-.085l.017-.047c.009-.024.018-.048.026-.072s.021-.061.037-.1c.064-.165.151-.381.255-.611.04-.088.089-.2.143-.308l.025-.049.045-.095.049-.1c.013-.028.027-.056.043-.086l.086-.163c.025-.05.048-.09.063-.116l0-.008c.045-.084.1-.182.162-.288l.012-.022c.024-.043.049-.086.074-.126l0-.006.017-.03.018-.032c.1-.169.206-.337.346-.544.059-.09.118-.173.183-.263l.068-.1c.18-.251.373-.5.574-.738.068-.083.143-.169.234-.273s.2-.219.295-.319l.005-.005.252-.259c.08-.083.161-.163.246-.242.062-.059.124-.116.175-.162l.092-.083c.076-.067.145-.126.207-.178l.145-.123c.167-.14.308-.253.445-.355a12.44,12.44,0,0,1,1.546-1.007c.075-.044.144-.081.2-.109l.115-.061.222-.112.014-.007c.035-.018.07-.035.112-.054l.08-.038.109-.053c.039-.019.079-.037.119-.053l.093-.04.1-.042.026-.011c.109-.047.211-.089.32-.131l.167-.065.077-.03L51,58.694l.2-.07c.381-.131.74-.237,1.1-.325l.056-.013c.09-.022.2-.047.312-.071.254-.057.5-.1.7-.131.264-.042.5-.073.734-.094l.184-.016c.086-.009.166-.014.236-.019l.076-.005c.1-.006.193-.008.281-.011l.093,0c.113,0,.236-.006.36-.006H67.944V21.873a2.051,2.051,0,0,1,.02-.286V6.493a3.439,3.439,0,0,0-3.4-3.467ZM46.526,70.041a9.066,9.066,0,0,0-.044.917v9.322L65.048,61.956h-9.71c-.075,0-.152,0-.236,0l-.133,0-.122,0-.078.006-.1.008-.017,0L54.469,62c-.136.012-.292.032-.472.061-.145.023-.315.051-.476.088l-.034.007c-.078.016-.157.035-.239.056l-.011,0-.049.011h0c-.224.056-.446.121-.678.2l-.278.1-.07.027-.056.022c-.044.016-.092.036-.16.066L51.8,62.7l-.023.01-.069.03-.041.019-.135.065-.073.035-.247.126-.032.017-.008.005-.074.042a8.441,8.441,0,0,0-1.065.694l-.005,0c-.086.064-.173.135-.293.235l-.128.108c-.039.033-.084.071-.136.117l-.078.071c-.025.023-.05.045-.074.069l-.036.035c-.034.031-.069.066-.1.1l-.346-.332-.015.016.344.335-.229.235c-.062.065-.127.136-.187.2s-.1.11-.142.164l-.019.023c-.132.157-.249.306-.367.47l-.1.134c-.03.041-.06.085-.085.122l-.025.037c-.09.132-.151.228-.2.312l-.005.009-.037.063-.153.257-.3.588c-.023.049-.045.1-.066.146-.06.132-.113.264-.162.388v0l-.044.125-.021.056-.016.044-.01.028c-.039.107-.076.221-.115.341l-.01.033c-.015.049-.028.1-.042.147l-.026.092c-.021.077-.041.154-.063.237l-.019.081c-.017.071-.033.139-.047.209-.005.027-.011.054-.018.083l-.025.124c-.009.046-.018.09-.026.136-.013.083-.026.171-.039.258l-.012.079c-.007.051-.013.1-.019.153Zm.079-5.628.006,0c.141-.195.286-.38.442-.566l.009-.011.008-.009-.006-.006C46.9,64.014,46.749,64.212,46.6,64.412Zm.9-1.084c-.078.082-.157.167-.241.262l-.079.09.18-.187.123-.131.009-.01.241-.248.065-.066.223-.229-.077.072-.014.013c-.059.055-.117.112-.176.173ZM6.4,1A5.412,5.412,0,0,0,1.362,4.515,5.414,5.414,0,0,1,6.4,1.026H64.561a5.412,5.412,0,0,1,5,3.4,5.409,5.409,0,0,0-5-3.425Z" fill="#0a9c82"/>
    <path id="Path_29359" data-name="Path 29359" d="M75.8,44.314H36.873a1.013,1.013,0,0,0,0,2.025H75.8a1.013,1.013,0,0,0,0-2.025" transform="translate(-20.858 -25.493)" fill="#0a9c82"/>
    <path id="Path_29359_-_Outline" data-name="Path 29359 - Outline" d="M75.8,47.339H36.873a2.013,2.013,0,0,1,0-4.025H75.8a2.013,2.013,0,0,1,0,4.025Zm-38.924-2H75.8a.02.02,0,0,0,0-.013.019.019,0,0,0,0-.013H36.879a.019.019,0,0,0,0,.013A.019.019,0,0,0,36.879,45.339Z" transform="translate(-20.858 -25.493)" fill="#0a9c82"/>
    <path id="Path_29360" data-name="Path 29360" d="M75.8,67.881H36.873a1.013,1.013,0,0,0,0,2.026H75.8a1.013,1.013,0,0,0,0-2.026" transform="translate(-20.858 -39.05)" fill="#0a9c82"/>
    <path id="Path_29360_-_Outline" data-name="Path 29360 - Outline" d="M75.8,70.907H36.873a2.013,2.013,0,0,1,0-4.026H75.8a2.013,2.013,0,0,1,0,4.026Zm-38.924-2H75.8a.02.02,0,0,0,0-.013.019.019,0,0,0,0-.013H36.879a.019.019,0,0,0,0,.013A.019.019,0,0,0,36.879,68.907Z" transform="translate(-20.858 -39.05)" fill="#0a9c82"/>
    <path id="Path_29361" data-name="Path 29361" d="M75.8,91.448H36.873a1.013,1.013,0,0,0,0,2.025H75.8a1.013,1.013,0,0,0,0-2.025" transform="translate(-20.858 -52.608)" fill="#0a9c82"/>
    <path id="Path_29361_-_Outline" data-name="Path 29361 - Outline" d="M75.8,94.473H36.873a2.013,2.013,0,0,1,0-4.025H75.8a2.013,2.013,0,0,1,0,4.025Zm-38.924-2H75.8a.02.02,0,0,0,0-.013.019.019,0,0,0,0-.013H36.879a.019.019,0,0,0,0,.013A.019.019,0,0,0,36.879,92.473Z" transform="translate(-20.858 -52.608)" fill="#0a9c82"/>
    <path id="Path_29362" data-name="Path 29362" d="M75.8,115.014H36.873a1.013,1.013,0,0,0,0,2.026H75.8a1.013,1.013,0,0,0,0-2.026" transform="translate(-20.858 -66.165)" fill="#0a9c82"/>
    <path id="Path_29362_-_Outline" data-name="Path 29362 - Outline" d="M75.8,118.04H36.873a2.013,2.013,0,0,1,0-4.026H75.8a2.013,2.013,0,0,1,0,4.026Zm-38.924-2H75.8a.02.02,0,0,0,0-.013.019.019,0,0,0,0-.013H36.879a.019.019,0,0,0,0,.013A.019.019,0,0,0,36.879,116.04Z" transform="translate(-20.858 -66.165)" fill="#0a9c82"/>
  </g>
</svg>
