<svg xmlns="http://www.w3.org/2000/svg" width="122.06" height="122.012" viewBox="0 0 122.06 122.012">
  <g id="View-Progress" transform="translate(3 3)">
    <g id="Group_7261" data-name="Group 7261" transform="translate(-2.458 -2.458)">
      <path id="Path_29572" data-name="Path 29572" d="M23.09,100.077A52.06,52.06,0,0,1,7,61.874a54.877,54.877,0,0,1,109.262-7.331m-54.388.077a7.255,7.255,0,1,1-7.254,7.254A7.254,7.254,0,0,1,61.874,54.619ZM94.406,43.078,68.934,57.757M54.956,66.185l-8.633,5.2M99.044,24.7,91.2,32.552M61.874,9.307v11.1M24.7,24.7l7.848,7.848M9.307,61.874h11.1m2.683,38.2L32.552,91.2m14.5,30.575,19.565-18.563L81.8,118.385,112.934,86.47l10.127,10.184V69.071H95.477L105.384,79l-23.42,23.93L66.787,87.748,24.421,121.771" transform="translate(-4.542 -4.542)" fill="none" stroke="#0a9c82" stroke-linecap="round" stroke-linejoin="round" stroke-width="6"/>
    </g>
  </g>
</svg>
