<svg xmlns="http://www.w3.org/2000/svg" xmlns:xlink="http://www.w3.org/1999/xlink" width="894.439" height="354.518" viewBox="0 0 894.439 354.518">
  <defs>
    <clipPath id="clip-path">
      <rect id="Rectangle_2" data-name="Rectangle 2" width="894.439" height="354.518" fill="none" stroke="#0a9c82" stroke-width="4"/>
    </clipPath>
  </defs>
  <g id="Group_4" data-name="Group 4" transform="translate(0 -0.001)">
    <g id="Group_3" data-name="Group 3" transform="translate(0 0.001)" clip-path="url(#clip-path)">
      <path id="Path_2" data-name="Path 2" d="M0,295.214l93.4.167s8.875-.4,10.565-15.32.337-26.273-7.648-28.027c-7.954-1.748-11.864,17.08-10.412,27.718,0,0,2.011,18.317,13.9,16.316a13.182,13.182,0,0,0,7.547-3.646,30.734,30.734,0,0,1-2.6-12.243c0-6.929-1.013-26.116,5.418-27.847,6.451-1.74,8.379.573,10.2,5.512s1.477,22.538,1.023,28.058-2.952,11.854-7.146,10.736-5.542-3.059-5.542-3.059,2.487,4.021,5.542,4.107,9.305-.266,11.241-3.054a58.732,58.732,0,0,1-2.617-25.56c1.706-14.35,6.034-18.139,9.916-17.581s7.783,5.47,9.5,16.11-.8,25.074-5.16,28.436-9.595,1.981-10.961-.758c0,0,4.675,3.48,8.33,3.956s13.884,1.124,17.224-1.961,7.508-20.506,7.508-20.506l-14.07-.255s102.264,2.479,102.264,1.84,1.522-36.478-1.71-36.6-22.489-.024-22.489,1.036,1.316,32.815-.752,32.855-14.606,1.548-14.793-1.614,1.68-30.442-.746-30.377-138.2,8.025-138.2,8.025S67,131.944,67.7,129.866,369.279,16.121,369.279,16.121s87,2.6,81.148,3.936c-5.835,1.334-59.718,1.88-60.124,7.2s-2.029,163.5,2.439,165.092,37.325-1.4,37.325,1.265,5.384,30.509-1.242,32.04c-6.605,1.529-60.35,4.863-60.35,3.111S365.661,22.1,365.661,22.1s1.606,204.509-.4,205.007-291.62,17.7-291.62,17.7-1.748,3.317-.35,3.28,290.364-14.8,290.765-13.5,68.495-2.816,68.495-2.816L434.2,26.624s69.875-18.317,80.59-19.6c10.764-1.288,74.4-5.348,81.528-3.589C603.481,5.206,647.909,21,650.643,24.53s38.216,33,35.915,33.15S543.326,44.014,542.89,42.223,522.11,12.358,523.4,11.805s66.065-6.425,69.173-2.518,20.091,28.1,20.091,28.1,5.836,1.448,5.836-.4S603.272,9.4,603.272,9.4s40.09,12.873,42.818,17.332c0,0,29.449,26.087,32.658,27.269s56.357,9.43,57.774,12.661,5.206,10.6,1.892,9.859S570.9,54.955,570.9,54.955l3.966,36.455s159.766,20.5,159.766,18.128,2.647-31.406,2.647-31.406,12.515,56.3,6.345,56.607S576.189,123.473,575.749,122.12s-9.688-68.679-9.688-68.679L437.108,76.268l.832-38.791S501.515,19.347,503.653,21.9s27.958,31.106,27.958,31.106L440.845,68.458l1.665,172.83L376.938,245.2l-90.945,1.471s-23.106,35.672-20.423,36.908,4.608,4.2,5.762.759,13.113-30.749,16.985-30.841,64.525-5.06,66.125-1.605,16.044,38.639,16.044,38.639l-6.03.092s2.006-38.582-24.753-36.631c-26.433,1.929-15.82,51.135-13.849,59.792s8.3,19.484,22.6,12.423c14.4-7.106,22.432-32.173,12.389-49.966-10-17.713-14.779-24.146-26.69-17.332-11.846,6.774-12.633,38.442-11.846,47.105s5.916,15.564,0,16.914c-5.9,1.345-17.99.729-28.556-1.926-15.723-3.949-18.957-29.433-16.258-46.215,2.7-16.8,11.989-30.789,26.387-20.374,14.493,10.486,11.35,37.829,8.214,49.128-3.134,11.279-8.214,17.375-15.621,15.712-7.381-1.654,29.776.17,29.776,2.341s20.612,8.114,30.191,8.054c9.621-.064,18.883-11.534,18.883-11.534s-3.226-62.261,1.614-64.571,83.949-5.126,86.048,1.986,10.52,67.983-2.516,68.083c-12.961.1-76.657,3.661-79.49-6.428s-9.284-60.447,1.214-60.247c10.549.2,75.761.5,75.761.5l-.839-9.373s-11.276.278-11.276-3.737-.833-163.206-.833-163.206,116.665-21.894,116.665-16.86,9.23,63.152,7.907,63.218-17.1,4.058-17.1,2.232,3.5-59.142-3.93-59.585c-7.4-.444-20.4-.53-20.831,3.586s.432,56.306,3.892,57.5,14.327,5.215,16.505,5.108,22.343-4.3,22.343-2.461,3.083,6.732-1.319,6.94-57.351,4.531-57.351,2.719,2.576-67.608-2.573-67.288-58.79,8.128-58.79,9.917-1.669,67.946,1.671,69.133,128.066-11.786,129.394-11.848,159.287,8.1,159.287,8.1,2.37-19.144,3.793-12.072,2.372,127.213.474,127.726-100.777.987-100.777.987S626.611,176.6,627.06,175.186s53.4-26.05,57.1-25.274,44.343,22.228,45.284,25.039-5.649,86.944-11.287,88c-5.621,1.06-9.361,1.606-7.959-3.62s14.538-78.514,10.778-82.164-33.116-17.077-34.5-14.667-3.7,104.45-3.7,101.161S678.152,162.851,674,163.023,636.556,173.883,636.556,179s13.631,78.786,13.174,80.195-9.093,8.108-12.721,9.573-50.2,3.263-51.089.979-9.73-32.411-7.08-33.86,50.479.982,51.832,4.662,6.337,28.218,8.6,29.105,78.412.882,78.412.882,7.984-32.858,11.281-33.891,12.759-4.608,12.759-4.608,2.845,38.482.475,40.428-169.542,3.04-169.542,3.04-18-33.035-45.805-31.879c-27.472,1.141-30.456,31.893-31.31,46.793s-1.7,37.446-1.7,37.446L471.4,324.873l36.535.187s8.151,28.941,34.524,28.917c26.685-.02,37.709-49.658,23.167-74.225-14.452-24.409-33.146-24.444-47.388-13.7-14.155,10.678-15.864,51.367-8.162,69.849,7.73,18.545,38.917,23.09,55.11,18.514,16.31-4.607,22.512-11.982,22.512-16.585s-5.761-55.6-5.761-55.6-14.115-39.181-27.7-45.694c-13.511-6.474-96.693-.117-96.693-.117s-1.677-74.164-.839-75.544,110.683-13.585,112.443-8.623,4.842,51.178,3.08,51.7-113.427,3.36-101.245,6.989c12.252,3.647,159.247-7.542,157.891-5.174s-57.525,3.72-58.847,9.264,9.262,46.573,10.589,51.14.44,15.16,6.2,15.984,161.563-6.465,161.563-4.084.475,33.341-.95,34.787-157.064,1.477-157.064,4.241-2.218,17.051,3.111,18.405c5.344,1.359,134.089-4.911,135.974-5.873S746.47,312.387,744.1,317.17s-6.628,13.841-9.936,13.857-85.8,4.214-85.8,4.214,14.616,12.092,28.866,12.063c14.336-.031,30.626-13.294,30.626-13.294s-11.648,13.723-23.7,14.687l210.286-.146" transform="translate(-0.004 -2.276)" fill="none" stroke="#0a9c82" stroke-linejoin="round" stroke-width="4"/>
    </g>
  </g>
</svg>
