<svg xmlns="http://www.w3.org/2000/svg" xmlns:xlink="http://www.w3.org/1999/xlink" width="139.119" height="126.041" viewBox="0 0 139.119 126.041">
  <defs>
    <clipPath id="clip-path">
      <rect id="Rectangle_509" data-name="Rectangle 509" width="139.119" height="126.041" transform="translate(0 0)" fill="none" stroke="#0a9c82" stroke-width="1"/>
    </clipPath>
  </defs>
  <g id="Group_1" data-name="Group 1" transform="translate(0 0.003)">
    <g id="Group_721" data-name="Group 721" transform="translate(0 -0.003)" clip-path="url(#clip-path)">
      <path id="Path_1822" data-name="Path 1822" d="M5.882,129.132s1.778-8.826,8.986-3.37,10.23.2,12.4.6,3.356.842,4,.388.348-3.29.267-3.45a17.069,17.069,0,0,0-4.145-.428c-.027.187-.829,2.541-.08,2.862s27.146,4.333,27.734,3.985-.321-2.38.374-2.567,3.931-.428,4.279.053a12.11,12.11,0,0,1,.4,4.038c-.134.241-3.37.669-3.8,0s-.7-3.156-.187-3.37,2.915.214,3-.08,1.337-59.724.615-60-31.612,4.856-32.013,6.3-.281,48.02-.281,48.02,6.218.883,6.178.281.12-48.742-.321-48.782-1.163,0-1.163.361-.4,50.968.5,51.691,7.816,1.01,8,.662.361-53.676-.3-53.857-1.023.06-1.063.241-.053,52.787.107,53.135,5.055.749,5.509.428-.321-54.064-.481-54.3-1.163-.321-1.244,0,.2,53.476.562,53.837,7.7,1.565,7.863,1.083.06-57.046-.221-56.986-1.224.04-1.3.361-.6,55.5-.12,55.742,7.141,1.765,7.381-.08.535-20.593-.027-20.914-26.47.8-26.952.314a3.5,3.5,0,0,1-.247-2.481c.161-.107,27.306-.267,27.306-.508s-.053-4.841-.321-4.974S30.728,98.7,30.327,98.51s-.455-3.8-.214-3.878S56.7,93.562,56.8,93.214s.428-15.211.067-15.331-26.357,3.724-26.6,3.59a8.539,8.539,0,0,1-.241-3.29c.187-.16,26-3.824,26.5-4.44s-.075-4.564.535-5.162,2.888-.374,4.44-.214,68.573,13.586,68.627,13.426S78.173,23.384,78.173,23.625s.742,1.625-1.324,1.966-1.765-2.628-2.527-3.771-1.585-.973-1.364-1.424,1.494-.542,2.888.883,3.019,2.828,3.45,1.183-2.257-3.41-2.3-3.851-.231-1.976.09-2.156,3.109.15,3.711-.411.241-9.327-.2-9.748-5.386-.411-5.837.14S74.081,15.421,75,15.6s5.188,0,5.322-.361a63.683,63.683,0,0,0-.214-7.916c-.187-.08-4.72-.187-4.8.16s-.12,7.435.241,7.6,3.2-.508,3.316-.134-.214,1.919-.114,2.922,2.708,2.387,2.708,4.934-2.577,3.249-3.691,3.5-1.575-.221-2.337.782-45.643,45.041-45,45S59.879,67.152,60.6,66.43,76.568,25.871,78.814,27.4s21.663,47.5,22.706,47.258,27.788,6.178,28.617,8.264.7,33.9,0,34.5-68.573,8.244-68.874,8.846-.241,4.212.361,4.333,67.149-9.7,67.256-10.023.267-2.059-.107-2.166-66.126,9.762-66.567,8.919-.341-56.485.2-56.665a3.049,3.049,0,0,1,2.287.662c.3.421.542,51.029,1.023,51.39s2.391.481,2.58-.181-.534-50.968-.534-50.968,1.865.06,2.347.782.361,49.584.842,49.7a4.8,4.8,0,0,0,2.226-.361c.12-.181-.3-48.8-.3-48.8s2.808-.4,3.049.8.562,46.776,1.123,47.338,2.487-.16,2.567-.4-.481-45.493,0-45.813,2.487-.883,2.888.481.16,44.129.722,44.449a3.626,3.626,0,0,0,2.73-.16c.72-.4-1.606-43.326-.563-43.647s3.209-.562,3.37.562-.08,42.845.321,42.845,2.487.241,3.049-.16-.8-42.444-.481-42.524,2.487.321,2.648.963.842,41.481,1.324,41.481,2.588.12,3.069-.3S96.285,78,97.068,78s2.828-.3,3.009.662.521,39.836.923,40.077,3.209.08,3.209-.281-1.183-39.435-.762-39.5,2.588-.06,2.828.662,1.143,38.031,1.444,38.271,2.949.241,3.069-.241-1.926-37.489-1.2-37.489,3.55-.12,3.791.722.181,36.045.782,36.165,2.287-.3,2.527-.782-.963-34.962.12-34.962,3.189-.12,3.37.481-.782,34.781,0,34.781a6.438,6.438,0,0,0,2.467-.6c.361-.241-.361-33.7.06-33.7s2.287.181,2.828.963-.12,32.434.361,32.615,2.287.12,2.407-.3-.782-31.833.12-31.833,4.333.9,4.754,2.708,1.885,15.906,3.41,15.585,1.524-12.2,8.1-8.745" transform="translate(-5.669 -5.78)" fill="none" stroke="#0a9c82" stroke-miterlimit="10" stroke-width="1"/>
    </g>
  </g>
</svg>
