<svg xmlns="http://www.w3.org/2000/svg" width="42.283" height="47.897" viewBox="0 0 42.283 47.897">
  <g id="Group_4016" data-name="Group 4016" transform="translate(1.058 0.847)">
    <g id="call-phone-icon" transform="translate(0 6.534) rotate(-11)">
      <path id="Path_2316" data-name="Path 2316" d="M6.377,27.579C14.988,39.658,28.413,44.1,32.783,35.986a2.358,2.358,0,0,0-.037-2.342c-1.979-3.262-7.869-5.92-10.816-5.816a1.427,1.427,0,0,0-1.267.869,13.4,13.4,0,0,0-.716,2.43.855.855,0,0,1-1.215.6,23.4,23.4,0,0,1-7.956-7.258,23.229,23.229,0,0,1-4.307-9.843.851.851,0,0,1,.963-.947,13.656,13.656,0,0,0,2.546.12,1.427,1.427,0,0,0,1.24-.907c1.061-2.734.455-9.134-2-12.058A2.394,2.394,0,0,0,7,.031C-2.149,1.486-2.3,15.547,6.377,27.579Z" transform="translate(0 0)" fill="none" stroke="#50b848" stroke-linecap="round" stroke-miterlimit="10" stroke-width="1.8"/>
      <path id="Path_2317" data-name="Path 2317" d="M0,0A18.275,18.275,0,0,1,14.06,21.685" transform="translate(20.164 1.837)" fill="none" stroke="#50b848" stroke-linecap="round" stroke-miterlimit="10" stroke-width="1.8"/>
      <path id="Path_2318" data-name="Path 2318" d="M0,0A13.881,13.881,0,0,1,10.68,16.472" transform="translate(19.247 6.698)" fill="none" stroke="#50b848" stroke-linecap="round" stroke-miterlimit="10" stroke-width="1.8"/>
      <path id="Path_2319" data-name="Path 2319" d="M0,0A9.488,9.488,0,0,1,7.3,11.258" transform="translate(17.247 11.232)" fill="none" stroke="#50b848" stroke-linecap="round" stroke-miterlimit="10" stroke-width="1.8"/>
    </g>
  </g>
</svg>
