<svg xmlns="http://www.w3.org/2000/svg" width="194.021" height="43.994" viewBox="0 0 194.021 43.994"><g transform="translate(17326 7522)"><g transform="translate(-335.617 62)"><path d="M140.457,24.186a4.573,4.573,0,0,0,3.549-4.5c0-2.332-1.856-4.69-5.4-4.69h-7.578V32.052h3.512V17.315H137.3c2.663,0,3.06,1.588,3.06,2.533,0,1.573-1.133,2.558-2.954,2.558-1.181,0-1.858.463-1.858,1.243,0,.438.275,1.006,1.576,1.207,1.609.25,2.257,1.82,3.08,3.8,0,0,.711,1.68.955,2.221a1.555,1.555,0,0,0,1.682,1.17h2.735l-1.208-2.6c-1.21-2.677-2.173-4.255-3.912-5.263" transform="translate(-16990 -7584)" fill="#8e8e8e" fill-rule="evenodd"/><path d="M105.906,24.186a4.572,4.572,0,0,0,3.548-4.5c0-2.332-1.856-4.69-5.4-4.69H96.473V32.052h3.51V17.315h2.768c2.662,0,3.059,1.588,3.059,2.533,0,1.573-1.133,2.558-2.955,2.558-1.18,0-1.857.463-1.857,1.243,0,.438.275,1.006,1.577,1.207,1.608.25,2.256,1.82,3.08,3.8,0,0,.71,1.68.955,2.221a1.553,1.553,0,0,0,1.68,1.17h2.736l-1.208-2.6c-1.21-2.677-2.173-4.255-3.912-5.263" transform="translate(-16990 -7584)" fill="#8e8e8e" fill-rule="evenodd"/><path d="M57.617,32.054h3.514V15H57.617Z" transform="translate(-16990 -7584)" fill="#8e8e8e" fill-rule="evenodd"/><path d="M84.792,24.409h8.224v-2.32H84.792V17.317h8.624V15H81.28V32.054H93.6v-2.32H84.792Z" transform="translate(-16990 -7584)" fill="#8e8e8e" fill-rule="evenodd"/><path d="M116.387,17.317H119.2c3.928,0,6.18,2.264,6.18,6.208,0,3.887-2.29,6.208-6.129,6.208h-2.868V17.317Zm3.4-2.317h-6.908V32.055h6.407c6.282,0,9.743-3.02,9.743-8.5C129.028,18.274,125.484,15,119.786,15Z" transform="translate(-16990 -7584)" fill="#8e8e8e" fill-rule="evenodd"/><path d="M154.854,29.523c-3.488,0-5.486-2.187-5.486-6s2-6,5.486-6c3.47,0,5.456,2.187,5.456,6s-1.986,6-5.456,6m0-14.764c-6.307,0-9.129,4.4-9.129,8.766s2.822,8.768,9.13,8.768c6.252,0,9.1-4.545,9.1-8.768,0-4.363-2.815-8.766-9.1-8.766" transform="translate(-16990 -7584)" fill="#8e8e8e" fill-rule="evenodd"/><path d="M68.48,17.317h2.85c2.06,0,2.795,1.127,2.795,2.178a2.516,2.516,0,0,1-2.8,2.45c-1.184,0-1.86.423-1.86,1.158,0,.344.178,1.148,1.843,1.16l.813,0c1.878,0,3.245,1.155,3.245,2.753,0,2.4-2.062,2.713-3.853,2.713H68.48Zm6.342,5.464A4.259,4.259,0,0,0,77.767,18.9c0-1.943-1.7-3.9-5.484-3.9H64.972V32.054h8.29c5.307,0,5.88-3.356,5.88-4.8,0-2.985-2.653-4.083-4.32-4.477Z" transform="translate(-16990 -7584)" fill="#8e8e8e" fill-rule="evenodd"/><path d="M181.341,25.93c.178-.464,2.384-6.3,2.83-7.49l3.153,7.49ZM186.061,15h-3.844l-6.9,17.055h3.714s1.212-3.212,1.35-3.572h8.027c.135.332,1,2.4,1,2.4a1.557,1.557,0,0,0,1.677,1.17h2.56L186.06,15Z" transform="translate(-16990 -7584)" fill="#8e8e8e" fill-rule="evenodd"/><path d="M169.6,29.733V15h-3.514V32.053h8.852l.011-2.32Z" transform="translate(-16990 -7584)" fill="#8e8e8e" fill-rule="evenodd"/></g><g transform="translate(-336 62)"><path d="M26.716,25.534c.12-6.538,4.126-9.886,8.71-13.057A74.449,74.449,0,0,0,32.175,0c-1.087,13.556-18.06,12.637-18.292,25.552a9.47,9.47,0,0,0,2.934,6.653A10.774,10.774,0,0,0,30.3,33.327a10.852,10.852,0,0,1-3.583-7.793" transform="translate(-16990 -7584)" fill="#8e8e8e" fill-rule="evenodd"/><path d="M46.2,0C45.121,13.556,28.148,12.637,27.911,25.552a9.477,9.477,0,0,0,2.942,6.653C38.221,39.482,58.418,35.232,46.2,0" transform="translate(-16990 -7584)" fill="#8e8e8e" fill-rule="evenodd"/><path d="M15.952,12.912a6.332,6.332,0,0,1-1.493-2.419,7.968,7.968,0,0,0,.85,3.607,60.2,60.2,0,0,1-3.254,5.24,15.632,15.632,0,0,1-2.278-4.913,14.788,14.788,0,0,0,1.285,6.451A47.392,47.392,0,0,0,7.9,26.264a24.407,24.407,0,0,1-3.246-7.535s-.367,5.635,2.276,9.684a24.619,24.619,0,0,0-1.394,4.315c-.913-.537-4.39-3.035-4.39-7.3,0-5.574,4.05-8.562,8.288-11.526l.006,0c3.69-2.576,6.78-4.96,8.543-8.775a18.2,18.2,0,0,1-2.029,7.79M18.294,0C17.207,13.556.232,12.637,0,25.552a9.461,9.461,0,0,0,2.935,6.653,9.914,9.914,0,0,0,2.471,1.773,33.336,33.336,0,0,0-.386,10.016l2.063-.106a27.341,27.341,0,0,1-.467-9.375,10.667,10.667,0,0,0,9.715-1.125c-.12-.108-.239-.22-.354-.333a10.629,10.629,0,0,1-3.29-7.521c.112-6.294,3.84-9.574,7.85-12.447.329-.237.66-.47.99-.7A74.039,74.039,0,0,0,18.294,0" transform="translate(-16990 -7584)" fill="#8e8e8e" fill-rule="evenodd"/></g></g></svg>