<svg xmlns="http://www.w3.org/2000/svg" xmlns:xlink="http://www.w3.org/1999/xlink" width="194.021" height="45.767" viewBox="0 0 194.021 45.767"><defs><clipPath id="a"><path d="M10.434,37.593c0,.019,0,.041,0,.061v.13a9.923,9.923,0,0,0,3.017,6.723,9.7,9.7,0,0,0,2.539,1.846,35.045,35.045,0,0,0-.407,10.421l2.12-.113a28.688,28.688,0,0,1-.471-9.749c8.886,3.317,22.78-4.339,11.976-35.9C28.1,25.116,10.678,24.157,10.434,37.593" transform="translate(-10.433 -11.008)" fill="none"/></clipPath><linearGradient id="b" x1="-0.118" y1="3.066" x2="-0.1" y2="3.066" gradientUnits="objectBoundingBox"><stop offset="0" stop-color="#d3d100"/><stop offset="0.034" stop-color="#d3d100"/><stop offset="0.198" stop-color="#c2c700"/><stop offset="0.52" stop-color="#95ad02"/><stop offset="0.8" stop-color="#6b9505"/><stop offset="1" stop-color="#6b9505"/></linearGradient><clipPath id="c"><path d="M10.434,37.593c0,.019,0,.041,0,.061v.13a9.923,9.923,0,0,0,3.017,6.723,9.7,9.7,0,0,0,2.539,1.846,31.178,31.178,0,0,1,2.005-6.5,20.728,20.728,0,0,1-2.854-9.744v0a35.526,35.526,0,0,0,3.389,8.534,54.4,54.4,0,0,1,3.681-6.285,14.257,14.257,0,0,1-1.8-6.486c0-.012.01-.012.021-.019a23.267,23.267,0,0,0,2.433,5.516,58.452,58.452,0,0,0,3.456-5.659,11.613,11.613,0,0,1-1.034-4.116,9.665,9.665,0,0,0,1.643,2.877,26.715,26.715,0,0,0,2.3-6.242,24.043,24.043,0,0,0-.024-7.22C28.1,25.116,10.678,24.157,10.434,37.593" transform="translate(-10.433 -11.008)" fill="none"/></clipPath><radialGradient id="d" cx="-0.338" cy="-0.179" r="1.513" gradientTransform="matrix(1.844, 0, 0, -1, 0.682, 9.213)" gradientUnits="objectBoundingBox"><stop offset="0" stop-color="#d5d830"/><stop offset="0.191" stop-color="#d5d830"/><stop offset="0.296" stop-color="#bcc826"/><stop offset="0.508" stop-color="#90ac14"/><stop offset="0.673" stop-color="#759b09"/><stop offset="0.77" stop-color="#6b9505"/><stop offset="1" stop-color="#6b9505"/></radialGradient><clipPath id="e"><path d="M39.9,37.593a9.92,9.92,0,0,0,3.016,6.915c7.568,7.57,28.3,3.147,15.762-33.5C57.57,25.116,40.139,24.157,39.9,37.593" transform="translate(-39.896 -11.008)" fill="none"/></clipPath><radialGradient id="f" cx="-0.206" cy="-0.154" r="1.302" gradientTransform="matrix(1.31, 0, 0, -1, 0.286, 7.929)" gradientUnits="objectBoundingBox"><stop offset="0" stop-color="#e4ecf7"/><stop offset="0.132" stop-color="#e0eaf6"/><stop offset="0.251" stop-color="#d5e4f3"/><stop offset="0.365" stop-color="#c3daee"/><stop offset="0.476" stop-color="#a9cce7"/><stop offset="0.585" stop-color="#87bade"/><stop offset="0.692" stop-color="#5ea4d3"/><stop offset="0.796" stop-color="#2f8ac7"/><stop offset="0.885" stop-color="#0071bb"/><stop offset="1" stop-color="#0071bb"/></radialGradient><clipPath id="g"><path d="M39.9,53.752a9.92,9.92,0,0,0,3.016,6.915,10.047,10.047,0,0,0,.836.746c3.825-3.112,6.364-9.513,4.815-20.421-4.387,3.115-8.547,6.241-8.667,12.76" transform="translate(-39.896 -40.992)" fill="none"/></clipPath><radialGradient id="h" cx="-0.63" cy="-0.983" r="2.618" gradientTransform="matrix(1.993, 0, 0, -1, 2.804, 14.593)" gradientUnits="objectBoundingBox"><stop offset="0" stop-color="#fff"/><stop offset="0.047" stop-color="#e8eef6"/><stop offset="0.104" stop-color="#d4e0ef"/><stop offset="0.17" stop-color="#c5d5e9"/><stop offset="0.249" stop-color="#bdcfe6"/><stop offset="0.382" stop-color="#bbcee6"/><stop offset="0.47" stop-color="#8eb7db"/><stop offset="0.629" stop-color="#4291ca"/><stop offset="0.743" stop-color="#127abf"/><stop offset="0.8" stop-color="#0071bb"/><stop offset="1" stop-color="#0071bb"/></radialGradient><clipPath id="i"><path d="M69.725,37.593a9.851,9.851,0,0,0,3.009,6.915c7.56,7.57,28.293,3.147,15.752-33.5-1.1,14.108-18.531,13.149-18.761,26.585" transform="translate(-69.724 -11.008)" fill="none"/></clipPath><radialGradient id="j" cx="-0.207" cy="-0.154" r="1.302" gradientTransform="matrix(1.31, 0, 0, -1, 0.422, 7.929)" gradientUnits="objectBoundingBox"><stop offset="0" stop-color="#ffec00"/><stop offset="0.135" stop-color="#ffec00"/><stop offset="0.161" stop-color="#fee600"/><stop offset="0.263" stop-color="#fdd400"/><stop offset="0.372" stop-color="#fcca00"/><stop offset="0.5" stop-color="#fcc700"/><stop offset="0.786" stop-color="#f39b00"/><stop offset="0.95" stop-color="#ef8700"/><stop offset="1" stop-color="#ef8700"/></radialGradient><clipPath id="k"><path d="M69.725,53.872a9.851,9.851,0,0,0,3.009,6.915,7.533,7.533,0,0,0,.752.682c3.779-3.125,6.269-9.483,4.756-20.254-4.335,3.086-8.413,6.2-8.517,12.657" transform="translate(-69.724 -41.215)" fill="none"/></clipPath><radialGradient id="l" cx="-0.64" cy="-0.997" r="2.638" gradientTransform="matrix(2.012, 0, 0, -1, 4.277, 14.703)" gradientUnits="objectBoundingBox"><stop offset="0" stop-color="#ffe800"/><stop offset="0.005" stop-color="#fee600"/><stop offset="0.082" stop-color="#fad200"/><stop offset="0.169" stop-color="#f7c300"/><stop offset="0.275" stop-color="#f5bb00"/><stop offset="0.45" stop-color="#f5b900"/><stop offset="0.508" stop-color="#f3ab00"/><stop offset="0.623" stop-color="#f09700"/><stop offset="0.738" stop-color="#ef8b00"/><stop offset="0.85" stop-color="#ef8700"/><stop offset="1" stop-color="#ef8700"/></radialGradient></defs><g transform="translate(17326 7393.475)"><g transform="translate(-790 304.525)"><g transform="translate(-16536 -7698)"><g clip-path="url(#a)"><rect width="49.766" height="54.492" transform="matrix(0.838, -0.546, 0.546, 0.838, -20.933, 13.64)" fill="url(#b)"/></g></g><g transform="translate(-16536 -7698)"><g clip-path="url(#c)"><rect width="19.165" height="35.346" transform="translate(0 0)" fill="url(#d)"/></g></g><g transform="translate(-16522.414 -7698)"><g clip-path="url(#e)"><rect width="31.343" height="41.07" transform="translate(-0.03 0)" fill="url(#f)"/></g></g><g transform="translate(-16522.414 -7684.176)"><g clip-path="url(#g)"><rect width="10.246" height="20.42" transform="translate(-0.03 0.001)" fill="url(#h)"/></g></g><g transform="translate(-16508.662 -7698)"><g clip-path="url(#i)"><rect width="31.341" height="41.07" transform="translate(-0.038 0)" fill="url(#j)"/></g></g><g transform="translate(-16508.662 -7684.073)"><g clip-path="url(#k)"><rect width="10.068" height="20.254" transform="translate(-0.038 0)" fill="url(#l)"/></g></g></g><g transform="translate(-335.617 192.297)"><path d="M140.457,24.186a4.573,4.573,0,0,0,3.549-4.5c0-2.332-1.856-4.69-5.4-4.69h-7.578V32.052h3.512V17.315H137.3c2.663,0,3.06,1.588,3.06,2.533,0,1.573-1.133,2.558-2.954,2.558-1.181,0-1.858.463-1.858,1.243,0,.438.275,1.006,1.576,1.207,1.609.25,2.257,1.82,3.08,3.8,0,0,.711,1.68.955,2.221a1.555,1.555,0,0,0,1.682,1.17h2.735l-1.208-2.6c-1.21-2.677-2.173-4.255-3.912-5.263" transform="translate(-16990 -7584)" fill="#5c891e" fill-rule="evenodd"/><path d="M105.906,24.186a4.572,4.572,0,0,0,3.548-4.5c0-2.332-1.856-4.69-5.4-4.69H96.473V32.052h3.51V17.315h2.768c2.662,0,3.059,1.588,3.059,2.533,0,1.573-1.133,2.558-2.955,2.558-1.18,0-1.857.463-1.857,1.243,0,.438.275,1.006,1.577,1.207,1.608.25,2.256,1.82,3.08,3.8,0,0,.71,1.68.955,2.221a1.553,1.553,0,0,0,1.68,1.17h2.736l-1.208-2.6c-1.21-2.677-2.173-4.255-3.912-5.263" transform="translate(-16990 -7584)" fill="#5c891e" fill-rule="evenodd"/><path d="M57.617,32.054h3.514V15H57.617Z" transform="translate(-16990 -7584)" fill="#5c891e" fill-rule="evenodd"/><path d="M84.792,24.409h8.224v-2.32H84.792V17.317h8.624V15H81.28V32.054H93.6v-2.32H84.792Z" transform="translate(-16990 -7584)" fill="#5c891e" fill-rule="evenodd"/><path d="M116.387,17.317H119.2c3.928,0,6.18,2.264,6.18,6.208,0,3.887-2.29,6.208-6.129,6.208h-2.868V17.317Zm3.4-2.317h-6.908V32.055h6.407c6.282,0,9.743-3.02,9.743-8.5C129.028,18.274,125.484,15,119.786,15Z" transform="translate(-16990 -7584)" fill="#5c891e" fill-rule="evenodd"/><path d="M154.854,29.523c-3.488,0-5.486-2.187-5.486-6s2-6,5.486-6c3.47,0,5.456,2.187,5.456,6s-1.986,6-5.456,6m0-14.764c-6.307,0-9.129,4.4-9.129,8.766s2.822,8.768,9.13,8.768c6.252,0,9.1-4.545,9.1-8.768,0-4.363-2.815-8.766-9.1-8.766" transform="translate(-16990 -7584)" fill="#5c891e" fill-rule="evenodd"/><path d="M68.48,17.317h2.85c2.06,0,2.795,1.127,2.795,2.178a2.516,2.516,0,0,1-2.8,2.45c-1.184,0-1.86.423-1.86,1.158,0,.344.178,1.148,1.843,1.16l.813,0c1.878,0,3.245,1.155,3.245,2.753,0,2.4-2.062,2.713-3.853,2.713H68.48Zm6.342,5.464A4.259,4.259,0,0,0,77.767,18.9c0-1.943-1.7-3.9-5.484-3.9H64.972V32.054h8.29c5.307,0,5.88-3.356,5.88-4.8,0-2.985-2.653-4.083-4.32-4.477Z" transform="translate(-16990 -7584)" fill="#5c891e" fill-rule="evenodd"/><path d="M181.341,25.93c.178-.464,2.384-6.3,2.83-7.49l3.153,7.49ZM186.061,15h-3.844l-6.9,17.055h3.714s1.212-3.212,1.35-3.572h8.027c.135.332,1,2.4,1,2.4a1.557,1.557,0,0,0,1.677,1.17h2.56L186.06,15Z" transform="translate(-16990 -7584)" fill="#5c891e" fill-rule="evenodd"/><path d="M169.6,29.733V15h-3.514V32.053h8.852l.011-2.32Z" transform="translate(-16990 -7584)" fill="#5c891e" fill-rule="evenodd"/></g></g></svg>