<svg xmlns="http://www.w3.org/2000/svg" width="262.36" height="43.994" viewBox="0 0 262.36 43.994"><g transform="translate(17326 7584)"><path d="M26.716,25.534c.12-6.538,4.126-9.886,8.71-13.057A74.449,74.449,0,0,0,32.175,0c-1.087,13.556-18.06,12.637-18.292,25.552a9.47,9.47,0,0,0,2.934,6.653A10.774,10.774,0,0,0,30.3,33.327a10.852,10.852,0,0,1-3.583-7.793" transform="translate(-17326 -7584)" fill="#8e8e8e" fill-rule="evenodd"/><path d="M46.2,0C45.121,13.556,28.148,12.637,27.911,25.552a9.477,9.477,0,0,0,2.942,6.653C38.221,39.482,58.418,35.232,46.2,0" transform="translate(-17326 -7584)" fill="#8e8e8e" fill-rule="evenodd"/><path d="M15.952,12.912a6.332,6.332,0,0,1-1.493-2.419,7.968,7.968,0,0,0,.85,3.607,60.2,60.2,0,0,1-3.254,5.24,15.632,15.632,0,0,1-2.278-4.913,14.788,14.788,0,0,0,1.285,6.451A47.392,47.392,0,0,0,7.9,26.264a24.407,24.407,0,0,1-3.246-7.535s-.367,5.635,2.276,9.684a24.619,24.619,0,0,0-1.394,4.315c-.913-.537-4.39-3.035-4.39-7.3,0-5.574,4.05-8.562,8.288-11.526l.006,0c3.69-2.576,6.78-4.96,8.543-8.775a18.2,18.2,0,0,1-2.029,7.79M18.294,0C17.207,13.556.232,12.637,0,25.552a9.461,9.461,0,0,0,2.935,6.653,9.914,9.914,0,0,0,2.471,1.773,33.336,33.336,0,0,0-.386,10.016l2.063-.106a27.341,27.341,0,0,1-.467-9.375,10.667,10.667,0,0,0,9.715-1.125c-.12-.108-.239-.22-.354-.333a10.629,10.629,0,0,1-3.29-7.521c.112-6.294,3.84-9.574,7.85-12.447.329-.237.66-.47.99-.7A74.039,74.039,0,0,0,18.294,0" transform="translate(-17326 -7584)" fill="#8e8e8e" fill-rule="evenodd"/><g transform="translate(-17268 -7569.71)"><path d="M266.872,117a5.213,5.213,0,0,0-5.4-5.11H253.9v17.031H257.4V114.2h2.763a2.782,2.782,0,0,1,3.061,2.952c0,1.571-.588,2.894-2.985,2.894-1.223,0-1.711.241-1.765.935-.051.652.729,1.02,1.52,1.172,3.49.663,6.872-1.425,6.872-5.159" transform="translate(-140.128 -111.446)" fill="#8e8e8e"/><path d="M408.8,121.061a4.548,4.548,0,0,0,3.527-4.485c0-2.331-1.84-4.689-5.379-4.689h-7.574v17.031h3.5V114.2h2.764c2.654,0,3.047,1.584,3.047,2.527,0,1.574-1.123,2.561-2.945,2.561-1.177,0-1.856.456-1.856,1.235,0,.443.285,1,1.582,1.206,1.608.251,2.256,1.822,3.079,3.8,0,0,.705,1.675.948,2.214a1.553,1.553,0,0,0,1.675,1.173h2.743l-1.214-2.6c-1.2-2.675-2.161-4.259-3.9-5.261" transform="translate(-209.55 -111.446)" fill="#8e8e8e"/><path d="M373.871,121.292h8.2v-2.317h-8.2v-4.764h8.619V111.9H370.364v17.023h12.3v-2.317h-8.8Z" transform="translate(-195.709 -111.453)" fill="#8e8e8e"/><path d="M290.02,111.434c-6.305,0-9.122,4.4-9.122,8.749,0,4.365,2.817,8.758,9.122,8.758,6.242,0,9.082-4.535,9.082-8.758,0-4.347-2.8-8.749-9.082-8.749m0,14.743c-3.495,0-5.486-2.187-5.486-5.994s1.991-5.988,5.486-5.988c3.467,0,5.447,2.183,5.447,5.988s-1.98,5.994-5.447,5.994" transform="translate(-153.013 -111.23)" fill="#8e8e8e"/><path d="M340.539,111.9a1.311,1.311,0,0,0-1.492,1.166L335.2,125.513,331.351,111.9H328.16a1.287,1.287,0,0,0-1.476,1.111L323,125.588l-3.65-13.686h-3.88l4.993,17.051h4.5l3.963-13.435,3.79,13.435h4.447l5.194-17.051Z" transform="translate(-169.511 -111.454)" fill="#8e8e8e"/><path d="M36.273,127.281l.141-2.469a12.764,12.764,0,0,0,4.743,1.164c.993-.031,3.69.044,3.556-2.286-.17-2.949-8.406-2.378-8.406-7.686,0-3.675,3.85-4.958,6.962-4.958a15.314,15.314,0,0,1,3.955.652l-.071,1.168a1,1,0,0,1-1.263.933,11.465,11.465,0,0,0-2.6-.221c-1.011.039-3.43.191-3.311,1.994.176,2.629,8.541,2.206,8.541,8.092,0,3.562-3.5,4.884-7.228,4.884a12.128,12.128,0,0,1-5.024-1.269" transform="translate(-36.273 -111.046)" fill="#8e8e8e"/><path d="M71.159,113.6a10.841,10.841,0,0,1,2.576.168.985.985,0,0,0,1.318-.909l.068-1.163a14.418,14.418,0,0,0-4.174-.654c-6.3,0-9.122,4.4-9.122,8.749s2.817,8.752,9.122,8.752a14.416,14.416,0,0,0,4.174-.655l-.142-2.42a9.29,9.29,0,0,1-3.82.514c-3.487-.107-5.7-2.386-5.7-6.192s2.209-6.083,5.7-6.192" transform="translate(-48.467 -111.044)" fill="#8e8e8e"/><path d="M97.171,111.044c-6.3,0-9.121,4.4-9.121,8.751,0,4.365,2.818,8.755,9.121,8.755,6.242,0,9.083-4.533,9.083-8.755,0-4.347-2.8-8.751-9.083-8.751m0,14.745c-3.495,0-5.487-2.188-5.487-5.994s1.992-5.988,5.487-5.988c3.465,0,5.447,2.18,5.447,5.988s-1.982,5.994-5.447,5.994" transform="translate(-60.982 -111.044)" fill="#8e8e8e"/><rect width="3.506" height="17.023" transform="translate(73.594 0.44)" fill="#8e8e8e"/><path d="M135.058,111.887h-12.62V114.2h4.7V128.91h3.507V114.2h4.415Z" transform="translate(-77.392 -111.447)" fill="#8e8e8e"/><path d="M161.558,111.887h-12.62V114.2h4.7V128.91h3.507V114.2h4.417Z" transform="translate(-90.038 -111.447)" fill="#8e8e8e"/><path d="M229.195,111.887v7.064h-8.083v-7.064H217.6V128.91h3.507v-7.645h8.083v7.645H232.7V111.887Z" transform="translate(-122.808 -111.447)" fill="#8e8e8e"/><path d="M189.62,127.281l.141-2.469a12.757,12.757,0,0,0,4.741,1.164c.994-.031,3.691.044,3.557-2.286-.171-2.949-8.4-2.378-8.4-7.686,0-3.675,3.849-4.958,6.96-4.958a15.288,15.288,0,0,1,3.954.652l-.067,1.168a1,1,0,0,1-1.264.933,11.463,11.463,0,0,0-2.6-.221c-1.011.039-3.431.191-3.31,1.994.175,2.629,8.542,2.206,8.542,8.092,0,3.562-3.5,4.884-7.231,4.884a12.119,12.119,0,0,1-5.021-1.269" transform="translate(-109.454 -111.046)" fill="#8e8e8e"/></g></g></svg>