<svg xmlns="http://www.w3.org/2000/svg" xmlns:xlink="http://www.w3.org/1999/xlink" width="262.36" height="45.767" viewBox="0 0 262.36 45.767"><defs><clipPath id="a"><path d="M10.434,37.593c0,.019,0,.041,0,.061v.13a9.923,9.923,0,0,0,3.017,6.723,9.7,9.7,0,0,0,2.539,1.846,35.045,35.045,0,0,0-.407,10.421l2.12-.113a28.688,28.688,0,0,1-.471-9.749c8.886,3.317,22.78-4.339,11.976-35.9C28.1,25.116,10.678,24.157,10.434,37.593" transform="translate(-10.433 -11.008)" fill="none"/></clipPath><linearGradient id="b" x1="-0.118" y1="3.066" x2="-0.1" y2="3.066" gradientUnits="objectBoundingBox"><stop offset="0" stop-color="#d3d100"/><stop offset="0.034" stop-color="#d3d100"/><stop offset="0.198" stop-color="#c2c700"/><stop offset="0.52" stop-color="#95ad02"/><stop offset="0.8" stop-color="#6b9505"/><stop offset="1" stop-color="#6b9505"/></linearGradient><clipPath id="c"><path d="M10.434,37.593c0,.019,0,.041,0,.061v.13a9.923,9.923,0,0,0,3.017,6.723,9.7,9.7,0,0,0,2.539,1.846,31.178,31.178,0,0,1,2.005-6.5,20.728,20.728,0,0,1-2.854-9.744v0a35.526,35.526,0,0,0,3.389,8.534,54.4,54.4,0,0,1,3.681-6.285,14.257,14.257,0,0,1-1.8-6.486c0-.012.01-.012.021-.019a23.267,23.267,0,0,0,2.433,5.516,58.452,58.452,0,0,0,3.456-5.659,11.613,11.613,0,0,1-1.034-4.116,9.665,9.665,0,0,0,1.643,2.877,26.715,26.715,0,0,0,2.3-6.242,24.043,24.043,0,0,0-.024-7.22C28.1,25.116,10.678,24.157,10.434,37.593" transform="translate(-10.433 -11.008)" fill="none"/></clipPath><radialGradient id="d" cx="-0.338" cy="-0.179" r="1.513" gradientTransform="matrix(1.844, 0, 0, -1, 0.682, 9.213)" gradientUnits="objectBoundingBox"><stop offset="0" stop-color="#d5d830"/><stop offset="0.191" stop-color="#d5d830"/><stop offset="0.296" stop-color="#bcc826"/><stop offset="0.508" stop-color="#90ac14"/><stop offset="0.673" stop-color="#759b09"/><stop offset="0.77" stop-color="#6b9505"/><stop offset="1" stop-color="#6b9505"/></radialGradient><clipPath id="e"><path d="M39.9,37.593a9.92,9.92,0,0,0,3.016,6.915c7.568,7.57,28.3,3.147,15.762-33.5C57.57,25.116,40.139,24.157,39.9,37.593" transform="translate(-39.896 -11.008)" fill="none"/></clipPath><radialGradient id="f" cx="-0.206" cy="-0.154" r="1.302" gradientTransform="matrix(1.31, 0, 0, -1, 0.286, 7.929)" gradientUnits="objectBoundingBox"><stop offset="0" stop-color="#e4ecf7"/><stop offset="0.132" stop-color="#e0eaf6"/><stop offset="0.251" stop-color="#d5e4f3"/><stop offset="0.365" stop-color="#c3daee"/><stop offset="0.476" stop-color="#a9cce7"/><stop offset="0.585" stop-color="#87bade"/><stop offset="0.692" stop-color="#5ea4d3"/><stop offset="0.796" stop-color="#2f8ac7"/><stop offset="0.885" stop-color="#0071bb"/><stop offset="1" stop-color="#0071bb"/></radialGradient><clipPath id="g"><path d="M39.9,53.752a9.92,9.92,0,0,0,3.016,6.915,10.047,10.047,0,0,0,.836.746c3.825-3.112,6.364-9.513,4.815-20.421-4.387,3.115-8.547,6.241-8.667,12.76" transform="translate(-39.896 -40.992)" fill="none"/></clipPath><radialGradient id="h" cx="-0.63" cy="-0.983" r="2.618" gradientTransform="matrix(1.993, 0, 0, -1, 2.804, 14.593)" gradientUnits="objectBoundingBox"><stop offset="0" stop-color="#fff"/><stop offset="0.047" stop-color="#e8eef6"/><stop offset="0.104" stop-color="#d4e0ef"/><stop offset="0.17" stop-color="#c5d5e9"/><stop offset="0.249" stop-color="#bdcfe6"/><stop offset="0.382" stop-color="#bbcee6"/><stop offset="0.47" stop-color="#8eb7db"/><stop offset="0.629" stop-color="#4291ca"/><stop offset="0.743" stop-color="#127abf"/><stop offset="0.8" stop-color="#0071bb"/><stop offset="1" stop-color="#0071bb"/></radialGradient><clipPath id="i"><path d="M69.725,37.593a9.851,9.851,0,0,0,3.009,6.915c7.56,7.57,28.293,3.147,15.752-33.5-1.1,14.108-18.531,13.149-18.761,26.585" transform="translate(-69.724 -11.008)" fill="none"/></clipPath><radialGradient id="j" cx="-0.207" cy="-0.154" r="1.302" gradientTransform="matrix(1.31, 0, 0, -1, 0.422, 7.929)" gradientUnits="objectBoundingBox"><stop offset="0" stop-color="#ffec00"/><stop offset="0.135" stop-color="#ffec00"/><stop offset="0.161" stop-color="#fee600"/><stop offset="0.263" stop-color="#fdd400"/><stop offset="0.372" stop-color="#fcca00"/><stop offset="0.5" stop-color="#fcc700"/><stop offset="0.786" stop-color="#f39b00"/><stop offset="0.95" stop-color="#ef8700"/><stop offset="1" stop-color="#ef8700"/></radialGradient><clipPath id="k"><path d="M69.725,53.872a9.851,9.851,0,0,0,3.009,6.915,7.533,7.533,0,0,0,.752.682c3.779-3.125,6.269-9.483,4.756-20.254-4.335,3.086-8.413,6.2-8.517,12.657" transform="translate(-69.724 -41.215)" fill="none"/></clipPath><radialGradient id="l" cx="-0.64" cy="-0.997" r="2.638" gradientTransform="matrix(2.012, 0, 0, -1, 4.277, 14.703)" gradientUnits="objectBoundingBox"><stop offset="0" stop-color="#ffe800"/><stop offset="0.005" stop-color="#fee600"/><stop offset="0.082" stop-color="#fad200"/><stop offset="0.169" stop-color="#f7c300"/><stop offset="0.275" stop-color="#f5bb00"/><stop offset="0.45" stop-color="#f5b900"/><stop offset="0.508" stop-color="#f3ab00"/><stop offset="0.623" stop-color="#f09700"/><stop offset="0.738" stop-color="#ef8b00"/><stop offset="0.85" stop-color="#ef8700"/><stop offset="1" stop-color="#ef8700"/></radialGradient></defs><g transform="translate(17326.001 7452.475)"><g transform="translate(-17268 -7435.944)"><path d="M266.872,117a5.213,5.213,0,0,0-5.4-5.11H253.9v17.031H257.4V114.2h2.763a2.782,2.782,0,0,1,3.061,2.952c0,1.571-.588,2.894-2.985,2.894-1.223,0-1.711.241-1.765.935-.051.652.729,1.02,1.52,1.172,3.49.663,6.872-1.425,6.872-5.159" transform="translate(-140.128 -111.446)" fill="#5c891e"/><path d="M408.8,121.061a4.548,4.548,0,0,0,3.527-4.485c0-2.331-1.84-4.689-5.379-4.689h-7.574v17.031h3.5V114.2h2.764c2.654,0,3.047,1.584,3.047,2.527,0,1.574-1.123,2.561-2.945,2.561-1.177,0-1.856.456-1.856,1.235,0,.443.285,1,1.582,1.206,1.608.251,2.256,1.822,3.079,3.8,0,0,.705,1.675.948,2.214a1.553,1.553,0,0,0,1.675,1.173h2.743l-1.214-2.6c-1.2-2.675-2.161-4.259-3.9-5.261" transform="translate(-209.55 -111.446)" fill="#5c891e"/><path d="M373.871,121.292h8.2v-2.317h-8.2v-4.764h8.619V111.9H370.364v17.023h12.3v-2.317h-8.8Z" transform="translate(-195.709 -111.453)" fill="#5c891e"/><path d="M290.02,111.434c-6.305,0-9.122,4.4-9.122,8.749,0,4.365,2.817,8.758,9.122,8.758,6.242,0,9.082-4.535,9.082-8.758,0-4.347-2.8-8.749-9.082-8.749m0,14.743c-3.495,0-5.486-2.187-5.486-5.994s1.991-5.988,5.486-5.988c3.467,0,5.447,2.183,5.447,5.988s-1.98,5.994-5.447,5.994" transform="translate(-153.013 -111.23)" fill="#5c891e"/><path d="M340.539,111.9a1.311,1.311,0,0,0-1.492,1.166L335.2,125.513,331.351,111.9H328.16a1.287,1.287,0,0,0-1.476,1.111L323,125.588l-3.65-13.686h-3.88l4.993,17.051h4.5l3.963-13.435,3.79,13.435h4.447l5.194-17.051Z" transform="translate(-169.511 -111.454)" fill="#5c891e"/><path d="M36.273,127.281l.141-2.469a12.764,12.764,0,0,0,4.743,1.164c.993-.031,3.69.044,3.556-2.286-.17-2.949-8.406-2.378-8.406-7.686,0-3.675,3.85-4.958,6.962-4.958a15.314,15.314,0,0,1,3.955.652l-.071,1.168a1,1,0,0,1-1.263.933,11.465,11.465,0,0,0-2.6-.221c-1.011.039-3.43.191-3.311,1.994.176,2.629,8.541,2.206,8.541,8.092,0,3.562-3.5,4.884-7.228,4.884a12.128,12.128,0,0,1-5.024-1.269" transform="translate(-36.273 -111.046)" fill="#5c891e"/><path d="M71.159,113.6a10.841,10.841,0,0,1,2.576.168.985.985,0,0,0,1.318-.909l.068-1.163a14.418,14.418,0,0,0-4.174-.654c-6.3,0-9.122,4.4-9.122,8.749s2.817,8.752,9.122,8.752a14.416,14.416,0,0,0,4.174-.655l-.142-2.42a9.29,9.29,0,0,1-3.82.514c-3.487-.107-5.7-2.386-5.7-6.192s2.209-6.083,5.7-6.192" transform="translate(-48.467 -111.044)" fill="#5c891e"/><path d="M97.171,111.044c-6.3,0-9.121,4.4-9.121,8.751,0,4.365,2.818,8.755,9.121,8.755,6.242,0,9.083-4.533,9.083-8.755,0-4.347-2.8-8.751-9.083-8.751m0,14.745c-3.495,0-5.487-2.188-5.487-5.994s1.992-5.988,5.487-5.988c3.465,0,5.447,2.18,5.447,5.988s-1.982,5.994-5.447,5.994" transform="translate(-60.982 -111.044)" fill="#5c891e"/><rect width="3.506" height="17.023" transform="translate(73.594 0.44)" fill="#5c891e"/><path d="M135.058,111.887h-12.62V114.2h4.7V128.91h3.507V114.2h4.415Z" transform="translate(-77.392 -111.447)" fill="#5c891e"/><path d="M161.558,111.887h-12.62V114.2h4.7V128.91h3.507V114.2h4.417Z" transform="translate(-90.038 -111.447)" fill="#5c891e"/><path d="M229.195,111.887v7.064h-8.083v-7.064H217.6V128.91h3.507v-7.645h8.083v7.645H232.7V111.887Z" transform="translate(-122.808 -111.447)" fill="#5c891e"/><path d="M189.62,127.281l.141-2.469a12.757,12.757,0,0,0,4.741,1.164c.994-.031,3.691.044,3.557-2.286-.171-2.949-8.4-2.378-8.4-7.686,0-3.675,3.849-4.958,6.96-4.958a15.288,15.288,0,0,1,3.954.652l-.067,1.168a1,1,0,0,1-1.264.933,11.463,11.463,0,0,0-2.6-.221c-1.011.039-3.431.191-3.31,1.994.175,2.629,8.542,2.206,8.542,8.092,0,3.562-3.5,4.884-7.231,4.884a12.119,12.119,0,0,1-5.021-1.269" transform="translate(-109.454 -111.046)" fill="#5c891e"/></g><g transform="translate(-790 245.525)"><g transform="translate(-16536 -7698)"><g clip-path="url(#a)"><rect width="49.766" height="54.492" transform="matrix(0.838, -0.546, 0.546, 0.838, -20.933, 13.64)" fill="url(#b)"/></g></g><g transform="translate(-16536 -7698)"><g clip-path="url(#c)"><rect width="19.165" height="35.346" transform="translate(0 0)" fill="url(#d)"/></g></g><g transform="translate(-16522.414 -7698)"><g clip-path="url(#e)"><rect width="31.343" height="41.07" transform="translate(-0.03 0)" fill="url(#f)"/></g></g><g transform="translate(-16522.414 -7684.176)"><g clip-path="url(#g)"><rect width="10.246" height="20.42" transform="translate(-0.03 0.001)" fill="url(#h)"/></g></g><g transform="translate(-16508.662 -7698)"><g clip-path="url(#i)"><rect width="31.341" height="41.07" transform="translate(-0.038 0)" fill="url(#j)"/></g></g><g transform="translate(-16508.662 -7684.073)"><g clip-path="url(#k)"><rect width="10.068" height="20.254" transform="translate(-0.038 0)" fill="url(#l)"/></g></g></g></g></svg>