<svg xmlns="http://www.w3.org/2000/svg" width="42.002" height="40.922" viewBox="0 0 42.002 40.922"><g transform="translate(-99.664 -2416.284)"><path d="M-714.106,2007.316h-21.918a10.042,10.042,0,0,1-10.042-10.043v-20.836a10.042,10.042,0,0,1,10.042-10.043h21.918a10.042,10.042,0,0,1,10.042,10.043v20.836a10.042,10.042,0,0,1-10.042,10.043" transform="translate(845.73 449.89)" fill="#b6b6b6"/><path d="M-714.117,2005.618h-21.9a8.311,8.311,0,0,1-8.31-8.31V1976.4a8.31,8.31,0,0,1,8.31-8.309h21.9a8.309,8.309,0,0,1,8.309,8.309v20.906a8.31,8.31,0,0,1-8.309,8.31" transform="translate(845.73 449.89)" fill="#231f20"/><path d="M-740.385,1996.655v2.937l11.553-15.7-.765-.638Z" transform="translate(845.73 449.89)" fill="#fff"/><path d="M-715.555,1992.123h2.617l3.192,3.767v3.7Z" transform="translate(845.73 449.89)" fill="#f9ec31"/><path d="M-713.9,1990.655c-.511-.063-2.745,0-2.745,0l-2.553-3.894h1.915Z" transform="translate(845.73 449.89)" fill="#f9ec31"/><path d="M-717.789,1985.676h-1.9l-1.678-2.745h1.313Z" transform="translate(845.73 449.89)" fill="#f9ec31"/></g></svg>