<svg xmlns="http://www.w3.org/2000/svg" width="42.003" height="40.922" viewBox="0 0 42.003 40.922"><g transform="translate(-299.302 -2417.145)"><path d="M-514.468,2008.177h-21.917a10.042,10.042,0,0,1-10.043-10.043V1977.3a10.042,10.042,0,0,1,10.043-10.043h21.917a10.042,10.042,0,0,1,10.043,10.043v20.836a10.042,10.042,0,0,1-10.043,10.043" transform="translate(845.73 449.89)" fill="#b6b6b6"/><path d="M-514.477,2006.479h-21.9a8.31,8.31,0,0,1-8.309-8.31v-20.906a8.309,8.309,0,0,1,8.309-8.309h21.9a8.309,8.309,0,0,1,8.309,8.309v20.906a8.31,8.31,0,0,1-8.309,8.31" transform="translate(845.73 449.89)" fill="#231f20"/><path d="M-522.333,1986.309h-.19l-.008.126a5.982,5.982,0,0,1-.223,1.649.816.816,0,0,1-.1.127c.123-.085.266-.239.5-.837a7.873,7.873,0,0,0,.245-.763.237.237,0,0,0-.04-.208.236.236,0,0,0-.189-.094" transform="translate(845.73 449.89)" fill="#da2128"/><rect width="3.684" height="2.068" transform="translate(318.461 2436.199)" fill="#da2128"/><path d="M-533.05,1992.77a.918.918,0,0,0-.535.185,1.434,1.434,0,0,0,.393.227c.326.157.542.261.687.178a.41.41,0,0,0,.171-.246.285.285,0,0,0-.012-.211c-.073-.124-.356-.178-.7-.133" transform="translate(845.73 449.89)" fill="#da2128"/><path d="M-531.974,1987.027a3.541,3.541,0,0,1-.251-.917,5.518,5.518,0,0,0-1.353-.05v.006a2.821,2.821,0,0,0,.055.616,2.756,2.756,0,0,0,.419.992h1.505a3.231,3.231,0,0,1-.376-.647" transform="translate(845.73 449.89)" fill="#da2128"/><path d="M-532.541,1991.039a.41.41,0,0,0-.41.41.409.409,0,0,0,.41.409.409.409,0,0,0,.41-.409.41.41,0,0,0-.41-.41" transform="translate(845.73 449.89)" fill="#da2128"/><path d="M-517.8,1992.77a1.754,1.754,0,0,0-.232-.016c-.237,0-.415.054-.471.149a.287.287,0,0,0-.013.212.414.414,0,0,0,.171.245c.146.084.361-.021.687-.178a1.417,1.417,0,0,0,.393-.227.918.918,0,0,0-.535-.185" transform="translate(845.73 449.89)" fill="#da2128"/><path d="M-530.636,1986.257a11.313,11.313,0,0,1-1.311-.112l-.134-.017a3.418,3.418,0,0,0,.234.845,3.582,3.582,0,0,0,.923,1.233,1.1,1.1,0,0,0,.137-.092c.479-.39.457-1.317.395-1.866-.08.005-.161.009-.244.009" transform="translate(845.73 449.89)" fill="#da2128"/><path d="M-531.273,1991.039a.41.41,0,0,0-.41.41.409.409,0,0,0,.41.409.41.41,0,0,0,.41-.409.411.411,0,0,0-.41-.41" transform="translate(845.73 449.89)" fill="#da2128"/><path d="M-528.1,1988.085a5.906,5.906,0,0,1-.223-1.649l-.007-.126h-.191a.237.237,0,0,0-.189.093.236.236,0,0,0-.04.208c.083.3.17.573.245.764.234.6.377.751.5.837a.885.885,0,0,1-.095-.127" transform="translate(845.73 449.89)" fill="#da2128"/><path d="M-528.184,1986.427a6.815,6.815,0,0,0,.2,1.582c.087.136.147.221.577.346v-2.046h-.785Z" transform="translate(845.73 449.89)" fill="#da2128"/><path d="M-517.607,1996.317h1.243a.455.455,0,0,0,.455-.455v-3.26a2.3,2.3,0,0,1-.525.894,3.108,3.108,0,0,1-1.627.654v1.712a.454.454,0,0,0,.454.455" transform="translate(845.73 449.89)" fill="#da2128"/><path d="M-518.292,1984.463h-14.269a.427.427,0,0,1-.274-.1.967.967,0,0,0,.594.572,14.874,14.874,0,0,0,4.437.284c.684-.007,1.469-.014,2.377-.014s1.694.007,2.378.014a14.871,14.871,0,0,0,4.437-.284.966.966,0,0,0,.593-.572.424.424,0,0,1-.273.1" transform="translate(845.73 449.89)" fill="#da2128"/><path d="M-536.793,1984.29a.681.681,0,0,1,.432-.3,3.591,3.591,0,0,1,1.811.073l.091.021a.067.067,0,0,1,.053.059,1.422,1.422,0,0,0,.217.505l.041-.086a4.316,4.316,0,0,0,.252-.678,9.439,9.439,0,0,1,.571-1.456c1.039-2.237,1.526-2.759,7.9-2.655,6.372-.1,6.86.418,7.9,2.655a9.394,9.394,0,0,1,.57,1.456,4.244,4.244,0,0,0,.253.678c.014.031.027.058.041.086a1.416,1.416,0,0,0,.216-.505.069.069,0,0,1,.053-.059l.091-.021a3.6,3.6,0,0,1,1.812-.073.677.677,0,0,1,.431.3.485.485,0,0,1,.052.249.512.512,0,0,0-.052-.289.676.676,0,0,0-.432-.3,3.589,3.589,0,0,0-1.811.073l-.091.021a.069.069,0,0,0-.053.059,1.425,1.425,0,0,1-.216.506c-.014-.029-.027-.055-.041-.087a4.28,4.28,0,0,1-.253-.678,9.438,9.438,0,0,0-.57-1.456c-1.039-2.237-1.527-2.759-7.9-2.655-6.372-.1-6.859.418-7.9,2.655a9.484,9.484,0,0,0-.571,1.456,4.463,4.463,0,0,1-.252.678c-.015.032-.028.058-.041.087a1.431,1.431,0,0,1-.217-.506.067.067,0,0,0-.053-.059l-.091-.021a3.588,3.588,0,0,0-1.811-.073.679.679,0,0,0-.432.3.514.514,0,0,0-.052.29.5.5,0,0,1,.052-.25" transform="translate(845.73 449.89)" fill="#da2128"/><path d="M-527.35,1984.037l-.361.287h.361l.2-.157a.637.637,0,0,1,.4-.138h2.659a.64.64,0,0,1,.4.138l.2.157h.361l-.361-.287a.767.767,0,0,0-.475-.166h-2.9a.767.767,0,0,0-.475.166" transform="translate(845.73 449.89)" fill="#da2128"/><path d="M-523.786,1984.275a.5.5,0,0,0-.311-.108h-2.659a.5.5,0,0,0-.31.108l-.062.049h3.4Z" transform="translate(845.73 449.89)" fill="#da2128"/><path d="M-522.662,1986.309h-.785v2.046c.431-.125.49-.21.577-.346a6.92,6.92,0,0,0,.2-1.582Z" transform="translate(845.73 449.89)" fill="#da2128"/><path d="M-532.854,1984.011a.288.288,0,0,0,.055.191.289.289,0,0,0,.238.121h4.627l.5-.4a.906.906,0,0,1,.561-.195h2.9a.906.906,0,0,1,.561.195l.5.4h4.628a.286.286,0,0,0,.237-.121.283.283,0,0,0,.056-.191l0-.011a.269.269,0,0,0-.013-.061l-.487-1.485a2,2,0,0,0-1.865-1.372c-.027,0-2.525-.074-5.061-.074s-5.034.073-5.059.074a2,2,0,0,0-1.867,1.372l-.487,1.485a.269.269,0,0,0-.013.061v.011" transform="translate(845.73 449.89)" fill="#da2128"/><path d="M-534.489,1996.317h1.243a.455.455,0,0,0,.455-.455v-1.712a3.1,3.1,0,0,1-1.627-.654,2.291,2.291,0,0,1-.526-.894v3.26a.455.455,0,0,0,.455.455" transform="translate(845.73 449.89)" fill="#da2128"/><path d="M-515.644,1988.111a4.792,4.792,0,0,0-.253-1.837,3.118,3.118,0,0,0-.387-.7,5.526,5.526,0,0,1-.546-.955,4.538,4.538,0,0,1-.26-.7,9.365,9.365,0,0,0-.564-1.436c-1.029-2.215-1.467-2.679-7.771-2.576h0c-6.3-.1-6.743.361-7.771,2.576a9.253,9.253,0,0,0-.564,1.436,4.532,4.532,0,0,1-.26.7,5.522,5.522,0,0,1-.546.955,3.113,3.113,0,0,0-.388.7,4.832,4.832,0,0,0-.253,1.837c-.014.286-.031.628-.054,1.043-.116,2.1.48,3.84.936,4.238a2.5,2.5,0,0,0,2.431.47.63.63,0,0,0,.1-.185,1.432,1.432,0,0,1,.175-.326v0c.365-.623.936-.478,1.44-.348a2.356,2.356,0,0,0,.534.1c.167,0,.3,0,.485,0,.47,0,1.255-.007,3.736-.007s3.267,0,3.736.007c.187,0,.318,0,.485,0a2.353,2.353,0,0,0,.535-.1c.5-.13,1.075-.275,1.439.348v0a1.438,1.438,0,0,1,.176.326.631.631,0,0,0,.1.185,2.5,2.5,0,0,0,2.432-.47c.456-.4,1.051-2.135.935-4.238-.022-.415-.039-.757-.054-1.043m-17.343-4.136v-.021l0-.005a.451.451,0,0,1,.012-.053l.488-1.485a2.129,2.129,0,0,1,1.994-1.466c.024,0,2.524-.075,5.062-.075s5.038.074,5.064.075a2.129,2.129,0,0,1,1.993,1.466l.488,1.485a.428.428,0,0,1,.011.054l0,0v.021a.355.355,0,0,1,0,.046,1,1,0,0,1-.707,1.045,9.843,9.843,0,0,1-3.054.3c-.423,0-.9,0-1.427-.009-.684-.007-1.469-.015-2.377-.015s-1.692.008-2.376.015c-.533.005-1,.009-1.427.009a9.843,9.843,0,0,1-3.054-.3,1,1,0,0,1-.707-1.045.239.239,0,0,1,0-.046m11.016,2.672a8.12,8.12,0,0,1-.25.777c-.24.612-.393.8-.578.92a1.47,1.47,0,0,1-.715.172h-3.825a1.474,1.474,0,0,1-.716-.172c-.184-.119-.338-.308-.578-.92-.077-.195-.165-.472-.25-.777a.372.372,0,0,1,.064-.327.372.372,0,0,1,.3-.149h6.187a.374.374,0,0,1,.3.149.375.375,0,0,1,.063.327m-10.229,6.5a.554.554,0,0,1-.236.33.377.377,0,0,1-.187.049,1.658,1.658,0,0,1-.629-.223c-.323-.156-.485-.234-.47-.365.017-.156.308-.241.48-.279.3-.064.855-.1,1.015.171a.417.417,0,0,1,.027.317m-.342-1.17a.531.531,0,0,1-.531-.531.532.532,0,0,1,.531-.533.533.533,0,0,1,.532.533.532.532,0,0,1-.532.531m1.269,0a.532.532,0,0,1-.532-.531.533.533,0,0,1,.532-.533.532.532,0,0,1,.531.533.531.531,0,0,1-.531.531m13.671,1.326a1.652,1.652,0,0,1-.629.223.373.373,0,0,1-.186-.049.552.552,0,0,1-.236-.33.408.408,0,0,1,.027-.317c.159-.272.713-.235,1.015-.171.171.038.462.123.48.279.015.131-.147.209-.471.365m1.223-5.458v.007a3.606,3.606,0,0,1-.326.991l-.018.034a1.985,1.985,0,0,1-.852.931,4.528,4.528,0,0,1-2.082.284H-531.2a4.524,4.524,0,0,1-2.082-.284,2,2,0,0,1-.853-.931l-.017-.034a3.651,3.651,0,0,1-.327-.991v-.007l-.016-1.535a.066.066,0,0,1,.007-.032,1.872,1.872,0,0,1,.5-.6v0l.005,0c.031-.021.062-.044.095-.062a1.656,1.656,0,0,1,.832-.168,3.648,3.648,0,0,1,.848.089c.092.018.19.038.3.055a7.985,7.985,0,0,0,1.5.144.068.068,0,0,1,.072.053c.016.074.389,1.813-.376,2.435a1.586,1.586,0,0,1-1.078.319c-.277,0-.595-.029-.971-.064a4.6,4.6,0,0,1-1.562-.5,3.758,3.758,0,0,0,.287.807l.018.037a1.835,1.835,0,0,0,.792.869,4.464,4.464,0,0,0,2.019.267h11.537a4.469,4.469,0,0,0,2.019-.267,1.837,1.837,0,0,0,.791-.869l.019-.037a3.765,3.765,0,0,0,.287-.807,4.6,4.6,0,0,1-1.563.5c-.376.035-.693.064-.97.064a1.584,1.584,0,0,1-1.078-.319c-.766-.622-.392-2.361-.376-2.435a.068.068,0,0,1,.072-.053,7.978,7.978,0,0,0,1.5-.144c.109-.017.207-.037.3-.055a3.708,3.708,0,0,1,.848-.089,1.65,1.65,0,0,1,.831.168.9.9,0,0,1,.095.062l.005,0v0a1.882,1.882,0,0,1,.5.6.066.066,0,0,1,.007.032Z" transform="translate(845.73 449.89)" fill="#da2128"/><path d="M-536.3,1984.335a.138.138,0,0,0-.138.138v.175a.645.645,0,0,0,.644.645h1.081v-.812a.146.146,0,0,0-.146-.146Z" transform="translate(845.73 449.89)" fill="#da2128"/><path d="M-515.469,1985.563a2.05,2.05,0,0,0,.348-.007,1.046,1.046,0,0,0,.69-.39c.041-.052.4-.517.248-.813a.549.549,0,0,0-.351-.229,3.4,3.4,0,0,0-1.739.076l-.046.009a1.858,1.858,0,0,1-.273.588,5.068,5.068,0,0,0,.314.545v-.862a.285.285,0,0,1,.285-.284h1.441a.276.276,0,0,1,.275.276v.176a.782.782,0,0,1-.782.782h-1.149c-.005,0-.009,0-.014-.005.018.025.034.049.051.074.034.048.066.095.1.143a1.358,1.358,0,0,1,.6-.079" transform="translate(845.73 449.89)" fill="#da2128"/><path d="M-534.682,1985.5c.017-.024.033-.049.051-.073-.005,0-.009.005-.013.005h-1.15a.784.784,0,0,1-.783-.783v-.175a.277.277,0,0,1,.276-.277h1.442a.284.284,0,0,1,.283.284v.863a5.065,5.065,0,0,0,.315-.545,1.881,1.881,0,0,1-.274-.588l-.045-.01a3.412,3.412,0,0,0-1.739-.076.556.556,0,0,0-.351.229c-.156.3.207.761.248.813a1.047,1.047,0,0,0,.691.391,2.136,2.136,0,0,0,.347.006,1.368,1.368,0,0,1,.6.08l.1-.144" transform="translate(845.73 449.89)" fill="#da2128"/><path d="M-529.647,1993.235a2.407,2.407,0,0,1-.569-.1,1.357,1.357,0,0,0-.994-.015.567.567,0,0,1,.075-.008,1.312,1.312,0,0,1,.6.161,1.488,1.488,0,0,0,.708.179h1.007c.726,0,1.74,0,3.395,0s2.669,0,3.394,0h1.007a1.485,1.485,0,0,0,.708-.179,1.32,1.32,0,0,1,.6-.161.621.621,0,0,1,.076.008,1.359,1.359,0,0,0-.995.015,2.406,2.406,0,0,1-.57.1l-.485,0c-.47,0-1.255-.008-3.735-.008s-3.266.005-3.735.008l-.486,0" transform="translate(845.73 449.89)" fill="#da2128"/><path d="M-514.414,1984.648v-.176a.137.137,0,0,0-.138-.137h-1.441a.146.146,0,0,0-.147.145v.813h1.081a.646.646,0,0,0,.645-.645" transform="translate(845.73 449.89)" fill="#da2128"/><rect height="1.666" transform="translate(327.53 2444.047)" fill="#da2128"/><path d="M-535.4,1989.147c.023-.415.04-.757.054-1.043a4.9,4.9,0,0,1,.263-1.882,3.119,3.119,0,0,1,.228-.46l-.02-.007a3.306,3.306,0,0,0-.208.427,4.907,4.907,0,0,0-.263,1.882c-.014.286-.031.628-.054,1.043-.01.179-.013.355-.013.531,0-.162,0-.326.013-.491" transform="translate(845.73 449.89)" fill="#da2128"/><path d="M-515.506,1988.064a4.886,4.886,0,0,0-.263-1.882,3.3,3.3,0,0,0-.208-.427l-.019.007a3.235,3.235,0,0,1,.227.46,4.881,4.881,0,0,1,.263,1.882c.015.286.031.628.055,1.043.007.154.011.308.012.46,0-.165,0-.332-.013-.5-.023-.415-.039-.757-.054-1.043" transform="translate(845.73 449.89)" fill="#da2128"/><rect height="3.637" transform="translate(310.648 2442.077)" fill="#da2128"/><path d="M-533.6,1985.924a6.915,6.915,0,0,1,1.669.083,8.457,8.457,0,0,0,1.519.1c-.014-.1-.029-.187-.038-.238a8.8,8.8,0,0,1-1.474-.147c-.111-.017-.21-.036-.3-.056a3.6,3.6,0,0,0-.819-.086,1.7,1.7,0,0,0-.767.152h0l-.012.006c.16.166.214.183.227.184" transform="translate(845.73 449.89)" fill="#da2128"/><path d="M-517.276,1986.066l0-.006a5.578,5.578,0,0,0-1.354.05,3.583,3.583,0,0,1-.251.917,3.182,3.182,0,0,1-.376.647h1.505a2.756,2.756,0,0,0,.419-.992,2.759,2.759,0,0,0,.055-.616" transform="translate(845.73 449.89)" fill="#da2128"/><path d="M-519.487,1987.742a.068.068,0,0,1,.051-.061,3.084,3.084,0,0,0,.43-.709,3.39,3.39,0,0,0,.234-.844l-.135.016a10.878,10.878,0,0,1-1.31.114c-.083,0-.165-.005-.244-.01-.062.55-.085,1.475.4,1.866a1.1,1.1,0,0,0,.137.092,4.242,4.242,0,0,0,.442-.464" transform="translate(845.73 449.89)" fill="#da2128"/><path d="M-518.924,1986.007a6.808,6.808,0,0,1,1.67-.082c.012,0,.065-.019.225-.185l-.012-.006a1.7,1.7,0,0,0-.768-.152,3.553,3.553,0,0,0-.819.086c-.094.02-.192.039-.3.056a8.455,8.455,0,0,1-1.473.147c-.01.051-.025.134-.039.238a8.467,8.467,0,0,0,1.52-.1" transform="translate(845.73 449.89)" fill="#da2128"/><path d="M-532.736,1988.339a3.553,3.553,0,0,0,1.683-.066,4.34,4.34,0,0,1-.445-.473.061.061,0,0,1-.031.013h-1.613a.067.067,0,0,1-.052-.028l-.005,0a2.913,2.913,0,0,1-.458-1.073,2.859,2.859,0,0,1-.058-.646.062.062,0,0,1,.016-.037,1.137,1.137,0,0,1-.24-.208,1.792,1.792,0,0,0-.413.51l.015,1.478a4.663,4.663,0,0,0,1.6.532" transform="translate(845.73 449.89)" fill="#da2128"/><path d="M-516.5,1986.329a1.8,1.8,0,0,0-.414-.51,1.126,1.126,0,0,1-.239.207.071.071,0,0,1,.015.037,2.858,2.858,0,0,1-.057.647,2.93,2.93,0,0,1-.458,1.073l-.005,0a.066.066,0,0,1-.052.027h-1.655a4.32,4.32,0,0,1-.434.46,3.536,3.536,0,0,0,1.683.067,4.69,4.69,0,0,0,1.6-.532Z" transform="translate(845.73 449.89)" fill="#da2128"/></g></svg>