<svg xmlns="http://www.w3.org/2000/svg" width="29" height="22" viewBox="0 0 29 22"><g transform="translate(8584 -767)"><g transform="translate(-8584 767)" fill="none"><path d="M0,22V4H8V0H21V4h8V22Z" stroke="none"/><path d="M 27.09980010986328 20.09959983825684 L 27.09980010986328 5.899600505828857 L 20.99970054626465 5.899600505828857 L 19.09970092773438 5.899600505828857 L 19.09970092773438 3.999600648880005 L 19.09970092773438 1.900000691413879 L 9.900100708007812 1.900000691413879 L 9.900100708007812 3.999600648880005 L 9.900100708007812 5.899600505828857 L 8.000101089477539 5.899600505828857 L 1.900000810623169 5.899600505828857 L 1.900000810623169 20.09959983825684 L 27.09980010986328 20.09959983825684 M 28.99980163574219 21.99960136413574 L 8.178710686479462e-07 21.99960136413574 L 8.178710686479462e-07 3.999600648880005 L 8.000101089477539 3.999600648880005 L 8.000101089477539 6.820678777330613e-07 L 20.99970054626465 6.820678777330613e-07 L 20.99970054626465 3.999600648880005 L 28.99980163574219 3.999600648880005 L 28.99980163574219 21.99960136413574 Z" stroke="none" fill="#fff"/></g><g transform="translate(-8575 774)" fill="none" stroke="#fff" stroke-width="1.9"><circle cx="5.5" cy="5.5" r="5.5" stroke="none"/><circle cx="5.5" cy="5.5" r="4.55" fill="none"/></g></g></svg>