<svg xmlns="http://www.w3.org/2000/svg" width="15.58" height="10.127" viewBox="0 0 15.58 10.127">
  <g id="Group_4090" data-name="Group 4090" transform="translate(-37.768 -56.832)">
    <g id="Group_4091" data-name="Group 4091">
      <rect id="Rectangle_290" data-name="Rectangle 290" width="15.58" height="10.127" transform="translate(37.768 56.832)" fill="#009"/>
      <g id="Group_4090-2" data-name="Group 4090">
        <path id="Path_2804" data-name="Path 2804" d="M42.167,63.9l.453-.668-.754.289-.246-.773-.244.77-.747-.277.444.661-.695.4.8.073-.107.788.551-.576.552.578-.111-.793.813-.064Z" fill="#fff"/>
        <path id="Path_2805" data-name="Path 2805" d="M49.986,64.669l.207-.305-.344.132-.113-.353-.111.351-.341-.126.2.3-.317.182.365.033-.049.36.251-.263.252.264-.051-.362.371-.029Z" fill="#fff"/>
        <path id="Path_2806" data-name="Path 2806" d="M47.875,61.351l.207-.305-.344.132-.112-.353-.111.351-.341-.126.2.3-.317.182.365.033-.049.36.251-.263.252.264-.051-.362.371-.029Z" fill="#fff"/>
        <path id="Path_2807" data-name="Path 2807" d="M51.866,60.787l.207-.305-.344.132-.112-.353-.111.351-.341-.126.2.3-.317.182.364.033-.049.36.251-.263.252.264L51.818,61l.371-.029Z" fill="#fff"/>
        <path id="Path_2808" data-name="Path 2808" d="M49.534,59.29l-.049.36.251-.263.252.264-.051-.362.371-.029-.322-.186.207-.305-.344.132-.112-.353-.111.352-.341-.126.2.3-.317.182Z" fill="#fff"/>
        <path id="Path_2809" data-name="Path 2809" d="M50.683,62.138l-.1-.2-.1.2-.222.032.161.157-.038.222.2-.1.2.1-.038-.222.161-.157Z" fill="#fff"/>
      </g>
      <path id="Path_2810" data-name="Path 2810" d="M42.313,59.87h-.26V61.9h.26V60.773L44.046,61.9h.285l-2.019-1.317v-.371l2.6,1.688h.643v-.143l-2.37-1.544h2.37V59.87H42.313Z" fill="#fff"/>
      <path id="Path_2811" data-name="Path 2811" d="M41.014,60.208v.371L39,61.9h.285l1.734-1.122V61.9h.26V59.87H37.768v.338h2.37l-2.37,1.544V61.9h.643Z" fill="#fff"/>
      <path id="Path_2812" data-name="Path 2812" d="M42.053,58.857h3.506V58.52H43.825L45.559,57.4V57.2L43.54,58.52h-.584l2.6-1.688h-.876l-2.37,1.545V56.832h-.26v2.025Z" fill="#fff"/>
      <path id="Path_2813" data-name="Path 2813" d="M41.274,58.857V56.832h-.26v1.545l-2.37-1.545h-.876l2.6,1.688h-.584L37.768,57.2V57.4L39.5,58.52H37.768v.338h3.506Z" fill="#fff"/>
      <path id="Path_2814" data-name="Path 2814" d="M42.313,60.579,44.332,61.9h.584l-2.6-1.688Z" fill="#cf142b"/>
      <path id="Path_2815" data-name="Path 2815" d="M41.014,56.832h-2.37l2.37,1.545Z" fill="#009"/>
      <path id="Path_2816" data-name="Path 2816" d="M40.372,58.52l-2.6-1.688V57.2l2.019,1.316Z" fill="#cf142b"/>
      <path id="Path_2817" data-name="Path 2817" d="M37.768,57.4V58.52H39.5Z" fill="#009"/>
      <path id="Path_2818" data-name="Path 2818" d="M37.768,60.208v1.544l2.37-1.544Z" fill="#009"/>
      <path id="Path_2819" data-name="Path 2819" d="M41.014,60.208l-2.6,1.688H39l2.019-1.317Z" fill="#cf142b"/>
      <path id="Path_2820" data-name="Path 2820" d="M44.682,56.832h-2.37v1.545Z" fill="#009"/>
      <path id="Path_2821" data-name="Path 2821" d="M43.54,58.52,45.559,57.2v-.371l-2.6,1.688Z" fill="#cf142b"/>
      <path id="Path_2822" data-name="Path 2822" d="M41.274,61.9h.779V59.87h3.506V58.857H42.053V56.832h-.779v2.025H37.768V59.87h3.506Z" fill="#cf142b"/>
    </g>
  </g>
</svg>
