<svg xmlns="http://www.w3.org/2000/svg" width="15.58" height="10.127" viewBox="0 0 15.58 10.127">
  <g id="Group_4020" data-name="Group 4020" transform="translate(-453.52 -40.832)">
    <path id="Path_2626" data-name="Path 2626" d="M453.52,40.832V50.959H469.1V40.832Zm7.764,9.238L454.857,46l6.427-4.071L467.712,46Z" fill="#093"/>
    <path id="Path_2627" data-name="Path 2627" d="M454.857,46l6.427,4.07L467.712,46l-6.428-4.071Zm9.076-.1a2.644,2.644,0,0,1-.122.795,2.624,2.624,0,0,1-5.125-.795,2.6,2.6,0,0,1,.23-1.075,2.624,2.624,0,0,1,5.017,1.075Z" fill="#fc0"/>
    <path id="Path_2628" data-name="Path 2628" d="M463.659,46.375a.1.1,0,0,0,.057-.04.1.1,0,0,0,.025-.063.066.066,0,0,0-.027-.048.068.068,0,0,0-.054-.015.1.1,0,0,0-.055.04.1.1,0,0,0-.025.064.063.063,0,0,0,.026.048A.065.065,0,0,0,463.659,46.375Z" fill="#fff"/>
    <path id="Path_2629" data-name="Path 2629" d="M461.377,45.079a.305.305,0,0,0-.035-.01l-.024-.006-.018.069.028.007a.125.125,0,0,0,.04.006.03.03,0,0,0,.018-.008.034.034,0,0,0,.008-.042A.033.033,0,0,0,461.377,45.079Z" fill="#fff"/>
    <path id="Path_2630" data-name="Path 2630" d="M459.743,44.9a.046.046,0,0,0-.024-.012.237.237,0,0,0-.042,0h-.023l0,.168h.039a.118.118,0,0,0,.031,0,.043.043,0,0,0,.02-.011.053.053,0,0,0,.013-.025.151.151,0,0,0,0-.046.128.128,0,0,0-.006-.045A.055.055,0,0,0,459.743,44.9Z" fill="#fff"/>
    <path id="Path_2631" data-name="Path 2631" d="M459.432,44.93a.026.026,0,0,0-.008-.02.034.034,0,0,0-.02-.009l-.037,0-.04,0,0,.064.038,0a.19.19,0,0,0,.046-.006.026.026,0,0,0,.013-.012A.028.028,0,0,0,459.432,44.93Z" fill="#fff"/>
    <path id="Path_2632" data-name="Path 2632" d="M458.768,45.241a2.657,2.657,0,0,0-.082.654,2.624,2.624,0,0,0,5.125.795,5.9,5.9,0,0,0-5.043-1.449Zm.366,1.609-.061-.044-.06.044.023-.071-.061-.044h.075l.023-.071.023.071h.075l-.061.044Zm.035-1.37-.078.056.03-.091-.077-.056h.1l.03-.091.029.091h.1l-.078.056.03.091Zm.308,1.155-.077-.056-.078.056.03-.091-.077-.056h.1l.03-.091.029.091h.1l-.078.056Zm.216-.212-.036-.026-.036.026.014-.042-.036-.026h.045l.013-.042.014.042h.044l-.036.026Zm.243.723-.062-.045-.062.045.023-.073-.062-.045h.077l.024-.074.023.074h.077l-.062.045Zm.069-.275-.06-.044-.061.044.024-.071-.061-.044h.075l.023-.071.023.071h.075l-.061.044Zm.327.532-.077-.056-.077.056.029-.091-.077-.056h.1l.03-.09.029.09h.1l-.077.056Zm.015-1.393.023.071-.06-.044-.061.044.023-.071-.06-.044h.074l.024-.071.023.071h.074Zm.988,1.969-.025-.018-.025.018.009-.029-.025-.018h.031l.01-.03.009.03h.031l-.025.018Zm1.339-.038-.051-.038-.052.038.02-.061-.051-.037h.063l.02-.061.02.061h.063l-.051.037Zm.818-1.126.02-.061.02.061h.063l-.051.037.02.061-.052-.038-.051.038.019-.061-.051-.037Zm-.135.205-.061.044.023.071-.06-.044-.06.044.023-.071-.061-.044h.075l.023-.071.023.071Zm-.233-.239.029-.091.03.091h.1l-.078.056.03.091-.078-.056-.077.056.03-.091-.078-.056Zm-.05.446.024-.071.023.071h.074l-.06.044.023.071-.06-.044-.061.044.023-.071-.06-.044Zm-.211.14.02-.06.019.06h.064l-.052.038.02.06-.051-.037-.052.037.02-.06-.052-.038Zm-.267-.057.019-.061.02.061h.064l-.052.037.02.061-.052-.038-.051.038.019-.061-.051-.037Zm.01.258.024-.071.023.071h.074l-.06.044.023.071-.06-.044-.061.044.023-.071-.06-.044Zm-.3-.165.019-.061.02.061h.064l-.052.037.02.061-.052-.038-.051.038.02-.061-.052-.037Zm-.111.222-.06.044.023.071-.061-.044-.06.044.023-.071-.06-.044h.074l.023-.071.024.071Zm-.18-1.89.02-.061.02.061h.063l-.051.037.019.061-.051-.037-.052.037.02-.061-.051-.037Zm-.143,1.612.019-.061.02.061h.064l-.052.037.02.061-.052-.038-.051.038.019-.061-.051-.037Zm-.275-.823.023-.071.024.071h.074l-.06.044.023.07-.061-.043-.06.043.023-.07-.06-.044Zm-.205.671-.077-.056-.077.056.029-.091-.077-.056h.1l.03-.091.029.091h.1l-.077.056Zm-.1-.9.023-.071.023.071h.075l-.061.044.023.071-.06-.044-.061.044.023-.071-.06-.044Zm-.112.381.014.042h.044l-.036.026.014.042-.036-.026-.036.026.014-.042-.036-.026h.044Zm-.1-.108.02.061-.052-.038-.051.038.019-.061-.051-.037h.064l.019-.061.02.061h.064Z" fill="#002776"/>
    <path id="Path_2633" data-name="Path 2633" d="M459.041,44.932a.066.066,0,0,0-.048.028.1.1,0,0,0-.011.068.1.1,0,0,0,.028.062.068.068,0,0,0,.053.016.064.064,0,0,0,.047-.029.1.1,0,0,0,.011-.068.09.09,0,0,0-.027-.062A.069.069,0,0,0,459.041,44.932Z" fill="#fff"/>
    <path id="Path_2634" data-name="Path 2634" d="M462.63,45.611a.027.027,0,0,0,.018,0,.033.033,0,0,0,.013-.015.027.027,0,0,0,0-.021.032.032,0,0,0-.013-.018l-.033-.017-.035-.018-.029.058.034.016A.218.218,0,0,0,462.63,45.611Z" fill="#fff"/>
    <path id="Path_2635" data-name="Path 2635" d="M458.916,44.82a2.66,2.66,0,0,0-.148.421,5.9,5.9,0,0,1,5.043,1.449,2.565,2.565,0,0,0,.1-.431,6.5,6.5,0,0,0-4.992-1.439Zm.237.283a.133.133,0,0,1-.178.023.13.13,0,0,1-.045-.09.174.174,0,0,1,0-.066.138.138,0,0,1,.02-.038.089.089,0,0,1,.029-.026.128.128,0,0,1,.053-.017.121.121,0,0,1,.094.023.156.156,0,0,1,.024.191Zm.3.005-.041-.053c-.014-.018-.024-.03-.029-.035a.035.035,0,0,0-.017-.009.063.063,0,0,0-.025,0h-.011l.008.1-.051,0-.019-.253.108-.008a.168.168,0,0,1,.059,0,.058.058,0,0,1,.032.022.083.083,0,0,1,.014.039.07.07,0,0,1-.014.048.081.081,0,0,1-.048.027.162.162,0,0,1,.029.019c.007.008.018.02.032.039l.034.047Zm.354-.083a.1.1,0,0,1-.027.045.091.091,0,0,1-.035.022.246.246,0,0,1-.045.006l-.1,0-.005-.254.094,0a.2.2,0,0,1,.048,0,.086.086,0,0,1,.039.023.124.124,0,0,1,.025.04.2.2,0,0,1,.009.06A.175.175,0,0,1,459.811,45.025Zm.308-.134-.137,0,0,.056.127,0v.043l-.127,0,0,.069.141,0V45.1l-.193-.006.008-.253.188.005Zm.346.237-.047,0,.016-.2-.066.194-.05,0-.033-.2-.016.2-.048,0,.021-.252.077.006.031.176.06-.168.076.006Zm.493-.126-.124-.021-.007.04,0,.012.112.018h0l-.006.039-.116-.02-.01.06v0l.127.021h0l-.006.039h0l-.173-.029.039-.23.168.027h0Zm.49.13a.077.077,0,0,1-.018.035.073.073,0,0,1-.027.02.1.1,0,0,1-.028.005.311.311,0,0,1-.053-.01l-.032-.008-.023.093-.05-.012.062-.246.079.02a.248.248,0,0,1,.058.018.065.065,0,0,1,.03.033A.083.083,0,0,1,461.448,45.132Zm2.114,1.086a.169.169,0,0,1,.049-.045.142.142,0,0,1,.04-.012.1.1,0,0,1,.04,0,.134.134,0,0,1,.05.026.121.121,0,0,1,.049.082.135.135,0,0,1-.033.1.13.13,0,0,1-.086.055.117.117,0,0,1-.092-.027.122.122,0,0,1-.049-.083A.129.129,0,0,1,463.562,46.218Zm-.278-.146.043.024a.063.063,0,0,0-.006.041.054.054,0,0,0,.024.031.057.057,0,0,0,.036.013.029.029,0,0,0,.024-.013.024.024,0,0,0,.005-.016.04.04,0,0,0-.009-.019l-.027-.033a.126.126,0,0,1-.033-.054.067.067,0,0,1,.01-.055.075.075,0,0,1,.03-.023.07.07,0,0,1,.041,0,.132.132,0,0,1,.046.021.107.107,0,0,1,.046.059.069.069,0,0,1-.011.06l-.043-.027a.046.046,0,0,0,.005-.031.052.052,0,0,0-.022-.026.058.058,0,0,0-.034-.013.019.019,0,0,0-.016.008.02.02,0,0,0,0,.017.116.116,0,0,0,.028.041.242.242,0,0,1,.035.047.069.069,0,0,1,.008.037.064.064,0,0,1-.015.039.073.073,0,0,1-.033.027.082.082,0,0,1-.044,0,.13.13,0,0,1-.051-.024.106.106,0,0,1-.047-.061A.091.091,0,0,1,463.284,46.072Zm-.214-.144a.055.055,0,0,0,0,.041.051.051,0,0,0,.025.03.058.058,0,0,0,.037.011.033.033,0,0,0,.024-.014.022.022,0,0,0,0-.016.04.04,0,0,0-.009-.019l-.029-.031a.142.142,0,0,1-.036-.052.069.069,0,0,1,.036-.081.071.071,0,0,1,.041,0,.113.113,0,0,1,.047.019.1.1,0,0,1,.049.056.071.071,0,0,1-.008.061L463.2,45.9a.043.043,0,0,0,0-.031.053.053,0,0,0-.023-.025.065.065,0,0,0-.035-.011.021.021,0,0,0-.015.009.022.022,0,0,0,0,.018.157.157,0,0,0,.031.039.237.237,0,0,1,.037.045.069.069,0,0,1,.01.037.079.079,0,0,1-.013.039.073.073,0,0,1-.032.028.066.066,0,0,1-.044.006.15.15,0,0,1-.052-.022.1.1,0,0,1-.05-.058.1.1,0,0,1,.008-.071Zm-.216-.318.164.093L463,45.74l-.119-.067-.028.049.111.062-.021.038-.111-.063-.034.06.124.07-.021.037-.168-.095Zm-.3-.152.1.048a.187.187,0,0,1,.05.032.063.063,0,0,1,.016.035.075.075,0,0,1-.008.041.076.076,0,0,1-.036.035.084.084,0,0,1-.056,0,.125.125,0,0,1,.015.031.287.287,0,0,1,.008.05l.006.058-.055-.027-.008-.066a.357.357,0,0,0-.008-.045.035.035,0,0,0-.009-.016.074.074,0,0,0-.022-.015l-.009,0-.047.1-.046-.023Zm-.383-.033a.15.15,0,0,1,.043-.058.116.116,0,0,1,.063-.024.129.129,0,0,1,.061.013.119.119,0,0,1,.06.047.093.093,0,0,1,.01.064l-.051-.011a.047.047,0,0,0-.007-.035.06.06,0,0,0-.029-.025.069.069,0,0,0-.058,0,.1.1,0,0,0-.043.05.1.1,0,0,0-.008.071.066.066,0,0,0,.039.041.088.088,0,0,0,.032.007.109.109,0,0,0,.032,0l.012-.03-.053-.023.017-.039.1.044-.04.093a.144.144,0,0,1-.054.006.175.175,0,0,1-.061-.013.134.134,0,0,1-.057-.043.106.106,0,0,1-.022-.062A.15.15,0,0,1,462.173,45.425Zm-.329-.121a.171.171,0,0,1,.033-.057.116.116,0,0,1,.034-.024.094.094,0,0,1,.039-.01.141.141,0,0,1,.055.009.12.12,0,0,1,.072.063.132.132,0,0,1,0,.1.133.133,0,0,1-.064.079.118.118,0,0,1-.1,0,.117.117,0,0,1-.072-.063A.131.131,0,0,1,461.844,45.3Zm-.108-.162a.06.06,0,0,1,.021.032.072.072,0,0,1,0,.041.07.07,0,0,1-.03.04.081.081,0,0,1-.055.008.113.113,0,0,1,.02.028.292.292,0,0,1,.016.048l.015.057-.058-.018-.02-.064a.192.192,0,0,0-.015-.043.035.035,0,0,0-.011-.015.1.1,0,0,0-.024-.01l-.01,0-.031.1-.049-.015.074-.242.1.031A.2.2,0,0,1,461.736,45.142Z" fill="#fff"/>
    <path id="Path_2636" data-name="Path 2636" d="M461.93,45.427a.066.066,0,0,0,.055,0,.1.1,0,0,0,.041-.056.088.088,0,0,0,0-.067.063.063,0,0,0-.04-.038.066.066,0,0,0-.055,0,.094.094,0,0,0-.041.055.1.1,0,0,0,0,.068A.065.065,0,0,0,461.93,45.427Z" fill="#fff"/>
    <path id="Path_2637" data-name="Path 2637" d="M461.677,45.226a.043.043,0,0,0,.017-.006.032.032,0,0,0,.01-.017.028.028,0,0,0,0-.022.034.034,0,0,0-.016-.015l-.035-.012-.038-.011-.019.061.036.011A.257.257,0,0,0,461.677,45.226Z" fill="#fff"/>
    <path id="Path_2638" data-name="Path 2638" d="M458.916,44.82a6.5,6.5,0,0,1,4.992,1.439,2.568,2.568,0,0,0,.025-.364,2.624,2.624,0,0,0-5.017-1.075Zm3.189.231.023-.071.023.071h.074l-.06.044.023.071-.06-.044-.061.044.023-.071-.06-.044Z" fill="#002776"/>
    <path id="Path_2639" data-name="Path 2639" d="M459.035,44.889a.128.128,0,0,0-.053.017.089.089,0,0,0-.029.026.138.138,0,0,0-.02.038.174.174,0,0,0,0,.066.13.13,0,0,0,.045.09.133.133,0,0,0,.178-.023.156.156,0,0,0-.024-.191A.121.121,0,0,0,459.035,44.889Zm.075.188a.064.064,0,0,1-.047.029.068.068,0,0,1-.053-.016.1.1,0,0,1-.028-.062.1.1,0,0,1,.011-.068.066.066,0,0,1,.048-.028.069.069,0,0,1,.053.015.09.09,0,0,1,.027.062A.1.1,0,0,1,459.11,45.077Z" fill="#093"/>
    <path id="Path_2640" data-name="Path 2640" d="M459.452,45.017a.162.162,0,0,0-.029-.019.081.081,0,0,0,.048-.027.07.07,0,0,0,.014-.048.083.083,0,0,0-.014-.039.058.058,0,0,0-.032-.022.168.168,0,0,0-.059,0l-.108.008.019.253.051,0-.008-.1h.011a.063.063,0,0,1,.025,0,.035.035,0,0,1,.017.009c.005.005.015.017.029.035l.041.053.061-.005-.034-.047C459.47,45.037,459.459,45.025,459.452,45.017Zm-.037-.056a.19.19,0,0,1-.046.006l-.038,0,0-.064.04,0,.037,0a.034.034,0,0,1,.02.009.026.026,0,0,1,.008.02.028.028,0,0,1,0,.019A.026.026,0,0,1,459.415,44.961Z" fill="#093"/>
    <path id="Path_2641" data-name="Path 2641" d="M459.783,44.871a.086.086,0,0,0-.039-.023.2.2,0,0,0-.048,0l-.094,0,.005.254.1,0a.246.246,0,0,0,.045-.006.091.091,0,0,0,.035-.022.1.1,0,0,0,.027-.045.175.175,0,0,0,.006-.054.2.2,0,0,0-.009-.06A.124.124,0,0,0,459.783,44.871Zm-.023.145a.053.053,0,0,1-.013.025.043.043,0,0,1-.02.011.118.118,0,0,1-.031,0h-.039l0-.168h.023a.237.237,0,0,1,.042,0,.046.046,0,0,1,.024.012.055.055,0,0,1,.015.024.128.128,0,0,1,.006.045A.151.151,0,0,1,459.76,45.016Z" fill="#093"/>
    <path id="Path_2642" data-name="Path 2642" d="M459.924,45.1l.193.006v-.043l-.142,0,0-.069.127,0v-.043l-.127,0,0-.056.137,0v-.043l-.188-.006Z" fill="#093"/>
    <path id="Path_2643" data-name="Path 2643" d="M460.35,45.037l-.031-.176-.076-.006-.021.253.047,0,.017-.2.033.2.049,0,.067-.195-.017.2.047,0,.021-.253-.077-.006Z" fill="#093"/>
    <path id="Path_2644" data-name="Path 2644" d="M460.794,44.935l-.038.231.173.029h0l.007-.039h0l-.126-.021v0l.01-.06.116.019.006-.039h0l-.112-.019,0-.011.007-.04.124.021.006-.039h0Z" fill="#093"/>
    <path id="Path_2645" data-name="Path 2645" d="M461.416,45.047a.248.248,0,0,0-.058-.018l-.079-.02-.062.246.05.012.023-.093.032.008a.311.311,0,0,0,.053.01.1.1,0,0,0,.028-.005.073.073,0,0,0,.027-.02.077.077,0,0,0,.018-.035.083.083,0,0,0,0-.052A.065.065,0,0,0,461.416,45.047Zm-.03.09a.03.03,0,0,1-.018.008.125.125,0,0,1-.04-.006l-.028-.007.018-.069.024.006a.305.305,0,0,1,.035.01.033.033,0,0,1,.017.016.034.034,0,0,1-.008.042Z" fill="#093"/>
    <path id="Path_2646" data-name="Path 2646" d="M461.5,45.329l.049.015.031-.1.01,0a.1.1,0,0,1,.024.01.035.035,0,0,1,.011.015.192.192,0,0,1,.015.043l.02.064.058.018-.015-.057a.292.292,0,0,0-.016-.048.113.113,0,0,0-.02-.028.081.081,0,0,0,.055-.008.07.07,0,0,0,.03-.04.072.072,0,0,0,0-.041.06.06,0,0,0-.021-.032.2.2,0,0,0-.055-.024l-.1-.031Zm.111-.186.038.011.035.012a.034.034,0,0,1,.016.015.028.028,0,0,1,0,.022.032.032,0,0,1-.01.017.043.043,0,0,1-.017.006.257.257,0,0,1-.045-.011L461.6,45.2Z" fill="#093"/>
    <path id="Path_2647" data-name="Path 2647" d="M461.915,45.468a.118.118,0,0,0,.1,0,.133.133,0,0,0,.064-.079.132.132,0,0,0,0-.1.12.12,0,0,0-.072-.063.141.141,0,0,0-.055-.009.094.094,0,0,0-.039.01.116.116,0,0,0-.034.024.171.171,0,0,0-.033.057.131.131,0,0,0,0,.1A.117.117,0,0,0,461.915,45.468Zm-.021-.147a.094.094,0,0,1,.041-.055.066.066,0,0,1,.055,0,.063.063,0,0,1,.04.038.088.088,0,0,1,0,.067.1.1,0,0,1-.041.056.07.07,0,0,1-.095-.035A.1.1,0,0,1,461.894,45.321Z" fill="#093"/>
    <path id="Path_2648" data-name="Path 2648" d="M462.239,45.6a.175.175,0,0,0,.061.013.144.144,0,0,0,.054-.006l.04-.093-.1-.044-.017.039.053.023-.012.03a.109.109,0,0,1-.032,0,.088.088,0,0,1-.032-.007.066.066,0,0,1-.039-.041.1.1,0,0,1,.008-.071.1.1,0,0,1,.043-.05.069.069,0,0,1,.058,0,.06.06,0,0,1,.029.025.047.047,0,0,1,.007.035l.051.011a.093.093,0,0,0-.01-.064.119.119,0,0,0-.06-.047.129.129,0,0,0-.061-.013.116.116,0,0,0-.063.024.159.159,0,0,0-.056.126.106.106,0,0,0,.022.062A.134.134,0,0,0,462.239,45.6Z" fill="#093"/>
    <path id="Path_2649" data-name="Path 2649" d="M462.536,45.613l.009,0a.074.074,0,0,1,.022.015.035.035,0,0,1,.009.016.357.357,0,0,1,.008.045l.008.066.055.027-.006-.058a.287.287,0,0,0-.008-.05.125.125,0,0,0-.015-.031.084.084,0,0,0,.056,0,.076.076,0,0,0,.036-.035.075.075,0,0,0,.008-.041.063.063,0,0,0-.016-.035.187.187,0,0,0-.05-.032l-.1-.048-.113.227.046.023Zm.047-.094.035.018.033.017a.032.032,0,0,1,.013.018.027.027,0,0,1,0,.021.033.033,0,0,1-.013.015.027.027,0,0,1-.018,0,.218.218,0,0,1-.042-.018l-.034-.016Z" fill="#093"/>
    <path id="Path_2650" data-name="Path 2650" d="M462.919,45.889l-.123-.069.034-.06.111.063.021-.037-.111-.062.028-.049.119.067.021-.038-.164-.092-.125.221.168.095Z" fill="#093"/>
    <path id="Path_2651" data-name="Path 2651" d="M463.017,45.977a.1.1,0,0,0,.05.058.15.15,0,0,0,.052.022.066.066,0,0,0,.044-.006.073.073,0,0,0,.032-.028.079.079,0,0,0,.013-.039.069.069,0,0,0-.01-.037.237.237,0,0,0-.037-.045.157.157,0,0,1-.031-.039.022.022,0,0,1,0-.018.021.021,0,0,1,.015-.009.065.065,0,0,1,.035.011.053.053,0,0,1,.023.025.043.043,0,0,1,0,.031l.044.026a.071.071,0,0,0,.008-.061.1.1,0,0,0-.049-.056.113.113,0,0,0-.047-.019.071.071,0,0,0-.041,0,.069.069,0,0,0-.036.081.142.142,0,0,0,.036.052l.029.031a.04.04,0,0,1,.009.019.022.022,0,0,1,0,.016.033.033,0,0,1-.024.014.058.058,0,0,1-.037-.011.051.051,0,0,1-.025-.03.055.055,0,0,1,0-.041l-.045-.022A.1.1,0,0,0,463.017,45.977Z" fill="#093"/>
    <path id="Path_2652" data-name="Path 2652" d="M463.319,46.2a.13.13,0,0,0,.051.024.082.082,0,0,0,.044,0,.073.073,0,0,0,.033-.027.064.064,0,0,0,.015-.039.069.069,0,0,0-.008-.037.242.242,0,0,0-.035-.047.116.116,0,0,1-.028-.041.02.02,0,0,1,0-.017.019.019,0,0,1,.016-.008.058.058,0,0,1,.034.013.052.052,0,0,1,.022.026.046.046,0,0,1-.005.031l.043.027a.069.069,0,0,0,.011-.06.107.107,0,0,0-.046-.059.132.132,0,0,0-.046-.021.07.07,0,0,0-.041,0,.075.075,0,0,0-.03.023.067.067,0,0,0-.01.055.126.126,0,0,0,.033.054l.027.033a.04.04,0,0,1,.009.019.024.024,0,0,1-.005.016.029.029,0,0,1-.024.013.057.057,0,0,1-.036-.013.054.054,0,0,1-.024-.031.063.063,0,0,1,.006-.041l-.043-.024a.091.091,0,0,0-.012.07A.106.106,0,0,0,463.319,46.2Z" fill="#093"/>
    <path id="Path_2653" data-name="Path 2653" d="M463.579,46.4a.117.117,0,0,0,.092.027.13.13,0,0,0,.086-.055.135.135,0,0,0,.033-.1.121.121,0,0,0-.049-.082.134.134,0,0,0-.05-.026.1.1,0,0,0-.04,0,.142.142,0,0,0-.04.012.169.169,0,0,0-.049.045.129.129,0,0,0-.032.1A.122.122,0,0,0,463.579,46.4Zm.026-.147a.1.1,0,0,1,.055-.04.068.068,0,0,1,.054.015.066.066,0,0,1,.027.048.1.1,0,0,1-.025.063.1.1,0,0,1-.057.04.065.065,0,0,1-.053-.014.063.063,0,0,1-.026-.048A.1.1,0,0,1,463.605,46.249Z" fill="#093"/>
    <path id="Path_2654" data-name="Path 2654" d="M462.067,45.166l.06-.044.06.044-.023-.071.06-.044h-.075l-.023-.071-.023.071h-.075l.06.044Z" fill="#fff"/>
    <path id="Path_2655" data-name="Path 2655" d="M462.569,47.683l.06-.044.06.044-.023-.071.06-.044h-.075l-.023-.071-.023.071h-.075l.06.044Z" fill="#fff"/>
    <path id="Path_2656" data-name="Path 2656" d="M462.069,47.625h-.075l.06.044-.023.071.06-.044.06.044-.023-.071.06-.044h-.075l-.023-.071Z" fill="#fff"/>
    <path id="Path_2657" data-name="Path 2657" d="M463.236,47.02h-.075l.06.044-.023.071.06-.044.06.044-.023-.071.06-.044h-.075l-.023-.071Z" fill="#fff"/>
    <path id="Path_2658" data-name="Path 2658" d="M461.249,46.406l.06-.044.06.044-.023-.071.06-.044h-.075l-.023-.071-.023.071h-.075l.06.044Z" fill="#fff"/>
    <path id="Path_2659" data-name="Path 2659" d="M460.31,45.9l-.023.071h-.075l.06.044-.023.071.06-.044.06.044-.023-.071.06-.044h-.075Z" fill="#fff"/>
    <path id="Path_2660" data-name="Path 2660" d="M461.555,46.638l.06-.044.06.044-.023-.071.06-.044h-.075l-.023-.071-.023.071h-.075l.06.044Z" fill="#fff"/>
    <path id="Path_2661" data-name="Path 2661" d="M459.968,46.756l-.023-.071-.023.071h-.075l.06.044-.023.071.06-.044.06.044-.023-.071.06-.044Z" fill="#fff"/>
    <path id="Path_2662" data-name="Path 2662" d="M459.1,46.735l-.023-.071-.023.071h-.075l.06.044-.023.071.06-.044.06.044-.023-.071.06-.044Z" fill="#fff"/>
    <path id="Path_2663" data-name="Path 2663" d="M463.037,47.342l.06-.044.06.044-.023-.071.06-.044h-.075l-.023-.071-.023.071H463l.06.044Z" fill="#fff"/>
    <path id="Path_2664" data-name="Path 2664" d="M461.835,47.445l.052-.038.052.038-.02-.061.051-.037h-.064l-.02-.061-.02.061H461.8l.051.037Z" fill="#fff"/>
    <path id="Path_2665" data-name="Path 2665" d="M462.269,47.5l.051-.037.052.037-.02-.061.051-.038h-.064l-.02-.06-.02.06h-.064l.051.038Z" fill="#fff"/>
    <path id="Path_2666" data-name="Path 2666" d="M462.564,47.408l.051-.037.052.037-.02-.061.052-.037h-.064l-.02-.061-.02.061h-.064l.051.037Z" fill="#fff"/>
    <path id="Path_2667" data-name="Path 2667" d="M462.831,47.465l.052-.037.051.037-.02-.06.052-.037H462.9l-.02-.061-.02.061H462.8l.052.037Z" fill="#fff"/>
    <path id="Path_2668" data-name="Path 2668" d="M462.643,47.843l-.02-.061-.02.061h-.064l.051.037-.02.061.052-.037.051.037-.02-.061.052-.037Z" fill="#fff"/>
    <path id="Path_2669" data-name="Path 2669" d="M463.461,46.913l.051-.037.051.037-.02-.061.051-.037h-.064l-.02-.061-.02.061h-.064l.051.037Z" fill="#fff"/>
    <path id="Path_2670" data-name="Path 2670" d="M461.046,46.466l-.02.061h-.064l.051.037-.02.06.052-.037.051.037-.02-.06.051-.037h-.064Z" fill="#fff"/>
    <path id="Path_2671" data-name="Path 2671" d="M461.153,46.74l-.014.042.036-.026.036.026-.014-.042.036-.026h-.044l-.014-.042-.014.042h-.044Z" fill="#fff"/>
    <path id="Path_2672" data-name="Path 2672" d="M459.671,46.355l-.014-.042-.014.042H459.6l.036.026-.014.042.036-.026.036.026-.014-.042.036-.026Z" fill="#fff"/>
    <path id="Path_2673" data-name="Path 2673" d="M461.319,47.932l-.01-.029-.009.029h-.031l.025.018-.01.029.025-.018.025.018-.009-.029.025-.018Z" fill="#fff"/>
    <path id="Path_2674" data-name="Path 2674" d="M461.978,45.833l.052-.037.051.037-.02-.061.052-.037h-.064l-.02-.061-.02.061h-.064l.052.037Z" fill="#fff"/>
    <path id="Path_2675" data-name="Path 2675" d="M459.9,47.028l-.024-.073-.024.073h-.077l.062.045-.024.073.062-.045.062.045-.024-.073.062-.045Z" fill="#fff"/>
    <path id="Path_2676" data-name="Path 2676" d="M459.294,45.389h-.1l-.029-.091-.03.091h-.1l.077.056-.03.091.077-.056.077.056-.03-.091Z" fill="#fff"/>
    <path id="Path_2677" data-name="Path 2677" d="M460.284,47.256l-.03-.091-.029.091h-.1l.077.056-.03.091.077-.056.077.056-.03-.091.077-.056Z" fill="#fff"/>
    <path id="Path_2678" data-name="Path 2678" d="M461.339,47.048l-.03-.091-.029.091h-.1l.077.056-.03.091.077-.056.077.056-.03-.091.077-.056Z" fill="#fff"/>
    <path id="Path_2679" data-name="Path 2679" d="M459.429,46.488l-.03-.091-.03.091h-.1l.077.056-.03.091.077-.056.077.056-.03-.091.077-.056Z" fill="#fff"/>
    <path id="Path_2680" data-name="Path 2680" d="M463.076,46.928l.077-.056.077.056-.029-.091.077-.056h-.1l-.03-.091-.03.091h-.1l.077.056Z" fill="#fff"/>
  </g>
</svg>
