<svg xmlns="http://www.w3.org/2000/svg" width="15.58" height="10.111" viewBox="0 0 15.58 10.111">
  <g id="Group_4014" data-name="Group 4014" transform="translate(-223.156 -116.236)">
    <rect id="Rectangle_259" data-name="Rectangle 259" width="15.58" height="10.111" transform="translate(223.155 116.235)" fill="#339"/>
    <g id="Group_4013" data-name="Group 4013">
      <path id="Path_2606" data-name="Path 2606" d="M227.035,121.173h.414l.128-.395.128.395h.415l-.336.243.128.394-.335-.243-.335.243.128-.394Zm1.318,2.317-.336-.243-.335.243.128-.394-.335-.244h.414l.128-.394.128.394h.415l-.335.244Zm-.125-3.763.128.394-.335-.243-.335.243.128-.394-.335-.243h.414l.128-.4.128.4h.415Zm1.359,4.994-.335-.243-.335.243.128-.394-.335-.244h.414l.128-.394.128.394h.415l-.336.244Zm-.124-6.21.128.394-.335-.244-.336.244.128-.394-.335-.244h.415l.128-.394.128.394h.414Zm1.814,6.664-.335-.243-.335.243.128-.394-.336-.244h.415l.128-.394.128.394h.414l-.335.244Zm-.128-7.131.128.394-.335-.243-.335.243.128-.394-.336-.243h.415l.128-.4.128.4h.414Zm1.351.223.128-.394.128.394h.415l-.336.244.129.394-.336-.244-.335.244.128-.394-.335-.244Zm.467,6.454-.335-.243-.336.243.128-.394-.335-.244h.415l.128-.394.128.394h.414l-.335.244Zm.768-5.237.128-.4.128.4h.414l-.335.243.128.394-.335-.243-.336.243.128-.394-.335-.243Zm.467,4.006-.336-.243-.335.243.128-.394-.335-.244h.414l.128-.394.129.394h.414l-.335.244Zm.447-1.68-.335-.243-.335.243.128-.394-.336-.243h.415l.128-.395.128.395h.414l-.335.243Z" fill="#339"/>
      <path id="Path_2607" data-name="Path 2607" d="M230.942,117.406l-.128.394H230.4l.335.244-.128.394.335-.244.335.244-.128-.394.335-.244h-.414Z" fill="#e7ba1f"/>
      <path id="Path_2608" data-name="Path 2608" d="M229.256,117.873l-.128.394h-.415l.335.244-.128.394.335-.244.335.244-.128-.394.335-.244h-.414Z" fill="#e7ba1f"/>
      <path id="Path_2609" data-name="Path 2609" d="M228.021,119.089l-.128.394h-.415l.335.244-.128.394.335-.244.335.244-.128-.394.335-.244h-.414Z" fill="#e7ba1f"/>
      <path id="Path_2610" data-name="Path 2610" d="M227.577,121.567l.335.244-.128-.394.335-.244h-.414l-.128-.394-.128.394h-.415l.335.244-.128.394Z" fill="#e7ba1f"/>
      <path id="Path_2611" data-name="Path 2611" d="M228.145,122.852l-.128-.394-.128.394h-.415l.335.244-.128.394.335-.244.335.244-.128-.394.335-.244Z" fill="#e7ba1f"/>
      <path id="Path_2612" data-name="Path 2612" d="M229.38,124.083l-.128-.394-.128.394h-.415l.335.244-.128.394.335-.244.335.244-.128-.394.335-.244Z" fill="#e7ba1f"/>
      <path id="Path_2613" data-name="Path 2613" d="M231.07,124.537l-.128-.394-.128.394H230.4l.335.244-.128.394.335-.244.335.244-.128-.394.335-.244Z" fill="#e7ba1f"/>
      <path id="Path_2614" data-name="Path 2614" d="M232.76,124.083l-.128-.394-.128.394h-.415l.335.244-.128.394.335-.244.335.244-.128-.394.335-.244Z" fill="#e7ba1f"/>
      <path id="Path_2615" data-name="Path 2615" d="M233.995,122.852l-.128-.394-.128.394h-.414l.335.244-.128.394.335-.244.335.244-.128-.394.335-.244Z" fill="#e7ba1f"/>
      <path id="Path_2616" data-name="Path 2616" d="M234.442,121.173l-.128-.394-.128.394h-.415l.335.244-.128.394.335-.244.335.244-.128-.394.335-.244Z" fill="#e7ba1f"/>
      <path id="Path_2617" data-name="Path 2617" d="M233.527,120.121l.335-.244.335.244-.128-.394.335-.244h-.414l-.128-.394-.128.394h-.415l.335.244Z" fill="#e7ba1f"/>
      <path id="Path_2618" data-name="Path 2618" d="M232.293,118.9l.335-.244.335.244-.128-.394.335-.244h-.415l-.128-.394-.128.394h-.414l.335.244Z" fill="#e7ba1f"/>
    </g>
  </g>
</svg>
