<svg id="uk-flag" xmlns="http://www.w3.org/2000/svg" width="15.58" height="10.127" viewBox="0 0 15.58 10.127">
  <g id="Group_3843" data-name="Group 3843">
    <path id="Path_2323" data-name="Path 2323" d="M47.377,370.918v.675h7.011v-.675H50.921l3.467-2.245v-1.131h-.019l-5.177,3.376H48.023l5.207-3.376h-.594L47.9,370.631v-3.089h-.519Z" transform="translate(-38.808 -367.542)" fill="#fff"/>
    <path id="Path_2324" data-name="Path 2324" d="M45.3,371.593h.519v-4.051H45.3v3.089l-4.739-3.089H38.808l5.207,3.376H42.846l-4.038-2.633v.388l3.467,2.245H38.808v.675Z" transform="translate(-38.808 -367.542)" fill="#fff"/>
    <path id="Path_2325" data-name="Path 2325" d="M45.3,370.631v-3.089H40.561Z" transform="translate(-38.808 -367.542)" fill="#036"/>
    <path id="Path_2326" data-name="Path 2326" d="M42.846,370.918h1.169l-5.207-3.376v.743Z" transform="translate(-38.808 -367.542)" fill="#cf142b"/>
    <path id="Path_2327" data-name="Path 2327" d="M38.808,368.673v2.245h3.467Z" transform="translate(-38.808 -367.542)" fill="#036"/>
    <path id="Path_2328" data-name="Path 2328" d="M47.9,370.631l4.739-3.089H47.9Z" transform="translate(-38.808 -367.542)" fill="#036"/>
    <path id="Path_2329" data-name="Path 2329" d="M48.023,370.918h1.169l5.177-3.376H53.23Z" transform="translate(-38.808 -367.542)" fill="#cf142b"/>
    <path id="Path_2330" data-name="Path 2330" d="M50.921,370.918h3.467v-2.245Z" transform="translate(-38.808 -367.542)" fill="#036"/>
    <path id="Path_2331" data-name="Path 2331" d="M45.3,373.618h.519v4.051h1.558v-4.051h7.011v-2.025H47.377v-4.051H45.819v4.051H38.808v2.025H45.3Z" transform="translate(-38.808 -367.542)" fill="#cf142b"/>
    <path id="Path_2332" data-name="Path 2332" d="M47.985,373.618h-.608v4.051H47.9V374.58l4.739,3.089h1.753l-5.2-3.376h1.169l4.036,2.633v-.388l-3.467-2.245h3.467v-.675Z" transform="translate(-38.808 -367.542)" fill="#fff"/>
    <path id="Path_2333" data-name="Path 2333" d="M43.992,374.294h1.169l-5.207,3.376h.606L45.3,374.58v3.089h.519v-4.051H38.808v.675h3.467l-3.467,2.245v1.131Z" transform="translate(-38.808 -367.542)" fill="#fff"/>
    <path id="Path_2334" data-name="Path 2334" d="M45.3,374.58l-4.739,3.089H45.3Z" transform="translate(-38.808 -367.542)" fill="#036"/>
    <path id="Path_2335" data-name="Path 2335" d="M45.161,374.294H43.992l-5.185,3.376h1.147Z" transform="translate(-38.808 -367.542)" fill="#cf142b"/>
    <path id="Path_2336" data-name="Path 2336" d="M42.275,374.294H38.808v2.245Z" transform="translate(-38.808 -367.542)" fill="#036"/>
    <path id="Path_2337" data-name="Path 2337" d="M47.9,374.58v3.089h4.739Z" transform="translate(-38.808 -367.542)" fill="#036"/>
    <path id="Path_2338" data-name="Path 2338" d="M50.352,374.294H49.184l5.2,3.376v-.743Z" transform="translate(-38.808 -367.542)" fill="#cf142b"/>
    <path id="Path_2339" data-name="Path 2339" d="M54.388,376.538v-2.245H50.921Z" transform="translate(-38.808 -367.542)" fill="#036"/>
  </g>
</svg>
