<svg xmlns="http://www.w3.org/2000/svg" width="15.58" height="10.127" viewBox="0 0 15.58 10.127">
  <g id="Group_4012" data-name="Group 4012" transform="translate(-84.887 -367.543)">
    <path id="Path_2554" data-name="Path 2554" d="M84.887,373v.779h15.58V373H84.887Z" fill="#fff"/>
    <rect id="Rectangle_247" data-name="Rectangle 247" width="15.58" height="0.779" transform="translate(84.887 373.774)" fill="#b22234"/>
    <rect id="Rectangle_248" data-name="Rectangle 248" width="15.58" height="0.779" transform="translate(84.887 375.332)" fill="#b22234"/>
    <rect id="Rectangle_249" data-name="Rectangle 249" width="8.675" height="0.779" transform="translate(91.792 372.216)" fill="#b22234"/>
    <rect id="Rectangle_250" data-name="Rectangle 250" width="15.58" height="0.779" transform="translate(84.887 376.89)" fill="#b22234"/>
    <rect id="Rectangle_251" data-name="Rectangle 251" width="15.58" height="0.779" transform="translate(84.887 376.111)" fill="#fff"/>
    <rect id="Rectangle_252" data-name="Rectangle 252" width="15.58" height="0.779" transform="translate(84.887 374.553)" fill="#fff"/>
    <rect id="Rectangle_253" data-name="Rectangle 253" width="8.675" height="0.779" transform="translate(91.792 369.1)" fill="#b22234"/>
    <rect id="Rectangle_254" data-name="Rectangle 254" width="8.675" height="0.779" transform="translate(91.792 367.542)" fill="#b22234"/>
    <rect id="Rectangle_255" data-name="Rectangle 255" width="8.675" height="0.779" transform="translate(91.792 371.437)" fill="#fff"/>
    <rect id="Rectangle_256" data-name="Rectangle 256" width="8.675" height="0.779" transform="translate(91.792 368.321)" fill="#fff"/>
    <rect id="Rectangle_257" data-name="Rectangle 257" width="8.675" height="0.779" transform="translate(91.792 370.658)" fill="#b22234"/>
    <rect id="Rectangle_258" data-name="Rectangle 258" width="8.675" height="0.779" transform="translate(91.792 369.879)" fill="#fff"/>
    <path id="Path_2555" data-name="Path 2555" d="M91.792,372.216v-4.674h-6.9v5.453h6.9Zm-6.171.5-.159-.128-.158.128.06-.208-.158-.128h.2l.025-.086,0-.019.017-.059.013-.044.013.044.017.059.006.019.025.086h.195l-.158.128Zm-.061-1.3.005.016.02.069.006.019.03.1-.128-.1-.023-.019-.008-.006-.008.006-.023.019-.127.1.03-.1.006-.019.02-.069,0-.016-.158-.129h.2l.06-.207.061.207h.195Zm0-1.088.061.207-.159-.128-.158.128.06-.207-.158-.129h.2l.06-.207.061.207h.195Zm.056-1.133-.023.018-.033.027.061.208-.159-.129-.158.129.06-.208-.032-.027-.024-.018-.1-.083h.2l0-.017.055-.191.056.191.005.017h.195Zm-.056-1.043.048.164.013.044-.055-.044-.1-.084-.1.084-.054.044.013-.044.047-.164-.158-.128h.2l.06-.208.061.208h.195Zm.64,4.015-.158-.128-.158.128.06-.208-.158-.128h.195l.061-.208.06.208h.2l-.158.128Zm.088-1.416-.148.121.06.207-.158-.128-.158.128.06-.207-.148-.121-.01-.008h.195l0-.011.023-.079.034-.118.034.118.023.079,0,.011h.2Zm-.148-.967.026.09.026.09.006.018,0,.01-.011-.01-.023-.018-.111-.09-.013-.011-.013.011-.111.09-.023.018-.011.01,0-.01.006-.018.026-.09.026-.09-.158-.128h.195l.061-.208.06.208h.2Zm0-1.088.06.208-.158-.129-.158.129.06-.208-.158-.128h.195l.036-.124.006-.018.019-.066.019.066.005.018.036.124h.2Zm.631,4.015-.158-.128-.158.128.06-.208-.158-.128h.2l.025-.086,0-.019.017-.059.013-.044.013.044.017.059.006.019.025.086h.195l-.158.128Zm-.06-1.3.005.016.02.069,0,.019.03.1-.127-.1-.023-.019-.008-.006-.008.006-.023.019-.127.1.03-.1,0-.019.021-.069,0-.016-.158-.129h.2l.06-.207.061.207h.195Zm0-1.088.06.207-.158-.128-.158.128.06-.207-.158-.129h.2l.06-.207.061.207h.195Zm.056-1.133-.023.018-.033.027.06.208-.158-.129-.158.129.06-.208-.033-.027-.023-.018-.1-.083h.2l0-.017.056-.191.056.191.005.017h.195Zm-.056-1.043.048.164.012.044-.054-.044-.1-.084-.1.084-.054.044.013-.044.047-.164-.158-.128h.2l.06-.208.061.208h.195Zm.64,4.015-.158-.128-.158.128.06-.208-.158-.128h.2l.061-.208.06.208h.2l-.158.128Zm.088-1.416-.148.121.06.207-.158-.128-.158.128.06-.207-.148-.121-.01-.008h.2l0-.011.023-.079.034-.118.034.118.023.079,0,.011h.2Zm-.148-.967.026.09.026.09,0,.018,0,.01-.011-.01-.024-.018-.11-.09-.013-.011-.013.011-.111.09-.023.018-.011.01,0-.01.006-.018.026-.09.026-.09-.158-.128h.2l.061-.208.06.208h.2Zm0-1.088.06.208-.158-.129-.158.129.06-.208-.158-.128h.2l.036-.124.006-.018.019-.066.019.066.005.018.036.124h.2Zm.631,4.015-.158-.128-.158.128.06-.208-.158-.128h.2l.025-.086.005-.019.017-.059.013-.044.013.044.017.059.006.019.024.086h.2l-.158.128Zm-.06-1.3,0,.016.02.069,0,.019.03.1-.127-.1-.023-.019-.008-.006-.008.006-.023.019-.127.1.03-.1,0-.019.02-.069,0-.016-.158-.129h.2l.06-.207.06.207h.2Zm0-1.088.06.207-.158-.128-.158.128.06-.207-.158-.129h.2l.06-.207.06.207h.2Zm.056-1.133-.023.018-.033.027.06.208-.158-.129-.158.129.06-.208-.033-.027-.023-.018-.1-.083h.2l0-.017.056-.191.056.191,0,.017h.2Zm-.056-1.043.047.164.013.044-.054-.044-.1-.084-.1.084-.054.044.013-.044.047-.164-.158-.128h.2l.06-.208.06.208h.2Zm.64,4.015-.158-.128-.159.128.061-.208-.158-.128h.195l.061-.208.06.208h.2l-.159.128Zm.088-1.416-.149.121.061.207-.158-.128-.159.128.061-.207-.149-.121-.009-.008h.195l0-.011.024-.079.034-.118.034.118.023.079,0,.011h.2Zm-.149-.967.027.09.026.09,0,.018,0,.01-.012-.01-.023-.018-.11-.09-.013-.011-.014.011-.11.09-.023.018-.012.01,0-.01.006-.018.026-.09.026-.09-.158-.128h.195l.061-.208.06.208h.2Zm0-1.088.061.208-.158-.129-.159.129.061-.208-.158-.128h.195l.036-.124.006-.018.019-.066.019.066,0,.018.036.124h.2Zm.632,4.015-.158-.128-.158.128.06-.208-.158-.128h.195l.025-.086.006-.019.017-.059.013-.044.013.044.017.059,0,.019.025.086h.2l-.158.128Zm-.06-1.3,0,.016.02.069,0,.019.03.1-.127-.1-.023-.019-.008-.006-.008.006-.023.019-.127.1.03-.1,0-.019.02-.069.005-.016-.158-.129h.195l.061-.207.06.207h.2Zm0-1.088.06.207-.158-.128-.158.128.06-.207-.158-.129h.195l.061-.207.06.207h.2Zm.056-1.133-.023.018-.033.027.06.208-.158-.129-.158.129.06-.208-.033-.027-.023-.018-.1-.083h.195l.005-.017.056-.191.056.191,0,.017h.2Zm-.056-1.043.047.164.013.044-.054-.044-.1-.084-.1.084-.054.044.012-.044.048-.164-.158-.128h.195l.061-.208.06.208h.2Zm.64,4.015-.158-.128-.159.128.061-.208-.158-.128h.195l.061-.208.06.208h.2l-.159.128Zm.088-1.416-.149.121.061.207-.158-.128-.159.128.061-.207-.149-.121-.009-.008h.195l0-.011.023-.079.035-.118.034.118.023.079,0,.011h.2Zm-.149-.967.027.09.026.09.005.018,0,.01-.012-.01-.023-.018-.11-.09-.013-.011-.014.011-.11.09-.023.018-.012.01,0-.01.006-.018.026-.09.026-.09-.158-.128h.195l.061-.208.06.208h.2Zm0-1.088.061.208-.158-.129-.159.129.061-.208-.158-.128h.195l.036-.124.006-.018.019-.066.019.066,0,.018.036.124h.2Zm.632,4.015-.158-.128-.158.128.06-.208-.158-.128H90l.025-.086.006-.019.017-.059.013-.044.013.044.017.059,0,.019.025.086h.2l-.158.128Zm-.06-1.3,0,.016.021.069,0,.019.03.1-.127-.1-.023-.019-.008-.006-.008.006-.023.019-.127.1.03-.1,0-.019.02-.069.005-.016-.158-.129H90l.061-.207.06.207h.2Zm0-1.088.06.207-.158-.128-.158.128.06-.207-.158-.129H90l.061-.207.06.207h.2Zm.056-1.133-.023.018-.033.027.06.208-.158-.129-.158.129.06-.208-.033-.027-.023-.018-.1-.083H90l.005-.017.056-.191.055.191,0,.017h.2Zm-.056-1.043.047.164.013.044-.054-.044-.1-.084-.1.084-.054.044.012-.044.048-.164-.158-.128H90l.061-.208.06.208h.2Zm.64,4.015-.159-.128-.158.128.061-.208-.159-.128h.2l.06-.208.061.208H90.9l-.158.128Zm.088-1.416-.149.121.061.207-.159-.128-.158.128.061-.207-.149-.121-.01-.008h.2l0-.011.023-.079.034-.118.035.118.023.079,0,.011H90.9Zm-.149-.967.027.09.026.09.005.018,0,.01-.012-.01-.023-.018-.11-.09-.014-.011-.013.011-.11.09-.023.018-.012.01,0-.01.005-.018.026-.09.027-.09-.159-.128h.2l.06-.208.061.208H90.9Zm0-1.088.061.208-.159-.129-.158.129.061-.208-.159-.128h.2l.036-.124,0-.018.019-.066.019.066.006.018.036.124H90.9Zm.632,4.015-.158-.128-.159.128.061-.208-.158-.128h.195l.025-.086.006-.019.017-.059.013-.044.012.044.018.059,0,.019.025.086h.2l-.158.128Zm-.06-1.3,0,.016.02.069.006.019.03.1-.127-.1-.023-.019-.008-.006-.008.006-.024.019-.127.1.03-.1.006-.019.02-.069.005-.016-.158-.129h.195l.061-.207.06.207h.2Zm0-1.088.06.207-.158-.128-.159.128.061-.207-.158-.129h.195l.061-.207.06.207h.2Zm.056-1.133-.024.018-.032.027.06.208-.158-.129-.159.129.061-.208-.033-.027-.023-.018-.1-.083h.195l.005-.017.056-.191.055.191,0,.017h.2Zm-.056-1.043.047.164.013.044-.054-.044-.1-.084-.1.084-.055.044.013-.044.048-.164-.158-.128h.195l.061-.208.06.208h.2Z" fill="#3c3b6e"/>
    <path id="Path_2556" data-name="Path 2556" d="M85.523,372.38l-.025-.086-.006-.019-.017-.059-.013-.044-.013.044-.017.059-.005.019-.025.086h-.2l.158.128-.061.208.158-.128.158.128-.061-.208.158-.128Z" fill="#fff"/>
    <path id="Path_2557" data-name="Path 2557" d="M86.674,372.38l-.025-.086-.005-.019-.017-.059-.013-.044-.013.044-.017.059-.006.019-.025.086h-.2l.158.128-.06.208.158-.128.158.128-.06-.208.158-.128Z" fill="#fff"/>
    <path id="Path_2558" data-name="Path 2558" d="M87.825,372.38l-.025-.086-.006-.019-.017-.059-.013-.044-.013.044-.017.059-.006.019-.025.086h-.2l.158.128-.06.208.158-.128.158.128-.061-.208.158-.128Z" fill="#fff"/>
    <path id="Path_2559" data-name="Path 2559" d="M88.975,372.38l-.025-.086-.005-.019-.017-.059-.013-.044-.013.044-.017.059-.006.019-.025.086h-.2l.158.128-.061.208.158-.128.158.128-.06-.208.158-.128Z" fill="#fff"/>
    <path id="Path_2560" data-name="Path 2560" d="M90.126,372.38l-.025-.086-.005-.019-.017-.059-.013-.044-.013.044-.017.059-.006.019-.025.086h-.2l.158.128-.06.208.158-.128.158.128-.06-.208.158-.128Z" fill="#fff"/>
    <path id="Path_2561" data-name="Path 2561" d="M91.277,372.38l-.025-.086-.006-.019-.017-.059-.013-.044-.013.044-.017.059-.005.019-.025.086h-.2l.158.128-.06.208.158-.128.158.128-.06-.208.158-.128Z" fill="#fff"/>
    <path id="Path_2562" data-name="Path 2562" d="M85.462,371.085l-.061.208h-.2l.158.128,0,.017-.02.069-.006.019-.03.1.127-.1.023-.019.008-.006.008.006.023.019.127.1-.03-.1-.005-.019-.02-.069,0-.017.158-.128h-.2Z" fill="#fff"/>
    <path id="Path_2563" data-name="Path 2563" d="M86.613,371.085l-.061.208h-.2l.158.128,0,.017-.02.069-.006.019-.03.1.127-.1.023-.019.008-.006.008.006.023.019.127.1-.03-.1-.005-.019-.02-.069,0-.017.158-.128h-.2Z" fill="#fff"/>
    <path id="Path_2564" data-name="Path 2564" d="M87.764,371.085l-.06.208h-.2l.158.128,0,.017-.02.069-.005.019-.03.1.127-.1.023-.019.008-.006.008.006.023.019.127.1-.03-.1-.006-.019-.02-.069,0-.017.158-.128h-.2Z" fill="#fff"/>
    <path id="Path_2565" data-name="Path 2565" d="M88.915,371.085l-.061.208h-.2l.158.128,0,.017-.02.069-.006.019-.03.1.127-.1.023-.019.008-.006.008.006.023.019.127.1-.03-.1-.005-.019-.02-.069,0-.017.158-.128h-.2Z" fill="#fff"/>
    <path id="Path_2566" data-name="Path 2566" d="M90.066,371.085l-.061.208h-.2l.158.128,0,.017-.02.069-.006.019-.03.1.127-.1.023-.019.008-.006.008.006.023.019.127.1-.03-.1-.005-.019-.02-.069,0-.017.158-.128h-.2Z" fill="#fff"/>
    <path id="Path_2567" data-name="Path 2567" d="M91.217,371.085l-.06.208h-.2l.158.128,0,.017-.02.069-.005.019-.03.1.127-.1.023-.019.008-.006.008.006.023.019.127.1-.03-.1-.006-.019-.02-.069,0-.017.158-.128h-.2Z" fill="#fff"/>
    <path id="Path_2568" data-name="Path 2568" d="M85.462,370l-.061.208h-.2l.158.128-.061.208.158-.128.158.128-.061-.208.158-.128h-.2Z" fill="#fff"/>
    <path id="Path_2569" data-name="Path 2569" d="M86.613,370l-.061.208h-.2l.158.128-.06.208.158-.128.158.128-.06-.208.158-.128h-.2Z" fill="#fff"/>
    <path id="Path_2570" data-name="Path 2570" d="M87.764,370l-.06.208h-.2l.158.128-.06.208.158-.128.158.128-.061-.208.158-.128h-.2Z" fill="#fff"/>
    <path id="Path_2571" data-name="Path 2571" d="M88.915,370l-.061.208h-.2l.158.128-.061.208.158-.128.158.128-.06-.208.158-.128h-.2Z" fill="#fff"/>
    <path id="Path_2572" data-name="Path 2572" d="M90.066,370l-.061.208h-.2l.158.128-.06.208.158-.128.158.128-.06-.208.158-.128h-.2Z" fill="#fff"/>
    <path id="Path_2573" data-name="Path 2573" d="M91.217,370l-.06.208h-.2l.158.128-.06.208.158-.128.158.128-.06-.208.158-.128h-.2Z" fill="#fff"/>
    <path id="Path_2574" data-name="Path 2574" d="M85.518,369.1l-.056-.191-.056.191,0,.017h-.2l.1.083.023.019.033.027-.061.208.158-.128.158.128-.061-.208.033-.027.023-.019.1-.083h-.2Z" fill="#fff"/>
    <path id="Path_2575" data-name="Path 2575" d="M86.669,369.1l-.056-.191-.056.191,0,.017h-.2l.1.083.023.019.033.027-.06.208.158-.128.158.128-.06-.208.033-.027.023-.019.1-.083h-.2Z" fill="#fff"/>
    <path id="Path_2576" data-name="Path 2576" d="M87.82,369.1l-.056-.191-.056.191,0,.017h-.2l.1.083.023.019.033.027-.06.208.158-.128.158.128-.061-.208.033-.027.023-.019.1-.083h-.2Z" fill="#fff"/>
    <path id="Path_2577" data-name="Path 2577" d="M88.97,369.1l-.056-.191-.056.191,0,.017h-.2l.1.083.023.019.033.027-.061.208.158-.128.158.128-.06-.208.033-.027.023-.019.1-.083h-.2Z" fill="#fff"/>
    <path id="Path_2578" data-name="Path 2578" d="M90.121,369.1l-.056-.191-.056.191,0,.017h-.2l.1.083.023.019.033.027-.06.208.158-.128.158.128-.06-.208.033-.027.023-.019.1-.083h-.2Z" fill="#fff"/>
    <path id="Path_2579" data-name="Path 2579" d="M91.272,369.1l-.056-.191-.056.191,0,.017h-.2l.1.083.023.019.033.027-.06.208.158-.128.158.128-.06-.208.033-.027.023-.019.1-.083h-.2Z" fill="#fff"/>
    <path id="Path_2580" data-name="Path 2580" d="M86.066,368.449l-.006-.019-.019-.066-.019.066-.006.019-.036.123h-.2l.158.128-.061.208.158-.128.158.128-.06-.208.158-.128h-.2Z" fill="#fff"/>
    <path id="Path_2581" data-name="Path 2581" d="M87.217,368.449l-.006-.019-.019-.066-.019.066-.006.019-.036.123h-.2l.158.128-.06.208.158-.128.158.128-.06-.208.158-.128h-.2Z" fill="#fff"/>
    <path id="Path_2582" data-name="Path 2582" d="M88.368,368.449l-.005-.019-.019-.066-.019.066-.006.019-.036.123h-.2l.158.128-.061.208.158-.128.158.128-.061-.208.158-.128h-.2Z" fill="#fff"/>
    <path id="Path_2583" data-name="Path 2583" d="M89.519,368.449l-.005-.019-.019-.066-.019.066-.006.019-.036.123h-.2l.158.128-.06.208.158-.128.158.128-.06-.208.158-.128h-.2Z" fill="#fff"/>
    <path id="Path_2584" data-name="Path 2584" d="M90.67,368.449l-.006-.019-.019-.066-.019.066-.006.019-.036.123h-.2l.158.128-.06.208.158-.128.158.128-.061-.208.158-.128h-.2Z" fill="#fff"/>
    <path id="Path_2585" data-name="Path 2585" d="M86.042,369.453l-.061.208h-.2l.158.128-.026.09-.026.089-.006.019,0,.009.012-.009.023-.019.11-.089.013-.011.013.011.11.089.023.019L86.2,370l0-.009-.006-.019-.026-.089-.026-.09.158-.128h-.2Z" fill="#fff"/>
    <path id="Path_2586" data-name="Path 2586" d="M87.193,369.453l-.06.208h-.2l.158.128-.026.09-.026.089-.006.019,0,.009.011-.009.023-.019.11-.089.013-.011.013.011.11.089.023.019.011.009,0-.009-.005-.019-.026-.089-.026-.09.158-.128h-.2Z" fill="#fff"/>
    <path id="Path_2587" data-name="Path 2587" d="M88.344,369.453l-.06.208h-.2l.158.128-.026.09-.026.089-.005.019,0,.009.012-.009.023-.019.11-.089.013-.011.013.011.11.089.023.019L88.5,370l0-.009-.005-.019-.026-.089-.026-.09.158-.128h-.2Z" fill="#fff"/>
    <path id="Path_2588" data-name="Path 2588" d="M89.495,369.453l-.061.208h-.2l.158.128-.026.09-.026.089-.006.019,0,.009.012-.009.023-.019.11-.089.013-.011.013.011.11.089.023.019.012.009,0-.009-.006-.019-.026-.089-.026-.09.158-.128h-.2Z" fill="#fff"/>
    <path id="Path_2589" data-name="Path 2589" d="M90.645,369.453l-.06.208h-.2l.158.128-.026.09-.026.089-.005.019,0,.009.012-.009.023-.019.11-.089.013-.011.013.011.11.089.023.019L90.8,370l0-.009-.006-.019-.026-.089-.026-.09.158-.128h-.2Z" fill="#fff"/>
    <path id="Path_2590" data-name="Path 2590" d="M86.1,370.737l-.023-.079-.034-.118-.034.118-.023.079,0,.011h-.2l.01.008.148.12-.061.208.158-.128.158.128-.06-.208.148-.12.01-.008h-.2Z" fill="#fff"/>
    <path id="Path_2591" data-name="Path 2591" d="M87.25,370.737l-.023-.079-.034-.118-.034.118-.023.079,0,.011h-.2l.01.008.148.12-.06.208.158-.128.158.128-.06-.208.148-.12.01-.008h-.2Z" fill="#fff"/>
    <path id="Path_2592" data-name="Path 2592" d="M88.4,370.737l-.023-.079-.034-.118-.034.118-.023.079,0,.011h-.2l.01.008.149.12-.061.208.158-.128.158.128-.061-.208.148-.12.01-.008h-.2Z" fill="#fff"/>
    <path id="Path_2593" data-name="Path 2593" d="M89.552,370.737l-.023-.079-.034-.118-.034.118-.023.079,0,.011h-.2l.01.008.148.12-.06.208.158-.128.158.128-.06-.208.148-.12.01-.008h-.2Z" fill="#fff"/>
    <path id="Path_2594" data-name="Path 2594" d="M90.7,370.737l-.023-.079-.034-.118-.034.118-.023.079,0,.011h-.2l.01.008.148.12-.06.208.158-.128.158.128-.061-.208.148-.12.01-.008h-.2Z" fill="#fff"/>
    <path id="Path_2595" data-name="Path 2595" d="M86.1,371.836l-.06-.208-.061.208h-.2l.158.128-.061.208.158-.128.158.128-.06-.208.158-.128Z" fill="#fff"/>
    <path id="Path_2596" data-name="Path 2596" d="M87.253,371.836l-.061-.208-.06.208h-.2l.158.128-.06.208.158-.128.158.128-.06-.208.158-.128Z" fill="#fff"/>
    <path id="Path_2597" data-name="Path 2597" d="M88.4,371.836l-.061-.208-.06.208h-.2l.158.128-.061.208.158-.128.158.128-.061-.208.158-.128Z" fill="#fff"/>
    <path id="Path_2598" data-name="Path 2598" d="M89.555,371.836l-.06-.208-.061.208h-.2l.158.128-.06.208.158-.128.158.128-.06-.208.158-.128Z" fill="#fff"/>
    <path id="Path_2599" data-name="Path 2599" d="M90.706,371.836l-.061-.208-.06.208h-.2l.158.128-.06.208.158-.128.158.128-.061-.208.158-.128Z" fill="#fff"/>
    <path id="Path_2600" data-name="Path 2600" d="M85.462,367.821l-.061.208h-.2l.158.128-.048.164-.013.044.054-.044.1-.085.1.085.054.044-.013-.044-.048-.164.158-.128h-.2Z" fill="#fff"/>
    <path id="Path_2601" data-name="Path 2601" d="M86.613,367.821l-.061.208h-.2l.158.128-.048.164-.013.044.054-.044.1-.085.1.085.054.044-.013-.044-.048-.164.158-.128h-.2Z" fill="#fff"/>
    <path id="Path_2602" data-name="Path 2602" d="M87.764,367.821l-.06.208h-.2l.158.128-.048.164-.013.044.054-.044.1-.085.1.085.054.044-.013-.044-.048-.164.158-.128h-.2Z" fill="#fff"/>
    <path id="Path_2603" data-name="Path 2603" d="M88.915,367.821l-.061.208h-.2l.158.128-.048.164-.013.044.054-.044.1-.085.1.085.054.044-.013-.044-.048-.164.158-.128h-.2Z" fill="#fff"/>
    <path id="Path_2604" data-name="Path 2604" d="M90.066,367.821l-.061.208h-.2l.158.128-.048.164-.013.044.054-.044.1-.085.1.085.054.044-.013-.044-.048-.164.158-.128h-.2Z" fill="#fff"/>
    <path id="Path_2605" data-name="Path 2605" d="M91.217,367.821l-.06.208h-.2l.158.128-.048.164-.013.044.054-.044.1-.085.1.085.054.044-.013-.044-.048-.164.158-.128h-.2Z" fill="#fff"/>
  </g>
</svg>
