<svg xmlns="http://www.w3.org/2000/svg" width="15.588" height="10.127" viewBox="0 0 15.588 10.127">
  <g id="Group_4019" data-name="Group 4019" transform="translate(-200.082 -317.266)">
    <g id="Group_4017" data-name="Group 4017">
      <path id="Path_2619" data-name="Path 2619" d="M201.91,317.265h-1.821v1.215l5.767,3.848-5.767,3.848v1.215h1.821l6.071-4.051h7.688v-2.026h-7.688Z" fill="#063"/>
      <path id="Path_2620" data-name="Path 2620" d="M203.124,327.392h12.545v-3.376h-7.486Z" fill="#039"/>
      <path id="Path_2621" data-name="Path 2621" d="M203.124,317.265l5.059,3.376h7.486v-3.376Z" fill="#c33"/>
      <path id="Path_2622" data-name="Path 2622" d="M200.082,318.48v.81l4.557,3.038-4.557,3.038v.81l5.772-3.848Z" fill="#fc0"/>
      <path id="Path_2623" data-name="Path 2623" d="M200.082,319.291v6.076l4.557-3.038Z"/>
      <path id="Path_2624" data-name="Path 2624" d="M203.124,317.265H201.91l6.071,4.051h7.688v-.675h-7.486Z" fill="#fff"/>
      <path id="Path_2625" data-name="Path 2625" d="M201.91,327.392h1.214l5.059-3.376h7.486v-.675h-7.688Z" fill="#fff"/>
    </g>
  </g>
</svg>
