<svg xmlns="http://www.w3.org/2000/svg" width="41.772" height="40.697" viewBox="0 0 41.772 40.697"><g transform="translate(-557 -2051.328)"><path d="M-265.406,2008.135h-21.687a10.042,10.042,0,0,1-10.042-10.043v-20.611a10.042,10.042,0,0,1,10.042-10.043h21.687a10.042,10.042,0,0,1,10.043,10.043v20.611a10.042,10.042,0,0,1-10.043,10.043" transform="translate(854.135 83.89)" fill="#b5b5b6"/><path d="M-265.406,2006.446h-21.686a8.309,8.309,0,0,1-8.309-8.31v-20.7a8.309,8.309,0,0,1,8.309-8.309h21.686a8.309,8.309,0,0,1,8.309,8.309v20.7a8.309,8.309,0,0,1-8.309,8.31" transform="translate(854.401 83.89)" fill="#221f1f"/><g transform="translate(1)"><path d="M-268.224,1981.462a2.246,2.246,0,0,1-.935-1.388l-.783-2.033s-.576-1.415-4.08-1.442v-.262h-4.588v.276s-3.189-.317-4.177,2.046l-1.03,2.253a1.311,1.311,0,0,1-1.078.619s-.845.123-.845.521c0,0-.178.371.508.674,0,0,.749.535.7.865,0,0-.337.027-.364.165v5.007s-.02.461.611.461h2.226s.385.041.343-.262c.014-.164,0-.632,0-.632a2.372,2.372,0,0,0,.934-.838h9.205a1.1,1.1,0,0,0,.783.564v.81a.271.271,0,0,0,.275.36h2.417s.441.012.441-.346v-5.262s.027-.192-.372-.288l1-.756a.543.543,0,0,0,.288-.522s-.068-.439-1.483-.59m-14.563,3.382a.84.84,0,0,1-.841-.841.84.84,0,0,1,.841-.841.84.84,0,0,1,.84.841.84.84,0,0,1-.84.841m.509-3.354c-.844-.09-.124-1.114-.124-1.114l.742-1.71c.35-1.2,3.05-1.113,3.05-1.113h2.906c4.7-.123,4.657.887,4.657.887l1.01,2.348c.288.66-.523.7-.523.7a55.961,55.961,0,0,1-11.718,0m12.431,3.354a.841.841,0,0,1-.842-.841.841.841,0,0,1,.842-.841.841.841,0,0,1,.841.841.841.841,0,0,1-.841.841" transform="translate(853.761 83.89)" fill="#da2129"/><text transform="translate(573 2082.219)" fill="#da2129" font-size="7.562" font-family="Anton-Regular, Anton"><tspan x="0" y="0">0.6</tspan></text></g></g></svg>