<svg xmlns="http://www.w3.org/2000/svg" width="50" height="50" viewBox="0 0 50 50"><g transform="translate(0)"><path d="M-506.758,1388.014h-26.091a12.116,12.116,0,0,1-11.955-12.271v-25.459a12.116,12.116,0,0,1,11.955-12.27h26.091a12.115,12.115,0,0,1,11.954,12.27v25.459a12.115,12.115,0,0,1-11.954,12.271" transform="translate(544.804 -1338.014)" fill="#b6b6b6"/><path d="M-507.1,1385.563h-26.066a10.026,10.026,0,0,1-9.892-10.154v-25.544a10.025,10.025,0,0,1,9.892-10.152H-507.1a10.024,10.024,0,0,1,9.892,10.152v25.544a10.025,10.025,0,0,1-9.892,10.154" transform="translate(545.136 -1337.637)" fill="#231f20"/><path d="M-506.141,1371.129l-14.3-24.037s-1.089-1.422-1.942,0l-14.828,24.763s-1.177,1.993,1,1.993h29.773s1.767-.06.3-2.719m-2.511.866h-25.3c-.863-.121-.432-.765-.432-.765l12.538-20.857c.5-.833.918,0,.918,0s12.2,20.333,12.278,20.534c.627,1.328,0,1.087,0,1.087" transform="translate(546.189 -1336.141)" fill="#f9a11d"/><path d="M-523.868,1363.83h-.032a.95.95,0,0,1-.937-.962v-7.861a.95.95,0,0,1,.937-.962h.032a.95.95,0,0,1,.937.962v7.861a.95.95,0,0,1-.937.962" transform="translate(548.605 -1334.458)" fill="#f9a11d"/><path d="M-522.5,1364.5a1.317,1.317,0,0,0-1.3-1.334,1.317,1.317,0,0,0-1.3,1.334,1.318,1.318,0,0,0,1.3,1.334,1.317,1.317,0,0,0,1.3-1.334" transform="translate(548.555 -1332.434)" fill="#f9a11d"/></g></svg>