<svg xmlns="http://www.w3.org/2000/svg" width="50" height="50" viewBox="0 0 50 50"><g transform="translate(0)"><path d="M-306.811,1675.89H-332.9a12.115,12.115,0,0,1-11.955-12.271V1638.16A12.116,12.116,0,0,1-332.9,1625.89h26.09a12.116,12.116,0,0,1,11.955,12.271v25.459a12.115,12.115,0,0,1-11.955,12.271" transform="translate(344.856 -1625.89)" fill="#b6b6b6"/><path d="M-307.155,1673.437h-26.066a10.025,10.025,0,0,1-9.892-10.152v-25.543a10.024,10.024,0,0,1,9.892-10.152h26.066a10.024,10.024,0,0,1,9.892,10.152v25.543a10.025,10.025,0,0,1-9.892,10.152" transform="translate(345.188 -1625.512)" fill="#231f20"/><path d="M-307.022,1649.014a14.479,14.479,0,0,0-14.287-14.664,14.478,14.478,0,0,0-14.286,14.664,14.478,14.478,0,0,0,14.286,14.663,14.478,14.478,0,0,0,14.287-14.663" transform="translate(346.619 -1624.013)" fill="#fff"/><path d="M-323.092,1644.053a2.985,2.985,0,0,0-2.945,3.023,2.984,2.984,0,0,0,2.945,3.022,2.984,2.984,0,0,0,2.945-3.022,2.985,2.985,0,0,0-2.945-3.023m0,4.386a1.347,1.347,0,0,1-1.33-1.364,1.347,1.347,0,0,1,1.33-1.365,1.347,1.347,0,0,1,1.328,1.365,1.347,1.347,0,0,1-1.328,1.364" transform="translate(348.439 -1621.86)"/><path d="M-321.813,1638.125c-6.151,0-11.137,4.6-11.137,10.284s4.987,10.286,11.137,10.286,11.14-4.6,11.14-10.286-4.988-10.284-11.14-10.284m-2.7,19.065a9.7,9.7,0,0,1-6.622-6.6c-.189-1.141.615-1.068.615-1.068a15.981,15.981,0,0,1,2.27.234c4.139,1.086,4.281,6,4.281,6,.213,1.675-.544,1.432-.544,1.432m-.946-7.435a4.135,4.135,0,0,1,.592-3.8l-4.589.121c-1.89.024-1.134-1.456-1.134-1.456a9.655,9.655,0,0,1,8.81-5.121c7.154.242,9.022,5.582,9.022,5.582.5,1.287-.711,1.019-.711,1.019l-5.367-.145c1.253.875.9,3.01.9,3.01-.212,3.252-3.547,3.228-3.547,3.228-3.24-.194-3.974-2.435-3.974-2.435m6.295,7.435s-.757.243-.544-1.432c0,0,.142-4.917,4.281-6a15.98,15.98,0,0,1,2.27-.234s.8-.073.614,1.068a9.7,9.7,0,0,1-6.621,6.6" transform="translate(347.123 -1623.176)"/><path d="M-321.16,1633.761a15.419,15.419,0,0,0-15.216,15.617,15.42,15.42,0,0,0,15.216,15.617,15.421,15.421,0,0,0,15.217-15.617,15.42,15.42,0,0,0-15.217-15.617m0,1.472a13.966,13.966,0,0,1,13.781,14.145,14.319,14.319,0,0,1-2.862,8.625l-20.731-18.553a13.558,13.558,0,0,1,9.811-4.217m0,28.29a13.966,13.966,0,0,1-13.78-14.145,14.315,14.315,0,0,1,2.964-8.759l20.729,18.58a13.567,13.567,0,0,1-9.914,4.324" transform="translate(346.47 -1624.144)" fill="#da2128"/></g></svg>