<svg xmlns="http://www.w3.org/2000/svg" width="50" height="50" viewBox="0 0 50 50"><g transform="translate(0)"><path d="M-705.747,1388.232h-26.092a12.116,12.116,0,0,1-11.954-12.271V1350.5a12.115,12.115,0,0,1,11.954-12.271h26.092a12.115,12.115,0,0,1,11.954,12.271v25.459a12.116,12.116,0,0,1-11.954,12.271" transform="translate(743.793 -1338.232)" fill="#b6b6b6"/><path d="M-706.091,1385.78h-26.067a10.025,10.025,0,0,1-9.892-10.153v-25.543a10.024,10.024,0,0,1,9.892-10.151h26.067a10.024,10.024,0,0,1,9.892,10.151v25.543a10.026,10.026,0,0,1-9.892,10.153" transform="translate(744.125 -1337.856)" fill="#231f20"/><path d="M-705.958,1361.166a14.479,14.479,0,0,0-14.286-14.664,14.479,14.479,0,0,0-14.287,14.664,14.48,14.48,0,0,0,14.287,14.664,14.479,14.479,0,0,0,14.286-14.664" transform="translate(745.556 -1336.398)" fill="#fff"/><path d="M-715.833,1362.6a2.994,2.994,0,0,0,.175-4.143,2.809,2.809,0,0,0-4.034.182,2.991,2.991,0,0,0-.176,4.141,2.809,2.809,0,0,0,4.036-.18" transform="translate(748.206 -1333.918)"/><path d="M-723.756,1362.118a11.234,11.234,0,0,0-2.137,3.7s-.6.857,1.937,1.748,2.671-.754,2.671-.754.868-1.44,1.369-.823l1.1,1.577s.334.445,1.036-.241l1.5-1.164s.734,1.13,1.234.274l4.107-7.025s.534-.547-.233-.89c0,0-.267-.275-1.169,1.438l-1.937,3.358-.668,1.234a2.082,2.082,0,0,0-2.4.412s-.868.995-1.436-.034a7.422,7.422,0,0,0-1.7-2.571l-1.246-.617a1.836,1.836,0,0,0-2.026.378" transform="translate(747.19 -1333.736)"/></g><text transform="translate(17.087 16.573)" font-size="1" font-family="ArialMT, Arial"><tspan x="0" y="0">Z</tspan></text><text transform="translate(22.294 18.874)" font-size="1" font-family="ArialMT, Arial"><tspan x="0" y="0">Z</tspan></text><text transform="translate(26.96 20.46)" font-size="1" font-family="ArialMT, Arial"><tspan x="0" y="0">Z</tspan></text><path d="M-720.1,1345.911a15.419,15.419,0,0,0-15.216,15.617,15.421,15.421,0,0,0,15.216,15.618,15.421,15.421,0,0,0,15.216-15.618,15.419,15.419,0,0,0-15.216-15.617m0,1.474a13.965,13.965,0,0,1,13.781,14.144,14.312,14.312,0,0,1-2.863,8.625l-20.731-18.553a13.565,13.565,0,0,1,9.813-4.215m0,28.289a13.966,13.966,0,0,1-13.781-14.145,14.315,14.315,0,0,1,2.965-8.759l20.729,18.58a13.566,13.566,0,0,1-9.913,4.324" transform="translate(745.408 -1336.529)" fill="#da2128"/></svg>