<svg xmlns="http://www.w3.org/2000/svg" width="50" height="50" viewBox="0 0 50 50"><g transform="translate(0)"><path d="M-306.811,1388.232H-332.9a12.116,12.116,0,0,1-11.955-12.271V1350.5a12.115,12.115,0,0,1,11.955-12.271h26.09a12.115,12.115,0,0,1,11.955,12.271v25.459a12.116,12.116,0,0,1-11.955,12.271" transform="translate(344.856 -1338.232)" fill="#b6b6b6"/><path d="M-307.155,1385.78h-26.066a10.025,10.025,0,0,1-9.892-10.153v-25.543a10.024,10.024,0,0,1,9.892-10.151h26.066a10.024,10.024,0,0,1,9.892,10.151v25.543a10.025,10.025,0,0,1-9.892,10.153" transform="translate(345.188 -1337.856)" fill="#231f20"/><path d="M-307.431,1361.236a14.351,14.351,0,0,0-14.161-14.533,14.35,14.35,0,0,0-14.159,14.533,14.35,14.35,0,0,0,14.159,14.533,14.351,14.351,0,0,0,14.161-14.533" transform="translate(346.59 -1336.354)" fill="#fff"/><path d="M-331.2,1363.471a.717.717,0,0,1,.344-.282c.118-.065.279-.147.48-.242.388-.185.9-.412,1.4-.623.389-.164.956-.4,1.444-.568.63-.222.844-.247,1-.2a.974.974,0,0,1,.429.268c.126.11.289.268.486.467.28.283.623.646,1.049,1.11a.306.306,0,0,0,.363.071,14.548,14.548,0,0,0,2.765-1.712,7.55,7.55,0,0,0,2.577-3.506.746.746,0,0,0-.187-.76l-1.678-1.637a.806.806,0,0,1-.137-.979l2-3.521a.777.777,0,0,1,.651-.395,3.63,3.63,0,0,1,2.065.482,3.252,3.252,0,0,1,.8.959,5.737,5.737,0,0,1,.67,1.82,7.126,7.126,0,0,1-.01,2.615,10.506,10.506,0,0,1-1.245,3.3,17.987,17.987,0,0,1-5.314,5.6,15.312,15.312,0,0,1-4.141,2.192,5.788,5.788,0,0,1-1.159.106,7.031,7.031,0,0,1-1.481-.155,3.656,3.656,0,0,1-2.537-1.637,5.765,5.765,0,0,1-.645-1.7,2.036,2.036,0,0,1,.018-1.07" transform="translate(347.439 -1335.408)" fill="#231f20"/><path d="M-321.421,1345.829a15.419,15.419,0,0,0-15.216,15.617,15.42,15.42,0,0,0,15.216,15.617,15.421,15.421,0,0,0,15.217-15.617,15.42,15.42,0,0,0-15.217-15.617m0,1.472a13.965,13.965,0,0,1,13.781,14.145,14.319,14.319,0,0,1-2.862,8.625l-20.731-18.553a13.56,13.56,0,0,1,9.811-4.217m0,28.29a13.966,13.966,0,0,1-13.78-14.145,14.316,14.316,0,0,1,2.964-8.759l20.729,18.58a13.568,13.568,0,0,1-9.914,4.324" transform="translate(346.421 -1336.548)" fill="#da2128"/></g></svg>