<svg xmlns="http://www.w3.org/2000/svg" width="50" height="50" viewBox="0 0 50 50"><g transform="translate(0)"><path d="M-506.758,1678.54h-26.091a12.117,12.117,0,0,1-11.955-12.271V1640.81a12.117,12.117,0,0,1,11.955-12.271h26.091A12.116,12.116,0,0,1-494.8,1640.81v25.459a12.116,12.116,0,0,1-11.954,12.271" transform="translate(544.804 -1628.54)" fill="#b6b6b6"/><path d="M-507.1,1676.085h-26.066a10.025,10.025,0,0,1-9.892-10.153V1640.39a10.024,10.024,0,0,1,9.892-10.152H-507.1a10.023,10.023,0,0,1,9.892,10.152v25.542a10.024,10.024,0,0,1-9.892,10.153" transform="translate(545.136 -1628.162)" fill="#231f20"/><path d="M-507.378,1651.733a14.35,14.35,0,0,0-14.16-14.533,14.351,14.351,0,0,0-14.16,14.533,14.352,14.352,0,0,0,14.16,14.535,14.351,14.351,0,0,0,14.16-14.535" transform="translate(546.538 -1626.618)" fill="#fff"/><path d="M-515.473,1644.288s-8.978,10.952-9.032,11.034l2.93,2.125,9.032-11.2Zm-6.245,12.175-1.762-1.214.489-.644,1.827,1.2ZM-522.4,1654l7.042-8.68,1.72,1.195-7.151,8.736Z" transform="translate(548.669 -1625.047)"/><path d="M-523.535,1653.293c-.144-.333-1.076-.013-1.076-.013-2.669.275-3.046-3.421-3.046-3.421-.717-3.66-5.125-1.748-5.125-1.748-.44.162-.323.451-.323.451.1.331.861.286.861.286a2.289,2.289,0,0,1,2.293,2.519,3.886,3.886,0,0,0,.592,2.171c1.2,2.022,4.05.975,4.05.975,2.026-.59,1.775-1.219,1.775-1.219m-5.726-1.908c.175-2.538-1.626-2.952-1.626-2.952a2.473,2.473,0,0,1,2.728,2.621,3.255,3.255,0,0,0,2.083,2.732c-3.359.689-3.185-2.4-3.185-2.4" transform="translate(547.029 -1624.309)"/><path d="M-521.368,1636.325a15.421,15.421,0,0,0-15.217,15.618,15.421,15.421,0,0,0,15.217,15.617,15.42,15.42,0,0,0,15.216-15.617,15.42,15.42,0,0,0-15.216-15.618m0,1.474a13.965,13.965,0,0,1,13.78,14.145,14.317,14.317,0,0,1-2.861,8.624l-20.732-18.553a13.565,13.565,0,0,1,9.812-4.215m0,28.288a13.966,13.966,0,0,1-13.781-14.144,14.313,14.313,0,0,1,2.965-8.76l20.728,18.58a13.565,13.565,0,0,1-9.912,4.324" transform="translate(546.368 -1626.812)" fill="#da2128"/></g></svg>