<svg xmlns="http://www.w3.org/2000/svg" width="50" height="50" viewBox="0 0 50 50"><path d="M-705.747,1676.468h-26.092a12.115,12.115,0,0,1-11.954-12.271v-25.458a12.115,12.115,0,0,1,11.954-12.271h26.092a12.115,12.115,0,0,1,11.954,12.271V1664.2a12.115,12.115,0,0,1-11.954,12.271" transform="translate(743.793 -1626.468)" fill="#b6b6b6"/><path d="M-706.091,1674.017h-26.067a10.026,10.026,0,0,1-9.892-10.153V1638.32a10.025,10.025,0,0,1,9.892-10.152h26.067a10.025,10.025,0,0,1,9.892,10.152v25.544a10.026,10.026,0,0,1-9.892,10.153" transform="translate(744.125 -1626.092)" fill="#231f20"/><path d="M-728.1,1651.6v-5.953a1.985,1.985,0,0,1,1.82-2.215s1.821-.206,1.483-2.491a4.477,4.477,0,0,1-.606-2.907s.135-3.46,3.169-3.46c0,0,3.371-.346,3.371,4.015a9.023,9.023,0,0,1-1.753,5.4l-6.27,7.267a1.024,1.024,0,0,1-1.214.346" transform="translate(746.781 -1624.672)" fill="#da2128"/><path d="M-725.192,1649.226l5.716-5.883a1.978,1.978,0,0,1,2.05-.484s1.171.137,1.1,2.768v4.225s.586,1.935-3.516,1.866H-724.5s-1.344.165-1.674-.739c0,0-.186-.553.98-1.752" transform="translate(747.147 -1622.857)" fill="#da2128"/><path d="M-727.378,1651.68h11.855s3.49-.31,4.2,1.557c0,0,.911,1.767,0,2.285,0,0-.808.777-2.022-.935,0,0-.911-1.453-1.415.831l-1.669,4.2s-.355,1.609-2.326,1.04c0,0-1.264-.259-.758-1.921l.707-2.077s1.113-1.713-1.568-1.713h-2.379s-1.97.054-.756,1.868l1.213,1.868a1.735,1.735,0,0,1-.758,2.544s-1.618,1.042-2.63-1.348c-.455-.625-2.326-5.036-2.326-5.036s-.556-1.609-1.518-.051c0,0-.657,1.4-1.517.831,0,0-1.921-.831,0-2.906,0,0,1.017-1.248,3.669-1.04" transform="translate(746.058 -1620.881)" fill="#da2128"/></svg>