<svg xmlns="http://www.w3.org/2000/svg" width="18.192" height="14.64" viewBox="0 0 18.192 14.64">
  <path id="quote-before" d="M5.52-22.128a3.908,3.908,0,0,0,4.08-3.84A3.83,3.83,0,0,0,7.824-29.28l1.968-7.488H5.9L2.88-30.48c-1.008,2.112-1.392,3.216-1.392,4.464A3.849,3.849,0,0,0,5.52-22.128Zm9.84,0a3.88,3.88,0,0,0,4.08-3.84,3.83,3.83,0,0,0-1.776-3.312l2.016-7.488H15.792L12.72-30.48c-1.008,2.112-1.392,3.216-1.392,4.464A3.849,3.849,0,0,0,15.36-22.128Z" transform="translate(-1.488 36.768)" fill="#50b848"/>
</svg>
