<svg xmlns="http://www.w3.org/2000/svg" width="18.192" height="14.64" viewBox="0 0 18.192 14.64">
  <path id="quote-after" d="M15.648-36.768a3.908,3.908,0,0,0-4.08,3.84,3.83,3.83,0,0,0,1.776,3.312l-1.968,7.488h3.888l3.024-6.288c1.008-2.112,1.392-3.216,1.392-4.464A3.849,3.849,0,0,0,15.648-36.768Zm-9.84,0a3.88,3.88,0,0,0-4.08,3.84A3.83,3.83,0,0,0,3.5-29.616L1.488-22.128H5.376l3.072-6.288C9.456-30.528,9.84-31.632,9.84-32.88A3.849,3.849,0,0,0,5.808-36.768Z" transform="translate(-1.488 36.768)" fill="#50b848"/>
</svg>
