<svg xmlns="http://www.w3.org/2000/svg" width="41.772" height="40.697" viewBox="0 0 41.772 40.697"><g transform="translate(-456.049 -2055.702)"><path d="M-364.9,2012.509h-21.687a10.043,10.043,0,0,1-10.042-10.043v-20.611a10.042,10.042,0,0,1,10.042-10.043H-364.9a10.043,10.043,0,0,1,10.043,10.043v20.611a10.044,10.044,0,0,1-10.043,10.043" transform="translate(852.679 83.89)" fill="#b5b5b6"/><path d="M-364.9,2010.82h-21.686a8.31,8.31,0,0,1-8.308-8.31v-20.7a8.308,8.308,0,0,1,8.308-8.308H-364.9a8.308,8.308,0,0,1,8.31,8.308v20.7a8.31,8.31,0,0,1-8.31,8.31" transform="translate(852.679 83.89)" fill="#221f1f"/><path d="M-371.3,1987.862a1.225,1.225,0,0,1-.508-.754l-.426-1.1s-.313-.77-2.217-.784v-.142h-2.493v.148s-1.733-.172-2.27,1.113l-.559,1.224a.711.711,0,0,1-.586.337s-.46.068-.46.282c0,0-.1.2.277.368,0,0,.407.29.381.47,0,0-.183.015-.2.089v2.721s-.011.25.332.25h1.209s.209.023.187-.142c.008-.089,0-.343,0-.343a1.306,1.306,0,0,0,.508-.455h5a.6.6,0,0,0,.424.306v.44a.148.148,0,0,0,.15.2h1.314s.238.006.238-.188v-2.859s.016-.106-.2-.158l.545-.409a.3.3,0,0,0,.157-.286s-.038-.238-.806-.319m-7.914,1.837a.457.457,0,0,1-.457-.456.457.457,0,0,1,.457-.458.456.456,0,0,1,.457.458.457.457,0,0,1-.457.456m.277-1.823c-.459-.049-.067-.6-.067-.6l.4-.928c.19-.651,1.657-.6,1.657-.6h1.579c2.553-.067,2.531.481,2.531.481l.548,1.276c.157.358-.284.381-.284.381a30.248,30.248,0,0,1-6.367,0m6.755,1.823a.457.457,0,0,1-.457-.456.456.456,0,0,1,.457-.458.457.457,0,0,1,.457.458.457.457,0,0,1-.457.456" transform="translate(852.679 83.89)" fill="#50b848"/><path d="M-389.38,1999.721h1.977l2.544-3.383h-1.317Z" transform="translate(852.679 83.89)" fill="#fff"/><path d="M-385.277,1995.26h1.077l1.558-2.246h-.509Z" transform="translate(852.679 83.89)" fill="#fff"/><path d="M-382.434,1992.08h.569l.868-1.312-.179-.179Z" transform="translate(852.679 83.89)" fill="#fff"/><path d="M-362.11,1999.721h-1.976l-2.545-3.383h1.318Z" transform="translate(852.679 83.89)" fill="#fff"/><path d="M-366.212,1995.26h-1.078l-1.557-2.246h.509Z" transform="translate(852.679 83.89)" fill="#fff"/><path d="M-369.057,1992.08h-.568l-.869-1.312.179-.179Z" transform="translate(852.679 83.89)" fill="#fff"/></g></svg>