<svg xmlns="http://www.w3.org/2000/svg" width="41.772" height="40.697" viewBox="0 0 41.772 40.697"><g transform="translate(-504 -2055.702)"><path d="M-314.139,2007.863h-21.686a10.044,10.044,0,0,1-10.043-10.043v-20.611a10.043,10.043,0,0,1,10.043-10.043h21.686a10.042,10.042,0,0,1,10.043,10.043v20.611a10.043,10.043,0,0,1-10.043,10.043" transform="translate(849.868 88.536)" fill="#b5b5b6"/><g transform="translate(0)"><path d="M-314.139,2006.173h-21.686a8.31,8.31,0,0,1-8.309-8.309v-20.7a8.309,8.309,0,0,1,8.309-8.309h21.686a8.309,8.309,0,0,1,8.31,8.309v20.7a8.31,8.31,0,0,1-8.31,8.309" transform="translate(850.134 88.536)" fill="#221f1f"/><g transform="translate(0)"><path d="M-320.537,1986.434a1.216,1.216,0,0,1-.508-.754l-.426-1.1s-.313-.769-2.217-.784v-.142h-2.493v.149s-1.733-.172-2.27,1.113l-.56,1.224a.714.714,0,0,1-.586.336s-.459.067-.459.283c0,0-.1.2.277.367,0,0,.407.291.381.469,0,0-.183.016-.2.09v2.721s-.01.25.332.25h1.21s.209.022.187-.142c.008-.09,0-.342,0-.342a1.31,1.31,0,0,0,.508-.457h5a.6.6,0,0,0,.425.307v.441a.147.147,0,0,0,.15.2h1.313s.239.006.239-.189v-2.858s.015-.105-.2-.157l.545-.41a.3.3,0,0,0,.156-.285s-.037-.238-.8-.321m-7.914,1.839a.457.457,0,0,1-.457-.457.457.457,0,0,1,.457-.457.456.456,0,0,1,.457.457.457.457,0,0,1-.457.457m.277-1.823c-.459-.049-.067-.6-.067-.6l.4-.929c.19-.65,1.657-.6,1.657-.6h1.578c2.554-.067,2.532.482,2.532.482l.548,1.276c.157.358-.284.381-.284.381a30.415,30.415,0,0,1-6.367,0m6.755,1.823a.458.458,0,0,1-.458-.457.457.457,0,0,1,.458-.457.457.457,0,0,1,.457.457.457.457,0,0,1-.457.457" transform="translate(850.067 88.536)" fill="#50b848"/><text transform="translate(521 2070.881)" fill="#50b848" font-size="5.96" font-family="Anton-Regular, Anton"><tspan x="0" y="0">2.5</tspan></text></g><g transform="translate(0 -2)"><path d="M-340.244,2002.941h1.977l2.544-3.384h-1.317Z" transform="translate(851.244 88.536)" fill="#fff"/><path d="M-336.143,1998.479h1.078l1.558-2.245h-.51Z" transform="translate(851.244 88.536)" fill="#fff"/><path d="M-333.3,1995.3h.569l.868-1.312-.179-.179Z" transform="translate(851.244 88.536)" fill="#fff"/><path d="M-312.975,2002.941h-1.977l-2.544-3.384h1.317Z" transform="translate(851.244 88.536)" fill="#fff"/><path d="M-317.076,1998.479h-1.078l-1.558-2.245h.51Z" transform="translate(851.244 88.536)" fill="#fff"/><path d="M-319.921,1995.3h-.569l-.868-1.312.179-.179Z" transform="translate(851.244 88.536)" fill="#fff"/></g></g></g></svg>