<svg xmlns="http://www.w3.org/2000/svg" width="72.656" height="50.83" viewBox="0 0 72.656 50.83">
  <g id="company_cars" transform="translate(-1041.603 562.864)">
    <path id="Path_2832" data-name="Path 2832" d="M1114.238-554.013l-.373-1.718a.7.7,0,0,0-.649-.6h-4.227l-1.758-3.909a4.456,4.456,0,0,0-4.064-2.628H1084.04a4.456,4.456,0,0,0-4.064,2.628l-1.446,3.215a6.536,6.536,0,0,1,1.169.894l1.464-3.581a3.162,3.162,0,0,1,2.877-1.857h19.127a3.159,3.159,0,0,1,2.876,1.856l2.859,6.992c-4.823-.33-10.233-.37-15.3-.37-3.915,0-8.036.024-11.933.187l.894,1.988h12a7.259,7.259,0,0,1,6.611,4.276l1.707,3.795h4.087a2.6,2.6,0,0,1,2.51,2.113l.46,2.121a2.868,2.868,0,0,1-.411,2.2,2.542,2.542,0,0,1-1.609,1.093l-.206.049a4.616,4.616,0,0,1,.68,2.418v.058h3.477a1.081,1.081,0,0,0,1.081-1.081v-15.778a2.337,2.337,0,0,0-.844-1.8l-.911-.994,2.489-.59A.8.8,0,0,0,1114.238-554.013Zm-2.669,6.833-.055,1.7a.9.9,0,0,1-.865.868l-6.159.218a.547.547,0,0,1-.28-.067s-.818-1.882-.583-1.978l5.071-1.652a.893.893,0,0,1,.368-.066l1.634.052A.9.9,0,0,1,1111.569-547.18Z" fill="#323232"/>
    <path id="Path_2833" data-name="Path 2833" d="M1055.988-536.407a2.87,2.87,0,0,1-.412-2.2l.461-2.12a2.734,2.734,0,0,1,.82-1.447,2.5,2.5,0,0,1,1.689-.666h4.088l1.2-2.669c-5.419,0-11.148.059-16.279.41l3.176-7.767a3.512,3.512,0,0,1,3.2-2.064h21.252a3.513,3.513,0,0,1,3.191,2.051l.005.011.059.144.741,1.813h1.663l-.858-1.907-.285-.635a4.947,4.947,0,0,0-.654-1.068,4.951,4.951,0,0,0-3.173-1.805,4.916,4.916,0,0,0-.689-.048h-21.252a4.952,4.952,0,0,0-4.516,2.921l-1.954,4.343h-4.7a.78.78,0,0,0-.721.662l-.414,1.909a.887.887,0,0,0,.612,1.092l2.765.655-1.012,1.106a2.6,2.6,0,0,0-.938,2v17.531a1.2,1.2,0,0,0,1.2,1.2h4.117a1.2,1.2,0,0,0,1.2-1.2V-528.4h7.55v-4.446a4.617,4.617,0,0,1,.68-2.418l-.2-.049A2.545,2.545,0,0,1,1055.988-536.407Zm-3.219.48a.613.613,0,0,1-.311.074l-6.844-.242a1,1,0,0,1-.962-.965l-.06-1.887a1,1,0,0,1,.965-1.029l1.816-.059a1.006,1.006,0,0,1,.409.074l5.635,1.836C1053.678-538.019,1052.769-535.927,1052.769-535.927Z" fill="#323232"/>
    <path id="Path_2834" data-name="Path 2834" d="M1108.233-538.236l-.46-2.121a.867.867,0,0,0-.8-.736h-5.217l-2.171-4.826a5.5,5.5,0,0,0-5.018-3.245h-23.613a5.5,5.5,0,0,0-5.017,3.245l-2.171,4.826h-5.218a.867.867,0,0,0-.8.736l-.461,2.121a.985.985,0,0,0,.681,1.213l3.072.728-1.125,1.229a2.886,2.886,0,0,0-1.041,2.219v19.479a1.334,1.334,0,0,0,1.334,1.334h4.575a1.334,1.334,0,0,0,1.334-1.334v-4.714h33.29v4.714a1.334,1.334,0,0,0,1.334,1.334h4.575a1.334,1.334,0,0,0,1.334-1.334v-19.479a2.884,2.884,0,0,0-1.042-2.219l-1.124-1.229,3.072-.728A.984.984,0,0,0,1108.233-538.236Zm-38.569,11.791a.669.669,0,0,1-.345.082l-7.6-.268a1.108,1.108,0,0,1-1.069-1.072l-.067-2.1a1.11,1.11,0,0,1,1.073-1.144l2.017-.064a1.107,1.107,0,0,1,.455.082l6.26,2.039C1070.675-528.768,1069.664-526.445,1069.664-526.445Zm-5.793-10.191,3.529-8.631a3.9,3.9,0,0,1,3.552-2.293h23.613a3.9,3.9,0,0,1,3.552,2.291l3.529,8.633c-5.954-.408-12.633-.457-18.887-.457S1069.826-537.044,1063.871-536.636Zm41.068,6.836-.068,2.1a1.106,1.106,0,0,1-1.068,1.072l-7.6.268a.666.666,0,0,1-.344-.082s-1.011-2.323-.72-2.442l6.26-2.039a1.1,1.1,0,0,1,.454-.082l2.018.064A1.11,1.11,0,0,1,1104.939-529.8Z" fill="#323232"/>
  </g>
</svg>
