<svg xmlns="http://www.w3.org/2000/svg" width="50.957" height="50.83" viewBox="0 0 50.957 50.83">
  <g id="leased_vehicles" transform="translate(-836.768 702.663)">
    <path id="Path_2828" data-name="Path 2828" d="M850.5-653.785,838.707-665.3a.363.363,0,0,1-.11-.262v-.2h11.534a.367.367,0,0,1,.365.367v11.607Zm-8.517-26.706h27.225a.914.914,0,0,1,.915.913.916.916,0,0,1-.915.916H841.98a.916.916,0,0,1-.915-.916.914.914,0,0,1,.915-.913Zm0-8.782h27.225a.914.914,0,0,1,.915.913.916.916,0,0,1-.915.916H841.98a.916.916,0,0,1-.915-.916.914.914,0,0,1,.915-.913Zm0-4.392h4.94a.914.914,0,0,1,.914.916.914.914,0,0,1-.914.913h-4.94a.915.915,0,0,1-.915-.913.915.915,0,0,1,.915-.916Zm28.14.916a.915.915,0,0,1-.915.913h-18a.915.915,0,0,1-.915-.913.915.915,0,0,1,.915-.916h18a.915.915,0,0,1,.915.916Zm-28.14-5.308h27.225a.916.916,0,0,1,.915.916.916.916,0,0,1-.915.916H841.98a.916.916,0,0,1-.915-.916.916.916,0,0,1,.915-.916Zm27.917,38.9-1.537,1.337a2.566,2.566,0,0,1-.729.449H869.4a.913.913,0,0,1,.915.914.914.914,0,0,1-.915.916h-6.3a1.722,1.722,0,0,1-1.657-1.228l-1.107-3.659-1.254,2.657a1.738,1.738,0,0,1-1.564.991h-1.928a.916.916,0,0,1-.914-.916.915.915,0,0,1,.914-.914h1.865l1.336-2.832a1.719,1.719,0,0,1,1.691-.987,1.717,1.717,0,0,1,1.529,1.224l1.162,3.834h2.553a2.561,2.561,0,0,1-.882-.588,2.529,2.529,0,0,1-.729-1.838l.04-2.157a10.5,10.5,0,0,1,.854-3.968l.058-.136,3.827-8.208H841.98a.915.915,0,0,1-.915-.913.916.916,0,0,1,.915-.916h27.225a.907.907,0,0,1,.479.136l1.181-2.533,3.553-8.771v-13.137a2.257,2.257,0,0,0-2.255-2.257H839.022a2.256,2.256,0,0,0-2.254,2.257v34.846a2.2,2.2,0,0,0,.662,1.572l11.806,11.531a2.2,2.2,0,0,0,1.534.624h21.394a2.255,2.255,0,0,0,2.255-2.255v-12.584l-1.909,4.055a10.5,10.5,0,0,1-2.613,3.456Z" transform="translate(0 0)" fill="#323232"/>
    <path id="Path_2829" data-name="Path 2829" d="M881.781-651.99l4.159,1.938,5.031-10.793-4.159-1.939-5.031,10.794Z" transform="translate(-15.042 -13.326)" fill="#323232"/>
    <path id="Path_2830" data-name="Path 2830" d="M881.8-639.614l2.916-2.54-4.057-1.89-.071,3.866a.732.732,0,0,0,1.212.565Z" transform="translate(-14.644 -19.589)" fill="#323232"/>
    <path id="Path_2831" data-name="Path 2831" d="M904.453-692.516a3.336,3.336,0,0,0-1.827-3.836v0a3.338,3.338,0,0,0-4.5,1.772L890.5-675.765l4.159,1.939,8.949-16.887c.3.558.537,1.765-.783,3.993-2.578,4.354-3.714,6.983-3.68,8.523a.915.915,0,0,0,.915.895h.021a.916.916,0,0,0,.894-.936c-.017-.777.563-2.718,3.425-7.549,2.519-4.251.65-6.24.055-6.728Z" transform="translate(-17.955 -2.004)" fill="#323232"/>
  </g>
</svg>
