<svg xmlns="http://www.w3.org/2000/svg" width="74.799" height="51.425" viewBox="0 0 74.799 51.425">
  <g id="private_cars" transform="translate(-1045.286 323.178)">
    <g id="Group_4097" data-name="Group 4097" transform="translate(1045.286 -323.178)">
      <g id="Group_4096" data-name="Group 4096">
        <path id="Path_2835" data-name="Path 2835" d="M1063.5-285.451a43.7,43.7,0,0,1-13.048-11.752c2.934-4.054,13.726-16.946,32.237-16.946a38.026,38.026,0,0,1,8.543.964l3.854-3.855a43.109,43.109,0,0,0-12.4-1.784c-24.564,0-36.568,19.588-37.067,20.421a2.335,2.335,0,0,0,0,2.4,46.032,46.032,0,0,0,14.414,14.014Z" transform="translate(-1045.286 322.914)" fill="#323232"/>
        <path id="Path_2836" data-name="Path 2836" d="M1121.365-297.989A46.068,46.068,0,0,0,1106.948-312l-3.464,3.464a43.729,43.729,0,0,1,13.049,11.751c-2.933,4.055-13.725,16.947-32.238,16.947a38.045,38.045,0,0,1-8.545-.964l-3.854,3.854a43.1,43.1,0,0,0,12.4,1.785c24.563,0,36.568-19.588,37.069-20.421A2.341,2.341,0,0,0,1121.365-297.989Z" transform="translate(-1046.897 322.501)" fill="#323232"/>
        <path id="Path_2837" data-name="Path 2837" d="M1070.167-296.713a13.97,13.97,0,0,0,1.11,5.477l18.391-18.392a13.982,13.982,0,0,0-5.476-1.11A14.024,14.024,0,0,0,1070.167-296.713Z" transform="translate(-1046.792 322.425)" fill="#323232"/>
        <path id="Path_2838" data-name="Path 2838" d="M1084.742-282.137a14.025,14.025,0,0,0,14.025-14.025,13.993,13.993,0,0,0-1.111-5.477l-18.392,18.392A13.971,13.971,0,0,0,1084.742-282.137Z" transform="translate(-1047.343 321.874)" fill="#323232"/>
        <path id="Path_2839" data-name="Path 2839" d="M1108.464-319.187a2.337,2.337,0,0,0,0-3.306,2.326,2.326,0,0,0-1.652-.685,2.333,2.333,0,0,0-1.653.685l-46.749,46.749a2.339,2.339,0,0,0,0,3.306,2.333,2.333,0,0,0,1.653.685,2.324,2.324,0,0,0,1.652-.685Z" transform="translate(-1046.039 323.178)" fill="#323232"/>
      </g>
    </g>
  </g>
</svg>
