<svg xmlns="http://www.w3.org/2000/svg" width="43.729" height="60.308" viewBox="0 0 43.729 60.308">
  <g id="rental_cars" transform="translate(-1122 -13724)">
    <path id="Path_2827" data-name="Path 2827" d="M654.45-316.25l9.034,6.927a2.966,2.966,0,0,1,.546,4.14,2.953,2.953,0,0,1-4.13.546l-6.39-4.894Zm-25.924,34.871a2.175,2.175,0,0,1,1.671,2.589,2.182,2.182,0,0,1-2.589,1.682,2.194,2.194,0,0,1-1.683-2.6,2.179,2.179,0,0,1,2.6-1.671Zm6.861-21.631-4.555,21.281a3.62,3.62,0,0,0-1.989-1.147,3.708,3.708,0,0,0-4.413,2.851l-.928-.2a3.3,3.3,0,0,1-2.524-3.9l2.753-12.815a3.3,3.3,0,0,1,3.89-2.523l5.211,1.125,1.093-5.113a2.978,2.978,0,0,1-1.268-3.376l2.961-9.657a5.452,5.452,0,0,1,2.578-3.1l5.768-3.038a11.9,11.9,0,0,1,4.369-1.747,4.772,4.772,0,0,1,4.949,5.44l-2.043,14.53a2.485,2.485,0,0,0,1.027,2.676l4.555,3.933a5.5,5.5,0,0,1,1.825,3.605l.994,13.306a3.563,3.563,0,0,1-3.278,3.8,3.558,3.558,0,0,1-3.813-3.277l-.928-12.542-7.418-6.368c-2.272-1.945-2.84-3.9-2.414-6.96l1.3-9.274-1.912,1.005-2.884,9.406a2.94,2.94,0,0,1-2.906,2.075Zm15.7-34.357a5.676,5.676,0,0,1,5.68,5.681,5.676,5.676,0,0,1-5.68,5.68,5.683,5.683,0,0,1-5.681-5.68,5.683,5.683,0,0,1,5.681-5.681Zm-12.793,60.139a3.573,3.573,0,0,0,4.468-2.294l4.785-14.857-4.337-3.725a10.821,10.821,0,0,1-1.453-1.486L636-281.7a3.573,3.573,0,0,0,2.294,4.468Z" transform="translate(501.094 14061.367)" fill="#323232" fill-rule="evenodd"/>
  </g>
</svg>
