<svg xmlns="http://www.w3.org/2000/svg" width="69.28" height="51.02" viewBox="0 0 69.28 51.02">
  <g id="sub_contracted_fleets" transform="translate(-609.629 562.844)">
    <path id="Path_2844" data-name="Path 2844" d="M621.193-562.844h-6.436l4.7,12.291-9.831,13.37h6.436l9.832-13.37Z" transform="translate(0 0)" fill="#323232"/>
    <path id="Path_2845" data-name="Path 2845" d="M634.571-562.844h-6.436l4.7,12.291-9.831,13.37h6.436l9.831-13.37Z" transform="translate(-0.738 0)" fill="#323232"/>
    <g id="Group_4100" data-name="Group 4100" transform="translate(611.215 -562.844)">
      <path id="Path_2846" data-name="Path 2846" d="M652.8-537.182l4.525-25.661h-15.81l4.7,12.291-9.832,13.37Z" transform="translate(-612.692 562.844)" fill="#323232"/>
      <path id="Path_2847" data-name="Path 2847" d="M679.562-541.938l.115-9.64H679a8.586,8.586,0,0,0-.586-2.224c-1.041-1.55-4.017-1.686-4.017-1.686-6.1-5.932-15.093-4.63-15.093-4.63l-.674,3.821h9.775a.659.659,0,0,1,.666.809H658.491l-3.708,21.033-15.4.045c-.439-1.078-1.138-.944-1.138-.944h-9.707l-2.232,1.438h-1a.516.516,0,0,0-.488.416l-1.269,7.191a.34.34,0,0,0,.343.416h1.4a4.328,4.328,0,0,0,4.315,3.079,6.642,6.642,0,0,0,5.4-3.079h24.75a4.328,4.328,0,0,0,4.315,3.079,6.642,6.642,0,0,0,5.4-3.079H676.4a1.51,1.51,0,0,0,1.427-1.213l.963-5.461h-2.943l-.35-2.607h2.876Zm-45.98,13.753a3.773,3.773,0,0,1-3.565,3.03,2.473,2.473,0,0,1-2.5-3.03,3.771,3.771,0,0,1,3.564-3.03A2.473,2.473,0,0,1,633.583-528.185Zm34.464,0a3.772,3.772,0,0,1-3.565,3.03,2.473,2.473,0,0,1-2.5-3.03,3.771,3.771,0,0,1,3.564-3.03A2.473,2.473,0,0,1,668.047-528.185Zm-.128-15.134a.461.461,0,0,1-.437.37h-2.157a.3.3,0,0,1-.305-.37l1.125-6.382a.462.462,0,0,1,.436-.37h2.157a.3.3,0,0,1,.305.37Zm9.641,1.562h-2.047a.79.79,0,0,1-.506-.173l-.973-.8a.789.789,0,0,0-.506-.173h-4.659a.266.266,0,0,1-.268-.325l1.15-6.518a.4.4,0,0,1,.383-.325h8.014a.474.474,0,0,1,.488.535l-.688,7.427A.4.4,0,0,1,677.559-541.757Z" transform="translate(-611.983 562.7)" fill="#323232"/>
      <path id="Path_2848" data-name="Path 2848" d="M614.536-509.373l61.716-9.045H611.308S626.02-515.139,614.536-509.373Z" transform="translate(-611.308 560.392)" fill="#323232"/>
    </g>
    <g id="Group_4101" data-name="Group 4101" transform="translate(611.215 -562.844)" opacity="0.4" style="mix-blend-mode: overlay;isolation: isolate">
      <path id="Path_2849" data-name="Path 2849" d="M652.8-537.183l4.525-25.661H641.513l4.7,12.291-9.832,13.37Zm-6.38-13.448-4.592-12h15.24L652.617-537.4H636.811l9.579-13.027.07-.094Z" transform="translate(-612.692 562.844)" fill="#323232"/>
      <path id="Path_2850" data-name="Path 2850" d="M667.781-529.748A4,4,0,0,0,664-526.54a2.808,2.808,0,0,0,.571,2.336,2.727,2.727,0,0,0,2.137.948,4,4,0,0,0,3.777-3.208,2.809,2.809,0,0,0-.571-2.336A2.729,2.729,0,0,0,667.781-529.748Zm2.5,3.245a3.772,3.772,0,0,1-3.565,3.03,2.473,2.473,0,0,1-2.5-3.03,3.771,3.771,0,0,1,3.564-3.03A2.473,2.473,0,0,1,670.277-526.5Z" transform="translate(-614.213 561.018)" fill="#323232"/>
      <path id="Path_2851" data-name="Path 2851" d="M679.562-541.938l.115-9.64H679a8.586,8.586,0,0,0-.586-2.224c-1.041-1.55-4.017-1.686-4.017-1.686-4.237-4.121-9.872-4.75-12.918-4.75a16.842,16.842,0,0,0-2.176.121l-.674,3.821h9.775a.659.659,0,0,1,.666.809H658.491l-3.708,21.033-15.4.045c-.351-.863-.868-.95-1.061-.95a.43.43,0,0,0-.077.006h-9.707l-2.232,1.438h-1a.516.516,0,0,0-.488.416l-1.269,7.191a.34.34,0,0,0,.343.416h1.4a4.328,4.328,0,0,0,4.315,3.079,6.642,6.642,0,0,0,5.4-3.079h24.75a4.328,4.328,0,0,0,4.315,3.079,6.642,6.642,0,0,0,5.4-3.079H676.4a1.51,1.51,0,0,0,1.427-1.213l.963-5.461h-2.943l-.35-2.607h2.876Zm-4.069,6.549h-.247l.033.245.35,2.607.025.187h2.875l-.917,5.207a1.29,1.29,0,0,1-1.215,1.036h-7.044l-.063.1a6.758,6.758,0,0,1-2.266,2.152,5.918,5.918,0,0,1-2.953.828,4.424,4.424,0,0,1-2.633-.815,3.983,3.983,0,0,1-1.475-2.109l-.046-.154H634.888l-.063.1a6.758,6.758,0,0,1-2.266,2.152,5.918,5.918,0,0,1-2.953.828,4.422,4.422,0,0,1-2.633-.815,3.983,3.983,0,0,1-1.475-2.109l-.046-.154h-1.56a.132.132,0,0,1-.1-.042.145.145,0,0,1-.026-.12l1.268-7.191a.3.3,0,0,1,.277-.237h1.064l.053-.035,2.178-1.4h9.661l.023,0a.235.235,0,0,1,.037,0c.159,0,.561.079.861.814l.055.135h.145l15.4-.044h.18l.031-.178,3.677-20.855h10.584l.031-.178a.9.9,0,0,0-.187-.753.884.884,0,0,0-.692-.31h-9.518l.6-3.41a18.4,18.4,0,0,1,1.991-.1c2.968,0,8.572.609,12.767,4.69l.059.057.082,0c.028,0,2.857.147,3.836,1.573a8.28,8.28,0,0,1,.561,2.139l.016.2h.655l-.112,9.4-1.158,6.568Z" transform="translate(-611.983 562.7)" fill="#323232"/>
      <path id="Path_2852" data-name="Path 2852" d="M667.734-542.151h2.157a.678.678,0,0,0,.649-.55l1.125-6.381a.537.537,0,0,0-.112-.44.524.524,0,0,0-.406-.184h-2.157a.678.678,0,0,0-.649.55l-1.125,6.381a.537.537,0,0,0,.112.44A.524.524,0,0,0,667.734-542.151Zm-.305-.587,1.125-6.382a.462.462,0,0,1,.436-.37h2.157a.3.3,0,0,1,.305.37l-1.125,6.382a.461.461,0,0,1-.437.37h-2.157A.3.3,0,0,1,667.429-542.738Z" transform="translate(-614.393 562.119)" fill="#323232"/>
      <path id="Path_2853" data-name="Path 2853" d="M680.764-549.707H672.75a.621.621,0,0,0-.6.5l-1.149,6.518a.5.5,0,0,0,.1.408.49.49,0,0,0,.377.17h4.659a.57.57,0,0,1,.369.124l.973.8a1,1,0,0,0,.643.222h2.047a.616.616,0,0,0,.6-.548l.687-7.427a.7.7,0,0,0-.175-.546A.7.7,0,0,0,680.764-549.707Zm.488.751-.688,7.427a.4.4,0,0,1-.385.352H678.13a.79.79,0,0,1-.506-.173l-.973-.8a.789.789,0,0,0-.506-.173h-4.659a.266.266,0,0,1-.268-.325l1.15-6.518a.4.4,0,0,1,.383-.325h8.014A.474.474,0,0,1,681.251-548.956Z" transform="translate(-614.602 562.119)" fill="#323232"/>
      <path id="Path_2854" data-name="Path 2854" d="M631.3-529.748a4,4,0,0,0-3.776,3.208,2.8,2.8,0,0,0,.571,2.336,2.727,2.727,0,0,0,2.137.948,4,4,0,0,0,3.777-3.208,2.809,2.809,0,0,0-.571-2.336A2.728,2.728,0,0,0,631.3-529.748Zm2.5,3.245a3.773,3.773,0,0,1-3.565,3.03,2.473,2.473,0,0,1-2.5-3.03,3.771,3.771,0,0,1,3.564-3.03A2.473,2.473,0,0,1,633.8-526.5Z" transform="translate(-612.2 561.018)" fill="#323232"/>
      <path id="Path_2855" data-name="Path 2855" d="M614.536-509.373l61.716-9.045H611.308S626.02-515.139,614.536-509.373Zm1.189-.392a10.449,10.449,0,0,0,2.5-1.877,2.824,2.824,0,0,0,.894-2.239c-.272-2.2-3.991-3.65-6.185-4.321h60.357Z" transform="translate(-611.308 560.393)" fill="#323232"/>
    </g>
    <g id="Group_4102" data-name="Group 4102" transform="translate(614.758 -562.844)" opacity="0.1" style="mix-blend-mode: overlay;isolation: isolate">
      <path id="Path_2856" data-name="Path 2856" d="M615.057-562.844l4.7,12.291,5.013,1.935,1.423-1.935-4.7-12.291Z" transform="translate(-615.057 562.844)" fill="#323232"/>
      <path id="Path_2857" data-name="Path 2857" d="M628.435-562.844l4.7,12.291-2.795,3.8,5.013,1.935,4.218-5.736-4.7-12.291Z" transform="translate(-615.795 562.844)" fill="#323232"/>
      <path id="Path_2858" data-name="Path 2858" d="M641.761-562.844l4.7,12.291-5.59,7.6,12.348,4.767,4.348-24.659Z" transform="translate(-616.482 562.844)" fill="#323232"/>
      <path id="Path_2859" data-name="Path 2859" d="M681.412-541.938l.115-9.64h-.674a8.586,8.586,0,0,0-.586-2.224c-1.041-1.55-4.017-1.686-4.017-1.686-6.1-5.932-15.093-4.63-15.093-4.63l-.674,3.821h9.775a.659.659,0,0,1,.666.809H660.341L657.064-536.9l22.58,8.717.266-.269.725-4.113h-2.943l-.35-2.607h2.876Zm-12.08-1.011h-2.157a.3.3,0,0,1-.305-.37l1.125-6.382a.462.462,0,0,1,.436-.37h2.157a.3.3,0,0,1,.305.37l-1.125,6.382A.461.461,0,0,1,669.332-542.949Zm10.077,1.191h-2.047a.79.79,0,0,1-.506-.173l-.973-.8a.789.789,0,0,0-.506-.173h-4.659a.266.266,0,0,1-.268-.325l1.15-6.518a.4.4,0,0,1,.383-.325h8.014a.474.474,0,0,1,.488.535l-.688,7.427A.4.4,0,0,1,679.409-541.757Z" transform="translate(-617.375 562.7)" fill="#323232"/>
    </g>
  </g>
</svg>
